<svg width="25.9999988mm" height="35.00000366mm" viewBox="0 0 10236220 13779529"  version="1.1" xmlns="http://www.w3.org/2000/svg" xmlns:xlink="http://www.w3.org/1999/xlink">
<desc>
Origin 20708662 43307087 Bound 15590552 29527559 10236220 13779529
</desc>
<g fill-rule="evenodd" fill="rgb(0, 128, 0)" stroke="black" stroke-width="1" transform="translate(0, 13779529) scale(1, -1) translate(-15590552, -29527559)">
<path id="N" d="M 24536550.00 41929132.00 A 276404.15 276404.15 0 0 1 24812991.00 41652864.00 L 25747353.00 41652865.00 L 25747353.00 29606978.00 L 21534498.82 29606978.00 L 21522457.00 29689433.00 L 21502672.00 29768419.00 A 829793.76 829793.76 0 0 1 20067266.00 30053939.00 L 20027261.64 30000000.00 L 20000000.00 30000000.00 L 20000000.00 29957238.07 L 19976898.00 29918695.00 A 829793.76 829793.76 0 0 1 19894867.00 29689433.00 L 19882825.18 29606978.00 L 15669971.00 29606978.00 L 15669971.00 41652865.00 L 16604339.00 41652692.00 A 276391.61 276391.61 0 0 1 16880601.00 41929137.00 L 16880600.00 43110237.00 L 22804439.00 43110237.00 L 22804144.00 42165338.00 A 315878.18 315878.18 0 1 1 23435717.00 42165357.00 L 23435717.00 43110237.00 L 24536722.00 43110237.00 L 24536550.00 41929132.00  zM 17165351.71 31929162.20 m -118653.80 0 a 118653.80 118653.80 0 1 1 237307.61 0a 118653.80 118653.80 0 1 1 -237307.61 0M 17559050.71 31929162.20 m -118653.80 0 a 118653.80 118653.80 0 1 1 237307.61 0a 118653.80 118653.80 0 1 1 -237307.61 0M 17952750.71 31929162.20 m -118653.80 0 a 118653.80 118653.80 0 1 1 237307.61 0a 118653.80 118653.80 0 1 1 -237307.61 0M 18346449.71 31929162.20 m -118653.80 0 a 118653.80 118653.80 0 1 1 237307.61 0a 118653.80 118653.80 0 1 1 -237307.61 0M 17470465.71 35974436.20 m -118653.80 0 a 118653.80 118653.80 0 1 1 237307.61 0a 118653.80 118653.80 0 1 1 -237307.61 0M 17962591.71 35974436.20 m -118653.80 0 a 118653.80 118653.80 0 1 1 237307.61 0a 118653.80 118653.80 0 1 1 -237307.61 0M 18809047.71 36092546.20 m -118653.80 0 a 118653.80 118653.80 0 1 1 237307.61 0a 118653.80 118653.80 0 1 1 -237307.61 0M 21023617.71 32440972.20 m -118653.80 0 a 118653.80 118653.80 0 1 1 237307.61 0a 118653.80 118653.80 0 1 1 -237307.61 0M 20708656.71 32795303.20 m -118653.80 0 a 118653.80 118653.80 0 1 1 237307.61 0a 118653.80 118653.80 0 1 1 -237307.61 0M 19163378.71 36092546.20 m -118653.80 0 a 118653.80 118653.80 0 1 1 237307.61 0a 118653.80 118653.80 0 1 1 -237307.61 0M 21338577.71 32795303.20 m -118653.80 0 a 118653.80 118653.80 0 1 1 237307.61 0a 118653.80 118653.80 0 1 1 -237307.61 0M 22942916.71 35974436.20 m -118653.80 0 a 118653.80 118653.80 0 1 1 237307.61 0a 118653.80 118653.80 0 1 1 -237307.61 0M 22450790.71 35974437.20 m -118653.80 0 a 118653.80 118653.80 0 1 1 237307.61 0a 118653.80 118653.80 0 1 1 -237307.61 0M 23415349.71 32391761.20 m -118653.80 0 a 118653.80 118653.80 0 1 1 237307.61 0a 118653.80 118653.80 0 1 1 -237307.61 0M 23907475.71 32391762.20 m -118653.80 0 a 118653.80 118653.80 0 1 1 237307.61 0a 118653.80 118653.80 0 1 1 -237307.61 0M 25108268.00 32628525.00 A 118653.80 118653.80 0 1 1 25131422.00 32626245.00 L 25108268.00 32628525.00  zM 24753931.71 32509871.20 m -118653.80 0 a 118653.80 118653.80 0 1 1 237307.61 0a 118653.80 118653.80 0 1 1 -237307.61 0M 23415349.71 34173256.20 m -118653.80 0 a 118653.80 118653.80 0 1 1 237307.61 0a 118653.80 118653.80 0 1 1 -237307.61 0M 23907475.71 34173256.20 m -118653.80 0 a 118653.80 118653.80 0 1 1 237307.61 0a 118653.80 118653.80 0 1 1 -237307.61 0M 23435042.71 35974436.20 m -118653.80 0 a 118653.80 118653.80 0 1 1 237307.61 0a 118653.80 118653.80 0 1 1 -237307.61 0M 23435042.71 37579832.20 m -118653.80 0 a 118653.80 118653.80 0 1 1 237307.61 0a 118653.80 118653.80 0 1 1 -237307.61 0M 23927168.71 37579832.20 m -118653.80 0 a 118653.80 118653.80 0 1 1 237307.61 0a 118653.80 118653.80 0 1 1 -237307.61 0M 23927168.71 35974437.20 m -118653.80 0 a 118653.80 118653.80 0 1 1 237307.61 0a 118653.80 118653.80 0 1 1 -237307.61 0M 24773624.71 36092546.20 m -118653.80 0 a 118653.80 118653.80 0 1 1 237307.61 0a 118653.80 118653.80 0 1 1 -237307.61 0M 25127955.71 36092546.20 m -118653.80 0 a 118653.80 118653.80 0 1 1 237307.61 0a 118653.80 118653.80 0 1 1 -237307.61 0M 16023621.71 39173256.20 m -118653.80 0 a 118653.80 118653.80 0 1 1 237307.61 0a 118653.80 118653.80 0 1 1 -237307.61 0M 16377947.71 39803175.20 m -118653.80 0 a 118653.80 118653.80 0 1 1 237307.61 0a 118653.80 118653.80 0 1 1 -237307.61 0M 16023617.71 39803177.20 m -118653.80 0 a 118653.80 118653.80 0 1 1 237307.61 0a 118653.80 118653.80 0 1 1 -237307.61 0M 16377947.71 39173256.20 m -118653.80 0 a 118653.80 118653.80 0 1 1 237307.61 0a 118653.80 118653.80 0 1 1 -237307.61 0M 17470473.71 39832704.20 m -118653.80 0 a 118653.80 118653.80 0 1 1 237307.61 0a 118653.80 118653.80 0 1 1 -237307.61 0M 17962599.71 39832704.20 m -118653.80 0 a 118653.80 118653.80 0 1 1 237307.61 0a 118653.80 118653.80 0 1 1 -237307.61 0M 18809061.00 40069468.00 A 118653.80 118653.80 0 1 1 18832215.00 40067188.00 L 18809061.00 40069468.00  zM 19163392.00 40069468.00 A 118653.80 118653.80 0 1 1 19186546.00 40067188.00 L 19163392.00 40069468.00  zM 18740152.71 41574831.20 m -118653.80 0 a 118653.80 118653.80 0 1 1 237307.61 0a 118653.80 118653.80 0 1 1 -237307.61 0M 20433066.71 40629947.20 m -118653.80 0 a 118653.80 118653.80 0 1 1 237307.61 0a 118653.80 118653.80 0 1 1 -237307.61 0M 20236215.71 40826799.20 m -118653.80 0 a 118653.80 118653.80 0 1 1 237307.61 0a 118653.80 118653.80 0 1 1 -237307.61 0M 21023617.71 40787429.20 m -118653.80 0 a 118653.80 118653.80 0 1 1 237307.61 0a 118653.80 118653.80 0 1 1 -237307.61 0M 22165349.71 39921287.20 m -118653.80 0 a 118653.80 118653.80 0 1 1 237307.61 0a 118653.80 118653.80 0 1 1 -237307.61 0M 22559050.71 39921287.20 m -118653.80 0 a 118653.80 118653.80 0 1 1 237307.61 0a 118653.80 118653.80 0 1 1 -237307.61 0M 22401569.71 40748059.20 m -118653.80 0 a 118653.80 118653.80 0 1 1 237307.61 0a 118653.80 118653.80 0 1 1 -237307.61 0M 22047239.71 40748059.20 m -118653.80 0 a 118653.80 118653.80 0 1 1 237307.61 0a 118653.80 118653.80 0 1 1 -237307.61 0M 21771648.71 41220500.20 m -118653.80 0 a 118653.80 118653.80 0 1 1 237307.61 0a 118653.80 118653.80 0 1 1 -237307.61 0M 22086609.71 41220500.20 m -118653.80 0 a 118653.80 118653.80 0 1 1 237307.61 0a 118653.80 118653.80 0 1 1 -237307.61 0M 23454718.71 39832706.20 m -118653.80 0 a 118653.80 118653.80 0 1 1 237307.61 0a 118653.80 118653.80 0 1 1 -237307.61 0M 23946844.71 39832709.20 m -118653.80 0 a 118653.80 118653.80 0 1 1 237307.61 0a 118653.80 118653.80 0 1 1 -237307.61 0M 23454719.71 41496073.20 m -118653.80 0 a 118653.80 118653.80 0 1 1 237307.61 0a 118653.80 118653.80 0 1 1 -237307.61 0M 24919550.00 39983784.00 L 24914630.50 40000000.00 L 24901829.00 40026566.00 A 118717.14 118717.14 0 1 1 24919550.00 39983784.00  zM 25264038.00 39983784.00 L 25259118.50 40000000.00 L 25246317.00 40026566.00 A 118717.14 118717.14 0 1 1 25264038.00 39983784.00  zM 23946845.71 41496073.20 m -118653.80 0 a 118653.80 118653.80 0 1 1 237307.61 0a 118653.80 118653.80 0 1 1 -237307.61 0"/>
</g>
</svg>
