<svg width="25.9999988mm" height="35.00000366mm" viewBox="0 0 10236220 13779529"  version="1.1" xmlns="http://www.w3.org/2000/svg" xmlns:xlink="http://www.w3.org/1999/xlink">
<desc>
Origin 20708662 43307087 Bound 15590552 29527559 10236220 13779529
</desc>
<g fill-rule="evenodd" fill="rgb(188, 142, 0)" stroke="black" stroke-width="1" transform="translate(0, 13779529) scale(1, -1) translate(-15590552, -29527559)">
<path id="N" d="M 16470667.00 39764745.00 L 16463999.13 39754765.87 L 16711746.00 39507019.00 L 16719547.00 39488187.00 L 16719547.00 34932291.00 L 18365287.00 33286551.00 L 18373088.00 33267719.00 L 18373088.00 32024190.25 L 18384858.00 32021849.00 A 100354.75 100354.75 0 1 0 18308052.00 32021849.00 L 18319822.00 32024190.25 L 18319822.00 33256688.00 L 16674082.00 34902428.00 L 16666281.00 34921260.00 L 16666281.00 39477156.00 L 16426335.13 39717101.87 L 16416356.00 39710434.00 A 100349.83 100349.83 0 1 0 16470667.00 39764745.00  z"/>
<path id="N" d="M 23473451.00 37487091.00 L 23461681.00 37484749.75 L 23461681.00 36069464.25 L 23473451.00 36067123.00 A 100354.75 100354.75 0 1 0 23396645.00 36067123.00 L 23408415.00 36069464.25 L 23408415.00 37484749.75 L 23396645.00 37487091.00 A 100354.75 100354.75 0 1 0 23473451.00 37487091.00  z"/>
<path id="N" d="M 20394669.00 40537206.00 L 20384689.87 40543873.87 L 17034508.00 37193692.00 L 17034508.00 35815642.00 L 20382572.00 32467578.00 L 20928567.75 32467578.00 L 20930909.00 32479348.00 A 100354.75 100354.75 0 1 0 20930909.00 32402542.00 L 20928567.75 32414312.00 L 20371541.00 32414312.00 L 20352709.00 32422113.00 L 16989043.00 35785779.00 L 16981242.00 35804611.00 L 16981242.00 37204723.00 L 16989043.00 37223555.00 L 20347025.87 40581537.87 L 20340358.00 40591517.00 A 100349.83 100349.83 0 1 0 20394669.00 40537206.00  z"/>
<path id="N" d="M 22597459.00 39828546.00 L 22585689.00 39826204.75 L 22585689.00 38101580.02 L 22961755.00 37725515.00 L 22969555.00 37706683.00 L 22969555.00 36069464.25 L 22981325.00 36067123.00 A 100354.75 100354.75 0 1 0 22904519.00 36067123.00 L 22916289.00 36069464.25 L 22916289.00 37695651.02 L 22540224.00 38071717.00 L 22532423.00 38090549.00 L 22532423.00 39826204.75 L 22520653.00 39828546.00 A 100354.75 100354.75 0 1 0 22597459.00 39828546.00  z"/>
<path id="N" d="M 23985254.00 41403332.00 L 23973483.00 41400990.55 L 23973483.00 39927737.25 L 23985253.00 39925396.00 A 100354.75 100354.75 0 1 0 23908447.00 39925396.00 L 23920217.00 39927737.25 L 23920217.00 41400990.95 L 23908448.00 41403332.00 A 100354.75 100354.75 0 1 0 23985254.00 41403332.00  z"/>
<path id="N" d="M 22203758.00 39828546.00 L 22191988.00 39826204.75 L 22191988.00 38101586.03 L 22469629.00 37823946.00 L 22477429.00 37805114.00 L 22477429.00 36069465.25 L 22489199.00 36067124.00 A 100354.75 100354.75 0 1 0 22412393.00 36067124.00 L 22424163.00 36069465.25 L 22424163.00 37794082.03 L 22146523.00 38071723.00 L 22138722.00 38090555.00 L 22138722.00 39826204.75 L 22126952.00 39828546.00 A 100354.75 100354.75 0 1 0 22203758.00 39828546.00  z"/>
<path id="N" d="M 23945884.00 34080515.00 L 23934114.00 34078173.75 L 23934114.00 32486790.25 L 23945884.00 32484449.00 A 100354.75 100354.75 0 1 0 23869078.00 32484449.00 L 23880848.00 32486790.25 L 23880848.00 34078173.75 L 23869078.00 34080515.00 A 100354.75 100354.75 0 1 0 23945884.00 34080515.00  z"/>
<path id="N" d="M 16416356.00 39080515.00 L 16404586.00 39078173.75 L 16404586.00 37820288.00 L 16396785.00 37801455.00 L 16104395.00 37509065.97 L 16104395.00 34838782.00 L 17577888.00 33365289.00 L 17585689.00 33346457.00 L 17585689.00 32024190.25 L 17597459.00 32021849.00 A 100354.75 100354.75 0 1 0 17520653.00 32021849.00 L 17532423.00 32024190.25 L 17532423.00 33335426.00 L 16058930.00 34808919.00 L 16051129.00 34827751.00 L 16051129.00 37520097.00 L 16058930.00 37538929.00 L 16351320.00 37831319.97 L 16351320.00 39078173.75 L 16339550.00 39080515.00 A 100354.75 100354.75 0 1 0 16416356.00 39080515.00  z"/>
<path id="N" d="M 22048212.00 41127759.00 L 22038233.24 41134426.63 L 21933202.00 41029396.00 L 21914370.00 41021595.00 L 20075007.99 41021595.00 L 19428280.00 40374868.00 L 19409448.00 40367067.00 L 18534659.99 40367067.00 L 18048651.18 39881059.06 L 18055319.00 39871080.00 A 100349.83 100349.83 0 1 0 18001008.00 39925391.00 L 18010987.06 39918723.18 L 18504795.00 40412532.00 L 18523628.00 40420333.00 L 19398416.99 40420333.00 L 20045143.00 41067060.00 L 20063976.00 41074861.00 L 21903338.95 41074861.00 L 22000568.63 41172091.24 L 21993901.00 41182070.00 A 100349.83 100349.83 0 1 0 22048212.00 41127759.00  z"/>
<path id="N" d="M 21678940.00 41182070.00 L 21676598.75 41193840.00 L 20050402.99 41193840.00 L 19364304.00 40507742.00 L 19345472.00 40499941.00 L 18175407.99 40499941.00 L 17556525.17 39881059.07 L 17563193.00 39871080.00 A 100349.83 100349.83 0 1 0 17508882.00 39925391.00 L 17518861.07 39918723.17 L 18145544.00 40545407.00 L 18164376.00 40553207.00 L 19334440.99 40553207.00 L 20020538.00 41239305.00 L 20039371.00 41247106.00 L 21676598.75 41247106.00 L 21678940.00 41258876.00 A 100354.75 100354.75 0 1 0 21678940.00 41182070.00  z"/>
<path id="N" d="M 16116337.00 39764747.00 L 16109669.18 39754767.95 L 16569031.00 39295407.00 L 16576831.00 39276575.00 L 16576831.00 34819103.01 L 17971589.00 33424346.00 L 17979389.00 33405514.00 L 17979389.00 32024190.25 L 17991159.00 32021849.00 A 100354.75 100354.75 0 1 0 17914353.00 32021849.00 L 17926123.00 32024190.25 L 17926123.00 33394482.01 L 16531366.00 34789240.00 L 16523565.00 34808072.00 L 16523565.00 39265543.01 L 16072005.05 39717103.82 L 16062026.00 39710436.00 A 100349.83 100349.83 0 1 0 16116337.00 39764747.00  z"/>
<path id="N" d="M 20985220.00 40694688.00 L 20975241.46 40701355.48 L 17231360.00 36957475.00 L 17231360.00 35897180.00 L 20306632.00 32821909.00 L 20613606.75 32821909.00 L 20615948.00 32833679.00 A 100354.75 100354.75 0 1 0 20615948.00 32756873.00 L 20613606.75 32768643.00 L 20295600.00 32768643.00 L 20276768.00 32776443.00 L 17185895.00 35867317.00 L 17178094.00 35886149.00 L 17178094.00 36968506.00 L 17185895.00 36987338.00 L 20937576.48 40739020.46 L 20930909.00 40748999.00 A 100349.83 100349.83 0 1 0 20985220.00 40694688.00  z"/>
<path id="N" d="M 18444878.47 41574802.47 m -100354.75 0 a 100354.75 100354.75 0 1 1 200709.51 0a 100354.75 100354.75 0 1 1 -200709.51 0"/>
<path id="N" d="M 25137792.47 40748030.47 m -100354.75 0 a 100354.75 100354.75 0 1 1 200709.51 0a 100354.75 100354.75 0 1 1 -200709.51 0"/>
<path id="N" d="M 18169288.47 41574802.47 m -100354.75 0 a 100354.75 100354.75 0 1 1 200709.51 0a 100354.75 100354.75 0 1 1 -200709.51 0"/>
<path id="N" d="M 20314959.47 41574802.47 m -100354.75 0 a 100354.75 100354.75 0 1 1 200709.51 0a 100354.75 100354.75 0 1 1 -200709.51 0"/>
<path id="N" d="M 24793304.47 40748030.47 m -100354.75 0 a 100354.75 100354.75 0 1 1 200709.51 0a 100354.75 100354.75 0 1 1 -200709.51 0"/>
<path id="N" d="M 19163390.47 40738187.47 m -100354.75 0 a 100354.75 100354.75 0 1 1 200709.51 0a 100354.75 100354.75 0 1 1 -200709.51 0"/>
<path id="N" d="M 19133863.47 41574804.47 m -100354.75 0 a 100354.75 100354.75 0 1 1 200709.51 0a 100354.75 100354.75 0 1 1 -200709.51 0"/>
<path id="N" d="M 18809059.47 40738187.47 m -100354.75 0 a 100354.75 100354.75 0 1 1 200709.51 0a 100354.75 100354.75 0 1 1 -200709.51 0"/>
<path id="N" d="M 19625978.47 41574802.47 m -100354.75 0 a 100354.75 100354.75 0 1 1 200709.51 0a 100354.75 100354.75 0 1 1 -200709.51 0"/>
<path id="N" d="M 25167320.47 37244094.47 m -100354.75 0 a 100354.75 100354.75 0 1 1 200709.51 0a 100354.75 100354.75 0 1 1 -200709.51 0"/>
<path id="N" d="M 22234250.47 37244094.47 m -100354.75 0 a 100354.75 100354.75 0 1 1 200709.51 0a 100354.75 100354.75 0 1 1 -200709.51 0"/>
<path id="N" d="M 22381878.47 41850392.47 m -100354.75 0 a 100354.75 100354.75 0 1 1 200709.51 0a 100354.75 100354.75 0 1 1 -200709.51 0"/>
<path id="N" d="M 24753935.47 33297244.47 m -100354.75 0 a 100354.75 100354.75 0 1 1 200709.51 0a 100354.75 100354.75 0 1 1 -200709.51 0"/>
<path id="N" d="M 24773626.47 36879920.47 m -100354.75 0 a 100354.75 100354.75 0 1 1 200709.51 0a 100354.75 100354.75 0 1 1 -200709.51 0"/>
<path id="N" d="M 19163382.47 36879919.47 m -100354.75 0 a 100354.75 100354.75 0 1 1 200709.51 0a 100354.75 100354.75 0 1 1 -200709.51 0"/>
<path id="N" d="M 24724408.47 30039368.47 m -100354.75 0 a 100354.75 100354.75 0 1 1 200709.51 0a 100354.75 100354.75 0 1 1 -200709.51 0"/>
<path id="N" d="M 16653542.47 30039368.47 m -100354.75 0 a 100354.75 100354.75 0 1 1 200709.51 0a 100354.75 100354.75 0 1 1 -200709.51 0"/>
<path id="N" d="M 22598424.47 30039368.47 m -100354.75 0 a 100354.75 100354.75 0 1 1 200709.51 0a 100354.75 100354.75 0 1 1 -200709.51 0"/>
<path id="N" d="M 16653542.47 30629919.47 m -100354.75 0 a 100354.75 100354.75 0 1 1 200709.51 0a 100354.75 100354.75 0 1 1 -200709.51 0"/>
<path id="N" d="M 25127957.47 36879920.47 m -100354.75 0 a 100354.75 100354.75 0 1 1 200709.51 0a 100354.75 100354.75 0 1 1 -200709.51 0"/>
<path id="N" d="M 19183067.47 33385824.47 m -100354.75 0 a 100354.75 100354.75 0 1 1 200709.51 0a 100354.75 100354.75 0 1 1 -200709.51 0"/>
<path id="N" d="M 18809051.47 36879919.47 m -100354.75 0 a 100354.75 100354.75 0 1 1 200709.51 0a 100354.75 100354.75 0 1 1 -200709.51 0"/>
<path id="N" d="M 21230322.47 33385825.47 m -100354.75 0 a 100354.75 100354.75 0 1 1 200709.51 0a 100354.75 100354.75 0 1 1 -200709.51 0"/>
<path id="N" d="M 25108266.47 33297244.47 m -100354.75 0 a 100354.75 100354.75 0 1 1 200709.51 0a 100354.75 100354.75 0 1 1 -200709.51 0"/>
<path id="N" d="M 19183075.47 37244093.47 m -100354.75 0 a 100354.75 100354.75 0 1 1 200709.51 0a 100354.75 100354.75 0 1 1 -200709.51 0"/>
<path id="N" d="M 16250005.47 37244093.47 m -100354.75 0 a 100354.75 100354.75 0 1 1 200709.51 0a 100354.75 100354.75 0 1 1 -200709.51 0"/>
<path id="N" d="M 16249997.47 33385824.47 m -100354.75 0 a 100354.75 100354.75 0 1 1 200709.51 0a 100354.75 100354.75 0 1 1 -200709.51 0"/>
<path id="N" d="M 18444878.47 41850392.47 m -100354.75 0 a 100354.75 100354.75 0 1 1 200709.51 0a 100354.75 100354.75 0 1 1 -200709.51 0"/>
<path id="N" d="M 17007873.47 41850392.47 m -100354.75 0 a 100354.75 100354.75 0 1 1 200709.51 0a 100354.75 100354.75 0 1 1 -200709.51 0"/>
<path id="N" d="M 19625978.47 41850392.47 m -100354.75 0 a 100354.75 100354.75 0 1 1 200709.51 0a 100354.75 100354.75 0 1 1 -200709.51 0"/>
<path id="N" d="M 17795274.47 41850393.47 m -100354.75 0 a 100354.75 100354.75 0 1 1 200709.51 0a 100354.75 100354.75 0 1 1 -200709.51 0"/>
<path id="N" d="M 21791328.47 41850392.47 m -100354.75 0 a 100354.75 100354.75 0 1 1 200709.51 0a 100354.75 100354.75 0 1 1 -200709.51 0"/>
<path id="N" d="M 24350378.47 41850392.47 m -100354.75 0 a 100354.75 100354.75 0 1 1 200709.51 0a 100354.75 100354.75 0 1 1 -200709.51 0"/>
<path id="N" d="M 19133863.47 41850394.47 m -100354.75 0 a 100354.75 100354.75 0 1 1 200709.51 0a 100354.75 100354.75 0 1 1 -200709.51 0"/>
<path id="N" d="M 21200778.47 41850392.47 m -100354.75 0 a 100354.75 100354.75 0 1 1 200709.51 0a 100354.75 100354.75 0 1 1 -200709.51 0"/>
<path id="N" d="M 19094491.47 32795275.47 m -100354.75 0 a 100354.75 100354.75 0 1 1 200709.51 0a 100354.75 100354.75 0 1 1 -200709.51 0"/>
<path id="N" d="M 18740160.47 32795275.47 m -100354.75 0 a 100354.75 100354.75 0 1 1 200709.51 0a 100354.75 100354.75 0 1 1 -200709.51 0"/>
<path id="N" d="M 18858266.47 30039368.47 m -100354.75 0 a 100354.75 100354.75 0 1 1 200709.51 0a 100354.75 100354.75 0 1 1 -200709.51 0"/>
<path id="N" d="M 21771652.47 32125983.47 m -100354.75 0 a 100354.75 100354.75 0 1 1 200709.51 0a 100354.75 100354.75 0 1 1 -200709.51 0"/>
<path id="N" d="M 20610228.47 41850392.47 m -100354.75 0 a 100354.75 100354.75 0 1 1 200709.51 0a 100354.75 100354.75 0 1 1 -200709.51 0"/>
<path id="N" d="M 19803148.47 30925196.47 m -100354.75 0 a 100354.75 100354.75 0 1 1 200709.51 0a 100354.75 100354.75 0 1 1 -200709.51 0"/>
<path id="N" d="M 18858266.47 30629919.47 m -100354.75 0 a 100354.75 100354.75 0 1 1 200709.51 0a 100354.75 100354.75 0 1 1 -200709.51 0"/>
<path id="N" d="M 20708667.86 29527570.12 m -989001.57 0 a 989001.57 989001.57 0 1 1 1978003.14 0a 989001.57 989001.57 0 1 1 -1978003.14 0M 20708662.45 29527562.35 m -753624.65 0 a 753624.65 753624.65 0 1 1 1507249.30 0a 753624.65 753624.65 0 1 1 -1507249.30 0"/>
<path id="N" d="M 20328935.00 40865175.00 L 20331276.25 40853405.00 L 20479811.00 40853405.00 L 20498643.00 40845604.00 L 20624149.00 40720099.00 L 20631950.00 40701266.00 L 20631950.00 40508291.00 L 20624149.00 40489459.00 L 17132934.00 36998244.00 L 17132934.00 35856411.00 L 20339682.00 32649664.00 L 21155306.95 32649664.00 L 21252536.63 32746894.24 L 21245869.00 32756873.00 A 100349.83 100349.83 0 1 0 21300180.00 32702562.00 L 21290201.24 32709229.63 L 21185170.00 32604199.00 L 21166338.00 32596398.00 L 20328650.00 32596398.00 L 20309818.00 32604198.00 L 17087469.00 35826548.00 L 17079668.00 35845380.00 L 17079668.00 37009275.00 L 17087469.00 37028107.00 L 20578684.00 40519322.00 L 20578684.00 40690234.06 L 20468779.94 40800139.00 L 20331276.25 40800139.00 L 20328935.00 40788369.00 A 100354.75 100354.75 0 1 0 20328935.00 40865175.00  z"/>
<path id="N" d="M 23965577.00 37487091.00 L 23953807.00 37484749.75 L 23953807.00 36069465.25 L 23965577.00 36067124.00 A 100354.75 100354.75 0 1 0 23888771.00 36067124.00 L 23900541.00 36069465.25 L 23900541.00 37484749.75 L 23888771.00 37487091.00 A 100354.75 100354.75 0 1 0 23965577.00 37487091.00  z"/>
<path id="N" d="M 23453758.00 34080515.00 L 23441988.00 34078173.75 L 23441988.00 32486789.25 L 23453758.00 32484448.00 A 100354.75 100354.75 0 1 0 23376952.00 32484448.00 L 23388722.00 32486789.25 L 23388722.00 34078173.75 L 23376952.00 34080515.00 A 100354.75 100354.75 0 1 0 23453758.00 34080515.00  z"/>
<path id="N" d="M 19163390.47 39950785.47 m -100354.75 0 a 100354.75 100354.75 0 1 1 200709.51 0a 100354.75 100354.75 0 1 1 -200709.51 0"/>
<path id="N" d="M 25147635.47 39960628.47 m -100354.75 0 a 100354.75 100354.75 0 1 1 200709.51 0a 100354.75 100354.75 0 1 1 -200709.51 0"/>
<path id="N" d="M 25127959.47 36092517.47 m -100354.75 0 a 100354.75 100354.75 0 1 1 200709.51 0a 100354.75 100354.75 0 1 1 -200709.51 0"/>
<path id="N" d="M 18809059.47 39950785.47 m -100354.75 0 a 100354.75 100354.75 0 1 1 200709.51 0a 100354.75 100354.75 0 1 1 -200709.51 0"/>
<path id="N" d="M 24803147.47 39960628.47 m -100354.75 0 a 100354.75 100354.75 0 1 1 200709.51 0a 100354.75 100354.75 0 1 1 -200709.51 0"/>
<path id="N" d="M 24773628.47 36092517.47 m -100354.75 0 a 100354.75 100354.75 0 1 1 200709.51 0a 100354.75 100354.75 0 1 1 -200709.51 0"/>
<path id="N" d="M 19163382.47 36092517.47 m -100354.75 0 a 100354.75 100354.75 0 1 1 200709.51 0a 100354.75 100354.75 0 1 1 -200709.51 0"/>
<path id="N" d="M 18809051.47 36092517.47 m -100354.75 0 a 100354.75 100354.75 0 1 1 200709.51 0a 100354.75 100354.75 0 1 1 -200709.51 0"/>
<path id="N" d="M 25108266.47 32509842.47 m -100354.75 0 a 100354.75 100354.75 0 1 1 200709.51 0a 100354.75 100354.75 0 1 1 -200709.51 0"/>
<path id="N" d="M 24753935.47 32509842.47 m -100354.75 0 a 100354.75 100354.75 0 1 1 200709.51 0a 100354.75 100354.75 0 1 1 -200709.51 0"/>
<path id="N" d="M 23493128.00 41403332.00 L 23481357.00 41400990.55 L 23481357.00 39927734.25 L 23493127.00 39925393.00 A 100354.75 100354.75 0 1 0 23416321.00 39925393.00 L 23428091.00 39927734.25 L 23428091.00 41400990.95 L 23416322.00 41403332.00 A 100354.75 100354.75 0 1 0 23493128.00 41403332.00  z"/>
<path id="N" d="M 16062030.00 39080515.00 L 16050260.00 39078173.75 L 16050260.00 38154774.00 L 16042459.00 38135942.00 L 16005969.00 38099452.00 L 16005969.00 34582877.00 L 17184189.00 33404657.00 L 17191990.00 33385825.00 L 17191990.00 32024190.25 L 17203760.00 32021849.00 A 100354.75 100354.75 0 1 0 17126954.00 32021849.00 L 17138724.00 32024190.25 L 17138724.00 33374794.00 L 15960504.00 34553014.00 L 15952703.00 34571846.00 L 15952703.00 38110483.00 L 15960504.00 38129315.00 L 15996994.00 38165805.00 L 15996994.00 39078173.75 L 15985224.00 39080515.00 A 100354.75 100354.75 0 1 0 16062030.00 39080515.00  z"/>
<path id="N" d="M 18740156.47 41574802.47 m -100354.75 0 a 100354.75 100354.75 0 1 1 200709.51 0a 100354.75 100354.75 0 1 1 -200709.51 0"/>
<path id="N" d="M 22363172.00 40655318.00 L 22353192.87 40661985.87 L 17989230.00 36298023.00 L 17989230.00 36069464.25 L 18001000.00 36067123.00 A 100354.75 100354.75 0 1 0 17924194.00 36067123.00 L 17935964.00 36069464.25 L 17935964.00 36309054.00 L 17943765.00 36327886.00 L 22315528.87 40699649.87 L 22308861.00 40709629.00 A 100349.83 100349.83 0 1 0 22363172.00 40655318.00  z"/>
<path id="N" d="M 22008842.00 40655318.00 L 21998862.87 40661985.87 L 17497104.00 36160227.00 L 17497104.00 36069464.25 L 17508874.00 36067123.00 A 100354.75 100354.75 0 1 0 17432068.00 36067123.00 L 17443838.00 36069464.25 L 17443838.00 36171258.00 L 17451639.00 36190090.00 L 21961198.87 40699649.87 L 21954531.00 40709629.00 A 100349.83 100349.83 0 1 0 22008842.00 40655318.00  z"/>
</g>
</svg>
