<svg width="25.9999988mm" height="35.00000366mm" viewBox="0 0 10236220 13779529"  version="1.1" xmlns="http://www.w3.org/2000/svg" xmlns:xlink="http://www.w3.org/1999/xlink">
<desc>
Origin 20708662 43307087 Bound 15590552 29527559 10236220 13779529
</desc>
<g fill-rule="evenodd" fill="rgb(0, 0, 255)" stroke="black" stroke-width="1" transform="translate(0, 13779529) scale(1, -1) translate(-15590552, -29527559)">
<path id="N" d="M 23435046.47 37579803.47 m -100354.75 0 a 100354.75 100354.75 0 1 1 200709.51 0a 100354.75 100354.75 0 1 1 -200709.51 0"/>
<path id="N" d="M 23435046.47 35974407.47 m -100354.75 0 a 100354.75 100354.75 0 1 1 200709.51 0a 100354.75 100354.75 0 1 1 -200709.51 0"/>
<path id="N" d="M 16377951.47 39803146.47 m -100354.75 0 a 100354.75 100354.75 0 1 1 200709.51 0a 100354.75 100354.75 0 1 1 -200709.51 0"/>
<path id="N" d="M 18346453.47 31929133.47 m -100354.75 0 a 100354.75 100354.75 0 1 1 200709.51 0a 100354.75 100354.75 0 1 1 -200709.51 0"/>
<path id="N" d="M 20777555.00 42125984.00 L 20735291.00 42125984.00 L 20735291.00 42006588.00 L 20801307.00 41940572.00 L 20809108.00 41921740.00 L 20809108.00 40979323.00 L 20801307.00 40960490.00 L 20519118.20 40678302.01 L 20525786.00 40668323.00 A 100349.83 100349.83 0 1 0 20471475.00 40722634.00 L 20481454.01 40715966.20 L 20755842.00 40990354.98 L 20755842.00 41910709.00 L 20689826.00 41976725.00 L 20682025.00 41995557.00 L 20682025.00 42125984.00 L 20639761.00 42125984.00 L 20639761.00 43110236.00 L 20777555.00 43110236.00 L 20777555.00 42125984.00  z"/>
<path id="N" d="M 21023621.47 32440943.47 m -100354.75 0 a 100354.75 100354.75 0 1 1 200709.51 0a 100354.75 100354.75 0 1 1 -200709.51 0"/>
<path id="N" d="M 22559054.47 39921258.47 m -100354.75 0 a 100354.75 100354.75 0 1 1 200709.51 0a 100354.75 100354.75 0 1 1 -200709.51 0"/>
<path id="N" d="M 22942920.47 35974407.47 m -100354.75 0 a 100354.75 100354.75 0 1 1 200709.51 0a 100354.75 100354.75 0 1 1 -200709.51 0"/>
<path id="N" d="M 23946849.47 41496044.47 m -100354.75 0 a 100354.75 100354.75 0 1 1 200709.51 0a 100354.75 100354.75 0 1 1 -200709.51 0"/>
<path id="N" d="M 23946848.47 39832680.47 m -100354.75 0 a 100354.75 100354.75 0 1 1 200709.51 0a 100354.75 100354.75 0 1 1 -200709.51 0"/>
<path id="N" d="M 22165353.47 39921258.47 m -100354.75 0 a 100354.75 100354.75 0 1 1 200709.51 0a 100354.75 100354.75 0 1 1 -200709.51 0"/>
<path id="N" d="M 22450794.47 35974408.47 m -100354.75 0 a 100354.75 100354.75 0 1 1 200709.51 0a 100354.75 100354.75 0 1 1 -200709.51 0"/>
<path id="N" d="M 23907479.47 32391733.47 m -100354.75 0 a 100354.75 100354.75 0 1 1 200709.51 0a 100354.75 100354.75 0 1 1 -200709.51 0"/>
<path id="N" d="M 23907479.47 34173227.47 m -100354.75 0 a 100354.75 100354.75 0 1 1 200709.51 0a 100354.75 100354.75 0 1 1 -200709.51 0"/>
<path id="N" d="M 20187008.00 42125984.00 L 20049214.00 42125984.00 L 20049214.00 43110236.00 L 20187008.00 43110236.00 L 20187008.00 42125984.00  z"/>
<path id="N" d="M 17559054.47 31929133.47 m -100354.75 0 a 100354.75 100354.75 0 1 1 200709.51 0a 100354.75 100354.75 0 1 1 -200709.51 0"/>
<path id="N" d="M 16377951.47 39173227.47 m -100354.75 0 a 100354.75 100354.75 0 1 1 200709.51 0a 100354.75 100354.75 0 1 1 -200709.51 0"/>
<path id="N" d="M 21771652.47 41220471.47 m -100354.75 0 a 100354.75 100354.75 0 1 1 200709.51 0a 100354.75 100354.75 0 1 1 -200709.51 0"/>
<path id="N" d="M 17470477.47 39832675.47 m -100354.75 0 a 100354.75 100354.75 0 1 1 200709.51 0a 100354.75 100354.75 0 1 1 -200709.51 0"/>
<path id="N" d="M 20974404.00 42125984.00 L 20932140.00 42125984.00 L 20932140.00 41765457.07 L 21042462.00 41655136.00 L 21050262.00 41636304.00 L 21050262.00 40882456.06 L 21062026.00 40880116.00 A 100354.75 100354.75 0 1 0 20985220.00 40880116.00 L 20996996.00 40882458.44 L 20996996.00 41625272.07 L 20886675.00 41735594.00 L 20878874.00 41754426.00 L 20878874.00 42125984.00 L 20836610.00 42125984.00 L 20836610.00 43110236.00 L 20974404.00 43110236.00 L 20974404.00 42125984.00  z"/>
<path id="N" d="M 20708660.47 32795274.47 m -100354.75 0 a 100354.75 100354.75 0 1 1 200709.51 0a 100354.75 100354.75 0 1 1 -200709.51 0"/>
<path id="N" d="M 17952754.47 31929133.47 m -100354.75 0 a 100354.75 100354.75 0 1 1 200709.51 0a 100354.75 100354.75 0 1 1 -200709.51 0"/>
<path id="N" d="M 16023621.47 39803148.47 m -100354.75 0 a 100354.75 100354.75 0 1 1 200709.51 0a 100354.75 100354.75 0 1 1 -200709.51 0"/>
<path id="N" d="M 22086613.47 41220471.47 m -100354.75 0 a 100354.75 100354.75 0 1 1 200709.51 0a 100354.75 100354.75 0 1 1 -200709.51 0"/>
<path id="N" d="M 17962603.47 39832675.47 m -100354.75 0 a 100354.75 100354.75 0 1 1 200709.51 0a 100354.75 100354.75 0 1 1 -200709.51 0"/>
<path id="N" d="M 19990158.00 41496063.00 L 19950787.00 41456692.00 L 19055119.00 41456693.00 L 19015749.00 41496063.00 L 19015749.00 41784928.00 L 19027141.00 41797956.00 A 60182.73 60182.73 0 0 1 19037289.00 41831408.00 L 19033512.00 41850396.00 A 100353.26 100353.26 0 0 0 19133865.00 41950749.00 L 19152854.00 41946972.00 A 60219.41 60219.41 0 0 1 19199327.00 41968504.00 L 19360235.00 41968503.00 L 19458667.00 42066929.00 L 19458667.00 43110236.00 L 19596461.00 43110236.00 L 19596453.00 42096455.00 L 19606297.00 42086609.00 L 19645670.00 42086616.00 L 19655511.00 42096456.00 L 19655516.00 43110236.00 L 19793310.00 43110236.00 L 19793307.00 42096456.00 L 19803149.00 42086617.00 L 19842521.00 42086611.00 L 19852366.00 42096456.00 L 19852365.00 43110236.00 L 19990159.00 43110236.00 L 19990158.00 41496063.00  z"/>
<path id="N" d="M 22746045.00 42125984.00 L 22730433.00 42125984.00 L 22730433.00 42007874.00 L 22714831.00 41970208.00 L 22557351.00 41812729.00 L 22519686.00 41797127.00 L 22464662.14 41797127.00 L 22452840.00 41779434.00 A 100353.26 100353.26 0 1 0 22452840.00 41921354.00 L 22464662.14 41903661.00 L 22497622.90 41903661.00 L 22623899.00 42029937.90 L 22623899.00 42125984.00 L 22608251.00 42125984.00 L 22608251.00 43110236.00 L 22746045.00 43110236.00 L 22746045.00 42125984.00  z"/>
<path id="N" d="M 21171253.00 42125984.00 L 21155623.00 42125984.00 L 21155623.00 41970881.16 L 21179909.00 41946595.41 L 21200780.00 41950747.00 A 100353.26 100353.26 0 1 0 21100427.00 41850394.00 L 21104578.59 41871265.00 L 21064691.00 41911153.00 L 21049089.00 41948818.00 L 21049089.00 42125984.00 L 21033459.00 42125984.00 L 21033459.00 43110236.00 L 21171253.00 43110236.00 L 21171253.00 42125984.00  z"/>
<path id="N" d="M 21761800.00 42125984.00 L 21746170.00 42125984.00 L 21746170.00 41970884.16 L 21770459.00 41946595.41 L 21791330.00 41950747.00 A 100353.26 100353.26 0 1 0 21690977.00 41850394.00 L 21695128.59 41871265.00 L 21655238.00 41911156.00 L 21639636.00 41948821.00 L 21639636.00 42125984.00 L 21624006.00 42125984.00 L 21624006.00 43110236.00 L 21761800.00 43110236.00 L 21761800.00 42125984.00  z"/>
<path id="N" d="M 18415354.00 42066929.00 L 18561835.00 41920448.00 L 18561850.00 41514605.00 L 18503936.00 41456691.00 L 17841058.00 41456691.00 L 17688165.00 41609588.00 L 17688165.00 41900765.00 L 17755903.00 41968501.00 L 17785431.00 41968503.00 L 17883863.00 42066929.00 L 17883863.00 43110236.00 L 18021657.00 43110236.00 L 18021649.00 42096455.00 L 18031493.00 42086609.00 L 18070866.00 42086616.00 L 18080707.00 42096456.00 L 18080712.00 43110236.00 L 18218506.00 43110236.00 L 18218503.00 42096456.00 L 18228345.00 42086617.00 L 18267717.00 42086611.00 L 18277562.00 42096456.00 L 18277561.00 43110236.00 L 18415355.00 43110236.00 L 18415354.00 42066929.00  z"/>
<path id="N" d="M 24320868.00 42624897.11 L 24322218.00 42618110.00 L 24322218.00 41977900.00 L 24350380.00 41950747.00 L 24388783.00 41943108.00 A 100354.75 100354.75 0 1 0 24250194.41 41851235.59 L 24202299.00 41899131.00 L 24187071.00 41921920.00 L 24181724.00 41948803.00 L 24181724.00 42618110.00 L 24183074.00 42624897.11 L 24183074.00 43110236.00 L 24320868.00 43110236.00 L 24320868.00 42624897.11  z"/>
<path id="N" d="M 20383857.00 42125984.00 L 20368227.00 42125984.00 L 20368227.00 41657586.81 L 20385921.00 41645764.00 A 100353.26 100353.26 0 1 0 20244001.00 41645764.00 L 20261693.00 41657585.48 L 20261693.00 42125984.00 L 20246063.00 42125984.00 L 20246063.00 43110236.00 L 20383857.00 43110236.00 L 20383857.00 42125984.00  z"/>
<path id="N" d="M 18809059.47 40738187.47 m -100354.75 0 a 100354.75 100354.75 0 1 1 200709.51 0a 100354.75 100354.75 0 1 1 -200709.51 0"/>
<path id="N" d="M 17007873.47 41850392.47 m -100354.75 0 a 100354.75 100354.75 0 1 1 200709.51 0a 100354.75 100354.75 0 1 1 -200709.51 0"/>
<path id="N" d="M 25127957.47 36879920.47 m -100354.75 0 a 100354.75 100354.75 0 1 1 200709.51 0a 100354.75 100354.75 0 1 1 -200709.51 0"/>
<path id="N" d="M 16250005.47 37244093.47 m -100354.75 0 a 100354.75 100354.75 0 1 1 200709.51 0a 100354.75 100354.75 0 1 1 -200709.51 0"/>
<path id="N" d="M 19183075.47 37244093.47 m -100354.75 0 a 100354.75 100354.75 0 1 1 200709.51 0a 100354.75 100354.75 0 1 1 -200709.51 0"/>
<path id="N" d="M 19803148.47 30925196.47 m -100354.75 0 a 100354.75 100354.75 0 1 1 200709.51 0a 100354.75 100354.75 0 1 1 -200709.51 0"/>
<path id="N" d="M 18858266.47 30629919.47 m -100354.75 0 a 100354.75 100354.75 0 1 1 200709.51 0a 100354.75 100354.75 0 1 1 -200709.51 0"/>
<path id="N" d="M 18740160.47 32795275.47 m -100354.75 0 a 100354.75 100354.75 0 1 1 200709.51 0a 100354.75 100354.75 0 1 1 -200709.51 0"/>
<path id="N" d="M 24793304.47 40748030.47 m -100354.75 0 a 100354.75 100354.75 0 1 1 200709.51 0a 100354.75 100354.75 0 1 1 -200709.51 0"/>
<path id="N" d="M 20610228.47 41850392.47 m -100354.75 0 a 100354.75 100354.75 0 1 1 200709.51 0a 100354.75 100354.75 0 1 1 -200709.51 0"/>
<path id="N" d="M 25137792.47 40748030.47 m -100354.75 0 a 100354.75 100354.75 0 1 1 200709.51 0a 100354.75 100354.75 0 1 1 -200709.51 0"/>
<path id="N" d="M 19163390.47 40738187.47 m -100354.75 0 a 100354.75 100354.75 0 1 1 200709.51 0a 100354.75 100354.75 0 1 1 -200709.51 0"/>
<path id="N" d="M 25167320.47 37244094.47 m -100354.75 0 a 100354.75 100354.75 0 1 1 200709.51 0a 100354.75 100354.75 0 1 1 -200709.51 0"/>
<path id="N" d="M 22234250.47 37244094.47 m -100354.75 0 a 100354.75 100354.75 0 1 1 200709.51 0a 100354.75 100354.75 0 1 1 -200709.51 0"/>
<path id="N" d="M 18809051.47 36879919.47 m -100354.75 0 a 100354.75 100354.75 0 1 1 200709.51 0a 100354.75 100354.75 0 1 1 -200709.51 0"/>
<path id="N" d="M 22598424.47 30039368.47 m -100354.75 0 a 100354.75 100354.75 0 1 1 200709.51 0a 100354.75 100354.75 0 1 1 -200709.51 0"/>
<path id="N" d="M 24773626.47 36879920.47 m -100354.75 0 a 100354.75 100354.75 0 1 1 200709.51 0a 100354.75 100354.75 0 1 1 -200709.51 0"/>
<path id="N" d="M 21230322.47 33385825.47 m -100354.75 0 a 100354.75 100354.75 0 1 1 200709.51 0a 100354.75 100354.75 0 1 1 -200709.51 0"/>
<path id="N" d="M 24724408.47 30039368.47 m -100354.75 0 a 100354.75 100354.75 0 1 1 200709.51 0a 100354.75 100354.75 0 1 1 -200709.51 0"/>
<path id="N" d="M 16653542.47 30629919.47 m -100354.75 0 a 100354.75 100354.75 0 1 1 200709.51 0a 100354.75 100354.75 0 1 1 -200709.51 0"/>
<path id="N" d="M 21771652.47 32125983.47 m -100354.75 0 a 100354.75 100354.75 0 1 1 200709.51 0a 100354.75 100354.75 0 1 1 -200709.51 0"/>
<path id="N" d="M 16653542.47 30039368.47 m -100354.75 0 a 100354.75 100354.75 0 1 1 200709.51 0a 100354.75 100354.75 0 1 1 -200709.51 0"/>
<path id="N" d="M 18858266.47 30039368.47 m -100354.75 0 a 100354.75 100354.75 0 1 1 200709.51 0a 100354.75 100354.75 0 1 1 -200709.51 0"/>
<path id="N" d="M 25108266.47 33297244.47 m -100354.75 0 a 100354.75 100354.75 0 1 1 200709.51 0a 100354.75 100354.75 0 1 1 -200709.51 0"/>
<path id="N" d="M 16249997.47 33385824.47 m -100354.75 0 a 100354.75 100354.75 0 1 1 200709.51 0a 100354.75 100354.75 0 1 1 -200709.51 0"/>
<path id="N" d="M 19183067.47 33385824.47 m -100354.75 0 a 100354.75 100354.75 0 1 1 200709.51 0a 100354.75 100354.75 0 1 1 -200709.51 0"/>
<path id="N" d="M 19163382.47 36879919.47 m -100354.75 0 a 100354.75 100354.75 0 1 1 200709.51 0a 100354.75 100354.75 0 1 1 -200709.51 0"/>
<path id="N" d="M 19094491.47 32795275.47 m -100354.75 0 a 100354.75 100354.75 0 1 1 200709.51 0a 100354.75 100354.75 0 1 1 -200709.51 0"/>
<path id="N" d="M 24753935.47 33297244.47 m -100354.75 0 a 100354.75 100354.75 0 1 1 200709.51 0a 100354.75 100354.75 0 1 1 -200709.51 0"/>
<path id="N" d="M 20708667.86 29527570.12 m -989001.57 0 a 989001.57 989001.57 0 1 1 1978003.14 0a 989001.57 989001.57 0 1 1 -1978003.14 0M 20708662.45 29527562.35 m -753624.65 0 a 753624.65 753624.65 0 1 1 1507249.30 0a 753624.65 753624.65 0 1 1 -1507249.30 0"/>
<path id="N" d="M 17824808.00 42125984.00 L 17687014.00 42125984.00 L 17687014.00 43110236.00 L 17824808.00 43110236.00 L 17824808.00 42125984.00  z"/>
<path id="N" d="M 18612211.00 42125984.00 L 18474417.00 42125984.00 L 18474417.00 43110236.00 L 18612211.00 43110236.00 L 18612211.00 42125984.00  z"/>
<path id="N" d="M 19399612.00 42125984.00 L 19261818.00 42125984.00 L 19261818.00 43110236.00 L 19399612.00 43110236.00 L 19399612.00 42125984.00  z"/>
<path id="N" d="M 21958649.00 42125984.00 L 21820855.00 42125984.00 L 21820855.00 43110236.00 L 21958649.00 43110236.00 L 21958649.00 42125984.00  z"/>
<path id="N" d="M 22155498.00 42125984.00 L 22017704.00 42125984.00 L 22017704.00 43110236.00 L 22155498.00 43110236.00 L 22155498.00 42125984.00  z"/>
<path id="N" d="M 23927170.00 42125984.00 L 23789376.00 42125984.00 L 23789376.00 43110236.00 L 23927170.00 43110236.00 L 23927170.00 42125984.00  z"/>
<path id="N" d="M 22549196.00 42125984.00 L 22411402.00 42125984.00 L 22411402.00 43110236.00 L 22549196.00 43110236.00 L 22549196.00 42125984.00  z"/>
<path id="N" d="M 22352347.00 42125984.00 L 22214553.00 42125984.00 L 22214553.00 43110236.00 L 22352347.00 43110236.00 L 22352347.00 42125984.00  z"/>
<path id="N" d="M 24124019.00 42125984.00 L 23986225.00 42125984.00 L 23986225.00 43110236.00 L 24124019.00 43110236.00 L 24124019.00 42125984.00  z"/>
<path id="N" d="M 23730321.00 42125984.00 L 23592527.00 42125984.00 L 23592527.00 43110236.00 L 23730321.00 43110236.00 L 23730321.00 42125984.00  z"/>
<path id="N" d="M 20580706.00 42125984.00 L 20538442.00 42125984.00 L 20538442.00 42023876.00 L 20530641.00 42005044.00 L 20464618.00 41939021.00 L 20464618.00 41743315.00 L 20530644.00 41677289.00 L 20538445.00 41658457.00 L 20538445.00 41102363.00 L 20530645.00 41083531.00 L 20322267.22 40875153.98 L 20328935.00 40865175.00 A 100349.83 100349.83 0 1 0 20274624.00 40919486.00 L 20284602.98 40912818.22 L 20485179.00 41113394.97 L 20485179.00 41647426.00 L 20419153.00 41713452.00 L 20411352.00 41732284.00 L 20411352.00 41950052.00 L 20419153.00 41968884.00 L 20485176.00 42034907.00 L 20485176.00 42125984.00 L 20442912.00 42125984.00 L 20442912.00 43110236.00 L 20580706.00 43110236.00 L 20580706.00 42125984.00  z"/>
<path id="N" d="M 21338581.47 32795274.47 m -100354.75 0 a 100354.75 100354.75 0 1 1 200709.51 0a 100354.75 100354.75 0 1 1 -200709.51 0"/>
<path id="N" d="M 23927172.47 37579803.47 m -100354.75 0 a 100354.75 100354.75 0 1 1 200709.51 0a 100354.75 100354.75 0 1 1 -200709.51 0"/>
<path id="N" d="M 23927172.47 35974408.47 m -100354.75 0 a 100354.75 100354.75 0 1 1 200709.51 0a 100354.75 100354.75 0 1 1 -200709.51 0"/>
<path id="N" d="M 17627953.00 41584647.00 L 17834644.00 41377951.00 L 19445735.00 41377951.00 L 20354331.00 40472443.00 L 20417548.00 40472443.00 L 20433072.00 40469355.00 L 20448596.00 40472443.00 L 24921269.00 40472432.00 L 25433072.00 39960629.00 L 25433071.00 31181103.00 L 25196839.00 30944870.00 L 19959801.00 30944875.00 L 19951493.00 30986644.00 A 160563.76 160563.76 0 0 1 19654807.00 30986644.00 L 19646499.00 30944875.00 L 16496066.00 30944878.00 L 16250004.00 31190945.00 L 16250005.00 33225262.00 A 160556.95 160556.95 0 0 1 16250005.00 33546390.00 L 16250008.00 37083530.00 A 160563.52 160563.52 0 0 1 16250006.00 37404661.00 L 16250006.00 39021970.00 L 16289377.00 39043014.00 L 16316507.00 39024886.00 A 160570.62 160570.62 0 1 1 16316507.00 39321572.00 L 16289377.00 39303444.00 L 16250007.00 39324488.00 L 16250007.00 39651889.00 L 16289377.00 39672933.00 L 16316507.00 39654805.00 A 160570.62 160570.62 0 1 1 16316507.00 39951491.00 L 16289377.00 39933364.00 L 16250007.00 39954408.00 L 16250007.00 40728356.00 L 17096457.00 41574806.00 L 17096457.00 41720183.00 L 17121412.00 41736857.00 A 160563.52 160563.52 0 0 1 17121412.00 41963931.00 L 17096457.00 41980605.00 L 17096467.00 43110236.00 L 17234261.00 43110236.00 L 17234250.00 42096458.00 L 17244093.00 42086611.00 L 17283464.00 42086615.00 L 17293307.00 42096457.00 L 17293316.00 43110236.00 L 17431110.00 43110236.00 L 17431100.00 42096458.00 L 17440943.00 42086611.00 L 17480315.00 42086615.00 L 17490157.00 42096456.00 L 17490165.00 43110236.00 L 17627959.00 43110236.00 L 17627953.00 41584647.00  zM 17165355.59 31929136.48 m -160563.52 0 a 160563.52 160563.52 0 1 1 321127.04 0a 160563.52 160563.52 0 1 1 -321127.04 0M 17559054.59 31929136.48 m -160563.52 0 a 160563.52 160563.52 0 1 1 321127.04 0a 160563.52 160563.52 0 1 1 -321127.04 0M 17952754.59 31929136.48 m -160563.52 0 a 160563.52 160563.52 0 1 1 321127.04 0a 160563.52 160563.52 0 1 1 -321127.04 0M 18346453.59 31929136.48 m -160563.52 0 a 160563.52 160563.52 0 1 1 321127.04 0a 160563.52 160563.52 0 1 1 -321127.04 0M 18946150.00 32856723.00 L 18937396.51 32812725.11 L 18897258.49 32812725.11 L 18888505.00 32856723.00 A 160563.76 160563.76 0 1 1 18888505.00 32733831.00 L 18897258.49 32777828.89 L 18937396.51 32777828.89 L 18946150.00 32733831.00 A 160563.76 160563.76 0 1 1 18946150.00 32856723.00  zM 19183067.59 33385827.48 m -160563.52 0 a 160563.52 160563.52 0 1 1 321127.04 0a 160563.52 160563.52 0 1 1 -321127.04 0M 20708660.59 32795277.48 m -160563.52 0 a 160563.52 160563.52 0 1 1 321127.04 0a 160563.52 160563.52 0 1 1 -321127.04 0M 21023621.59 32440946.48 m -160563.52 0 a 160563.52 160563.52 0 1 1 321127.04 0a 160563.52 160563.52 0 1 1 -321127.04 0M 21230322.59 33385828.48 m -160563.52 0 a 160563.52 160563.52 0 1 1 321127.04 0a 160563.52 160563.52 0 1 1 -321127.04 0M 21771652.59 32125986.48 m -160563.52 0 a 160563.52 160563.52 0 1 1 321127.04 0a 160563.52 160563.52 0 1 1 -321127.04 0M 21338581.59 32795277.48 m -160563.52 0 a 160563.52 160563.52 0 1 1 321127.04 0a 160563.52 160563.52 0 1 1 -321127.04 0M 23415353.59 32391735.48 m -160563.52 0 a 160563.52 160563.52 0 1 1 321127.04 0a 160563.52 160563.52 0 1 1 -321127.04 0M 23907479.59 32391736.48 m -160563.52 0 a 160563.52 160563.52 0 1 1 321127.04 0a 160563.52 160563.52 0 1 1 -321127.04 0M 24959925.00 33358692.00 L 24951171.51 33314694.11 L 24911033.49 33314694.11 L 24902280.00 33358692.00 A 160563.76 160563.76 0 1 1 24902280.00 33235800.00 L 24911033.49 33279797.89 L 24951171.51 33279797.89 L 24959925.00 33235800.00 A 160563.76 160563.76 0 1 1 24959925.00 33358692.00  zM 23415353.59 34173230.48 m -160563.52 0 a 160563.52 160563.52 0 1 1 321127.04 0a 160563.52 160563.52 0 1 1 -321127.04 0M 23907479.59 34173230.48 m -160563.52 0 a 160563.52 160563.52 0 1 1 321127.04 0a 160563.52 160563.52 0 1 1 -321127.04 0M 22942920.59 35974410.48 m -160563.52 0 a 160563.52 160563.52 0 1 1 321127.04 0a 160563.52 160563.52 0 1 1 -321127.04 0M 23435046.59 35974410.48 m -160563.52 0 a 160563.52 160563.52 0 1 1 321127.04 0a 160563.52 160563.52 0 1 1 -321127.04 0M 17470469.59 35974410.48 m -160563.52 0 a 160563.52 160563.52 0 1 1 321127.04 0a 160563.52 160563.52 0 1 1 -321127.04 0M 17962595.59 35974410.48 m -160563.52 0 a 160563.52 160563.52 0 1 1 321127.04 0a 160563.52 160563.52 0 1 1 -321127.04 0M 19015041.00 36941367.00 L 19006287.51 36897369.11 L 18966149.49 36897369.11 L 18957396.00 36941367.00 A 160563.76 160563.76 0 1 1 18957396.00 36818475.00 L 18966149.49 36862472.89 L 19006287.51 36862472.89 L 19015041.00 36818475.00 A 160563.76 160563.76 0 1 1 19015041.00 36941367.00  zM 17470477.59 39832678.48 m -160563.52 0 a 160563.52 160563.52 0 1 1 321127.04 0a 160563.52 160563.52 0 1 1 -321127.04 0M 17962603.59 39832678.48 m -160563.52 0 a 160563.52 160563.52 0 1 1 321127.04 0a 160563.52 160563.52 0 1 1 -321127.04 0M 19183075.59 37244096.48 m -160563.52 0 a 160563.52 160563.52 0 1 1 321127.04 0a 160563.52 160563.52 0 1 1 -321127.04 0M 22234250.59 37244097.48 m -160563.52 0 a 160563.52 160563.52 0 1 1 321127.04 0a 160563.52 160563.52 0 1 1 -321127.04 0M 19015049.00 40799635.00 L 19006295.51 40755637.11 L 18966157.49 40755637.11 L 18957404.00 40799635.00 A 160563.76 160563.76 0 1 1 18957404.00 40676743.00 L 18966157.49 40720740.89 L 19006295.51 40720740.89 L 19015049.00 40676743.00 A 160563.76 160563.76 0 1 1 19015049.00 40799635.00  zM 22165353.59 39921261.48 m -160563.52 0 a 160563.52 160563.52 0 1 1 321127.04 0a 160563.52 160563.52 0 1 1 -321127.04 0M 22450794.59 35974411.48 m -160563.52 0 a 160563.52 160563.52 0 1 1 321127.04 0a 160563.52 160563.52 0 1 1 -321127.04 0M 23927172.59 35974411.48 m -160563.52 0 a 160563.52 160563.52 0 1 1 321127.04 0a 160563.52 160563.52 0 1 1 -321127.04 0M 23927172.59 37579806.48 m -160563.52 0 a 160563.52 160563.52 0 1 1 321127.04 0a 160563.52 160563.52 0 1 1 -321127.04 0M 24979616.00 36941368.00 L 24970862.51 36897370.11 L 24930724.49 36897370.11 L 24921971.00 36941368.00 A 160563.76 160563.76 0 1 1 24921971.00 36818476.00 L 24930724.49 36862473.89 L 24970862.51 36862473.89 L 24979616.00 36818476.00 A 160563.76 160563.76 0 1 1 24979616.00 36941368.00  zM 25167320.59 37244097.48 m -160563.52 0 a 160563.52 160563.52 0 1 1 321127.04 0a 160563.52 160563.52 0 1 1 -321127.04 0M 23435046.59 37579806.48 m -160563.52 0 a 160563.52 160563.52 0 1 1 321127.04 0a 160563.52 160563.52 0 1 1 -321127.04 0M 23454722.59 39832680.48 m -160563.52 0 a 160563.52 160563.52 0 1 1 321127.04 0a 160563.52 160563.52 0 1 1 -321127.04 0M 22559054.59 39921261.48 m -160563.52 0 a 160563.52 160563.52 0 1 1 321127.04 0a 160563.52 160563.52 0 1 1 -321127.04 0M 23946848.59 39832683.48 m -160563.52 0 a 160563.52 160563.52 0 1 1 321127.04 0a 160563.52 160563.52 0 1 1 -321127.04 0"/>
<path id="N" d="M 23415353.47 34173227.47 m -100354.75 0 a 100354.75 100354.75 0 1 1 200709.51 0a 100354.75 100354.75 0 1 1 -200709.51 0"/>
<path id="N" d="M 23415353.47 32391732.47 m -100354.75 0 a 100354.75 100354.75 0 1 1 200709.51 0a 100354.75 100354.75 0 1 1 -200709.51 0"/>
<path id="N" d="M 23454722.47 39832677.47 m -100354.75 0 a 100354.75 100354.75 0 1 1 200709.51 0a 100354.75 100354.75 0 1 1 -200709.51 0"/>
<path id="N" d="M 23454723.47 41496044.47 m -100354.75 0 a 100354.75 100354.75 0 1 1 200709.51 0a 100354.75 100354.75 0 1 1 -200709.51 0"/>
<path id="N" d="M 17165355.47 31929133.47 m -100354.75 0 a 100354.75 100354.75 0 1 1 200709.51 0a 100354.75 100354.75 0 1 1 -200709.51 0"/>
<path id="N" d="M 16023625.47 39173227.47 m -100354.75 0 a 100354.75 100354.75 0 1 1 200709.51 0a 100354.75 100354.75 0 1 1 -200709.51 0"/>
<path id="N" d="M 19202750.00 42057080.00 L 19152854.00 42007184.00 L 19133865.00 42010961.00 A 160563.52 160563.52 0 0 1 18973300.00 41850396.00 L 18977077.00 41831408.00 L 18937008.00 41791339.00 L 18937008.00 41496088.00 L 18897612.00 41456691.00 L 18661417.00 41456691.00 L 18622063.00 41496046.00 L 18622047.00 42007873.00 L 18671256.00 42057084.00 L 18671266.00 43110236.00 L 18809060.00 43110236.00 L 18809052.00 42096463.00 L 18818879.00 42086632.00 L 18858282.00 42086626.00 L 18868110.00 42096455.00 L 18868115.00 43110236.00 L 19005909.00 43110236.00 L 19005902.00 42096464.00 L 19015752.00 42086609.00 L 19055111.00 42086604.00 L 19064960.00 42096454.00 L 19064968.00 43110236.00 L 19202762.00 43110236.00 L 19202750.00 42057080.00  z"/>
<path id="N" d="M 21564951.00 42125984.00 L 21522687.00 42125984.00 L 21522687.00 41192144.03 L 21767921.97 40946910.00 L 22229330.00 40946910.00 L 22248162.00 40939109.00 L 22353193.24 40834078.37 L 22363172.00 40840746.00 A 100349.83 100349.83 0 1 0 22308861.00 40786435.00 L 22315528.63 40796413.76 L 22218298.95 40893644.00 L 21756890.00 40893644.00 L 21738058.00 40901444.00 L 21477222.00 41162281.00 L 21469421.00 41181113.00 L 21469421.00 42125984.00 L 21427157.00 42125984.00 L 21427157.00 43110236.00 L 21564951.00 43110236.00 L 21564951.00 42125984.00  z"/>
<path id="N" d="M 17962595.47 35974407.47 m -100354.75 0 a 100354.75 100354.75 0 1 1 200709.51 0a 100354.75 100354.75 0 1 1 -200709.51 0"/>
<path id="N" d="M 21368102.00 42125984.00 L 21325838.00 42125984.00 L 21325838.00 42006591.11 L 21391857.00 41940573.00 L 21399658.00 41921740.00 L 21399658.00 41152764.02 L 21777757.98 40774665.00 L 21952189.75 40774665.00 L 21954531.00 40786435.00 A 100354.75 100354.75 0 1 0 21954531.00 40709629.00 L 21952189.75 40721399.00 L 21766726.00 40721399.00 L 21747893.00 40729200.00 L 21354193.00 41122901.00 L 21346392.00 41141733.00 L 21346392.00 41910708.11 L 21280373.00 41976728.00 L 21272572.00 41995560.00 L 21272572.00 42125984.00 L 21230308.00 42125984.00 L 21230308.00 43110236.00 L 21368102.00 43110236.00 L 21368102.00 42125984.00  z"/>
<path id="N" d="M 17470469.47 35974407.47 m -100354.75 0 a 100354.75 100354.75 0 1 1 200709.51 0a 100354.75 100354.75 0 1 1 -200709.51 0"/>
</g>
</svg>
