<svg width="25.9999988mm" height="35.00000366mm" viewBox="0 0 10236220 13779529"  version="1.1" xmlns="http://www.w3.org/2000/svg" xmlns:xlink="http://www.w3.org/1999/xlink">
<desc>
Origin 20708662 43307087 Bound 15590552 29527559 10236220 13779529
</desc>
<g fill-rule="evenodd" fill="rgb(128, 128, 0)" stroke="black" stroke-width="1" transform="translate(0, 13779529) scale(1, -1) translate(-15590552, -29527559)">
<path id="N" d="M 19083678.00 33122685.00 L 19083677.00 32934772.00 A 261273.48 261273.48 0 0 0 19025632.00 32794639.00 L 18945678.00 32714685.00 L 18219678.00 32324685.00 L 18219678.00 32606685.00 L 18369678.00 32672685.00 L 18369678.00 32879685.00 L 18219678.00 32870685.00 L 18219678.00 33155685.00 L 19083678.00 33122685.00  zM 18879678.00 32906685.00 L 18834678.00 32906685.00 L 18834678.00 32903685.00 L 18780678.00 32903685.00 L 18780678.00 32900685.00 L 18723678.00 32900685.00 L 18723678.00 32897685.00 L 18669678.00 32897685.00 L 18669678.00 32894685.00 L 18615678.00 32894685.00 L 18615678.00 32891685.00 L 18561678.00 32891685.00 L 18561678.00 32888685.00 L 18537678.00 32888685.00 L 18537678.00 32747685.00 L 18543678.00 32747685.00 L 18543678.00 32750685.00 L 18549678.00 32750685.00 L 18549678.00 32753685.00 L 18555678.00 32753685.00 L 18555678.00 32756685.00 L 18561678.00 32756685.00 L 18561678.00 32759685.00 L 18567678.00 32759685.00 L 18567678.00 32762685.00 L 18573678.00 32762685.00 L 18573678.00 32765685.00 L 18582678.00 32765685.00 L 18582678.00 32768685.00 L 18588678.00 32768685.00 L 18588678.00 32771685.00 L 18594678.00 32771685.00 L 18594678.00 32774685.00 L 18600678.00 32774685.00 L 18600678.00 32777685.00 L 18606678.00 32777685.00 L 18606678.00 32780685.00 L 18612678.00 32780685.00 L 18612678.00 32783685.00 L 18621678.00 32783685.00 L 18621678.00 32786685.00 L 18627678.00 32786685.00 L 18627678.00 32789685.00 L 18633678.00 32789685.00 L 18633678.00 32792685.00 L 18639678.00 32792685.00 L 18639678.00 32795685.00 L 18645678.00 32795685.00 L 18645678.00 32798685.00 L 18651678.00 32798685.00 L 18651678.00 32801685.00 L 18660678.00 32801685.00 L 18660678.00 32804685.00 L 18666678.00 32804685.00 L 18666678.00 32807685.00 L 18672678.00 32807685.00 L 18672678.00 32810685.00 L 18678678.00 32810685.00 L 18678678.00 32813685.00 L 18684678.00 32813685.00 L 18684678.00 32816685.00 L 18690678.00 32816685.00 L 18690678.00 32819685.00 L 18699678.00 32819685.00 L 18699678.00 32822685.00 L 18705678.00 32822685.00 L 18705678.00 32825685.00 L 18711678.00 32825685.00 L 18711678.00 32828685.00 L 18717678.00 32828685.00 L 18717678.00 32831685.00 L 18723678.00 32831685.00 L 18723678.00 32834685.00 L 18729678.00 32834685.00 L 18729678.00 32837685.00 L 18738678.00 32837685.00 L 18738678.00 32840685.00 L 18744678.00 32840685.00 L 18744678.00 32843685.00 L 18750678.00 32843685.00 L 18750678.00 32846685.00 L 18756678.00 32846685.00 L 18756678.00 32849685.00 L 18762678.00 32849685.00 L 18762678.00 32852685.00 L 18768678.00 32852685.00 L 18768678.00 32855685.00 L 18777678.00 32855685.00 L 18777678.00 32858685.00 L 18783678.00 32858685.00 L 18783678.00 32861685.00 L 18789678.00 32861685.00 L 18789678.00 32864685.00 L 18795678.00 32864685.00 L 18795678.00 32867685.00 L 18801678.00 32867685.00 L 18801678.00 32870685.00 L 18807678.00 32870685.00 L 18807678.00 32873685.00 L 18816678.00 32873685.00 L 18816678.00 32876685.00 L 18822678.00 32876685.00 L 18822678.00 32879685.00 L 18828678.00 32879685.00 L 18828678.00 32882685.00 L 18834678.00 32882685.00 L 18834678.00 32885685.00 L 18840678.00 32885685.00 L 18840678.00 32888685.00 L 18846678.00 32888685.00 L 18846678.00 32891685.00 L 18855678.00 32891685.00 L 18855678.00 32894685.00 L 18861678.00 32894685.00 L 18861678.00 32897685.00 L 18867678.00 32897685.00 L 18867678.00 32900685.00 L 18873678.00 32900685.00 L 18873678.00 32903685.00 L 18879678.00 32903685.00 L 18879678.00 32906685.00  z"/>
<path id="N" d="M 16498965.98 33543906.00 L 16512816.99 33540990.00 L 16538331.99 33528597.00 L 16556556.99 33514746.00 L 16568949.99 33500166.00 L 16593006.99 33462987.00 L 16599567.99 33474651.00 L 16611231.99 33489960.00 L 16634559.99 33512559.00 A 102150.38 102150.38 0 0 0 16700169.99 33532971.00 L 16730058.99 33526410.00 A 89045.04 89045.04 0 0 0 16782546.99 33471735.00 L 16791294.99 33434556.00 L 16792752.99 33393003.00 L 16787649.99 33355095.00 L 16778172.99 33327393.00 L 16762134.99 33301878.00 L 16739535.99 33282924.00 L 16719852.99 33273447.00 L 16691421.99 33269073.00 L 16665177.99 33269802.00 L 16641120.99 33276363.00 L 16626540.99 33284382.00 L 16606128.99 33304065.00 L 16583529.99 33337599.00 L 16563117.99 33305523.00 L 16541976.99 33281466.00 L 16517919.99 33265428.00 A 109838.10 109838.10 0 0 0 16423149.99 33269073.00 L 16402737.99 33285840.00 L 16393260.99 33298962.00 L 16380867.99 33325935.00 L 16373577.99 33355824.00 L 16370661.99 33390087.00 L 16372119.99 33421434.00 L 16377951.99 33460071.00 L 16392531.99 33493605.00 L 16406382.99 33512559.00 L 16429710.99 33530784.00 L 16453767.99 33540261.00 L 16476366.98 33543906.00 L 16498965.98 33543906.00  zM 16678299.99 33452781.00 L 16660074.99 33446949.00 L 16644036.99 33435285.00 L 16621437.99 33405396.00 L 16632372.99 33386442.00 L 16649868.99 33362385.00 L 16665906.99 33351450.00 A 56799.63 56799.63 0 0 1 16717665.99 33358011.00 L 16727142.99 33371862.00 L 16731516.99 33390816.00 L 16730787.99 33416331.00 L 16725684.99 33430182.00 L 16714749.99 33444033.00 L 16704543.99 33449865.00 L 16678299.99 33452781.00  zM 16450122.99 33452781.00 L 16440645.99 33441117.00 L 16434813.99 33426537.00 L 16431897.99 33401022.00 L 16435542.99 33372591.00 L 16442103.99 33356553.00 L 16449393.99 33348534.00 A 58004.81 58004.81 0 0 1 16527396.99 33358011.00 L 16552911.99 33395919.00 L 16547079.99 33407583.00 L 16531041.99 33433827.00 L 16514274.99 33452052.00 L 16495320.99 33461529.00 A 53731.31 53731.31 0 0 1 16450122.99 33452781.00  z"/>
<path id="N" d="M 16656429.99 32888535.00 L 16697253.99 32879787.00 L 16731516.99 32866665.00 A 116637.10 116637.10 0 0 0 16783275.99 32809074.00 L 16789107.99 32785746.00 L 16792752.99 32758044.00 L 16790565.99 32722323.00 L 16782547.00 32692434.00 L 16771612.00 32670564.00 L 16757761.00 32653797.00 L 16739536.00 32637759.00 L 16712563.00 32623179.00 L 16667365.00 32609328.00 L 16609045.00 32602038.00 L 16561660.00 32601309.00 L 16491676.00 32607141.00 L 16453768.00 32617347.00 L 16427524.00 32629011.00 L 16408570.00 32643591.00 L 16390345.00 32664003.00 L 16380139.00 32684415.00 L 16374306.99 32707743.00 L 16370661.99 32736174.00 L 16372848.99 32771166.00 L 16380867.99 32801784.00 L 16391073.99 32822925.00 L 16404924.99 32839692.00 L 16418046.99 32851356.00 L 16438458.99 32865207.00 L 16480740.99 32881245.00 L 16509900.99 32887806.00 L 16574781.99 32892909.00 L 16656429.99 32888535.00  zM 16561659.99 32809074.00 L 16509171.99 32804700.00 L 16479282.99 32798139.00 L 16457412.99 32787933.00 L 16446477.99 32778456.00 L 16440645.99 32768979.00 L 16437000.99 32752941.00 L 16437000.99 32734716.00 L 16439916.99 32725968.00 L 16445748.99 32713575.00 L 16456683.99 32704098.00 L 16480012.00 32693892.00 L 16501153.00 32689518.00 L 16568221.00 32685144.00 L 16636018.00 32686602.00 L 16664449.00 32690247.00 L 16683403.00 32695350.00 L 16697254.00 32700453.00 L 16714020.99 32712117.00 L 16723497.99 32726697.00 L 16727142.99 32744193.00 L 16724955.99 32765334.00 L 16718394.99 32777727.00 L 16708188.99 32787204.00 L 16687047.99 32797410.00 L 16642578.99 32805429.00 L 16561659.99 32809074.00  z"/>
<path id="N" d="M 18894678.00 36148344.00 L 18894676.00 36045455.00 A 241106.15 241106.15 0 0 0 18841097.00 35916102.00 L 18795678.00 35870685.00 L 18795675.00 35867679.00 L 18803523.00 35867687.00 A 79854.79 79854.79 0 0 0 18846463.00 35849900.00 L 18869526.00 35826840.00 A 113026.22 113026.22 0 0 0 18894675.00 35766116.00 L 18894675.00 35664297.00 A 231042.24 231042.24 0 0 0 18843329.00 35540335.00 L 18801678.00 35498685.00 L 18876678.00 35513685.00 L 18876678.00 35264685.00 L 18219678.00 35102685.00 L 18219678.00 35348685.00 L 18679621.00 35464646.00 L 18688189.00 35468956.00 L 18708676.00 35486683.00 L 18721217.00 35503580.00 L 18726596.00 35516566.00 L 18729334.00 35530353.00 L 18729099.00 35573539.00 L 18724620.00 35584352.00 L 18716343.00 35592629.00 L 18705530.00 35597108.00 L 18663678.00 35597685.00 L 18219678.00 35486685.00 L 18219678.00 35732685.00 L 18680534.00 35849441.00 L 18685293.00 35851837.00 L 18710585.00 35875592.00 L 18721982.00 35890955.00 L 18726872.00 35902761.00 L 18729364.00 35915294.00 L 18729043.00 35958122.00 L 18724116.00 35970018.00 L 18715011.00 35979123.00 L 18703115.00 35984050.00 L 18672678.00 35984685.00 L 18219678.00 35870685.00 L 18219678.00 36005685.00 A 202198.06 202198.06 0 0 0 18264678.00 36104685.00 L 18297678.00 36131685.00 L 18321678.00 36143685.00 L 18765678.00 36251685.00 L 18791337.00 36251685.00 A 131532.57 131532.57 0 0 0 18894678.00 36148344.00  z"/>
<path id="N" d="M 17301676.96 35857023.00 L 17318443.96 35853378.00 L 17346145.96 35840256.00 A 106221.56 106221.56 0 0 0 17385511.96 35776833.00 A 86010.47 86010.47 0 0 0 17469346.96 35833695.00 L 17502151.96 35829321.00 L 17521834.96 35820573.00 L 17541517.96 35803077.00 L 17555368.96 35782665.00 L 17566303.96 35754234.00 L 17572135.96 35711223.00 L 17572135.96 35579274.00 L 17566303.96 35569068.00 L 17554639.96 35563236.00 L 17185765.96 35562507.00 L 17172643.96 35568339.00 L 17167540.96 35574900.00 L 17166082.96 35580732.00 L 17165353.96 35703933.00 L 17166811.96 35726532.00 L 17174830.96 35771001.00 L 17187223.96 35800161.00 L 17201074.96 35819844.00 L 17216383.96 35834424.00 L 17244814.96 35850462.00 L 17279077.96 35857752.00 L 17301676.96 35857023.00  zM 17444560.96 35749131.00 L 17430709.96 35744028.00 L 17420503.96 35736009.00 L 17409568.96 35719971.00 L 17405923.96 35699559.00 L 17405194.96 35643426.00 L 17510899.96 35643426.00 L 17510899.96 35692269.00 L 17508712.96 35711223.00 L 17500693.96 35729448.00 L 17491945.96 35739654.00 L 17473720.96 35749131.00 L 17444560.96 35749131.00  zM 17267413.96 35769543.00 L 17252833.96 35762253.00 L 17237524.96 35746215.00 L 17233150.96 35736738.00 L 17229505.96 35713410.00 L 17228776.96 35643426.00 L 17344687.96 35643426.00 L 17344687.96 35700288.00 L 17341771.96 35722887.00 L 17333023.96 35746215.00 L 17322817.96 35758608.00 L 17309695.96 35766627.00 L 17289283.96 35771730.00 L 17267413.96 35769543.00  z"/>
<path id="N" d="M 17367286.94 37268367.00 L 17400820.94 37259619.00 A 107325.49 107325.49 0 0 0 17459869.94 37206402.00 L 17470804.94 37177971.00 L 17474449.94 37149540.00 L 17473720.94 37113819.00 L 17465701.94 37082472.00 L 17454037.94 37059144.00 L 17438728.94 37038732.00 L 17423419.94 37024881.00 L 17391343.94 37007385.00 L 17357080.94 36998637.00 L 17326462.94 36994992.00 L 17285638.94 36995721.00 L 17244085.94 37003011.00 L 17215654.94 37016133.00 L 17198887.94 37028526.00 L 17182849.94 37046751.00 L 17168269.94 37073724.00 L 17163895.94 37089033.00 L 17158792.94 37131315.00 L 17158792.94 37166307.00 L 17166082.94 37210776.00 L 17173372.94 37239207.00 L 17182849.94 37253058.00 L 17190139.94 37255974.00 L 17219299.94 37257432.00 L 17234608.94 37253058.00 L 17236795.94 37248684.00 L 17236066.94 37242852.00 L 17228776.94 37221711.00 L 17220757.94 37188177.00 L 17217841.94 37144437.00 L 17221486.94 37122567.00 L 17227318.94 37106529.00 L 17234608.94 37096323.00 L 17246272.94 37086846.00 L 17263039.94 37078827.00 L 17296573.94 37075182.00 L 17297302.94 37253787.00 L 17303134.94 37263993.00 L 17316256.94 37269825.00 L 17337397.94 37270554.00 L 17367286.94 37268367.00  zM 17347603.94 37194009.00 L 17347603.94 37075182.00 L 17370202.94 37077369.00 L 17396446.94 37089033.00 L 17408839.94 37102884.00 L 17416858.94 37118193.00 L 17419045.94 37135689.00 L 17416129.94 37155372.00 L 17405923.94 37174326.00 L 17392072.94 37185261.00 L 17374576.94 37191093.00 L 17347603.94 37194009.00  z"/>
<path id="N" d="M 17195242.95 36220794.00 L 17292199.95 36179241.00 L 17322088.95 36162474.00 L 17342500.95 36144978.00 L 17354164.95 36126024.00 L 17359267.95 36139146.00 L 17369473.95 36159558.00 L 17388427.95 36180699.00 L 17412484.95 36196008.00 L 17442373.95 36204027.00 L 17469346.95 36205485.00 L 17499964.95 36199653.00 L 17526937.95 36185073.00 L 17545162.95 36166119.00 L 17556826.95 36147165.00 L 17565574.95 36120921.00 L 17572135.95 36082284.00 L 17572135.96 35940858.00 L 17566303.96 35930652.00 L 17554639.96 35924820.00 L 17176288.96 35924091.00 L 17169727.96 35925549.00 L 17166811.96 35929923.00 L 17163166.96 35958354.00 L 17164624.96 35985327.00 L 17167540.96 36001365.00 L 17171914.96 36006468.00 L 17331565.96 36007197.00 L 17331565.96 36032712.00 L 17329378.96 36049479.00 L 17323546.95 36063330.00 L 17308237.95 36079368.00 L 17285638.95 36092490.00 L 17171914.95 36139146.00 L 17168269.95 36142062.00 L 17163895.95 36157371.00 L 17163895.95 36204756.00 L 17168269.95 36223710.00 L 17173372.95 36226626.00 L 17195242.95 36220794.00  zM 17455495.95 36119463.00 L 17435083.95 36117276.00 L 17420503.95 36110715.00 L 17408839.95 36101238.00 L 17397904.95 36081555.00 L 17394259.95 36058956.00 L 17393530.96 36007197.00 L 17509441.96 36007197.00 L 17509441.96 36053124.00 L 17505796.95 36080097.00 L 17499964.95 36093948.00 L 17490487.95 36106341.00 L 17475178.95 36115818.00 L 17455495.95 36119463.00  z"/>
<path id="N" d="M 16437001.00 32552466.00 L 16444291.00 32545905.00 L 16445020.00 32381880.00 L 16493863.00 32429265.00 L 16545622.00 32478108.00 L 16574782.00 32501436.00 L 16612690.00 32524764.00 L 16633831.00 32532783.00 L 16660804.00 32539344.00 L 16685590.00 32540802.00 L 16715479.00 32537157.00 L 16735162.00 32529138.00 L 16756303.00 32514558.00 L 16766509.00 32502894.00 A 142392.70 142392.70 0 0 0 16792024.00 32432910.00 L 16792024.00 32399376.00 L 16785463.00 32361468.00 L 16775257.00 32330850.00 L 16761406.00 32303877.00 L 16751929.00 32294400.00 L 16737349.00 32290755.00 L 16702357.00 32292213.00 L 16690693.00 32295129.00 L 16687777.00 32301690.00 L 16695796.00 32318457.00 L 16710376.00 32347617.00 L 16717666.00 32378235.00 L 16717666.00 32398647.00 L 16714021.00 32412498.00 L 16704544.00 32427807.00 L 16688506.00 32438013.00 L 16673926.00 32441658.00 L 16651327.00 32440929.00 L 16625083.00 32433639.00 L 16604671.00 32422704.00 L 16568950.00 32398647.00 L 16462516.00 32300232.00 L 16443562.00 32287110.00 L 16431169.00 32284194.00 L 16395448.00 32284194.00 L 16383784.00 32288568.00 L 16378681.00 32297316.00 L 16377952.00 32543718.00 L 16382326.00 32552466.00 L 16405654.00 32556840.00 L 16437001.00 32552466.00  z"/>
<path id="N" d="M 17553181.99 33500166.00 L 17566303.99 33490689.00 L 17572864.99 33473922.00 L 17572864.99 33413415.00 L 17571406.99 33398835.00 L 17564845.99 33382068.00 L 17556826.99 33373320.00 L 17539330.99 33362385.00 L 17282722.99 33266157.00 L 17282722.99 33264699.00 L 17545891.99 33168471.00 L 17558284.99 33158994.00 L 17568490.99 33142956.00 L 17572864.99 33121086.00 L 17572864.99 33052560.00 L 17568490.99 33040896.00 L 17560471.99 33032148.00 L 17548807.99 33027774.00 L 17171914.99 33027774.00 L 17166811.99 33032148.00 L 17164624.99 33045270.00 L 17163166.99 33073701.00 L 17165353.99 33089739.00 L 17167540.99 33099945.00 L 17171914.99 33105048.00 L 17507983.99 33105777.00 L 17171914.99 33222417.00 L 17166811.99 33228978.00 L 17163166.99 33255951.00 L 17164624.99 33285111.00 L 17167540.99 33298233.00 L 17174101.99 33304065.00 L 17507983.99 33423621.00 L 17176288.99 33423621.00 L 17169727.99 33425079.00 L 17166811.99 33429453.00 L 17164624.99 33441846.00 L 17163166.99 33470277.00 L 17165353.99 33486315.00 L 17167540.99 33496521.00 L 17171914.99 33501624.00 L 17539330.99 33502353.00 L 17553181.99 33500166.00  z"/>
<path id="N" d="M 17489758.97 35171034.00 L 17518918.97 35156454.00 L 17538601.97 35138958.00 L 17546620.97 35128023.00 L 17559742.97 35103966.00 L 17566303.97 35080638.00 L 17572135.97 35039814.00 L 17572864.97 34920987.00 L 17566303.97 34906407.00 L 17558284.97 34900575.00 L 17550994.97 34898388.00 L 17176288.97 34897659.00 L 17169727.97 34899117.00 L 17166811.97 34903491.00 L 17163166.97 34931922.00 L 17164624.97 34958895.00 L 17167540.97 34974933.00 L 17171914.97 34980036.00 L 17306779.97 34980765.00 L 17306779.97 35014299.00 L 17311153.97 35064600.00 L 17319172.97 35095218.00 L 17336668.97 35126565.00 L 17357809.97 35148435.00 L 17378221.97 35161557.00 L 17408839.97 35172492.00 L 17447476.97 35176866.00 L 17489758.97 35171034.00  zM 17431438.97 35089386.00 L 17415400.97 35085741.00 L 17397175.97 35076993.00 L 17384053.97 35065329.00 L 17376763.97 35052936.00 L 17371660.97 35028879.00 L 17370931.97 34980765.00 L 17508712.97 34980765.00 L 17508712.97 35025234.00 L 17504338.97 35049291.00 L 17498506.97 35063871.00 L 17486113.97 35076993.00 L 17472991.97 35085012.00 L 17455495.97 35089386.00 L 17431438.97 35089386.00  z"/>
<path id="N" d="M 17184307.97 34838610.00 L 17375305.97 34735821.00 L 17541517.97 34826946.00 L 17549536.97 34829862.00 L 17564116.97 34834236.00 L 17569219.97 34832049.00 L 17573593.97 34820385.00 L 17575051.97 34778103.00 L 17572864.97 34762794.00 L 17567761.97 34753317.00 L 17427064.97 34679688.00 L 17561929.97 34608246.00 L 17569948.97 34601685.00 L 17574322.97 34584189.00 L 17575051.97 34547739.00 L 17572864.97 34525869.00 L 17569219.97 34518579.00 L 17563387.97 34516392.00 L 17553910.97 34519308.00 L 17373847.97 34615536.00 L 17195971.97 34517850.00 L 17179933.97 34510560.00 L 17174101.97 34509831.00 L 17168269.97 34511289.00 L 17165353.97 34518579.00 L 17163166.97 34539720.00 L 17164624.97 34582002.00 L 17168998.97 34592208.00 L 17322817.97 34672398.00 L 17171185.97 34751130.00 L 17166082.97 34756962.00 L 17163166.97 34780290.00 L 17164624.97 34824030.00 L 17168269.97 34837881.00 L 17174830.97 34840797.00 L 17184307.97 34838610.00  z"/>
<path id="N" d="M 17193785.00 32574336.00 L 17385512.00 32449677.00 L 17540060.00 32565588.00 L 17554640.00 32572878.00 L 17563388.00 32574336.00 L 17568491.00 32569962.00 L 17572136.00 32561214.00 L 17575052.00 32538615.00 L 17573594.00 32505810.00 L 17567033.00 32490501.00 L 17387699.00 32366571.00 L 17563388.00 32366571.00 L 17569220.00 32362197.00 L 17573594.00 32346159.00 L 17575052.00 32316270.00 L 17572136.00 32295129.00 L 17568491.00 32286381.00 L 17563388.00 32283465.00 L 17172644.00 32284194.00 L 17168999.00 32287110.00 L 17164625.00 32303148.00 L 17163167.00 32333037.00 L 17168270.00 32360739.00 L 17172644.00 32365842.00 L 17370203.00 32366571.00 L 17168999.00 32494875.00 L 17166083.00 32502165.00 L 17163167.00 32525493.00 L 17164625.00 32558298.00 L 17168999.00 32577252.00 L 17174831.00 32580897.00 L 17193785.00 32574336.00  z"/>
<path id="N" d="M 17193784.95 36578004.00 L 17385511.95 36453345.00 L 17540059.95 36569256.00 L 17554639.95 36576546.00 L 17563387.95 36578004.00 L 17568490.95 36573630.00 L 17572135.95 36564882.00 L 17575051.95 36542283.00 L 17573593.95 36509478.00 L 17567032.95 36494169.00 L 17387698.95 36370239.00 L 17563387.95 36370239.00 L 17569219.95 36365865.00 L 17573593.95 36349827.00 L 17575051.95 36319938.00 L 17572135.95 36298797.00 L 17568490.95 36290049.00 L 17563387.95 36287133.00 L 17172643.95 36287862.00 L 17168998.95 36290778.00 L 17164624.95 36306816.00 L 17163166.95 36336705.00 L 17168269.95 36364407.00 L 17172643.95 36369510.00 L 17370202.95 36370239.00 L 17168998.95 36498543.00 L 17166082.95 36505833.00 L 17163166.95 36529161.00 L 17164624.95 36561966.00 L 17168998.95 36580920.00 L 17174830.95 36584565.00 L 17193784.95 36578004.00  z"/>
<path id="N" d="M 17462056.94 36959271.00 L 17468617.94 36954168.00 L 17475178.94 36928653.00 L 17473720.94 36911157.00 L 17467159.95 36893661.00 L 17448934.95 36870333.00 L 17421232.95 36848463.00 L 17458411.95 36848463.00 L 17463514.95 36844818.00 L 17467888.95 36832425.00 L 17469346.95 36807639.00 L 17467159.95 36793788.00 L 17463514.95 36783582.00 L 17458411.95 36780666.00 L 17175559.95 36780666.00 L 17169727.95 36782124.00 L 17165353.95 36792330.00 L 17163166.95 36828051.00 L 17165353.95 36844089.00 L 17167540.95 36854295.00 L 17171914.95 36859398.00 L 17350519.95 36860127.00 L 17370202.95 36873249.00 L 17384782.95 36886371.00 L 17392801.94 36895848.00 L 17399362.94 36909699.00 L 17400820.94 36922092.00 L 17397175.94 36934485.00 L 17393530.94 36951981.00 L 17396446.94 36956355.00 L 17411755.94 36960729.00 L 17462056.94 36959271.00  z"/>
<path id="N" d="M 17183578.99 32973828.00 L 17557555.99 32844066.00 L 17564116.99 32840421.00 L 17569948.99 32833860.00 L 17574322.99 32815635.00 L 17575051.99 32764605.00 L 17573593.99 32750754.00 L 17569948.99 32738361.00 L 17564116.99 32732529.00 L 17178476.00 32599122.00 L 17168270.00 32601309.00 L 17166812.00 32604954.00 L 17163896.00 32620263.00 L 17163896.00 32657442.00 L 17167541.00 32673480.00 L 17175560.00 32680041.00 L 17258665.99 32706285.00 L 17258665.99 32860104.00 L 17171185.99 32889264.00 L 17167540.99 32892180.00 L 17164624.99 32900928.00 L 17163166.99 32946126.00 L 17166811.99 32969454.00 L 17171185.99 32974557.00 L 17183578.99 32973828.00  zM 17322088.99 32840421.00 L 17322088.99 32725239.00 L 17495590.99 32782830.00 L 17322088.99 32840421.00  z"/>
<path id="N" d="M 18876678.00 34901685.00 L 18404435.00 34779118.00 L 18381526.00 34757533.00 L 18372664.00 34745583.00 L 18366922.00 34726654.00 L 18367311.00 34679246.00 L 18372239.00 34667350.00 L 18381343.00 34658246.00 L 18393239.00 34653319.00 L 18429678.00 34652685.00 L 18876678.00 34763685.00 L 18876678.00 34517685.00 L 18336678.00 34385685.00 A 112306.82 112306.82 0 0 0 18204678.00 34473804.00 L 18204676.00 34604694.00 A 190919.01 190919.01 0 0 0 18247092.00 34707099.00 L 18291678.00 34751685.00 L 18291678.00 34754685.00 L 18219678.00 34739685.00 L 18219678.00 34985685.00 L 18876678.00 35147685.00 L 18876678.00 34901685.00  z"/>
<path id="N" d="M 17220028.97 34466091.00 L 17229505.97 34460259.00 L 17230234.98 34310085.00 L 17345416.98 34310085.00 L 17346145.97 34436931.00 L 17349790.97 34441305.00 L 17375305.97 34445679.00 L 17398633.97 34442763.00 L 17408110.97 34436931.00 L 17408839.98 34310085.00 L 17507983.98 34310085.00 L 17508712.97 34458801.00 L 17512357.97 34463175.00 L 17538601.97 34467549.00 L 17562658.97 34464633.00 L 17572135.97 34458801.00 L 17572135.98 34244475.00 L 17566303.98 34234269.00 L 17554639.98 34228437.00 L 17185765.98 34227708.00 L 17172643.98 34233540.00 L 17167540.98 34240101.00 L 17166082.98 34245933.00 L 17166082.97 34460259.00 L 17169727.97 34464633.00 L 17192326.97 34469007.00 L 17220028.97 34466091.00  z"/>
<path id="N" d="M 17220028.98 33829674.00 L 17229505.98 33823842.00 L 17230234.98 33673668.00 L 17345416.98 33673668.00 L 17346145.98 33800514.00 L 17349790.98 33804888.00 L 17375305.98 33809262.00 L 17398633.98 33806346.00 L 17408110.98 33800514.00 L 17408839.98 33673668.00 L 17507983.98 33673668.00 L 17508712.98 33822384.00 L 17512357.98 33826758.00 L 17538601.98 33831132.00 L 17562658.98 33828216.00 L 17572135.98 33822384.00 L 17572135.98 33608058.00 L 17566303.98 33597852.00 L 17554639.98 33592020.00 L 17185765.98 33591291.00 L 17172643.98 33597123.00 L 17167540.98 33603684.00 L 17166082.98 33609516.00 L 17166082.98 33823842.00 L 17169727.98 33828216.00 L 17192326.98 33832590.00 L 17220028.98 33829674.00  z"/>
<path id="N" d="M 17221488.00 38120418.00 L 17228778.00 38114586.00 L 17229507.00 38045331.00 L 17565576.00 38045331.00 L 17571408.00 38042415.00 L 17575782.00 38021274.00 L 17574324.00 37978263.00 L 17511630.00 37880577.00 L 17504340.00 37875474.00 L 17487573.00 37874016.00 L 17457684.00 37876203.00 L 17454039.00 37879848.00 L 17454768.00 37889325.00 L 17494863.00 37962954.00 L 17229507.00 37962954.00 L 17229507.00 37884222.00 L 17225862.00 37879848.00 L 17214927.00 37876203.00 L 17190870.00 37874745.00 L 17171916.00 37877661.00 L 17165355.00 37884951.00 L 17166084.00 38114586.00 L 17171916.00 38119689.00 L 17191599.00 38124063.00 L 17221488.00 38120418.00  z"/>
<path id="N" d="M 16434084.99 33203463.00 L 16441374.99 33197631.00 L 16442103.99 33128376.00 L 16778172.99 33128376.00 L 16784004.99 33125460.00 L 16788378.99 33104319.00 L 16786920.99 33061308.00 L 16724226.99 32963622.00 L 16716936.99 32958519.00 L 16700169.99 32957061.00 L 16670280.99 32959248.00 L 16666635.99 32962893.00 L 16667364.99 32972370.00 L 16707459.99 33045999.00 L 16442103.99 33045999.00 L 16442103.99 32967267.00 L 16438458.99 32962893.00 L 16427523.99 32959248.00 L 16403466.99 32957790.00 L 16384512.99 32960706.00 L 16377951.99 32967996.00 L 16378680.99 33197631.00 L 16384512.99 33202734.00 L 16404195.99 33207108.00 L 16434084.99 33203463.00  z"/>
<path id="N" d="M 17463514.94 37591314.00 L 17468617.94 37576734.00 L 17468617.94 37541742.00 L 17464243.94 37522059.00 L 17457682.94 37516227.00 L 17241169.94 37450617.00 L 17455495.94 37385007.00 L 17464972.94 37377717.00 L 17469346.94 37349286.00 L 17467888.94 37317210.00 L 17463514.94 37305546.00 L 17458411.94 37302630.00 L 17445289.94 37303359.00 L 17171185.94 37395213.00 L 17168269.94 37401045.00 L 17163895.94 37429476.00 L 17163895.94 37475403.00 L 17167540.94 37496544.00 L 17173372.94 37503105.00 L 17434354.94 37589856.00 L 17451121.94 37594230.00 L 17463514.94 37591314.00  z"/>
<path id="N" d="M 18876678.00 33974685.00 L 19077678.00 34025685.00 L 19077678.00 33779685.00 L 18336678.00 33593685.00 L 18295256.00 33593358.00 A 93136.10 93136.10 0 0 0 18223103.00 33650136.00 L 18219677.00 33665686.00 L 18219678.00 33914685.00 L 18366677.00 33951434.00 L 18367340.00 33885454.00 L 18372491.00 33873017.00 L 18382010.00 33863498.00 L 18394447.00 33858347.00 L 18411678.00 33857685.00 L 18726678.00 33938685.00 L 18726678.00 34040685.00 L 18876678.00 34076685.00 L 18876678.00 33974685.00  z"/>
<path id="N" d="M 17228047.94 37732740.00 L 17244085.94 37726908.00 L 17252104.94 37719618.00 L 17257936.94 37696290.00 L 17257207.94 37670775.00 L 17251375.94 37655466.00 L 17244085.94 37647447.00 L 17218570.94 37641615.00 L 17190868.94 37642344.00 L 17172643.94 37648905.00 L 17167540.94 37654737.00 L 17161708.94 37678065.00 L 17162437.94 37704309.00 L 17167540.94 37719618.00 L 17174830.94 37727637.00 L 17200345.94 37733469.00 L 17228047.94 37732740.00  z"/>
<path id="N" d="M 18357678.00 36410685.00 L 18264678.00 36391185.00 L 18357678.00 36371685.00 L 18357678.00 36323685.00 L 18219678.00 36323685.00 L 18219678.00 36350685.00 L 18327678.00 36350685.00 L 18327678.00 36353685.00 L 18219678.00 36374685.00 L 18219678.00 36407685.00 L 18327678.00 36428685.00 L 18327678.00 36431685.00 L 18219678.00 36431685.00 L 18219678.00 36458685.00 L 18357678.00 36458685.00 L 18357678.00 36410685.00  z"/>
<path id="N" d="M 17099014.98 34182510.00 L 17107762.98 34175220.00 L 17108491.98 33872685.00 L 17105575.98 33864666.00 L 17101930.98 33862479.00 L 17084434.98 33859563.00 L 17062564.98 33861021.00 L 17053087.98 33865395.00 L 17050900.98 33869040.00 L 17050171.98 34171575.00 L 17051629.98 34175949.00 L 17057461.98 34181052.00 L 17074228.98 34184697.00 L 17099014.98 34182510.00  z"/>
<path id="N" d="M 17099014.96 35517309.00 L 17107762.96 35510019.00 L 17108491.97 35207484.00 L 17105575.97 35199465.00 L 17101930.97 35197278.00 L 17084434.97 35194362.00 L 17062564.97 35195820.00 L 17053087.97 35200194.00 L 17050900.97 35203839.00 L 17050171.96 35506374.00 L 17051629.96 35510748.00 L 17057461.96 35515851.00 L 17074228.96 35519496.00 L 17099014.96 35517309.00  z"/>
<path id="N" d="M 18357678.00 36197685.00 L 18333678.00 36197685.00 L 18333678.00 36239685.00 L 18219678.00 36239685.00 L 18219678.00 36266685.00 L 18333678.00 36266685.00 L 18333678.00 36308685.00 L 18357678.00 36308685.00 L 18357678.00 36197685.00  z"/>
<path id="N" d="M 19083678.00 33419685.00 L 18219678.00 33203685.00 L 18219678.00 33449685.00 L 19083678.00 33668685.00 L 19083678.00 33419685.00  z"/>
<path id="N" d="M 18876678.00 34163685.00 L 18219678.00 33998685.00 L 18219678.00 34247685.00 L 18876678.00 34409685.00 L 18876678.00 34163685.00  z"/>
</g>
</svg>
