<svg width="25.9999988mm" height="35.00000366mm" viewBox="0 0 10236220 13779529"  version="1.1" xmlns="http://www.w3.org/2000/svg" xmlns:xlink="http://www.w3.org/1999/xlink">
<desc>
Origin 20708662 43307087 Bound 15590552 29527559 10236220 13779529
</desc>
<g fill-rule="evenodd" fill="rgb(128, 0, 128)" stroke="black" stroke-width="1" transform="translate(0, 13779529) scale(1, -1) translate(-15590552, -29527559)">
<path id="N" d="M 24616142.00 41929133.00 L 24619924.00 41890730.00 A 196848.26 196848.26 0 0 1 24812991.00 41732283.00 L 25826772.00 41732284.00 L 25826772.00 29527559.00 L 21717457.00 29527559.00 A 1008808.17 1008808.17 0 0 1 19699867.00 29527559.00 L 15590552.00 29527559.00 L 15590552.00 41732284.00 L 16604325.00 41732284.00 L 16642729.00 41736064.00 A 196835.16 196835.16 0 0 1 16801180.00 41929133.00 L 16801180.29 42303151.00 L 22883858.00 42303149.44 L 22883858.00 42165339.00 L 22888396.00 42119256.00 A 236211.20 236211.20 0 0 1 23356296.00 42165352.00 L 23356296.26 42303149.32 L 24616140.00 42303149.00 L 24616142.00 41929133.00  zM 16421259.00 30393319.00 L 16019685.00 30393319.00 L 15977500.00 30375845.00 L 15960026.00 30333660.00 L 15960026.00 29695866.00 L 15977500.00 29653681.00 L 16019685.00 29636207.00 L 16421259.00 29636207.00 L 16463444.00 29653681.00 L 16480918.00 29695866.00 L 16480918.00 30333660.00 L 16463444.00 30375845.00 L 16421259.00 30393319.00  zM 16820865.00 31337716.00 L 16643701.00 31337716.00 L 16606035.00 31322114.00 L 16590433.00 31284448.00 L 16590433.00 30733268.00 L 16606035.00 30695602.00 L 16643701.00 30680000.00 L 16820865.00 30680000.00 L 16858531.00 30695602.00 L 16874133.00 30733268.00 L 16874133.00 31284448.00 L 16858531.00 31322114.00 L 16820865.00 31337716.00  zM 17214566.00 31337716.00 L 17037402.00 31337716.00 L 16999736.00 31322114.00 L 16984134.00 31284448.00 L 16984134.00 30733268.00 L 16999736.00 30695602.00 L 17037402.00 30680000.00 L 17214566.00 30680000.00 L 17252232.00 30695602.00 L 17267834.00 30733268.00 L 17267834.00 31284448.00 L 17252232.00 31322114.00 L 17214566.00 31337716.00  zM 17608267.00 31337716.00 L 17431103.00 31337716.00 L 17393437.00 31322114.00 L 17377835.00 31284448.00 L 17377835.00 30733268.00 L 17393437.00 30695602.00 L 17431103.00 30680000.00 L 17608267.00 30680000.00 L 17645933.00 30695602.00 L 17661535.00 30733268.00 L 17661535.00 31284448.00 L 17645933.00 31322114.00 L 17608267.00 31337716.00  zM 18001968.00 31337716.00 L 17824804.00 31337716.00 L 17787138.00 31322114.00 L 17771536.00 31284448.00 L 17771536.00 30733268.00 L 17787138.00 30695602.00 L 17824804.00 30680000.00 L 18001968.00 30680000.00 L 18039634.00 30695602.00 L 18055236.00 30733268.00 L 18055236.00 31284448.00 L 18039634.00 31322114.00 L 18001968.00 31337716.00  zM 18395669.00 31337716.00 L 18218505.00 31337716.00 L 18180839.00 31322114.00 L 18165237.00 31284448.00 L 18165237.00 30733268.00 L 18180839.00 30695602.00 L 18218505.00 30680000.00 L 18395669.00 30680000.00 L 18433335.00 30695602.00 L 18448937.00 30733268.00 L 18448937.00 31284448.00 L 18433335.00 31322114.00 L 18395669.00 31337716.00  zM 17239178.00 32346169.00 L 17091540.00 32346169.00 L 17057641.00 32332128.00 L 17043600.00 32298229.00 L 17043600.00 32150591.00 L 17057641.00 32116692.00 L 17091540.00 32102651.00 L 17239178.00 32102651.00 L 17273077.00 32116692.00 L 17287118.00 32150591.00 L 17287118.00 32298229.00 L 17273077.00 32332128.00 L 17239178.00 32346169.00  zM 18026582.00 32346169.00 L 17878944.00 32346169.00 L 17845045.00 32332128.00 L 17831004.00 32298229.00 L 17831004.00 32150591.00 L 17845045.00 32116692.00 L 17878944.00 32102651.00 L 18026582.00 32102651.00 L 18060481.00 32116692.00 L 18074522.00 32150591.00 L 18074522.00 32298229.00 L 18060481.00 32332128.00 L 18026582.00 32346169.00  zM 19413386.00 30393319.00 L 19011812.00 30393319.00 L 18969627.00 30375845.00 L 18952153.00 30333660.00 L 18952153.00 29695866.00 L 18969627.00 29653681.00 L 19011812.00 29636207.00 L 19413386.00 29636207.00 L 19455571.00 29653681.00 L 19473045.00 29695866.00 L 19473045.00 30333660.00 L 19455571.00 30375845.00 L 19413386.00 30393319.00  zM 18789370.00 31337716.00 L 18612206.00 31337716.00 L 18574540.00 31322114.00 L 18558938.00 31284448.00 L 18558938.00 30733268.00 L 18574540.00 30695602.00 L 18612206.00 30680000.00 L 18789370.00 30680000.00 L 18827036.00 30695602.00 L 18842638.00 30733268.00 L 18842638.00 31284448.00 L 18827036.00 31322114.00 L 18789370.00 31337716.00  zM 20162402.00 31401287.00 L 19995080.00 31401287.00 L 19961181.00 31387246.00 L 19947140.00 31353347.00 L 19947140.00 31205709.00 L 19961181.00 31171810.00 L 19995080.00 31157769.00 L 20162402.00 31157769.00 L 20196301.00 31171810.00 L 20210342.00 31205709.00 L 20210342.00 31353347.00 L 20196301.00 31387246.00 L 20162402.00 31401287.00  zM 20162401.00 31753649.00 L 19995079.00 31753649.00 L 19961180.00 31739608.00 L 19947139.00 31705709.00 L 19947139.00 31558071.00 L 19961180.00 31524172.00 L 19995079.00 31510131.00 L 20162401.00 31510131.00 L 20196300.00 31524172.00 L 20210341.00 31558071.00 L 20210341.00 31705709.00 L 20196300.00 31739608.00 L 20162401.00 31753649.00  zM 18420274.00 32346169.00 L 18272636.00 32346169.00 L 18238737.00 32332128.00 L 18224696.00 32298229.00 L 18224696.00 32150591.00 L 18238737.00 32116692.00 L 18272636.00 32102651.00 L 18420274.00 32102651.00 L 18454173.00 32116692.00 L 18468214.00 32150591.00 L 18468214.00 32298229.00 L 18454173.00 32332128.00 L 18420274.00 32346169.00  zM 18813977.00 32346169.00 L 18666339.00 32346169.00 L 18632440.00 32332128.00 L 18618399.00 32298229.00 L 18618399.00 32150591.00 L 18632440.00 32116692.00 L 18666339.00 32102651.00 L 18813977.00 32102651.00 L 18847876.00 32116692.00 L 18861917.00 32150591.00 L 18861917.00 32298229.00 L 18847876.00 32332128.00 L 18813977.00 32346169.00  zM 19178150.00 32346169.00 L 19010828.00 32346169.00 L 18976929.00 32332128.00 L 18962888.00 32298229.00 L 18962888.00 32150591.00 L 18976929.00 32116692.00 L 19010828.00 32102651.00 L 19178150.00 32102651.00 L 19212049.00 32116692.00 L 19226090.00 32150591.00 L 19226090.00 32298229.00 L 19212049.00 32332128.00 L 19178150.00 32346169.00  zM 20162401.00 32111917.00 L 19995079.00 32111917.00 L 19961180.00 32097876.00 L 19947139.00 32063977.00 L 19947139.00 31916339.00 L 19961180.00 31882440.00 L 19995079.00 31868399.00 L 20162401.00 31868399.00 L 20196300.00 31882440.00 L 20210341.00 31916339.00 L 20210341.00 32063977.00 L 20196300.00 32097876.00 L 20162401.00 32111917.00  zM 17239178.00 32700499.00 L 17091540.00 32700499.00 L 17057641.00 32686458.00 L 17043600.00 32652559.00 L 17043600.00 32504921.00 L 17057641.00 32471022.00 L 17091540.00 32456981.00 L 17239178.00 32456981.00 L 17273077.00 32471022.00 L 17287118.00 32504921.00 L 17287118.00 32652559.00 L 17273077.00 32686458.00 L 17239178.00 32700499.00  zM 17632880.00 32700499.00 L 17485242.00 32700499.00 L 17451343.00 32686458.00 L 17437302.00 32652559.00 L 17437302.00 32504921.00 L 17451343.00 32471022.00 L 17485242.00 32456981.00 L 17632880.00 32456981.00 L 17666779.00 32471022.00 L 17680820.00 32504921.00 L 17680820.00 32652559.00 L 17666779.00 32686458.00 L 17632880.00 32700499.00  zM 17632880.00 32346169.00 L 17485242.00 32346169.00 L 17451343.00 32332128.00 L 17437302.00 32298229.00 L 17437302.00 32150591.00 L 17451343.00 32116692.00 L 17485242.00 32102651.00 L 17632880.00 32102651.00 L 17666779.00 32116692.00 L 17680820.00 32150591.00 L 17680820.00 32298229.00 L 17666779.00 32332128.00 L 17632880.00 32346169.00  zM 18026582.00 32700499.00 L 17878944.00 32700499.00 L 17845045.00 32686458.00 L 17831004.00 32652559.00 L 17831004.00 32504921.00 L 17845045.00 32471022.00 L 17878944.00 32456981.00 L 18026582.00 32456981.00 L 18060481.00 32471022.00 L 18074522.00 32504921.00 L 18074522.00 32652559.00 L 18060481.00 32686458.00 L 18026582.00 32700499.00  zM 16407479.00 34640691.00 L 16092519.00 34640691.00 L 16047320.00 34621969.00 L 16028598.00 34576770.00 L 16028598.00 33553148.00 L 16047320.00 33507949.00 L 16092519.00 33489227.00 L 16407479.00 33489227.00 L 16452678.00 33507949.00 L 16471400.00 33553148.00 L 16471400.00 34576770.00 L 16452678.00 34621969.00 L 16407479.00 34640691.00  zM 17061022.00 35742728.00 L 16895668.00 35742728.00 L 16853483.00 35725254.00 L 16836009.00 35683069.00 L 16836009.00 35084645.00 L 16853483.00 35042460.00 L 16895668.00 35024986.00 L 17061022.00 35024986.00 L 17103207.00 35042460.00 L 17120681.00 35084645.00 L 17120681.00 35683069.00 L 17103207.00 35725254.00 L 17061022.00 35742728.00  zM 17553148.00 35742728.00 L 17387794.00 35742728.00 L 17345609.00 35725254.00 L 17328135.00 35683069.00 L 17328135.00 35084645.00 L 17345609.00 35042460.00 L 17387794.00 35024986.00 L 17553148.00 35024986.00 L 17595333.00 35042460.00 L 17612807.00 35084645.00 L 17612807.00 35683069.00 L 17595333.00 35725254.00 L 17553148.00 35742728.00  zM 18045274.00 35742728.00 L 17879920.00 35742728.00 L 17837735.00 35725254.00 L 17820261.00 35683069.00 L 17820261.00 35084645.00 L 17837735.00 35042460.00 L 17879920.00 35024986.00 L 18045274.00 35024986.00 L 18087459.00 35042460.00 L 18104933.00 35084645.00 L 18104933.00 35683069.00 L 18087459.00 35725254.00 L 18045274.00 35742728.00  zM 18420274.00 32700499.00 L 18272636.00 32700499.00 L 18238737.00 32686458.00 L 18224696.00 32652559.00 L 18224696.00 32504921.00 L 18238737.00 32471022.00 L 18272636.00 32456981.00 L 18420274.00 32456981.00 L 18454173.00 32471022.00 L 18468214.00 32504921.00 L 18468214.00 32652559.00 L 18454173.00 32686458.00 L 18420274.00 32700499.00  zM 18813977.00 32700499.00 L 18666339.00 32700499.00 L 18632440.00 32686458.00 L 18618399.00 32652559.00 L 18618399.00 32504921.00 L 18632440.00 32471022.00 L 18666339.00 32456981.00 L 18813977.00 32456981.00 L 18847876.00 32471022.00 L 18861917.00 32504921.00 L 18861917.00 32652559.00 L 18847876.00 32686458.00 L 18813977.00 32700499.00  zM 19178150.00 32700499.00 L 19010828.00 32700499.00 L 18976929.00 32686458.00 L 18962888.00 32652559.00 L 18962888.00 32504921.00 L 18976929.00 32471022.00 L 19010828.00 32456981.00 L 19178150.00 32456981.00 L 19212049.00 32471022.00 L 19226090.00 32504921.00 L 19226090.00 32652559.00 L 19212049.00 32686458.00 L 19178150.00 32700499.00  zM 19644667.00 32398079.00 L 19410455.00 32398079.00 L 19370514.00 32381535.00 L 19353970.00 32341594.00 L 19353970.00 32146594.00 L 19370514.00 32106653.00 L 19410455.00 32090109.00 L 19644667.00 32090109.00 L 19684608.00 32106653.00 L 19701152.00 32146594.00 L 19701152.00 32341594.00 L 19684608.00 32381535.00 L 19644667.00 32398079.00  zM 19644667.00 32949261.00 L 19410455.00 32949261.00 L 19370514.00 32932717.00 L 19353970.00 32892776.00 L 19353970.00 32697776.00 L 19370514.00 32657835.00 L 19410455.00 32641291.00 L 19644667.00 32641291.00 L 19684608.00 32657835.00 L 19701152.00 32697776.00 L 19701152.00 32892776.00 L 19684608.00 32932717.00 L 19644667.00 32949261.00  zM 19340549.00 34640691.00 L 19025589.00 34640691.00 L 18980390.00 34621969.00 L 18961668.00 34576770.00 L 18961668.00 33553148.00 L 18980390.00 33507949.00 L 19025589.00 33489227.00 L 19340549.00 33489227.00 L 19385748.00 33507949.00 L 19404470.00 33553148.00 L 19404470.00 34576770.00 L 19385748.00 34621969.00 L 19340549.00 34640691.00  zM 18537400.00 35742728.00 L 18372046.00 35742728.00 L 18329861.00 35725254.00 L 18312387.00 35683069.00 L 18312387.00 35084645.00 L 18329861.00 35042460.00 L 18372046.00 35024986.00 L 18537400.00 35024986.00 L 18579585.00 35042460.00 L 18597059.00 35084645.00 L 18597059.00 35683069.00 L 18579585.00 35725254.00 L 18537400.00 35742728.00  zM 20162402.00 31046957.00 L 19995080.00 31046957.00 L 19961181.00 31032916.00 L 19947140.00 30999017.00 L 19947140.00 30851379.00 L 19961181.00 30817480.00 L 19995080.00 30803439.00 L 20162402.00 30803439.00 L 20196301.00 30817480.00 L 20210342.00 30851379.00 L 20210342.00 30999017.00 L 20196301.00 31032916.00 L 20162402.00 31046957.00  zM 20792323.00 31046957.00 L 20625001.00 31046957.00 L 20591102.00 31032916.00 L 20577061.00 30999017.00 L 20577061.00 30851379.00 L 20591102.00 30817480.00 L 20625001.00 30803439.00 L 20792323.00 30803439.00 L 20826222.00 30817480.00 L 20840263.00 30851379.00 L 20840263.00 30999017.00 L 20826222.00 31032916.00 L 20792323.00 31046957.00  zM 20792322.00 31753649.00 L 20625000.00 31753649.00 L 20591101.00 31739608.00 L 20577060.00 31705709.00 L 20577060.00 31558071.00 L 20591101.00 31524172.00 L 20625000.00 31510131.00 L 20792322.00 31510131.00 L 20826221.00 31524172.00 L 20840262.00 31558071.00 L 20840262.00 31705709.00 L 20826221.00 31739608.00 L 20792322.00 31753649.00  zM 20792322.00 32111917.00 L 20625000.00 32111917.00 L 20591101.00 32097876.00 L 20577060.00 32063977.00 L 20577060.00 31916339.00 L 20591101.00 31882440.00 L 20625000.00 31868399.00 L 20792322.00 31868399.00 L 20826221.00 31882440.00 L 20840262.00 31916339.00 L 20840262.00 32063977.00 L 20826221.00 32097876.00 L 20792322.00 32111917.00  zM 20792323.00 31401287.00 L 20625001.00 31401287.00 L 20591102.00 31387246.00 L 20577061.00 31353347.00 L 20577061.00 31205709.00 L 20591102.00 31171810.00 L 20625001.00 31157769.00 L 20792323.00 31157769.00 L 20826222.00 31171810.00 L 20840263.00 31205709.00 L 20840263.00 31353347.00 L 20826222.00 31387246.00 L 20792323.00 31401287.00  zM 21422244.00 31401287.00 L 21254922.00 31401287.00 L 21221023.00 31387246.00 L 21206982.00 31353347.00 L 21206982.00 31205709.00 L 21221023.00 31171810.00 L 21254922.00 31157769.00 L 21422244.00 31157769.00 L 21456143.00 31171810.00 L 21470184.00 31205709.00 L 21470184.00 31353347.00 L 21456143.00 31387246.00 L 21422244.00 31401287.00  zM 21422243.00 31753649.00 L 21254921.00 31753649.00 L 21221022.00 31739608.00 L 21206981.00 31705709.00 L 21206981.00 31558071.00 L 21221022.00 31524172.00 L 21254921.00 31510131.00 L 21422243.00 31510131.00 L 21456142.00 31524172.00 L 21470183.00 31558071.00 L 21470183.00 31705709.00 L 21456142.00 31739608.00 L 21422243.00 31753649.00  zM 21422243.00 32111917.00 L 21254921.00 32111917.00 L 21221022.00 32097876.00 L 21206981.00 32063977.00 L 21206981.00 31916339.00 L 21221022.00 31882440.00 L 21254921.00 31868399.00 L 21422243.00 31868399.00 L 21456142.00 31882440.00 L 21470183.00 31916339.00 L 21470183.00 32063977.00 L 21456142.00 32097876.00 L 21422243.00 32111917.00  zM 22365195.00 30724377.00 L 22050235.00 30724377.00 L 22005036.00 30705655.00 L 21986314.00 30660456.00 L 21986314.00 29636834.00 L 22005036.00 29591635.00 L 22050235.00 29572913.00 L 22365195.00 29572913.00 L 22410394.00 29591635.00 L 22429116.00 29636834.00 L 22429116.00 30660456.00 L 22410394.00 30705655.00 L 22365195.00 30724377.00  zM 21422244.00 31046957.00 L 21254922.00 31046957.00 L 21221023.00 31032916.00 L 21206982.00 30999017.00 L 21206982.00 30851379.00 L 21221023.00 30817480.00 L 21254922.00 30803439.00 L 21422244.00 30803439.00 L 21456143.00 30817480.00 L 21470184.00 30851379.00 L 21470184.00 30999017.00 L 21456143.00 31032916.00 L 21422244.00 31046957.00  zM 21846457.00 32464199.00 L 21716537.00 32464199.00 L 21683391.00 32450470.00 L 21669662.00 32417324.00 L 21669662.00 32307088.00 L 21683391.00 32273942.00 L 21716537.00 32260213.00 L 21846457.00 32260213.00 L 21879603.00 32273942.00 L 21893332.00 32307088.00 L 21893332.00 32417324.00 L 21879603.00 32450470.00 L 21846457.00 32464199.00  zM 23018738.00 31826414.00 L 22853384.00 31826414.00 L 22811199.00 31808940.00 L 22793725.00 31766755.00 L 22793725.00 31168331.00 L 22811199.00 31126146.00 L 22853384.00 31108672.00 L 23018738.00 31108672.00 L 23060923.00 31126146.00 L 23078397.00 31168331.00 L 23078397.00 31766755.00 L 23060923.00 31808940.00 L 23018738.00 31826414.00  zM 25298265.00 30724377.00 L 24983305.00 30724377.00 L 24938106.00 30705655.00 L 24919384.00 30660456.00 L 24919384.00 29636834.00 L 24938106.00 29591635.00 L 24983305.00 29572913.00 L 25298265.00 29572913.00 L 25343464.00 29591635.00 L 25362186.00 29636834.00 L 25362186.00 30660456.00 L 25343464.00 30705655.00 L 25298265.00 30724377.00  zM 24495116.00 31826414.00 L 24329762.00 31826414.00 L 24287577.00 31808940.00 L 24270103.00 31766755.00 L 24270103.00 31168331.00 L 24287577.00 31126146.00 L 24329762.00 31108672.00 L 24495116.00 31108672.00 L 24537301.00 31126146.00 L 24554775.00 31168331.00 L 24554775.00 31766755.00 L 24537301.00 31808940.00 L 24495116.00 31826414.00  zM 23510864.00 31826414.00 L 23345510.00 31826414.00 L 23303325.00 31808940.00 L 23285851.00 31766755.00 L 23285851.00 31168331.00 L 23303325.00 31126146.00 L 23345510.00 31108672.00 L 23510864.00 31108672.00 L 23553049.00 31126146.00 L 23570523.00 31168331.00 L 23570523.00 31766755.00 L 23553049.00 31808940.00 L 23510864.00 31826414.00  zM 24002990.00 31826414.00 L 23837636.00 31826414.00 L 23795451.00 31808940.00 L 23777977.00 31766755.00 L 23777977.00 31168331.00 L 23795451.00 31126146.00 L 23837636.00 31108672.00 L 24002990.00 31108672.00 L 24045175.00 31126146.00 L 24062649.00 31168331.00 L 24062649.00 31766755.00 L 24045175.00 31808940.00 L 24002990.00 31826414.00  zM 21846457.00 32779159.00 L 21716537.00 32779159.00 L 21683391.00 32765430.00 L 21669662.00 32732284.00 L 21669662.00 32622048.00 L 21683391.00 32588902.00 L 21716537.00 32575173.00 L 21846457.00 32575173.00 L 21879603.00 32588902.00 L 21893332.00 32622048.00 L 21893332.00 32732284.00 L 21879603.00 32765430.00 L 21846457.00 32779159.00  zM 22296260.00 32641607.00 L 22172246.00 32641607.00 L 22136840.00 32626942.00 L 22122175.00 32591536.00 L 22122175.00 32447836.00 L 22136840.00 32412430.00 L 22172246.00 32397765.00 L 22296260.00 32397765.00 L 22331666.00 32412430.00 L 22346331.00 32447836.00 L 22346331.00 32591536.00 L 22331666.00 32626942.00 L 22296260.00 32641607.00  zM 23489174.00 32848138.00 L 23341536.00 32848138.00 L 23307637.00 32834097.00 L 23293596.00 32800198.00 L 23293596.00 32652560.00 L 23307637.00 32618661.00 L 23341536.00 32604620.00 L 23489174.00 32604620.00 L 23523073.00 32618661.00 L 23537114.00 32652560.00 L 23537114.00 32800198.00 L 23523073.00 32834097.00 L 23489174.00 32848138.00  zM 23981300.00 32848138.00 L 23833662.00 32848138.00 L 23799763.00 32834097.00 L 23785722.00 32800198.00 L 23785722.00 32652560.00 L 23799763.00 32618661.00 L 23833662.00 32604620.00 L 23981300.00 32604620.00 L 24015199.00 32618661.00 L 24029240.00 32652560.00 L 24029240.00 32800198.00 L 24015199.00 32834097.00 L 23981300.00 32848138.00  zM 21387804.00 34640692.00 L 21072844.00 34640692.00 L 21027645.00 34621970.00 L 21008923.00 34576771.00 L 21008923.00 33553149.00 L 21027645.00 33507950.00 L 21072844.00 33489228.00 L 21387804.00 33489228.00 L 21433003.00 33507950.00 L 21451725.00 33553149.00 L 21451725.00 34576771.00 L 21433003.00 34621970.00 L 21387804.00 34640692.00  zM 22041347.00 35742729.00 L 21875993.00 35742729.00 L 21833808.00 35725255.00 L 21816334.00 35683070.00 L 21816334.00 35084646.00 L 21833808.00 35042461.00 L 21875993.00 35024987.00 L 22041347.00 35024987.00 L 22083532.00 35042461.00 L 22101006.00 35084646.00 L 22101006.00 35683070.00 L 22083532.00 35725255.00 L 22041347.00 35742729.00  zM 23489174.00 33202468.00 L 23341536.00 33202468.00 L 23307637.00 33188427.00 L 23293596.00 33154528.00 L 23293596.00 33006890.00 L 23307637.00 32972991.00 L 23341536.00 32958950.00 L 23489174.00 32958950.00 L 23523073.00 32972991.00 L 23537114.00 33006890.00 L 23537114.00 33154528.00 L 23523073.00 33188427.00 L 23489174.00 33202468.00  zM 23981300.00 33202468.00 L 23833662.00 33202468.00 L 23799763.00 33188427.00 L 23785722.00 33154528.00 L 23785722.00 33006890.00 L 23799763.00 32972991.00 L 23833662.00 32958950.00 L 23981300.00 32958950.00 L 24015199.00 32972991.00 L 24029240.00 33006890.00 L 24029240.00 33154528.00 L 24015199.00 33188427.00 L 23981300.00 33202468.00  zM 24473426.00 32848138.00 L 24325788.00 32848138.00 L 24291889.00 32834097.00 L 24277848.00 32800198.00 L 24277848.00 32652560.00 L 24291889.00 32618661.00 L 24325788.00 32604620.00 L 24473426.00 32604620.00 L 24507325.00 32618661.00 L 24521366.00 32652560.00 L 24521366.00 32800198.00 L 24507325.00 32834097.00 L 24473426.00 32848138.00  zM 24837599.00 32848138.00 L 24670277.00 32848138.00 L 24636378.00 32834097.00 L 24622337.00 32800198.00 L 24622337.00 32652560.00 L 24636378.00 32618661.00 L 24670277.00 32604620.00 L 24837599.00 32604620.00 L 24871498.00 32618661.00 L 24885539.00 32652560.00 L 24885539.00 32800198.00 L 24871498.00 32834097.00 L 24837599.00 32848138.00  zM 24837599.00 33202468.00 L 24670277.00 33202468.00 L 24636378.00 33188427.00 L 24622337.00 33154528.00 L 24622337.00 33006890.00 L 24636378.00 32972991.00 L 24670277.00 32958950.00 L 24837599.00 32958950.00 L 24871498.00 32972991.00 L 24885539.00 33006890.00 L 24885539.00 33154528.00 L 24871498.00 33188427.00 L 24837599.00 33202468.00  zM 25191929.00 32848138.00 L 25024607.00 32848138.00 L 24990708.00 32834097.00 L 24976667.00 32800198.00 L 24976667.00 32652560.00 L 24990708.00 32618661.00 L 25024607.00 32604620.00 L 25191929.00 32604620.00 L 25225828.00 32618661.00 L 25239869.00 32652560.00 L 25239869.00 32800198.00 L 25225828.00 32834097.00 L 25191929.00 32848138.00  zM 24473426.00 33202468.00 L 24325788.00 33202468.00 L 24291889.00 33188427.00 L 24277848.00 33154528.00 L 24277848.00 33006890.00 L 24291889.00 32972991.00 L 24325788.00 32958950.00 L 24473426.00 32958950.00 L 24507325.00 32972991.00 L 24521366.00 33006890.00 L 24521366.00 33154528.00 L 24507325.00 33188427.00 L 24473426.00 33202468.00  zM 25191929.00 33202468.00 L 25024607.00 33202468.00 L 24990708.00 33188427.00 L 24976667.00 33154528.00 L 24976667.00 33006890.00 L 24990708.00 32972991.00 L 25024607.00 32958950.00 L 25191929.00 32958950.00 L 25225828.00 32972991.00 L 25239869.00 33006890.00 L 25239869.00 33154528.00 L 25225828.00 33188427.00 L 25191929.00 33202468.00  zM 25305126.00 34640692.00 L 24990166.00 34640692.00 L 24944967.00 34621970.00 L 24926245.00 34576771.00 L 24926245.00 33553149.00 L 24944967.00 33507950.00 L 24990166.00 33489228.00 L 25305126.00 33489228.00 L 25350325.00 33507950.00 L 25369047.00 33553149.00 L 25369047.00 34576771.00 L 25350325.00 34621970.00 L 25305126.00 34640692.00  zM 17544290.00 36430814.00 L 17396652.00 36430814.00 L 17362753.00 36416773.00 L 17348712.00 36382874.00 L 17348712.00 36235236.00 L 17362753.00 36201337.00 L 17396652.00 36187296.00 L 17544290.00 36187296.00 L 17578189.00 36201337.00 L 17592230.00 36235236.00 L 17592230.00 36382874.00 L 17578189.00 36416773.00 L 17544290.00 36430814.00  zM 18036416.00 36785144.00 L 17888778.00 36785144.00 L 17854879.00 36771103.00 L 17840838.00 36737204.00 L 17840838.00 36589566.00 L 17854879.00 36555667.00 L 17888778.00 36541626.00 L 18036416.00 36541626.00 L 18070315.00 36555667.00 L 18084356.00 36589566.00 L 18084356.00 36737204.00 L 18070315.00 36771103.00 L 18036416.00 36785144.00  zM 18036416.00 36430814.00 L 17888778.00 36430814.00 L 17854879.00 36416773.00 L 17840838.00 36382874.00 L 17840838.00 36235236.00 L 17854879.00 36201337.00 L 17888778.00 36187296.00 L 18036416.00 36187296.00 L 18070315.00 36201337.00 L 18084356.00 36235236.00 L 18084356.00 36382874.00 L 18070315.00 36416773.00 L 18036416.00 36430814.00  zM 18528542.00 36430814.00 L 18380904.00 36430814.00 L 18347005.00 36416773.00 L 18332964.00 36382874.00 L 18332964.00 36235236.00 L 18347005.00 36201337.00 L 18380904.00 36187296.00 L 18528542.00 36187296.00 L 18562441.00 36201337.00 L 18576482.00 36235236.00 L 18576482.00 36382874.00 L 18562441.00 36416773.00 L 18528542.00 36430814.00  zM 17544290.00 36785144.00 L 17396652.00 36785144.00 L 17362753.00 36771103.00 L 17348712.00 36737204.00 L 17348712.00 36589566.00 L 17362753.00 36555667.00 L 17396652.00 36541626.00 L 17544290.00 36541626.00 L 17578189.00 36555667.00 L 17592230.00 36589566.00 L 17592230.00 36737204.00 L 17578189.00 36771103.00 L 17544290.00 36785144.00  zM 18528542.00 36785144.00 L 18380904.00 36785144.00 L 18347005.00 36771103.00 L 18332964.00 36737204.00 L 18332964.00 36589566.00 L 18347005.00 36555667.00 L 18380904.00 36541626.00 L 18528542.00 36541626.00 L 18562441.00 36555667.00 L 18576482.00 36589566.00 L 18576482.00 36737204.00 L 18562441.00 36771103.00 L 18528542.00 36785144.00  zM 16407487.00 38498960.00 L 16092527.00 38498960.00 L 16047328.00 38480238.00 L 16028606.00 38435039.00 L 16028606.00 37411417.00 L 16047328.00 37366218.00 L 16092527.00 37347496.00 L 16407487.00 37347496.00 L 16452686.00 37366218.00 L 16471408.00 37411417.00 L 16471408.00 38435039.00 L 16452686.00 38480238.00 L 16407487.00 38498960.00  zM 17553156.00 39600997.00 L 17387802.00 39600997.00 L 17345617.00 39583523.00 L 17328143.00 39541338.00 L 17328143.00 38942914.00 L 17345617.00 38900729.00 L 17387802.00 38883255.00 L 17553156.00 38883255.00 L 17595341.00 38900729.00 L 17612815.00 38942914.00 L 17612815.00 39541338.00 L 17595341.00 39583523.00 L 17553156.00 39600997.00  zM 17061030.00 39600997.00 L 16895676.00 39600997.00 L 16853491.00 39583523.00 L 16836017.00 39541338.00 L 16836017.00 38942914.00 L 16853491.00 38900729.00 L 16895676.00 38883255.00 L 17061030.00 38883255.00 L 17103215.00 38900729.00 L 17120689.00 38942914.00 L 17120689.00 39541338.00 L 17103215.00 39583523.00 L 17061030.00 39600997.00  zM 18045282.00 39600997.00 L 17879928.00 39600997.00 L 17837743.00 39583523.00 L 17820269.00 39541338.00 L 17820269.00 38942914.00 L 17837743.00 38900729.00 L 17879928.00 38883255.00 L 18045282.00 38883255.00 L 18087467.00 38900729.00 L 18104941.00 38942914.00 L 18104941.00 39541338.00 L 18087467.00 39583523.00 L 18045282.00 39600997.00  zM 17544292.00 40289083.00 L 17396654.00 40289083.00 L 17362755.00 40275042.00 L 17348714.00 40241143.00 L 17348714.00 40093505.00 L 17362755.00 40059606.00 L 17396654.00 40045565.00 L 17544292.00 40045565.00 L 17578191.00 40059606.00 L 17592232.00 40093505.00 L 17592232.00 40241143.00 L 17578191.00 40275042.00 L 17544292.00 40289083.00  zM 18036418.00 40289083.00 L 17888780.00 40289083.00 L 17854881.00 40275042.00 L 17840840.00 40241143.00 L 17840840.00 40093505.00 L 17854881.00 40059606.00 L 17888780.00 40045565.00 L 18036418.00 40045565.00 L 18070317.00 40059606.00 L 18084358.00 40093505.00 L 18084358.00 40241143.00 L 18070317.00 40275042.00 L 18036418.00 40289083.00  zM 17544292.00 40643413.00 L 17396654.00 40643413.00 L 17362755.00 40629372.00 L 17348714.00 40595473.00 L 17348714.00 40447835.00 L 17362755.00 40413936.00 L 17396654.00 40399895.00 L 17544292.00 40399895.00 L 17578191.00 40413936.00 L 17592232.00 40447835.00 L 17592232.00 40595473.00 L 17578191.00 40629372.00 L 17544292.00 40643413.00  zM 18036418.00 40643413.00 L 17888780.00 40643413.00 L 17854881.00 40629372.00 L 17840840.00 40595473.00 L 17840840.00 40447835.00 L 17854881.00 40413936.00 L 17888780.00 40399895.00 L 18036418.00 40399895.00 L 18070317.00 40413936.00 L 18084358.00 40447835.00 L 18084358.00 40595473.00 L 18070317.00 40629372.00 L 18036418.00 40643413.00  zM 18528544.00 40289083.00 L 18380906.00 40289083.00 L 18347007.00 40275042.00 L 18332966.00 40241143.00 L 18332966.00 40093505.00 L 18347007.00 40059606.00 L 18380906.00 40045565.00 L 18528544.00 40045565.00 L 18562443.00 40059606.00 L 18576484.00 40093505.00 L 18576484.00 40241143.00 L 18562443.00 40275042.00 L 18528544.00 40289083.00  zM 18528544.00 40643413.00 L 18380906.00 40643413.00 L 18347007.00 40629372.00 L 18332966.00 40595473.00 L 18332966.00 40447835.00 L 18347007.00 40413936.00 L 18380906.00 40399895.00 L 18528544.00 40399895.00 L 18562443.00 40413936.00 L 18576484.00 40447835.00 L 18576484.00 40595473.00 L 18562443.00 40629372.00 L 18528544.00 40643413.00  zM 18892714.00 36430814.00 L 18725392.00 36430814.00 L 18691493.00 36416773.00 L 18677452.00 36382874.00 L 18677452.00 36235236.00 L 18691493.00 36201337.00 L 18725392.00 36187296.00 L 18892714.00 36187296.00 L 18926613.00 36201337.00 L 18940654.00 36235236.00 L 18940654.00 36382874.00 L 18926613.00 36416773.00 L 18892714.00 36430814.00  zM 18892714.00 36785144.00 L 18725392.00 36785144.00 L 18691493.00 36771103.00 L 18677452.00 36737204.00 L 18677452.00 36589566.00 L 18691493.00 36555667.00 L 18725392.00 36541626.00 L 18892714.00 36541626.00 L 18926613.00 36555667.00 L 18940654.00 36589566.00 L 18940654.00 36737204.00 L 18926613.00 36771103.00 L 18892714.00 36785144.00  zM 19247045.00 36430814.00 L 19079723.00 36430814.00 L 19045824.00 36416773.00 L 19031783.00 36382874.00 L 19031783.00 36235236.00 L 19045824.00 36201337.00 L 19079723.00 36187296.00 L 19247045.00 36187296.00 L 19280944.00 36201337.00 L 19294985.00 36235236.00 L 19294985.00 36382874.00 L 19280944.00 36416773.00 L 19247045.00 36430814.00  zM 19247045.00 36785144.00 L 19079723.00 36785144.00 L 19045824.00 36771103.00 L 19031783.00 36737204.00 L 19031783.00 36589566.00 L 19045824.00 36555667.00 L 19079723.00 36541626.00 L 19247045.00 36541626.00 L 19280944.00 36555667.00 L 19294985.00 36589566.00 L 19294985.00 36737204.00 L 19280944.00 36771103.00 L 19247045.00 36785144.00  zM 22533473.00 35742729.00 L 22368119.00 35742729.00 L 22325934.00 35725255.00 L 22308460.00 35683070.00 L 22308460.00 35084646.00 L 22325934.00 35042461.00 L 22368119.00 35024987.00 L 22533473.00 35024987.00 L 22575658.00 35042461.00 L 22593132.00 35084646.00 L 22593132.00 35683070.00 L 22575658.00 35725255.00 L 22533473.00 35742729.00  zM 22524615.00 36440657.00 L 22376977.00 36440657.00 L 22343078.00 36426616.00 L 22329037.00 36392717.00 L 22329037.00 36245079.00 L 22343078.00 36211180.00 L 22376977.00 36197139.00 L 22524615.00 36197139.00 L 22558514.00 36211180.00 L 22572555.00 36245079.00 L 22572555.00 36392717.00 L 22558514.00 36426616.00 L 22524615.00 36440657.00  zM 22524615.00 36794987.00 L 22376977.00 36794987.00 L 22343078.00 36780946.00 L 22329037.00 36747047.00 L 22329037.00 36599409.00 L 22343078.00 36565510.00 L 22376977.00 36551469.00 L 22524615.00 36551469.00 L 22558514.00 36565510.00 L 22572555.00 36599409.00 L 22572555.00 36747047.00 L 22558514.00 36780946.00 L 22524615.00 36794987.00  zM 23014764.00 36785145.00 L 22867126.00 36785145.00 L 22833227.00 36771104.00 L 22819186.00 36737205.00 L 22819186.00 36589567.00 L 22833227.00 36555668.00 L 22867126.00 36541627.00 L 23014764.00 36541627.00 L 23048663.00 36555668.00 L 23062704.00 36589567.00 L 23062704.00 36737205.00 L 23048663.00 36771104.00 L 23014764.00 36785145.00  zM 18537408.00 39600997.00 L 18372054.00 39600997.00 L 18329869.00 39583523.00 L 18312395.00 39541338.00 L 18312395.00 38942914.00 L 18329869.00 38900729.00 L 18372054.00 38883255.00 L 18537408.00 38883255.00 L 18579593.00 38900729.00 L 18597067.00 38942914.00 L 18597067.00 39541338.00 L 18579593.00 39583523.00 L 18537408.00 39600997.00  zM 18892717.00 40289083.00 L 18725395.00 40289083.00 L 18691496.00 40275042.00 L 18677455.00 40241143.00 L 18677455.00 40093505.00 L 18691496.00 40059606.00 L 18725395.00 40045565.00 L 18892717.00 40045565.00 L 18926616.00 40059606.00 L 18940657.00 40093505.00 L 18940657.00 40241143.00 L 18926616.00 40275042.00 L 18892717.00 40289083.00  zM 18892717.00 40643413.00 L 18725395.00 40643413.00 L 18691496.00 40629372.00 L 18677455.00 40595473.00 L 18677455.00 40447835.00 L 18691496.00 40413936.00 L 18725395.00 40399895.00 L 18892717.00 40399895.00 L 18926616.00 40413936.00 L 18940657.00 40447835.00 L 18940657.00 40595473.00 L 18926616.00 40629372.00 L 18892717.00 40643413.00  zM 19247047.00 40289083.00 L 19079725.00 40289083.00 L 19045826.00 40275042.00 L 19031785.00 40241143.00 L 19031785.00 40093505.00 L 19045826.00 40059606.00 L 19079725.00 40045565.00 L 19247047.00 40045565.00 L 19280946.00 40059606.00 L 19294987.00 40093505.00 L 19294987.00 40241143.00 L 19280946.00 40275042.00 L 19247047.00 40289083.00  zM 19340557.00 38498960.00 L 19025597.00 38498960.00 L 18980398.00 38480238.00 L 18961676.00 38435039.00 L 18961676.00 37411417.00 L 18980398.00 37366218.00 L 19025597.00 37347496.00 L 19340557.00 37347496.00 L 19385756.00 37366218.00 L 19404478.00 37411417.00 L 19404478.00 38435039.00 L 19385756.00 38480238.00 L 19340557.00 38498960.00  zM 19247047.00 40643413.00 L 19079725.00 40643413.00 L 19045826.00 40629372.00 L 19031785.00 40595473.00 L 19031785.00 40447835.00 L 19045826.00 40413936.00 L 19079725.00 40399895.00 L 19247047.00 40399895.00 L 19280946.00 40413936.00 L 19294987.00 40447835.00 L 19294987.00 40595473.00 L 19280946.00 40629372.00 L 19247047.00 40643413.00  zM 22391732.00 38498961.00 L 22076772.00 38498961.00 L 22031573.00 38480239.00 L 22012851.00 38435040.00 L 22012851.00 37411418.00 L 22031573.00 37366219.00 L 22076772.00 37347497.00 L 22391732.00 37347497.00 L 22436931.00 37366219.00 L 22455653.00 37411418.00 L 22455653.00 38435040.00 L 22436931.00 38480239.00 L 22391732.00 38498961.00  zM 23517725.00 35742729.00 L 23352371.00 35742729.00 L 23310186.00 35725255.00 L 23292712.00 35683070.00 L 23292712.00 35084646.00 L 23310186.00 35042461.00 L 23352371.00 35024987.00 L 23517725.00 35024987.00 L 23559910.00 35042461.00 L 23577384.00 35084646.00 L 23577384.00 35683070.00 L 23559910.00 35725255.00 L 23517725.00 35742729.00  zM 24009851.00 35742729.00 L 23844497.00 35742729.00 L 23802312.00 35725255.00 L 23784838.00 35683070.00 L 23784838.00 35084646.00 L 23802312.00 35042461.00 L 23844497.00 35024987.00 L 24009851.00 35024987.00 L 24052036.00 35042461.00 L 24069510.00 35084646.00 L 24069510.00 35683070.00 L 24052036.00 35725255.00 L 24009851.00 35742729.00  zM 23025599.00 35742729.00 L 22860245.00 35742729.00 L 22818060.00 35725255.00 L 22800586.00 35683070.00 L 22800586.00 35084646.00 L 22818060.00 35042461.00 L 22860245.00 35024987.00 L 23025599.00 35024987.00 L 23067784.00 35042461.00 L 23085258.00 35084646.00 L 23085258.00 35683070.00 L 23067784.00 35725255.00 L 23025599.00 35742729.00  zM 23508867.00 36430815.00 L 23361229.00 36430815.00 L 23327330.00 36416774.00 L 23313289.00 36382875.00 L 23313289.00 36235237.00 L 23327330.00 36201338.00 L 23361229.00 36187297.00 L 23508867.00 36187297.00 L 23542766.00 36201338.00 L 23556807.00 36235237.00 L 23556807.00 36382875.00 L 23542766.00 36416774.00 L 23508867.00 36430815.00  zM 23014764.00 36430815.00 L 22867126.00 36430815.00 L 22833227.00 36416774.00 L 22819186.00 36382875.00 L 22819186.00 36235237.00 L 22833227.00 36201338.00 L 22867126.00 36187297.00 L 23014764.00 36187297.00 L 23048663.00 36201338.00 L 23062704.00 36235237.00 L 23062704.00 36382875.00 L 23048663.00 36416774.00 L 23014764.00 36430815.00  zM 23508867.00 36785145.00 L 23361229.00 36785145.00 L 23327330.00 36771104.00 L 23313289.00 36737205.00 L 23313289.00 36589567.00 L 23327330.00 36555668.00 L 23361229.00 36541627.00 L 23508867.00 36541627.00 L 23542766.00 36555668.00 L 23556807.00 36589567.00 L 23556807.00 36737205.00 L 23542766.00 36771104.00 L 23508867.00 36785145.00  zM 24000993.00 36430815.00 L 23853355.00 36430815.00 L 23819456.00 36416774.00 L 23805415.00 36382875.00 L 23805415.00 36235237.00 L 23819456.00 36201338.00 L 23853355.00 36187297.00 L 24000993.00 36187297.00 L 24034892.00 36201338.00 L 24048933.00 36235237.00 L 24048933.00 36382875.00 L 24034892.00 36416774.00 L 24000993.00 36430815.00  zM 24000993.00 36785145.00 L 23853355.00 36785145.00 L 23819456.00 36771104.00 L 23805415.00 36737205.00 L 23805415.00 36589567.00 L 23819456.00 36555668.00 L 23853355.00 36541627.00 L 24000993.00 36541627.00 L 24034892.00 36555668.00 L 24048933.00 36589567.00 L 24048933.00 36737205.00 L 24034892.00 36771104.00 L 24000993.00 36785145.00  zM 24501977.00 35742729.00 L 24336623.00 35742729.00 L 24294438.00 35725255.00 L 24276964.00 35683070.00 L 24276964.00 35084646.00 L 24294438.00 35042461.00 L 24336623.00 35024987.00 L 24501977.00 35024987.00 L 24544162.00 35042461.00 L 24561636.00 35084646.00 L 24561636.00 35683070.00 L 24544162.00 35725255.00 L 24501977.00 35742729.00  zM 24857289.00 36430815.00 L 24689967.00 36430815.00 L 24656068.00 36416774.00 L 24642027.00 36382875.00 L 24642027.00 36235237.00 L 24656068.00 36201338.00 L 24689967.00 36187297.00 L 24857289.00 36187297.00 L 24891188.00 36201338.00 L 24905229.00 36235237.00 L 24905229.00 36382875.00 L 24891188.00 36416774.00 L 24857289.00 36430815.00  zM 24493119.00 36430815.00 L 24345481.00 36430815.00 L 24311582.00 36416774.00 L 24297541.00 36382875.00 L 24297541.00 36235237.00 L 24311582.00 36201338.00 L 24345481.00 36187297.00 L 24493119.00 36187297.00 L 24527018.00 36201338.00 L 24541059.00 36235237.00 L 24541059.00 36382875.00 L 24527018.00 36416774.00 L 24493119.00 36430815.00  zM 25209645.00 36430815.00 L 25042323.00 36430815.00 L 25008424.00 36416774.00 L 24994383.00 36382875.00 L 24994383.00 36235237.00 L 25008424.00 36201338.00 L 25042323.00 36187297.00 L 25209645.00 36187297.00 L 25243544.00 36201338.00 L 25257585.00 36235237.00 L 25257585.00 36382875.00 L 25243544.00 36416774.00 L 25209645.00 36430815.00  zM 24493119.00 36785145.00 L 24345481.00 36785145.00 L 24311582.00 36771104.00 L 24297541.00 36737205.00 L 24297541.00 36589567.00 L 24311582.00 36555668.00 L 24345481.00 36541627.00 L 24493119.00 36541627.00 L 24527018.00 36555668.00 L 24541059.00 36589567.00 L 24541059.00 36737205.00 L 24527018.00 36771104.00 L 24493119.00 36785145.00  zM 24857289.00 36785145.00 L 24689967.00 36785145.00 L 24656068.00 36771104.00 L 24642027.00 36737205.00 L 24642027.00 36589567.00 L 24656068.00 36555668.00 L 24689967.00 36541627.00 L 24857289.00 36541627.00 L 24891188.00 36555668.00 L 24905229.00 36589567.00 L 24905229.00 36737205.00 L 24891188.00 36771104.00 L 24857289.00 36785145.00  zM 25209645.00 36785145.00 L 25042323.00 36785145.00 L 25008424.00 36771104.00 L 24994383.00 36737205.00 L 24994383.00 36589567.00 L 25008424.00 36555668.00 L 25042323.00 36541627.00 L 25209645.00 36541627.00 L 25243544.00 36555668.00 L 25257585.00 36589567.00 L 25257585.00 36737205.00 L 25243544.00 36771104.00 L 25209645.00 36785145.00  zM 23045275.00 39600998.00 L 22879921.00 39600998.00 L 22837736.00 39583524.00 L 22820262.00 39541339.00 L 22820262.00 38942915.00 L 22837736.00 38900730.00 L 22879921.00 38883256.00 L 23045275.00 38883256.00 L 23087460.00 38900730.00 L 23104934.00 38942915.00 L 23104934.00 39541339.00 L 23087460.00 39583524.00 L 23045275.00 39600998.00  zM 23537401.00 39600998.00 L 23372047.00 39600998.00 L 23329862.00 39583524.00 L 23312388.00 39541339.00 L 23312388.00 38942915.00 L 23329862.00 38900730.00 L 23372047.00 38883256.00 L 23537401.00 38883256.00 L 23579586.00 38900730.00 L 23597060.00 38942915.00 L 23597060.00 39541339.00 L 23579586.00 39583524.00 L 23537401.00 39600998.00  zM 25324802.00 38498961.00 L 25009842.00 38498961.00 L 24964643.00 38480239.00 L 24945921.00 38435040.00 L 24945921.00 37411418.00 L 24964643.00 37366219.00 L 25009842.00 37347497.00 L 25324802.00 37347497.00 L 25370001.00 37366219.00 L 25388723.00 37411418.00 L 25388723.00 38435040.00 L 25370001.00 38480239.00 L 25324802.00 38498961.00  zM 24521653.00 39600998.00 L 24356299.00 39600998.00 L 24314114.00 39583524.00 L 24296640.00 39541339.00 L 24296640.00 38942915.00 L 24314114.00 38900730.00 L 24356299.00 38883256.00 L 24521653.00 38883256.00 L 24563838.00 38900730.00 L 24581312.00 38942915.00 L 24581312.00 39541339.00 L 24563838.00 39583524.00 L 24521653.00 39600998.00  zM 24029527.00 39600998.00 L 23864173.00 39600998.00 L 23821988.00 39583524.00 L 23804514.00 39541339.00 L 23804514.00 38942915.00 L 23821988.00 38900730.00 L 23864173.00 38883256.00 L 24029527.00 38883256.00 L 24071712.00 38900730.00 L 24089186.00 38942915.00 L 24089186.00 39541339.00 L 24071712.00 39583524.00 L 24029527.00 39600998.00  zM 24512796.00 40289083.00 L 24365158.00 40289083.00 L 24331259.00 40275042.00 L 24317218.00 40241143.00 L 24317218.00 40093505.00 L 24331259.00 40059606.00 L 24365158.00 40045565.00 L 24512796.00 40045565.00 L 24546695.00 40059606.00 L 24560736.00 40093505.00 L 24560736.00 40241143.00 L 24546695.00 40275042.00 L 24512796.00 40289083.00  zM 24020670.00 40289083.00 L 23873032.00 40289083.00 L 23839133.00 40275042.00 L 23825092.00 40241143.00 L 23825092.00 40093505.00 L 23839133.00 40059606.00 L 23873032.00 40045565.00 L 24020670.00 40045565.00 L 24054569.00 40059606.00 L 24068610.00 40093505.00 L 24068610.00 40241143.00 L 24054569.00 40275042.00 L 24020670.00 40289083.00  zM 24876969.00 40289083.00 L 24709647.00 40289083.00 L 24675748.00 40275042.00 L 24661707.00 40241143.00 L 24661707.00 40093505.00 L 24675748.00 40059606.00 L 24709647.00 40045565.00 L 24876969.00 40045565.00 L 24910868.00 40059606.00 L 24924909.00 40093505.00 L 24924909.00 40241143.00 L 24910868.00 40275042.00 L 24876969.00 40289083.00  zM 23528544.00 40289083.00 L 23380906.00 40289083.00 L 23347007.00 40275042.00 L 23332966.00 40241143.00 L 23332966.00 40093505.00 L 23347007.00 40059606.00 L 23380906.00 40045565.00 L 23528544.00 40045565.00 L 23562443.00 40059606.00 L 23576484.00 40093505.00 L 23576484.00 40241143.00 L 23562443.00 40275042.00 L 23528544.00 40289083.00  zM 23528544.00 40643413.00 L 23380906.00 40643413.00 L 23347007.00 40629372.00 L 23332966.00 40595473.00 L 23332966.00 40447835.00 L 23347007.00 40413936.00 L 23380906.00 40399895.00 L 23528544.00 40399895.00 L 23562443.00 40413936.00 L 23576484.00 40447835.00 L 23576484.00 40595473.00 L 23562443.00 40629372.00 L 23528544.00 40643413.00  zM 24020670.00 40643413.00 L 23873032.00 40643413.00 L 23839133.00 40629372.00 L 23825092.00 40595473.00 L 23825092.00 40447835.00 L 23839133.00 40413936.00 L 23873032.00 40399895.00 L 24020670.00 40399895.00 L 24054569.00 40413936.00 L 24068610.00 40447835.00 L 24068610.00 40595473.00 L 24054569.00 40629372.00 L 24020670.00 40643413.00  zM 24512796.00 40643413.00 L 24365158.00 40643413.00 L 24331259.00 40629372.00 L 24317218.00 40595473.00 L 24317218.00 40447835.00 L 24331259.00 40413936.00 L 24365158.00 40399895.00 L 24512796.00 40399895.00 L 24546695.00 40413936.00 L 24560736.00 40447835.00 L 24560736.00 40595473.00 L 24546695.00 40629372.00 L 24512796.00 40643413.00  zM 24876969.00 40643413.00 L 24709647.00 40643413.00 L 24675748.00 40629372.00 L 24661707.00 40595473.00 L 24661707.00 40447835.00 L 24675748.00 40413936.00 L 24709647.00 40399895.00 L 24876969.00 40399895.00 L 24910868.00 40413936.00 L 24924909.00 40447835.00 L 24924909.00 40595473.00 L 24910868.00 40629372.00 L 24876969.00 40643413.00  zM 25231299.00 40289083.00 L 25063977.00 40289083.00 L 25030078.00 40275042.00 L 25016037.00 40241143.00 L 25016037.00 40093505.00 L 25030078.00 40059606.00 L 25063977.00 40045565.00 L 25231299.00 40045565.00 L 25265198.00 40059606.00 L 25279239.00 40093505.00 L 25279239.00 40241143.00 L 25265198.00 40275042.00 L 25231299.00 40289083.00  zM 25231299.00 40643413.00 L 25063977.00 40643413.00 L 25030078.00 40629372.00 L 25016037.00 40595473.00 L 25016037.00 40447835.00 L 25030078.00 40413936.00 L 25063977.00 40399895.00 L 25231299.00 40399895.00 L 25265198.00 40413936.00 L 25279239.00 40447835.00 L 25279239.00 40595473.00 L 25265198.00 40629372.00 L 25231299.00 40643413.00  z"/>
</g>
</svg>
