<svg width="25.9999988mm" height="35.00000366mm" viewBox="0 0 10236220 13779529"  version="1.1" xmlns="http://www.w3.org/2000/svg" xmlns:xlink="http://www.w3.org/1999/xlink">
<desc>
Origin 20708662 43307087 Bound 15590552 29527559 10236220 13779529
</desc>
<g fill-rule="evenodd" fill="rgb(255, 0, 255)" stroke="black" stroke-width="1" transform="translate(0, 13779529) scale(1, -1) translate(-15590552, -29527559)">
<path id="N" d="M 24616142.00 41929133.00 L 24619924.00 41890730.00 A 196848.26 196848.26 0 0 1 24812991.00 41732283.00 L 25826772.00 41732284.00 L 25826772.00 29527559.00 L 21717457.00 29527559.00 A 1008808.17 1008808.17 0 0 1 19699867.00 29527559.00 L 15590552.00 29527559.00 L 15590552.00 41732284.00 L 16604325.00 41732284.00 L 16642729.00 41736064.00 A 196835.16 196835.16 0 0 1 16801180.00 41929133.00 L 16801180.14 42106301.00 L 22893763.04 42106299.44 L 22923668.00 42034106.00 A 236203.75 236203.75 0 0 1 23316488.00 42034110.00 L 23346388.30 42106299.32 L 24616139.00 42106299.00 L 24616141.19 42982548.26 L 24616142.00 41929133.00  z"/>
</g>
</svg>
