<svg width="25.9999988mm" height="35.00000366mm" viewBox="0 0 10236220 13779529"  version="1.1" xmlns="http://www.w3.org/2000/svg" xmlns:xlink="http://www.w3.org/1999/xlink">
<desc>
Origin 20708662 43307087 Bound 15590552 29527559 10236220 13779529
</desc>
<g fill-rule="evenodd" fill="rgb(255, 255, 0)" stroke="black" stroke-width="1" transform="translate(0, 13779529) scale(1, -1) translate(-15590552, -29527559)">
<path id="N" d="M 21289733.98 32745322.99 L 21300107.98 32742046.99 L 21302291.98 32737132.99 L 21289187.98 32708740.99 L 21278267.98 32676526.99 L 21275537.98 32642128.99 L 21280997.98 32613190.99 L 21292463.98 32590804.99 L 21306113.99 32574970.99 L 21325223.99 32561866.99 L 21346517.99 32553676.99 L 21382553.99 32549308.99 L 21421319.99 32553677.00 L 21440429.99 32560775.00 L 21462815.99 32576063.00 L 21476465.98 32593535.00 L 21484655.98 32612099.00 L 21489023.98 32644313.00 L 21486839.98 32665607.00 L 21479741.98 32684171.00 L 21408761.98 32684170.99 L 21408761.98 32625202.99 L 21403847.98 32619196.99 L 21385829.98 32617012.99 L 21366719.98 32619196.99 L 21362351.98 32623018.99 L 21361805.98 32731126.99 L 21365627.98 32739316.99 L 21376001.98 32745322.99 L 21503765.98 32745869.00 L 21516869.98 32742593.00 L 21521783.98 32737679.00 L 21531065.98 32713109.00 L 21535979.98 32689631.00 L 21540893.98 32641037.00 L 21538163.98 32608823.00 L 21530519.99 32575517.00 L 21518507.99 32550947.00 L 21500489.99 32526377.00 L 21479741.99 32509997.00 L 21451895.99 32495801.00 L 21422957.99 32488703.00 L 21385829.99 32485426.99 L 21342149.99 32489794.99 L 21319217.99 32496346.99 L 21293555.99 32509450.99 L 21268439.99 32528560.99 L 21256427.99 32542756.99 L 21240593.99 32568418.99 L 21233495.99 32586982.99 L 21226397.98 32618650.99 L 21224759.98 32644312.99 L 21227489.98 32680894.99 L 21234587.98 32709286.99 L 21242777.98 32728942.99 L 21250967.98 32740408.99 L 21264071.98 32745868.99 L 21289733.98 32745322.99  z"/>
<path id="N" d="M 16171622.91 33437522.99 L 16181996.91 33434246.99 L 16184180.91 33429332.99 L 16171076.91 33400940.99 L 16160156.91 33368726.99 L 16157426.92 33334328.99 L 16162886.92 33305390.99 L 16174352.92 33283004.99 L 16188002.92 33267170.99 L 16207112.92 33254066.99 L 16228406.92 33245876.99 L 16264442.92 33241508.99 L 16303208.92 33245877.00 L 16322318.92 33252975.00 L 16344704.92 33268263.00 L 16358354.92 33285735.00 L 16366544.92 33304299.00 L 16370912.92 33336513.00 L 16368728.92 33357807.00 L 16361630.91 33376371.00 L 16290650.91 33376370.99 L 16290650.92 33317402.99 L 16285736.92 33311396.99 L 16267718.92 33309212.99 L 16248608.92 33311396.99 L 16244240.92 33315218.99 L 16243694.91 33423326.99 L 16247516.91 33431516.99 L 16257890.91 33437522.99 L 16385654.91 33438069.00 L 16398758.91 33434793.00 L 16403672.91 33429879.00 L 16412954.91 33405309.00 L 16417868.91 33381831.00 L 16422782.92 33333237.00 L 16420052.92 33301023.00 L 16412408.92 33267717.00 L 16400396.92 33243147.00 L 16382378.92 33218577.00 L 16361630.92 33202197.00 L 16333784.92 33188001.00 L 16304846.92 33180903.00 L 16267718.92 33177626.99 L 16224038.92 33181994.99 L 16201106.92 33188546.99 L 16175444.92 33201650.99 L 16150328.92 33220760.99 L 16138316.92 33234956.99 L 16122482.92 33260618.99 L 16115384.92 33279182.99 L 16108286.92 33310850.99 L 16106648.92 33336512.99 L 16109378.91 33373094.99 L 16116476.91 33401486.99 L 16124666.91 33421142.99 L 16132856.91 33432608.99 L 16145960.91 33438068.99 L 16171622.91 33437522.99  z"/>
<path id="N" d="M 20193144.99 32442839.00 L 20219898.99 32437379.00 L 20233548.99 32430281.00 L 20252112.99 32415539.00 L 20263578.99 32399705.00 L 20275044.99 32374043.00 L 20280505.00 32339099.00 L 20279959.00 32311253.00 L 20272315.00 32276309.00 L 20265217.00 32259383.00 L 20257027.00 32248463.00 L 20248837.00 32245187.00 L 20219899.00 32244095.00 L 20208433.00 32247371.00 L 20205703.00 32253377.00 L 20215531.00 32270849.00 L 20226997.00 32300333.00 L 20230819.00 32323811.00 L 20228635.00 32351111.00 L 20220990.99 32366399.00 L 20207886.99 32375681.00 L 20190960.99 32378957.00 L 20174034.99 32372951.00 L 20160931.00 32357662.99 L 20145643.00 32326540.99 L 20126533.00 32289412.99 L 20108515.00 32267572.99 L 20085583.00 32255014.99 A 94270.45 94270.45 0 0 0 20014057.00 32257744.99 L 19996039.00 32269756.99 L 19980751.00 32288320.99 L 19970377.00 32311798.99 L 19964917.00 32344012.99 L 19966008.99 32365306.99 L 19973106.99 32399158.99 L 19983480.99 32419906.99 L 19992762.99 32424274.99 L 20009142.99 32425912.99 L 20029344.99 32423728.99 L 20034258.99 32419360.99 L 20026614.99 32400796.99 L 20016786.99 32375680.99 L 20013511.00 32352202.99 L 20016241.00 32334730.99 L 20023885.00 32321626.99 L 20034805.00 32313982.99 L 20052277.00 32312890.99 L 20064835.00 32317804.99 L 20078485.00 32334184.99 L 20094864.99 32368582.99 L 20112882.99 32403526.99 L 20130900.99 32424274.99 L 20153286.99 32437924.99 L 20177856.99 32443385.00 L 20193144.99 32442839.00  z"/>
<path id="N" d="M 20898413.99 32400251.00 L 20904965.99 32362031.00 L 20904966.00 32257745.00 L 20901144.00 32249009.00 L 20892954.00 32244641.00 L 20619408.00 32244094.99 L 20606850.00 32247370.99 L 20600844.00 32256652.99 L 20600298.00 32348926.99 L 20605211.99 32386600.99 L 20611217.99 32403526.99 L 20620499.99 32419906.99 L 20634149.99 32434102.99 L 20649437.99 32442292.99 L 20670731.99 32446660.99 L 20691479.99 32446114.99 L 20717687.99 32435740.99 L 20730791.99 32421544.99 L 20740619.99 32405164.99 L 20749355.99 32428642.99 L 20765735.99 32448844.99 L 20786483.99 32460310.99 L 20803409.99 32464679.00 A 85751.75 85751.75 0 0 0 20898413.99 32400251.00  zM 20674553.99 32383870.99 L 20664725.99 32379502.99 L 20654351.99 32369128.99 L 20647800.00 32352748.99 L 20646708.00 32304700.99 L 20725878.00 32304700.99 L 20725878.00 32344012.99 L 20723147.99 32360938.99 L 20713319.99 32375134.99 L 20701307.99 32382232.99 L 20674553.99 32383870.99  zM 20815967.99 32400797.00 L 20803955.99 32399159.00 L 20792489.99 32394245.00 L 20783207.99 32386054.99 L 20777201.99 32376226.99 L 20772288.00 32357116.99 L 20771196.00 32304700.99 L 20858010.00 32304701.00 L 20858010.00 32353841.00 L 20855825.99 32371859.00 L 20851457.99 32381687.00 L 20843813.99 32390423.00 L 20831255.99 32398067.00 L 20815967.99 32400797.00  z"/>
<path id="N" d="M 16410224.93 33078801.00 L 16416776.93 33040581.00 L 16416776.93 32936295.00 L 16412954.93 32927559.00 L 16404764.93 32923191.00 L 16131218.93 32922644.99 L 16118660.93 32925920.99 L 16112654.93 32935202.99 L 16112108.93 33027476.99 L 16117022.93 33065150.99 L 16123028.93 33082076.99 L 16132310.93 33098456.99 L 16145960.93 33112652.99 L 16161248.93 33120842.99 L 16182542.93 33125210.99 L 16203290.93 33124664.99 L 16229498.93 33114290.99 L 16242602.93 33100094.99 L 16252430.93 33083714.99 L 16261166.93 33107192.99 L 16277546.93 33127394.99 L 16298294.92 33138860.99 L 16315220.92 33143229.00 A 85751.75 85751.75 0 0 0 16410224.93 33078801.00  zM 16186364.93 33062420.99 L 16176536.93 33058052.99 L 16166162.93 33047678.99 L 16159610.93 33031298.99 L 16158518.93 32983250.99 L 16237688.93 32983250.99 L 16237688.93 33022562.99 L 16234958.93 33039488.99 L 16225130.93 33053684.99 L 16213118.93 33060782.99 L 16186364.93 33062420.99  zM 16327778.93 33079347.00 L 16315766.93 33077709.00 L 16304300.93 33072795.00 L 16295018.93 33064604.99 L 16289012.93 33054776.99 L 16284098.93 33035666.99 L 16283006.93 32983250.99 L 16369820.93 32983251.00 L 16369820.93 33032391.00 L 16367636.93 33050409.00 L 16363268.93 33060237.00 L 16355624.93 33068973.00 L 16343066.93 33076617.00 L 16327778.93 33079347.00  z"/>
<path id="N" d="M 21882662.95 33241416.14 L 21911732.95 33234786.14 L 21932642.95 33224586.15 L 21943352.95 33214896.15 L 21945902.96 33202146.15 L 21945392.96 33178686.15 L 21941312.96 33169506.15 L 21937742.96 33168486.15 L 21915812.96 33180726.14 L 21892862.96 33190926.14 L 21867872.96 33193476.13 L 21845432.96 33188886.13 L 21832682.96 33181236.13 L 21817382.96 33165936.13 L 21805652.97 33141966.12 L 21799532.97 33110346.12 L 21800042.98 33072606.12 L 21806162.98 33044046.12 L 21818912.99 33019566.13 L 21828602.99 33010896.13 L 21844412.99 33001716.13 L 21872462.99 32997126.13 L 21890312.99 32998656.14 L 21911732.99 33005286.14 L 21937232.99 33019566.15 L 21943352.99 33019056.15 L 21945902.99 33013446.15 L 21947432.99 32988966.15 L 21943863.00 32974176.15 L 21935703.00 32966526.15 L 21913773.00 32956326.14 L 21890823.00 32950716.14 L 21863283.00 32948166.13 L 21837783.00 32950206.13 L 21810243.00 32956836.12 L 21790353.00 32967546.12 L 21769952.99 32983866.12 L 21756692.99 33002736.11 L 21744962.99 33028746.11 L 21738842.98 33055776.11 L 21736292.98 33091986.11 L 21738842.97 33123096.11 L 21745982.96 33155736.11 L 21756692.96 33179706.11 L 21773012.96 33203166.12 A 120922.68 120922.68 0 0 0 21838292.95 33239376.13 L 21868382.95 33242436.13 L 21882662.95 33241416.14  z"/>
<path id="N" d="M 21228332.95 33234786.02 L 21251282.95 33227646.03 L 21266582.95 33218976.03 L 21279842.96 33206226.03 L 21287492.96 33191946.03 L 21291572.96 33172056.03 L 21291062.97 33152676.03 L 21281372.97 33128196.03 L 21268112.97 33115956.03 L 21252812.97 33106776.03 L 21256382.97 33105756.03 L 21280352.98 33095046.03 L 21296672.98 33079236.03 L 21306872.98 33056796.04 L 21308912.99 33035376.04 A 77434.48 77434.48 0 0 0 21252303.00 32960916.03 L 21217113.00 32953776.02 L 21115113.00 32953266.00 L 21106953.00 32956836.00 L 21102873.00 32964486.00 L 21102362.95 33219996.00 L 21105422.95 33231726.00 L 21114092.95 33237336.00 L 21228332.95 33234786.02  zM 21158972.98 33078216.01 L 21158972.99 32997126.01 L 21204872.99 32997126.02 L 21221702.99 32999166.02 L 21235982.99 33006816.02 L 21245672.99 33020586.03 L 21248732.99 33036396.03 L 21244652.98 33055266.02 L 21234962.98 33066996.02 L 21225782.98 33072606.02 L 21207932.98 33077196.02 L 21158972.98 33078216.01  zM 21158972.96 33194496.01 L 21158972.97 33120546.01 L 21195692.97 33120546.02 L 21207932.97 33122076.02 L 21219662.97 33127686.02 L 21229352.97 33138396.02 L 21233432.97 33152676.02 L 21232922.96 33168486.02 L 21228842.96 33177666.02 L 21219152.96 33187356.02 L 21203852.96 33193476.02 L 21158972.96 33194496.01  z"/>
<path id="N" d="M 16394390.94 36992017.00 L 16402580.94 36983281.00 L 16413500.94 36959803.00 L 16419506.94 36935233.00 L 16422236.94 36905749.00 L 16420052.94 36878449.00 L 16412954.94 36848965.00 L 16401488.94 36827671.00 L 16384016.94 36805831.00 L 16363814.94 36791635.00 L 16335968.94 36779077.00 L 16307030.94 36772525.00 L 16268264.95 36769794.99 L 16234958.94 36772524.99 L 16200014.94 36780168.99 L 16174352.94 36791634.99 L 16149236.94 36809106.99 L 16137770.94 36821664.99 L 16122482.94 36844050.99 L 16112654.94 36870258.99 L 16107740.94 36899742.99 L 16108286.94 36926496.99 L 16115384.94 36957618.99 L 16126304.94 36980004.99 L 16136678.94 36991470.99 L 16150328.94 36994200.99 L 16175444.94 36993654.99 L 16185272.94 36989286.99 L 16186364.94 36985464.99 L 16173260.94 36961986.99 L 16162340.94 36937416.99 L 16159610.94 36910662.99 L 16164524.94 36886638.99 L 16172714.94 36872988.99 L 16189094.94 36856608.99 L 16214756.94 36844050.99 L 16248608.94 36837498.99 L 16289012.94 36838044.99 L 16319588.94 36844597.00 L 16345796.94 36858247.00 L 16355078.94 36868621.00 L 16364906.94 36885547.00 L 16369820.94 36915577.00 L 16368182.94 36934687.00 L 16361084.94 36957619.00 L 16345796.94 36984919.00 L 16346342.94 36991471.00 L 16358354.94 36995293.00 L 16394390.94 36992017.00  z"/>
<path id="N" d="M 22378642.92 41152223.00 L 22386832.92 41143487.00 L 22397752.92 41120009.00 L 22403758.92 41095439.00 L 22406488.93 41065955.00 L 22404304.93 41038655.00 L 22397206.93 41009171.00 L 22385740.93 40987877.00 L 22368268.93 40966037.00 L 22348066.93 40951841.00 L 22320220.93 40939283.00 L 22291282.93 40932731.00 L 22252516.93 40930000.99 L 22219210.93 40932730.99 L 22184266.93 40940374.99 L 22158604.93 40951840.99 L 22133488.93 40969312.99 L 22122022.93 40981870.99 L 22106734.93 41004256.99 L 22096906.93 41030464.99 L 22091992.93 41059948.99 L 22092538.92 41086702.99 L 22099636.92 41117824.99 L 22110556.92 41140210.99 L 22120930.92 41151676.99 L 22134580.92 41154406.99 L 22159696.92 41153860.99 L 22169524.92 41149492.99 L 22170616.92 41145670.99 L 22157512.92 41122192.99 L 22146592.92 41097622.99 L 22143862.93 41070868.99 L 22148776.93 41046844.99 L 22156966.93 41033194.99 L 22173346.93 41016814.99 L 22199008.93 41004256.99 L 22232860.93 40997704.99 L 22273264.93 40998250.99 L 22303840.93 41004803.00 L 22330048.93 41018453.00 L 22339330.93 41028827.00 L 22349158.93 41045753.00 L 22354072.93 41075783.00 L 22352434.92 41094893.00 L 22345336.92 41117825.00 L 22330048.92 41145125.00 L 22330594.92 41151677.00 L 22342606.92 41155499.00 L 22378642.92 41152223.00  z"/>
<path id="N" d="M 16414046.99 39595577.00 L 16417868.99 39584657.00 L 16418414.99 39545891.00 L 16415138.99 39533333.00 L 16340336.99 39502211.00 L 16310306.99 39486377.00 L 16298841.00 39474364.99 L 16294473.00 39463990.99 L 16292835.00 39432322.99 L 16410771.00 39432323.00 L 16415685.00 39427955.00 L 16418961.00 39407207.00 L 16416777.00 39375539.00 L 16412409.00 39370625.00 L 16131219.00 39370078.99 L 16118661.00 39373354.99 L 16112655.00 39382636.99 L 16112109.00 39480916.99 L 16117568.99 39517498.99 L 16127396.99 39543160.99 L 16140500.99 39560086.99 L 16154150.99 39570460.99 L 16173260.99 39578104.99 L 16198922.99 39580834.99 L 16225130.99 39576466.99 A 79083.20 79083.20 0 0 0 16275908.99 39521320.99 L 16278092.99 39525688.99 L 16290650.99 39541522.99 L 16316312.99 39558449.00 L 16390568.99 39590663.00 L 16408040.99 39596669.00 L 16414046.99 39595577.00  zM 16202198.99 39516406.99 L 16185272.99 39513676.99 L 16173806.99 39506578.99 L 16163978.99 39492382.99 L 16160703.00 39476548.99 L 16159611.00 39432322.99 L 16246425.00 39432322.99 L 16245333.00 39478732.99 L 16241510.99 39492382.99 L 16231136.99 39506578.99 L 16217486.99 39513676.99 L 16202198.99 39516406.99  z"/>
<path id="N" d="M 20272314.95 33411443.00 L 20276136.95 33400523.00 L 20276682.95 33361757.00 L 20273406.95 33349199.00 L 20198604.95 33318077.00 L 20168574.95 33302243.00 L 20157108.95 33290230.99 L 20152740.95 33279856.99 L 20151102.96 33248188.99 L 20269038.96 33248189.00 L 20273952.96 33243821.00 L 20277228.96 33223073.00 L 20275044.96 33191405.00 L 20270676.96 33186491.00 L 19989486.96 33185944.99 L 19976928.96 33189220.99 L 19970922.96 33198502.99 L 19970376.95 33296782.99 L 19975836.95 33333364.99 L 19985664.95 33359026.99 L 19998768.95 33375952.99 L 20012418.95 33386326.99 L 20031528.95 33393970.99 L 20057190.95 33396700.99 L 20083398.95 33392332.99 A 79083.20 79083.20 0 0 0 20134176.95 33337186.99 L 20136360.95 33341554.99 L 20148918.95 33357388.99 L 20174580.95 33374315.00 L 20248836.95 33406529.00 L 20266308.95 33412535.00 L 20272314.95 33411443.00  zM 20060466.95 33332272.99 L 20043540.95 33329542.99 L 20032074.95 33322444.99 L 20022246.95 33308248.99 L 20018970.95 33292414.99 L 20017878.96 33248188.99 L 20104692.96 33248188.99 L 20103600.95 33294598.99 L 20099778.95 33308248.99 L 20089404.95 33322444.99 L 20075754.95 33329542.99 L 20060466.95 33332272.99  z"/>
<path id="N" d="M 20902235.95 33435467.00 L 20906057.95 33424547.00 L 20906603.95 33385781.00 L 20903327.95 33373223.00 L 20828525.95 33342101.00 L 20798495.95 33326267.00 L 20787029.95 33314254.99 L 20782661.95 33303880.99 L 20781023.96 33272212.99 L 20898959.96 33272213.00 L 20903873.96 33267845.00 L 20907149.96 33247097.00 L 20904965.96 33215429.00 L 20900597.96 33210515.00 L 20619407.96 33209968.99 L 20606849.96 33213244.99 L 20600843.96 33222526.99 L 20600297.95 33320806.99 L 20605757.95 33357388.99 L 20615585.95 33383050.99 L 20628689.95 33399976.99 L 20642339.95 33410350.99 L 20661449.95 33417994.99 L 20687111.95 33420724.99 L 20713319.95 33416356.99 A 79083.20 79083.20 0 0 0 20764097.95 33361210.99 L 20766281.95 33365578.99 L 20778839.95 33381412.99 L 20804501.95 33398339.00 L 20878757.95 33430553.00 L 20896229.95 33436559.00 L 20902235.95 33435467.00  zM 20690387.95 33356296.99 L 20673461.95 33353566.99 L 20661995.95 33346468.99 L 20652167.95 33332272.99 L 20648891.95 33316438.99 L 20647799.96 33272212.99 L 20734613.96 33272212.99 L 20733521.95 33318622.99 L 20729699.95 33332272.99 L 20719325.95 33346468.99 L 20705675.95 33353566.99 L 20690387.95 33356296.99  z"/>
<path id="N" d="M 16414046.99 35737309.00 L 16417868.99 35726389.00 L 16418414.99 35687623.00 L 16415138.99 35675065.00 L 16340336.99 35643943.00 L 16310306.99 35628109.00 L 16298841.00 35616096.99 L 16294473.00 35605722.99 L 16292835.00 35574054.99 L 16410771.00 35574055.00 L 16415685.00 35569687.00 L 16418961.00 35548939.00 L 16416777.00 35517271.00 L 16412409.00 35512357.00 L 16131219.00 35511810.99 L 16118661.00 35515086.99 L 16112655.00 35524368.99 L 16112109.00 35622648.99 L 16117568.99 35659230.99 L 16127396.99 35684892.99 L 16140500.99 35701818.99 L 16154150.99 35712192.99 L 16173260.99 35719836.99 L 16198922.99 35722566.99 L 16225130.99 35718198.99 A 79083.20 79083.20 0 0 0 16275908.99 35663052.99 L 16278092.99 35667420.99 L 16290650.99 35683254.99 L 16316312.99 35700181.00 L 16390568.99 35732395.00 L 16408040.99 35738401.00 L 16414046.99 35737309.00  zM 16202198.99 35658138.99 L 16185272.99 35655408.99 L 16173806.99 35648310.99 L 16163978.99 35634114.99 L 16160703.00 35618280.99 L 16159611.00 35574054.99 L 16246425.00 35574054.99 L 16245333.00 35620464.99 L 16241510.99 35634114.99 L 16231136.99 35648310.99 L 16217486.99 35655408.99 L 16202198.99 35658138.99  z"/>
<path id="N" d="M 21374676.91 37546207.00 L 21378498.91 37535287.00 L 21379044.91 37496521.00 L 21375768.91 37483963.00 L 21300966.92 37452841.00 L 21270936.92 37437007.00 L 21259470.92 37424994.99 L 21255102.92 37414620.99 L 21253464.92 37382952.99 L 21371400.92 37382953.00 L 21376314.92 37378585.00 L 21379590.92 37357837.00 L 21377406.92 37326169.00 L 21373038.92 37321255.00 L 21091848.92 37320708.99 L 21079290.92 37323984.99 L 21073284.92 37333266.99 L 21072738.92 37431546.99 L 21078198.91 37468128.99 L 21088026.91 37493790.99 L 21101130.91 37510716.99 L 21114780.91 37521090.99 L 21133890.91 37528734.99 L 21159552.91 37531464.99 L 21185760.91 37527096.99 A 79083.20 79083.20 0 0 0 21236538.91 37471950.99 L 21238722.91 37476318.99 L 21251280.91 37492152.99 L 21276942.91 37509079.00 L 21351198.91 37541293.00 L 21368670.91 37547299.00 L 21374676.91 37546207.00  zM 21162828.91 37467036.99 L 21145902.91 37464306.99 L 21134436.91 37457208.99 L 21124608.92 37443012.99 L 21121332.92 37427178.99 L 21120240.92 37382952.99 L 21207054.92 37382952.99 L 21205962.92 37429362.99 L 21202140.92 37443012.99 L 21191766.91 37457208.99 L 21178116.91 37464306.99 L 21162828.91 37467036.99  z"/>
<path id="N" d="M 16414046.92 41102537.00 L 16417868.92 41091617.00 L 16418414.93 41052851.00 L 16415138.93 41040293.00 L 16340336.93 41009171.00 L 16310306.93 40993337.00 L 16298840.93 40981324.99 L 16294472.93 40970950.99 L 16292834.93 40939282.99 L 16410770.93 40939283.00 L 16415684.93 40934915.00 L 16418960.93 40914167.00 L 16416776.93 40882499.00 L 16412408.93 40877585.00 L 16131218.93 40877038.99 L 16118660.93 40880314.99 L 16112654.93 40889596.99 L 16112108.93 40987876.99 L 16117568.93 41024458.99 L 16127396.93 41050120.99 L 16140500.93 41067046.99 L 16154150.93 41077420.99 L 16173260.93 41085064.99 L 16198922.92 41087794.99 L 16225130.93 41083426.99 A 79083.20 79083.20 0 0 0 16275908.93 41028280.99 L 16278092.93 41032648.99 L 16290650.93 41048482.99 L 16316312.93 41065409.00 L 16390568.92 41097623.00 L 16408040.92 41103629.00 L 16414046.92 41102537.00  zM 16202198.93 41023366.99 L 16185272.93 41020636.99 L 16173806.93 41013538.99 L 16163978.93 40999342.99 L 16160702.93 40983508.99 L 16159610.93 40939282.99 L 16246424.93 40939282.99 L 16245332.93 40985692.99 L 16241510.93 40999342.99 L 16231136.93 41013538.99 L 16217486.93 41020636.99 L 16202198.93 41023366.99  z"/>
<path id="N" d="M 22914392.95 33234276.32 L 22940402.95 33225096.32 L 22959272.95 33211326.32 L 22968962.96 33198576.33 L 22976102.96 33180726.33 L 22978652.96 33156756.33 L 22974572.97 33132276.33 A 73868.92 73868.92 0 0 0 22923062.98 33084846.32 L 22927142.98 33082806.32 L 22941932.98 33071076.32 L 22957742.98 33047106.32 L 22992933.00 32963466.33 L 22992423.00 32955816.33 L 22985283.00 32952756.33 L 22950603.00 32951226.32 L 22934283.00 32954796.32 L 22905212.99 33024666.32 L 22890422.98 33052716.31 L 22879202.98 33063426.31 L 22869512.98 33067506.31 L 22839932.98 33069036.30 L 22839933.00 32959896.30 L 22837383.00 32954796.30 L 22816473.00 32951226.30 L 22786893.00 32953266.29 L 22782303.00 32957346.29 L 22781792.95 33219996.29 L 22784852.95 33231726.29 L 22793522.95 33237336.30 L 22914392.95 33234276.32  zM 22839932.96 33193476.30 L 22839932.97 33112386.30 L 22873592.97 33112386.31 L 22890932.97 33114936.31 L 22906742.97 33124116.32 L 22915412.97 33137886.32 L 22918472.96 33153696.32 L 22915922.96 33169506.32 L 22909292.96 33180216.32 L 22896032.96 33189396.31 L 22881242.96 33192456.31 L 22839932.96 33193476.30  z"/>
<path id="N" d="M 16412954.95 36728845.00 L 16416776.95 36724477.00 L 16417322.96 36539929.00 L 16414592.96 36532831.00 L 16408586.96 36528463.00 L 16397120.96 36526825.00 L 16371458.96 36528463.00 L 16359446.96 36535015.00 L 16274270.95 36613092.99 L 16238780.95 36636024.99 L 16218032.95 36643668.99 L 16200560.95 36645852.99 L 16185818.95 36643122.99 L 16172714.95 36634932.99 L 16165070.95 36622374.99 L 16162340.95 36601080.99 L 16167254.95 36577602.99 L 16185272.96 36540474.99 L 16183634.96 36536652.99 L 16178720.96 36533922.99 L 16147598.96 36532284.99 L 16136678.96 36535560.99 L 16127942.95 36545388.99 L 16115384.95 36574326.99 L 16108286.95 36604356.99 L 16107194.95 36638754.99 L 16113200.95 36666600.99 L 16123028.95 36686256.99 L 16133948.95 36699906.99 L 16155788.95 36714102.99 L 16174898.95 36718470.99 L 16200560.95 36719016.99 L 16225676.95 36713556.99 L 16250246.95 36702636.99 L 16285190.95 36678612.99 L 16367090.95 36600535.00 L 16367090.95 36722293.00 L 16373642.95 36728845.00 L 16384016.95 36731029.00 L 16412954.95 36728845.00  z"/>
<path id="N" d="M 22397206.93 40889051.00 L 22401028.93 40884683.00 L 22401574.94 40700135.00 L 22398844.94 40693037.00 L 22392838.94 40688669.00 L 22381372.94 40687031.00 L 22355710.94 40688669.00 L 22343698.94 40695221.00 L 22258522.94 40773298.99 L 22223032.94 40796230.99 L 22202284.94 40803874.99 L 22184812.94 40806058.99 L 22170070.94 40803328.99 L 22156966.94 40795138.99 L 22149322.94 40782580.99 L 22146592.94 40761286.99 L 22151506.94 40737808.99 L 22169524.94 40700680.99 L 22167886.94 40696858.99 L 22162972.94 40694128.99 L 22131850.94 40692490.99 L 22120930.94 40695766.99 L 22112194.94 40705594.99 L 22099636.94 40734532.99 L 22092538.94 40764562.99 L 22091446.94 40798960.99 L 22097452.94 40826806.99 L 22107280.94 40846462.99 L 22118200.93 40860112.99 L 22140040.93 40874308.99 L 22159150.93 40878676.99 L 22184812.93 40879222.99 L 22209928.93 40873762.99 L 22234498.93 40862842.99 L 22269442.94 40838818.99 L 22351342.94 40760741.00 L 22351342.93 40882499.00 L 22357894.93 40889051.00 L 22368268.93 40891235.00 L 22397206.93 40889051.00  z"/>
<path id="N" d="M 16320680.96 32310033.00 L 16354532.96 32302389.00 L 16379648.96 32288739.00 L 16397120.96 32271813.00 L 16411862.96 32246697.00 L 16418960.96 32223219.00 L 16422236.97 32195373.00 L 16421690.97 32166981.00 L 16415684.97 32132583.00 L 16407494.97 32112927.00 L 16393844.97 32093271.00 L 16379102.97 32081259.00 L 16357808.97 32069793.00 L 16326686.97 32062695.00 L 16120298.97 32061602.99 L 16116476.97 32062694.99 L 16112654.97 32070338.99 L 16110470.97 32097638.99 L 16113200.97 32117294.99 L 16117568.97 32123300.99 L 16301570.97 32123846.99 L 16316858.97 32124939.00 L 16337060.97 32129853.00 L 16355078.97 32141319.00 L 16363814.97 32152785.00 L 16368728.97 32165343.00 L 16372004.97 32187183.00 A 60682.77 60682.77 0 0 1 16351256.96 32235777.00 L 16332692.96 32245605.00 L 16315766.96 32249427.00 L 16119206.96 32249972.99 L 16114292.96 32253794.99 L 16110470.96 32274542.99 L 16113200.96 32304572.99 L 16117568.96 32310578.99 L 16303754.96 32311125.00 L 16320680.96 32310033.00  z"/>
<path id="N" d="M 21281310.96 36404521.00 L 21315162.96 36396877.00 L 21340278.96 36383227.00 L 21357750.96 36366301.00 L 21372492.96 36341185.00 L 21379590.96 36317707.00 L 21382866.97 36289861.00 L 21382320.97 36261469.00 L 21376314.97 36227071.00 L 21368124.97 36207415.00 L 21354474.97 36187759.00 L 21339732.97 36175747.00 L 21318438.97 36164281.00 L 21287316.97 36157183.00 L 21080928.97 36156090.99 L 21077106.97 36157182.99 L 21073284.97 36164826.99 L 21071100.97 36192126.99 L 21073830.97 36211782.99 L 21078198.97 36217788.99 L 21262200.97 36218334.99 L 21277488.97 36219427.00 L 21297690.97 36224341.00 L 21315708.97 36235807.00 L 21324444.97 36247273.00 L 21329358.97 36259831.00 L 21332634.97 36281671.00 A 60682.77 60682.77 0 0 1 21311886.96 36330265.00 L 21293322.96 36340093.00 L 21276396.96 36343915.00 L 21079836.96 36344460.99 L 21074922.96 36348282.99 L 21071100.96 36369030.99 L 21073830.96 36399060.99 L 21078198.96 36405066.99 L 21264384.96 36405613.00 L 21281310.96 36404521.00  z"/>
<path id="N" d="M 21281310.94 36960895.00 L 21315162.94 36953251.00 L 21340278.94 36939601.00 L 21357750.94 36922675.00 L 21372492.94 36897559.00 L 21379590.94 36874081.00 L 21382866.94 36846235.00 L 21382320.94 36817843.00 L 21376314.94 36783445.00 L 21368124.95 36763789.00 L 21354474.95 36744133.00 L 21339732.95 36732121.00 L 21318438.95 36720655.00 L 21287316.95 36713557.00 L 21080928.95 36712464.99 L 21077106.95 36713556.99 L 21073284.95 36721200.99 L 21071100.95 36748500.99 L 21073830.95 36768156.99 L 21078198.94 36774162.99 L 21262200.94 36774708.99 L 21277488.94 36775801.00 L 21297690.94 36780715.00 L 21315708.94 36792181.00 L 21324444.94 36803647.00 L 21329358.94 36816205.00 L 21332634.94 36838045.00 A 60682.77 60682.77 0 0 1 21311886.94 36886639.00 L 21293322.94 36896467.00 L 21276396.94 36900289.00 L 21079836.94 36900834.99 L 21074922.94 36904656.99 L 21071100.94 36925404.99 L 21073830.94 36955434.99 L 21078198.94 36961440.99 L 21264384.94 36961987.00 L 21281310.94 36960895.00  z"/>
<path id="N" d="M 16308668.94 32866953.00 L 16332692.94 32860401.00 L 16357262.94 32847843.00 L 16381286.94 32828733.00 L 16391660.94 32815083.00 L 16404764.94 32789421.00 L 16411316.94 32767581.00 L 16416776.94 32723901.00 L 16416776.95 32631627.00 L 16412954.95 32622891.00 L 16404764.95 32618523.00 L 16131218.95 32617976.99 L 16118660.95 32621252.99 L 16112654.95 32630534.99 L 16112108.94 32721716.99 L 16114292.94 32749562.99 L 16121936.94 32783960.99 L 16137770.94 32816174.99 L 16157426.94 32838014.99 L 16186910.94 32857124.99 L 16207112.94 32864768.99 L 16234958.94 32870228.99 L 16308668.94 32866953.00  zM 16255160.94 32807438.99 L 16222400.94 32801978.99 L 16206566.94 32795972.99 L 16189640.94 32785052.99 L 16175444.94 32768672.99 L 16166162.94 32749562.99 L 16161794.94 32729906.99 L 16160702.94 32679674.99 L 16368182.94 32679675.00 L 16368182.94 32716257.00 L 16366544.94 32733183.00 L 16361084.94 32755023.00 A 73011.45 73011.45 0 0 1 16328324.94 32793243.00 L 16301570.94 32803616.99 L 16255160.94 32807438.99  z"/>
<path id="N" d="M 22304932.96 40262789.00 L 22338784.96 40255145.00 L 22363900.96 40241495.00 L 22381372.96 40224569.00 L 22396114.96 40199453.00 L 22403212.96 40175975.00 L 22406488.97 40148129.00 L 22405942.97 40119737.00 L 22399936.97 40085339.00 L 22391746.97 40065683.00 L 22378096.97 40046027.00 L 22363354.97 40034015.00 L 22342060.97 40022549.00 L 22310938.97 40015451.00 L 22104550.97 40014358.99 L 22100728.97 40015450.99 L 22096906.97 40023094.99 L 22094722.97 40050394.99 L 22097452.97 40070050.99 L 22101820.97 40076056.99 L 22285822.97 40076602.99 L 22301110.97 40077695.00 L 22321312.97 40082609.00 L 22339330.97 40094075.00 L 22348066.97 40105541.00 L 22352980.97 40118099.00 L 22356256.97 40139939.00 A 60682.77 60682.77 0 0 1 22335508.96 40188533.00 L 22316944.96 40198361.00 L 22300018.96 40202183.00 L 22103458.96 40202728.99 L 22098544.96 40206550.99 L 22094722.96 40227298.99 L 22097452.96 40257328.99 L 22101820.96 40263334.99 L 22288006.96 40263881.00 L 22304932.96 40262789.00  z"/>
<path id="N" d="M 16320680.95 40517225.00 L 16354532.95 40509581.00 L 16379648.95 40495931.00 L 16397120.95 40479005.00 L 16411862.95 40453889.00 L 16418960.95 40430411.00 L 16422236.95 40402565.00 L 16421690.96 40374173.00 L 16415684.96 40339775.00 L 16407494.96 40320119.00 L 16393844.96 40300463.00 L 16379102.96 40288451.00 L 16357808.96 40276985.00 L 16326686.96 40269887.00 L 16120298.96 40268794.99 L 16116476.96 40269886.99 L 16112654.96 40277530.99 L 16110470.96 40304830.99 L 16113200.96 40324486.99 L 16117568.96 40330492.99 L 16301570.96 40331038.99 L 16316858.96 40332131.00 L 16337060.96 40337045.00 L 16355078.96 40348511.00 L 16363814.96 40359977.00 L 16368728.96 40372535.00 L 16372004.96 40394375.00 A 60682.77 60682.77 0 0 1 16351256.95 40442969.00 L 16332692.95 40452797.00 L 16315766.95 40456619.00 L 16119206.95 40457164.99 L 16114292.95 40460986.99 L 16110470.95 40481734.99 L 16113200.95 40511764.99 L 16117568.95 40517770.99 L 16303754.95 40518317.00 L 16320680.95 40517225.00  z"/>
<path id="N" d="M 16227314.98 39848920.99 L 16250792.98 39842914.99 L 16267718.98 39833632.99 L 16284644.98 39818890.99 L 16295018.98 39803602.99 L 16304846.98 39781763.00 L 16309214.98 39759377.00 L 16311398.99 39704231.00 L 16410770.99 39704231.00 L 16415684.99 39699863.00 L 16418960.99 39679115.00 L 16416776.99 39647447.00 L 16412408.99 39642533.00 L 16128488.99 39642532.99 L 16118114.99 39647446.99 L 16112108.99 39659458.99 L 16112654.98 39748456.99 L 16119206.98 39787768.99 L 16127396.98 39806878.99 L 16137770.98 39822712.99 L 16152512.98 39835816.99 L 16172168.98 39845644.99 L 16198376.98 39851104.99 L 16227314.98 39848920.99  zM 16191278.98 39783400.99 L 16179266.98 39777940.99 L 16167800.98 39765928.99 L 16161248.98 39747364.99 L 16160156.99 39704230.99 L 16263350.99 39704230.99 L 16263350.98 39736990.99 L 16259528.98 39757192.99 L 16253522.98 39767566.99 L 16243694.98 39776302.99 A 65785.14 65785.14 0 0 1 16191278.98 39783400.99  z"/>
<path id="N" d="M 20085582.98 32697820.99 L 20109060.98 32691814.99 L 20125986.98 32682532.99 L 20142912.98 32667790.99 L 20153286.98 32652502.99 L 20163114.98 32630663.00 L 20167482.98 32608277.00 L 20169666.99 32553131.00 L 20269038.99 32553131.00 L 20273952.99 32548763.00 L 20277228.99 32528015.00 L 20275044.99 32496347.00 L 20270676.99 32491433.00 L 19986756.99 32491432.99 L 19976382.99 32496346.99 L 19970376.99 32508358.99 L 19970922.98 32597356.99 L 19977474.98 32636668.99 L 19985664.98 32655778.99 L 19996038.98 32671612.99 L 20010780.98 32684716.99 L 20030436.98 32694544.99 L 20056644.98 32700004.99 L 20085582.98 32697820.99  zM 20049546.98 32632300.99 L 20037534.98 32626840.99 L 20026068.98 32614828.99 L 20019516.98 32596264.99 L 20018424.99 32553130.99 L 20121618.99 32553130.99 L 20121618.99 32585890.99 L 20117796.98 32606092.99 L 20111790.98 32616466.99 L 20101962.98 32625202.99 A 65785.14 65785.14 0 0 1 20049546.98 32632300.99  z"/>
<path id="N" d="M 16227314.98 35990652.99 L 16250792.98 35984646.99 L 16267718.98 35975364.99 L 16284644.98 35960622.99 L 16295018.98 35945334.99 L 16304846.98 35923495.00 L 16309214.98 35901109.00 L 16311398.99 35845963.00 L 16410770.99 35845963.00 L 16415684.99 35841595.00 L 16418960.99 35820847.00 L 16416776.99 35789179.00 L 16412408.99 35784265.00 L 16128488.99 35784264.99 L 16118114.99 35789178.99 L 16112108.99 35801190.99 L 16112654.98 35890188.99 L 16119206.98 35929500.99 L 16127396.98 35948610.99 L 16137770.98 35964444.99 L 16152512.98 35977548.99 L 16172168.98 35987376.99 L 16198376.98 35992836.99 L 16227314.98 35990652.99  zM 16191278.98 35925132.99 L 16179266.98 35919672.99 L 16167800.98 35907660.99 L 16161248.98 35889096.99 L 16160156.99 35845962.99 L 16263350.99 35845962.99 L 16263350.98 35878722.99 L 16259528.98 35898924.99 L 16253522.98 35909298.99 L 16243694.98 35918034.99 A 65785.14 65785.14 0 0 1 16191278.98 35925132.99  z"/>
<path id="N" d="M 21345425.99 32451028.99 L 21368903.99 32445022.99 L 21385829.99 32435740.99 L 21402755.99 32420998.99 L 21413129.99 32405710.99 L 21422957.99 32383871.00 L 21427325.99 32361485.00 L 21429510.00 32306339.00 L 21528882.00 32306339.00 L 21533796.00 32301971.00 L 21537072.00 32281223.00 L 21534888.00 32249555.00 L 21530520.00 32244641.00 L 21246600.00 32244640.99 L 21236226.00 32249554.99 L 21230220.00 32261566.99 L 21230766.00 32350564.99 L 21237317.99 32389876.99 L 21245507.99 32408986.99 L 21255881.99 32424820.99 L 21270623.99 32437924.99 L 21290279.99 32447752.99 L 21316487.99 32453212.99 L 21345425.99 32451028.99  zM 21309389.99 32385508.99 L 21297377.99 32380048.99 L 21285911.99 32368036.99 L 21279360.00 32349472.99 L 21278268.00 32306338.99 L 21381462.00 32306338.99 L 21381462.00 32339098.99 L 21377639.99 32359300.99 L 21371633.99 32369674.99 L 21361805.99 32378410.99 A 65785.14 65785.14 0 0 1 21309389.99 32385508.99  z"/>
<path id="N" d="M 20715503.98 32721844.99 L 20738981.98 32715838.99 L 20755907.98 32706556.99 L 20772833.98 32691814.99 L 20783207.98 32676526.99 L 20793035.98 32654687.00 L 20797403.98 32632301.00 L 20799587.99 32577155.00 L 20898959.99 32577155.00 L 20903873.99 32572787.00 L 20907149.99 32552039.00 L 20904965.99 32520371.00 L 20900597.99 32515457.00 L 20616677.99 32515456.99 L 20606303.99 32520370.99 L 20600297.99 32532382.99 L 20600843.98 32621380.99 L 20607395.98 32660692.99 L 20615585.98 32679802.99 L 20625959.98 32695636.99 L 20640701.98 32708740.99 L 20660357.98 32718568.99 L 20686565.98 32724028.99 L 20715503.98 32721844.99  zM 20679467.98 32656324.99 L 20667455.98 32650864.99 L 20655989.98 32638852.99 L 20649437.98 32620288.99 L 20648345.99 32577154.99 L 20751539.99 32577154.99 L 20751539.98 32609914.99 L 20747717.98 32630116.99 L 20741711.98 32640490.99 L 20731883.98 32649226.99 A 65785.14 65785.14 0 0 1 20679467.98 32656324.99  z"/>
<path id="N" d="M 22440602.95 33236826.23 L 22446212.95 33232746.23 L 22445702.98 33043026.23 L 22438562.99 33011406.23 L 22425812.99 32987946.23 L 22410003.00 32971626.23 L 22386543.00 32957856.22 L 22364613.00 32951226.22 L 22338603.00 32948166.22 L 22312083.00 32948676.21 L 22279953.00 32954286.21 L 22261593.00 32961936.20 L 22243233.00 32974686.20 L 22232012.99 32988456.20 L 22221302.99 33008346.20 L 22214672.99 33037416.19 L 22213652.95 33231216.19 L 22217222.95 33235806.19 L 22236602.95 33239376.20 L 22265672.95 33236826.20 L 22271282.95 33232746.20 L 22272812.98 33046596.20 L 22277402.99 33027726.21 L 22288112.99 33010896.21 L 22298822.99 33002736.21 L 22313612.99 32997126.21 L 22336052.99 32995086.22 L 22355942.99 32999166.22 L 22374302.99 33011916.22 L 22381952.99 33023136.22 L 22388582.98 33043026.22 L 22389602.95 33231216.23 L 22393172.95 33235806.23 L 22408472.95 33238866.23 L 22440602.95 33236826.23  z"/>
<path id="N" d="M 22399936.97 39943379.00 L 22403212.98 39923723.00 L 22401028.98 39894239.00 L 22396660.98 39889325.00 L 22144954.98 39888232.99 L 22393930.98 39799781.00 L 22400482.98 39793229.00 L 22403212.98 39773573.00 L 22401574.98 39747911.00 L 22397752.98 39738629.00 L 22144954.99 39650722.99 L 22395022.99 39650723.00 L 22399936.99 39646355.00 L 22403212.99 39626699.00 L 22401028.99 39596669.00 L 22396660.99 39592301.00 L 22114378.99 39592300.99 L 22102912.99 39597760.99 L 22096360.99 39610864.99 L 22096360.99 39662188.99 L 22098544.99 39674200.99 L 22104550.99 39687304.99 L 22115470.99 39697132.99 L 22313668.98 39769751.00 L 22313668.98 39770843.00 L 22131850.98 39839092.99 L 22114924.98 39846190.99 L 22102366.98 39857656.99 L 22097452.98 39870214.99 L 22096360.98 39926452.99 L 22101274.98 39939010.99 L 22113832.97 39947200.99 L 22393930.97 39947747.00 L 22399936.97 39943379.00  z"/>
<path id="N" d="M 21376314.97 36085111.00 L 21379590.98 36065455.00 L 21377406.98 36035971.00 L 21373038.98 36031057.00 L 21121332.98 36029964.99 L 21370308.98 35941513.00 L 21376860.98 35934961.00 L 21379590.98 35915305.00 L 21377952.98 35889643.00 L 21374130.98 35880361.00 L 21121332.99 35792454.99 L 21371400.99 35792455.00 L 21376314.99 35788087.00 L 21379590.99 35768431.00 L 21377406.99 35738401.00 L 21373038.99 35734033.00 L 21090756.99 35734032.99 L 21079290.99 35739492.99 L 21072738.99 35752596.99 L 21072738.99 35803920.99 L 21074922.99 35815932.99 L 21080928.99 35829036.99 L 21091848.99 35838864.99 L 21290046.98 35911483.00 L 21290046.98 35912575.00 L 21108228.98 35980824.99 L 21091302.98 35987922.99 L 21078744.98 35999388.99 L 21073830.98 36011946.99 L 21072738.98 36068184.99 L 21077652.98 36080742.99 L 21090210.97 36088932.99 L 21370308.97 36089479.00 L 21376314.97 36085111.00  z"/>
<path id="N" d="M 16415684.97 31990623.00 L 16418960.98 31970967.00 L 16416776.98 31941483.00 L 16412408.98 31936569.00 L 16160702.98 31935476.99 L 16409678.98 31847025.00 L 16416230.98 31840473.00 L 16418960.98 31820817.00 L 16417322.98 31795155.00 L 16413500.98 31785873.00 L 16160702.99 31697966.99 L 16410770.99 31697967.00 L 16415684.99 31693599.00 L 16418960.99 31673943.00 L 16416776.99 31643913.00 L 16412408.99 31639545.00 L 16130126.99 31639544.99 L 16118660.99 31645004.99 L 16112108.99 31658108.99 L 16112108.99 31709432.99 L 16114292.99 31721444.99 L 16120298.99 31734548.99 L 16131218.99 31744376.99 L 16329416.98 31816995.00 L 16329416.98 31818087.00 L 16147598.98 31886336.99 L 16130672.98 31893434.99 L 16118114.98 31904900.99 L 16113200.98 31917458.99 L 16112108.98 31973696.99 L 16117022.98 31986254.99 L 16129580.97 31994444.99 L 16409678.97 31994991.00 L 16415684.97 31990623.00  z"/>
<path id="N" d="M 20260302.96 33069647.00 L 20270130.96 33064733.00 L 20275044.96 33054905.00 L 20277228.97 33017777.00 L 20273952.97 32990477.00 L 20269038.97 32983925.00 L 20066472.97 32931508.99 L 20260302.97 32885099.00 L 20269584.97 32881277.00 L 20275044.97 32871995.00 L 20277228.97 32834321.00 L 20273952.98 32806475.00 L 20269038.98 32799923.00 L 19980204.98 32724574.99 L 19972560.98 32727850.99 L 19970376.98 32732764.99 L 19968738.98 32768254.99 L 19971468.98 32784088.99 L 19975836.98 32788456.99 L 20216076.97 32843603.00 L 19982934.97 32899294.99 L 19973106.97 32904754.99 L 19970376.97 32912944.99 L 19968738.97 32946796.99 L 19972014.97 32963176.99 L 19976382.97 32968636.99 L 20216076.97 33028697.00 L 19975290.96 33084388.99 L 19970922.96 33090940.99 L 19968738.96 33121516.99 L 19971468.96 33137350.99 L 19977474.96 33141718.99 L 20260302.96 33069647.00  z"/>
<path id="N" d="M 20890223.96 33093671.00 L 20900051.96 33088757.00 L 20904965.96 33078929.00 L 20907149.97 33041801.00 L 20903873.97 33014501.00 L 20898959.97 33007949.00 L 20696393.97 32955532.99 L 20890223.97 32909123.00 L 20899505.97 32905301.00 L 20904965.97 32896019.00 L 20907149.97 32858345.00 L 20903873.97 32830499.00 L 20898959.97 32823947.00 L 20610125.98 32748598.99 L 20602481.98 32751874.99 L 20600297.98 32756788.99 L 20598659.98 32792278.99 L 20601389.98 32808112.99 L 20605757.98 32812480.99 L 20845997.97 32867627.00 L 20612855.97 32923318.99 L 20603027.97 32928778.99 L 20600297.97 32936968.99 L 20598659.97 32970820.99 L 20601935.97 32987200.99 L 20606303.97 32992660.99 L 20845997.96 33052721.00 L 20605211.96 33108412.99 L 20600843.96 33114964.99 L 20598659.96 33145540.99 L 20601389.96 33161374.99 L 20607395.96 33165742.99 L 20890223.96 33093671.00  z"/>
<path id="N" d="M 21679682.95 33233256.10 L 21687332.95 33221526.10 L 21687843.00 32958876.10 L 21683763.00 32954286.10 L 21665403.00 32951226.10 L 21640923.00 32952756.09 L 21633783.00 32956326.09 L 21632252.96 33192456.09 L 21549633.00 32959896.08 L 21543513.00 32953776.08 L 21525153.00 32951226.07 L 21501183.00 32952756.07 L 21492513.00 32956326.07 L 21410402.96 33192456.05 L 21410403.00 32958876.05 L 21406323.00 32954286.05 L 21387963.00 32951226.05 L 21359913.00 32953266.05 L 21355833.00 32957346.04 L 21355832.95 33221016.04 L 21360932.95 33231726.05 L 21370112.95 33236826.05 L 21421112.95 33237846.06 L 21432332.95 33235806.06 L 21444572.95 33230196.06 L 21453752.95 33219996.06 L 21521582.99 33034866.07 L 21592472.95 33219486.09 L 21601652.95 33230706.09 L 21615422.95 33236826.09 L 21667952.95 33237846.10 L 21679682.95 33233256.10  z"/>
<path id="N" d="M 18892653.51 35664790.08 L 18897901.00 35665163.00 L 18903521.42 35660288.36 L 18910393.00 35657442.00 L 18912405.74 35652582.91 L 18916380.00 35649136.00 L 18916907.36 35641715.26 L 18919754.00 35634843.00 L 18919754.00 35477363.00 L 18916907.36 35470490.74 L 18916380.00 35463070.00 L 18912405.74 35459623.09 L 18910393.00 35454764.00 L 18903521.42 35451917.64 L 18897901.00 35447043.00 L 18892653.51 35447415.92 L 18887794.00 35445403.00 L 18880921.74 35448249.64 L 18873501.00 35448777.00 L 18716021.00 35527517.00 L 18701728.00 35541810.00 L 18699994.00 35545996.00 L 18699994.00 35566210.00 L 18701728.00 35570396.00 L 18716021.00 35584689.00 L 18873501.00 35663429.00 L 18880921.74 35663956.36 L 18887794.00 35666803.00 L 18892653.51 35664790.08  z"/>
<path id="N" d="M 19138718.51 31289791.08 L 19143966.00 31290164.00 L 19149586.42 31285289.36 L 19156458.00 31282443.00 L 19158470.74 31277583.91 L 19162445.00 31274137.00 L 19162972.36 31266716.26 L 19165819.00 31259844.00 L 19165819.00 31102364.00 L 19162972.36 31095491.74 L 19162445.00 31088071.00 L 19158470.74 31084624.09 L 19156458.00 31079765.00 L 19149586.42 31076918.64 L 19143966.00 31072044.00 L 19138718.51 31072416.92 L 19133859.00 31070404.00 L 19126986.74 31073250.64 L 19119566.00 31073778.00 L 18962086.00 31152518.00 L 18947793.00 31166811.00 L 18946059.00 31170997.00 L 18946059.00 31191211.00 L 18947793.00 31195397.00 L 18962086.00 31209690.00 L 19119566.00 31288430.00 L 19126986.74 31288957.36 L 19133859.00 31291804.00 L 19138718.51 31289791.08  z"/>
<path id="N" d="M 24876906.51 39523060.08 L 24882154.00 39523433.00 L 24887774.42 39518558.36 L 24894646.00 39515712.00 L 24896658.74 39510852.91 L 24900633.00 39507406.00 L 24901160.36 39499985.26 L 24904007.00 39493113.00 L 24904007.00 39335633.00 L 24901160.36 39328760.74 L 24900633.00 39321340.00 L 24896658.74 39317893.09 L 24894646.00 39313034.00 L 24887774.42 39310187.64 L 24882154.00 39305313.00 L 24876906.51 39305685.92 L 24872047.00 39303673.00 L 24865174.74 39306519.64 L 24857754.00 39307047.00 L 24700274.00 39385787.00 L 24685981.00 39400080.00 L 24684247.00 39404266.00 L 24684247.00 39424480.00 L 24685981.00 39428666.00 L 24700274.00 39442959.00 L 24857754.00 39521699.00 L 24865174.74 39522226.36 L 24872047.00 39525073.00 L 24876906.51 39523060.08  z"/>
<path id="N" d="M 24857229.51 35664792.08 L 24862477.00 35665165.00 L 24868097.42 35660290.36 L 24874969.00 35657444.00 L 24876981.74 35652584.91 L 24880956.00 35649138.00 L 24881483.36 35641717.26 L 24884330.00 35634845.00 L 24884330.00 35477365.00 L 24881483.36 35470492.74 L 24880956.00 35463072.00 L 24876981.74 35459625.09 L 24874969.00 35454766.00 L 24868097.42 35451919.64 L 24862477.00 35447045.00 L 24857229.51 35447417.92 L 24852370.00 35445405.00 L 24845497.74 35448251.64 L 24838077.00 35448779.00 L 24680597.00 35527519.00 L 24666304.00 35541812.00 L 24664570.00 35545998.00 L 24664570.00 35566212.00 L 24666304.00 35570398.00 L 24680597.00 35584691.00 L 24838077.00 35663431.00 L 24845497.74 35663958.36 L 24852370.00 35666805.00 L 24857229.51 35664792.08  z"/>
<path id="N" d="M 24850369.51 31748476.08 L 24855617.00 31748849.00 L 24861237.42 31743974.36 L 24868109.00 31741128.00 L 24870121.74 31736268.91 L 24874096.00 31732822.00 L 24874623.36 31725401.26 L 24877470.00 31718529.00 L 24877470.00 31561049.00 L 24874623.36 31554176.74 L 24874096.00 31546756.00 L 24870121.74 31543309.09 L 24868109.00 31538450.00 L 24861237.42 31535603.64 L 24855617.00 31530729.00 L 24850369.51 31531101.92 L 24845510.00 31529089.00 L 24838637.74 31531935.64 L 24831217.00 31532463.00 L 24673737.00 31611203.00 L 24659444.00 31625496.00 L 24657710.00 31629682.00 L 24657710.00 31649896.00 L 24659444.00 31654082.00 L 24673737.00 31668375.00 L 24831217.00 31747115.00 L 24838637.74 31747642.36 L 24845510.00 31750489.00 L 24850369.51 31748476.08  z"/>
<path id="N" d="M 18892661.51 39523059.08 L 18897909.00 39523432.00 L 18903529.42 39518557.36 L 18910401.00 39515711.00 L 18912413.74 39510851.91 L 18916388.00 39507405.00 L 18916915.36 39499984.26 L 18919762.00 39493112.00 L 18919762.00 39335632.00 L 18916915.36 39328759.74 L 18916388.00 39321339.00 L 18912413.74 39317892.09 L 18910401.00 39313033.00 L 18903529.42 39310186.64 L 18897909.00 39305312.00 L 18892661.51 39305684.92 L 18887802.00 39303672.00 L 18880929.74 39306518.64 L 18873509.00 39307046.00 L 18716029.00 39385786.00 L 18701736.00 39400079.00 L 18700002.00 39404265.00 L 18700002.00 39424479.00 L 18701736.00 39428665.00 L 18716029.00 39442958.00 L 18873509.00 39521698.00 L 18880929.74 39522225.36 L 18887802.00 39525072.00 L 18892661.51 39523059.08  z"/>
<path id="N" d="M 16415684.94 40835543.00 L 16418960.94 40816433.00 L 16417322.94 40778759.00 L 16414046.94 40774391.00 L 16347434.94 40752005.00 L 16347434.94 40636799.00 L 16408586.95 40617689.00 L 16415684.95 40612229.00 L 16418414.95 40600217.00 L 16417868.95 40566911.00 L 16414592.95 40557629.00 L 16407494.95 40556537.00 L 16122482.94 40654816.99 L 16115384.94 40659184.99 L 16111562.94 40670104.99 L 16110470.94 40709962.99 L 16113200.94 40730164.99 L 16118660.94 40737262.99 L 16396028.94 40834997.00 L 16412954.94 40837727.00 L 16415684.94 40835543.00  zM 16299932.94 40737262.99 L 16169984.94 40694128.99 L 16299932.94 40650994.99 L 16299932.94 40737262.99  z"/>
<path id="N" d="M 21376314.92 37279213.00 L 21379590.92 37260103.00 L 21377952.93 37222429.00 L 21374676.93 37218061.00 L 21308064.93 37195675.00 L 21308064.93 37080469.00 L 21369216.93 37061359.00 L 21376314.93 37055899.00 L 21379044.93 37043887.00 L 21378498.93 37010581.00 L 21375222.93 37001299.00 L 21368124.93 37000207.00 L 21083112.93 37098486.99 L 21076014.93 37102854.99 L 21072192.93 37113774.99 L 21071100.93 37153632.99 L 21073830.93 37173834.99 L 21079290.93 37180932.99 L 21356658.92 37278667.00 L 21373584.92 37281397.00 L 21376314.92 37279213.00  zM 21260562.93 37180932.99 L 21130614.93 37137798.99 L 21260562.93 37094664.99 L 21260562.93 37180932.99  z"/>
<path id="N" d="M 22644602.95 33236826.27 L 22651232.95 33231726.27 L 22742013.00 32973666.29 L 22745073.00 32958876.29 L 22743033.00 32954286.29 L 22725183.00 32951226.28 L 22689993.00 32952756.28 L 22685913.00 32955816.28 L 22665002.99 33018036.27 L 22557392.99 33018036.25 L 22539543.00 32960916.25 L 22535973.00 32955306.25 L 22523223.00 32951736.25 L 22492113.00 32952246.24 L 22483443.00 32955306.24 L 22482423.00 32961936.24 L 22574222.95 33228156.26 L 22578302.95 33234786.26 L 22588502.95 33238356.26 L 22644602.95 33236826.27  zM 22610942.96 33183786.26 L 22570652.98 33062406.26 L 22651232.98 33062406.27 L 22610942.96 33183786.26  z"/>
<path id="N" d="M 22142224.99 39538792.99 L 22146592.99 39534970.99 L 22147139.00 39432322.99 L 22229585.00 39432322.99 L 22230130.99 39528418.99 L 22237228.99 39533332.99 L 22258522.99 39534970.99 L 22274902.99 39532240.99 L 22278724.99 39528418.99 L 22279271.00 39432322.99 L 22393385.00 39432323.00 L 22398845.00 39429593.00 L 22403213.00 39407207.00 L 22400483.00 39375539.00 L 22396115.00 39370625.00 L 22115471.00 39370078.99 L 22102913.00 39373354.99 L 22096907.00 39382636.99 L 22096360.99 39533332.99 L 22097998.99 39536608.99 L 22113286.99 39540976.99 L 22142224.99 39538792.99  z"/>
<path id="N" d="M 21118602.99 35680524.99 L 21122970.99 35676702.99 L 21123517.00 35574054.99 L 21205963.00 35574054.99 L 21206508.99 35670150.99 L 21213606.99 35675064.99 L 21234900.99 35676702.99 L 21251280.99 35673972.99 L 21255102.99 35670150.99 L 21255649.00 35574054.99 L 21369763.00 35574055.00 L 21375223.00 35571325.00 L 21379591.00 35548939.00 L 21376861.00 35517271.00 L 21372493.00 35512357.00 L 21091849.00 35511810.99 L 21079291.00 35515086.99 L 21073285.00 35524368.99 L 21072738.99 35675064.99 L 21074376.99 35678340.99 L 21089664.99 35682708.99 L 21118602.99 35680524.99  z"/>
<path id="N" d="M 16157972.99 31586036.99 L 16162340.99 31582214.99 L 16162887.00 31479566.99 L 16245333.00 31479566.99 L 16245878.99 31575662.99 L 16252976.99 31580576.99 L 16274270.99 31582214.99 L 16290650.99 31579484.99 L 16294472.99 31575662.99 L 16295019.00 31479566.99 L 16409133.00 31479567.00 L 16414593.00 31476837.00 L 16418961.00 31454451.00 L 16416231.00 31422783.00 L 16411863.00 31417869.00 L 16131219.00 31417322.99 L 16118661.00 31420598.99 L 16112655.00 31429880.99 L 16112108.99 31580576.99 L 16113746.99 31583852.99 L 16129034.99 31588220.99 L 16157972.99 31586036.99  z"/>
<path id="N" d="M 23220902.95 33236316.37 L 23225492.95 33218466.37 L 23223962.96 33200106.37 L 23220392.96 33191436.37 L 23145422.96 33190416.36 L 23145423.00 32959896.36 L 23142873.00 32954796.36 L 23121963.00 32951226.35 L 23092383.00 32953266.35 L 23087793.00 32957346.35 L 23087282.96 33190416.35 L 23014352.96 33190416.33 L 23011802.96 33191946.33 L 23009252.96 33196026.33 L 23007212.96 33209286.33 L 23008742.95 33230196.33 L 23012822.95 33237336.33 L 23217842.95 33237846.37 L 23220902.95 33236316.37  z"/>
<path id="N" d="M 21118602.90 37792998.99 L 21122970.90 37789176.99 L 21123516.90 37710006.99 L 21371400.90 37710007.00 L 21376314.90 37705639.00 L 21379590.91 37684891.00 L 21377406.91 37653223.00 L 21373038.91 37648309.00 L 21123516.91 37647762.99 L 21123516.91 37569684.99 L 21121878.91 37566954.99 L 21117510.91 37564224.99 L 21103314.91 37562040.99 L 21080928.91 37563678.99 L 21073284.91 37568046.99 L 21072738.90 37787538.99 L 21074376.90 37790814.99 L 21089664.90 37795182.99 L 21118602.90 37792998.99  z"/>
<path id="N" d="M 16157972.91 41349328.99 L 16162340.91 41345506.99 L 16162886.92 41266336.99 L 16410770.92 41266337.00 L 16415684.92 41261969.00 L 16418960.92 41241221.00 L 16416776.92 41209553.00 L 16412408.92 41204639.00 L 16162886.92 41204092.99 L 16162886.92 41126014.99 L 16161248.92 41123284.99 L 16156880.92 41120554.99 L 16142684.92 41118370.99 L 16120298.92 41120008.99 L 16112654.92 41124376.99 L 16112108.91 41343868.99 L 16113746.91 41347144.99 L 16129034.91 41351512.99 L 16157972.91 41349328.99  z"/>
<path id="N" d="M 22709608.00 39185962.00 L 22718969.00 39163363.00 L 22709608.00 39140764.00 L 22687009.00 39131403.00 L 22108722.00 39131403.00 L 22108722.00 38631891.00 L 22099361.00 38609292.00 L 22076762.00 38599931.00 L 22054163.00 38609292.00 L 22044802.00 38631891.00 L 22044802.00 39163337.00 L 22054189.00 39185962.00 L 22076788.00 39195323.00 L 22687009.00 39195323.00 L 22709608.00 39185962.00  z"/>
<path id="N" d="M 21705681.00 35327694.00 L 21715042.00 35305095.00 L 21705681.00 35282496.00 L 21683082.00 35273135.00 L 21104795.00 35273135.00 L 21104795.00 34773623.00 L 21095434.00 34751024.00 L 21072835.00 34741663.00 L 21050236.00 34751024.00 L 21040875.00 34773623.00 L 21040875.00 35305069.00 L 21050262.00 35327694.00 L 21072861.00 35337055.00 L 21683082.00 35337055.00 L 21705681.00 35327694.00  z"/>
<path id="N" d="M 16725355.00 35327692.00 L 16734716.00 35305093.00 L 16725355.00 35282494.00 L 16702756.00 35273133.00 L 16124469.00 35273133.00 L 16124469.00 34773621.00 L 16115108.00 34751022.00 L 16092509.00 34741661.00 L 16069910.00 34751022.00 L 16060549.00 34773621.00 L 16060549.00 35305067.00 L 16069936.00 35327692.00 L 16092535.00 35337053.00 L 16702756.00 35337053.00 L 16725355.00 35327692.00  z"/>
<path id="N" d="M 25320876.00 31411352.00 L 25330237.00 31388753.00 L 25330237.00 30857307.00 L 25320876.00 30834708.00 L 25298277.00 30825347.00 L 25275678.00 30834708.00 L 25266317.00 30857307.00 L 25266317.00 31356819.00 L 24688030.00 31356819.00 L 24665431.00 31366180.00 L 24656070.00 31388779.00 L 24665431.00 31411378.00 L 24688030.00 31420739.00 L 25298251.00 31420739.00 L 25320876.00 31411352.00  z"/>
<path id="N" d="M 16479293.00 30903504.00 L 16488654.00 30880905.00 L 16479293.00 30858306.00 L 16456694.00 30848945.00 L 16173693.00 30848945.00 L 16173693.00 30526574.00 L 16164332.00 30503975.00 L 16141733.00 30494614.00 L 16119134.00 30503975.00 L 16109773.00 30526574.00 L 16109773.00 30880905.00 L 16119134.00 30903504.00 L 16141733.00 30912865.00 L 16456694.00 30912865.00 L 16479293.00 30903504.00  z"/>
<path id="N" d="M 19313938.00 30903504.00 L 19323299.00 30880905.00 L 19323299.00 30526574.00 L 19313938.00 30503975.00 L 19291339.00 30494614.00 L 19268740.00 30503975.00 L 19259379.00 30526574.00 L 19259379.00 30848945.00 L 18976378.00 30848945.00 L 18953779.00 30858306.00 L 18944418.00 30880905.00 L 18953779.00 30903504.00 L 18976378.00 30912865.00 L 19291339.00 30912865.00 L 19313938.00 30903504.00  z"/>
<path id="N" d="M 19363160.00 35327666.00 L 19372521.00 35305067.00 L 19372521.00 34773621.00 L 19363160.00 34751022.00 L 19340561.00 34741661.00 L 19317962.00 34751022.00 L 19308601.00 34773621.00 L 19308601.00 35273133.00 L 18730314.00 35273133.00 L 18707715.00 35282494.00 L 18698354.00 35305093.00 L 18707715.00 35327692.00 L 18730314.00 35337053.00 L 19340535.00 35337053.00 L 19363160.00 35327666.00  z"/>
<path id="N" d="M 25327736.00 35327668.00 L 25337097.00 35305069.00 L 25337097.00 34773623.00 L 25327736.00 34751024.00 L 25305137.00 34741663.00 L 25282538.00 34751024.00 L 25273177.00 34773623.00 L 25273177.00 35273135.00 L 24694890.00 35273135.00 L 24672291.00 35282496.00 L 24662930.00 35305095.00 L 24672291.00 35327694.00 L 24694890.00 35337055.00 L 25305111.00 35337055.00 L 25327736.00 35327668.00  z"/>
<path id="N" d="M 22683071.00 31411378.00 L 22692432.00 31388779.00 L 22683071.00 31366180.00 L 22660472.00 31356819.00 L 22082185.00 31356819.00 L 22082185.00 30857307.00 L 22072824.00 30834708.00 L 22050225.00 30825347.00 L 22027626.00 30834708.00 L 22018265.00 30857307.00 L 22018265.00 31388753.00 L 22027652.00 31411378.00 L 22050251.00 31420739.00 L 22660472.00 31420739.00 L 22683071.00 31411378.00  z"/>
<path id="N" d="M 25347413.00 39185936.00 L 25356774.00 39163337.00 L 25356774.00 38631891.00 L 25347413.00 38609292.00 L 25324814.00 38599931.00 L 25302215.00 38609292.00 L 25292854.00 38631891.00 L 25292854.00 39131403.00 L 24714567.00 39131403.00 L 24691968.00 39140764.00 L 24682607.00 39163363.00 L 24691968.00 39185962.00 L 24714567.00 39195323.00 L 25324788.00 39195323.00 L 25347413.00 39185936.00  z"/>
<path id="N" d="M 16725363.00 39185961.00 L 16734724.00 39163362.00 L 16725363.00 39140763.00 L 16702764.00 39131402.00 L 16124477.00 39131402.00 L 16124477.00 38631890.00 L 16115116.00 38609291.00 L 16092517.00 38599930.00 L 16069918.00 38609291.00 L 16060557.00 38631890.00 L 16060557.00 39163336.00 L 16069944.00 39185961.00 L 16092543.00 39195322.00 L 16702764.00 39195322.00 L 16725363.00 39185961.00  z"/>
<path id="N" d="M 19363168.00 39185935.00 L 19372529.00 39163336.00 L 19372529.00 38631890.00 L 19363168.00 38609291.00 L 19340569.00 38599930.00 L 19317970.00 38609291.00 L 19308609.00 38631890.00 L 19308609.00 39131402.00 L 18730322.00 39131402.00 L 18707723.00 39140763.00 L 18698362.00 39163362.00 L 18707723.00 39185961.00 L 18730322.00 39195322.00 L 19340543.00 39195322.00 L 19363168.00 39185935.00  z"/>
<path id="N" d="M 16415684.97 39957029.00 L 16418960.98 39936281.00 L 16416776.98 39904613.00 L 16412408.98 39899699.00 L 16120298.98 39899152.99 L 16116476.98 39900244.99 L 16112654.98 39908434.99 L 16110470.98 39935188.99 L 16113200.97 39954844.99 L 16117568.97 39960850.99 L 16409678.97 39961397.00 L 16415684.97 39957029.00  z"/>
<path id="N" d="M 16415684.97 36098761.00 L 16418960.98 36078013.00 L 16416776.98 36046345.00 L 16412408.98 36041431.00 L 16120298.98 36040884.99 L 16116476.98 36041976.99 L 16112654.98 36050166.99 L 16110470.98 36076920.99 L 16113200.97 36096576.99 L 16117568.97 36102582.99 L 16409678.97 36103129.00 L 16415684.97 36098761.00  z"/>
<path id="N" d="M 22399936.94 40628609.00 L 22403212.95 40607861.00 L 22401028.95 40576193.00 L 22396660.95 40571279.00 L 22104550.95 40570732.99 L 22100728.95 40571824.99 L 22096906.95 40580014.99 L 22094722.95 40606768.99 L 22097452.95 40626424.99 L 22101820.94 40632430.99 L 22393930.94 40632977.00 L 22399936.94 40628609.00  z"/>
<path id="N" d="M 16415684.96 36468403.00 L 16418960.96 36447655.00 L 16416776.96 36415987.00 L 16412408.96 36411073.00 L 16120298.96 36410526.99 L 16116476.96 36411618.99 L 16112654.96 36419808.99 L 16110470.96 36446562.99 L 16113200.96 36466218.99 L 16117568.96 36472224.99 L 16409678.96 36472771.00 L 16415684.96 36468403.00  z"/>
<path id="N" d="M 20810001.00 31124962.00 L 20819362.00 31102363.00 L 20810001.00 31079764.00 L 20787402.00 31070403.00 L 20629922.00 31070403.00 L 20607323.00 31079764.00 L 20597962.00 31102363.00 L 20607323.00 31124962.00 L 20629922.00 31134323.00 L 20787402.00 31134323.00 L 20810001.00 31124962.00  z"/>
<path id="N" d="M 21439922.00 31124962.00 L 21449283.00 31102363.00 L 21439922.00 31079764.00 L 21417323.00 31070403.00 L 21259843.00 31070403.00 L 21237244.00 31079764.00 L 21227883.00 31102363.00 L 21237244.00 31124962.00 L 21259843.00 31134323.00 L 21417323.00 31134323.00 L 21439922.00 31124962.00  z"/>
<path id="N" d="M 24874967.00 36508820.00 L 24884328.00 36486221.00 L 24874967.00 36463622.00 L 24852368.00 36454261.00 L 24694888.00 36454261.00 L 24672289.00 36463622.00 L 24662928.00 36486221.00 L 24672289.00 36508820.00 L 24694888.00 36518181.00 L 24852368.00 36518181.00 L 24874967.00 36508820.00  z"/>
<path id="N" d="M 25227323.00 36508820.00 L 25236684.00 36486221.00 L 25227323.00 36463622.00 L 25204724.00 36454261.00 L 25047244.00 36454261.00 L 25024645.00 36463622.00 L 25015284.00 36486221.00 L 25024645.00 36508820.00 L 25047244.00 36518181.00 L 25204724.00 36518181.00 L 25227323.00 36508820.00  z"/>
<path id="N" d="M 19195828.00 32424174.00 L 19205189.00 32401575.00 L 19195828.00 32378976.00 L 19173229.00 32369615.00 L 19015749.00 32369615.00 L 18993150.00 32378976.00 L 18983789.00 32401575.00 L 18993150.00 32424174.00 L 19015749.00 32433535.00 L 19173229.00 32433535.00 L 19195828.00 32424174.00  z"/>
<path id="N" d="M 24815914.00 33654440.00 L 24825275.00 33631841.00 L 24815914.00 33609242.00 L 24793315.00 33599881.00 L 21584654.00 33599881.00 L 21562055.00 33609242.00 L 21552694.00 33631841.00 L 21562055.00 33654440.00 L 21584654.00 33663801.00 L 24793315.00 33663801.00 L 24815914.00 33654440.00  z"/>
<path id="N" d="M 24500946.00 32571813.00 L 24510307.00 32549214.00 L 24500946.00 32526615.00 L 24478347.00 32517254.00 L 24320867.00 32517254.00 L 24298268.00 32526615.00 L 24288907.00 32549214.00 L 24298268.00 32571813.00 L 24320867.00 32581174.00 L 24478347.00 32581174.00 L 24500946.00 32571813.00  z"/>
<path id="N" d="M 18851338.00 33654438.00 L 18860699.00 33631839.00 L 18851338.00 33609240.00 L 18828739.00 33599879.00 L 16604329.00 33599879.00 L 16581730.00 33609240.00 L 16572369.00 33631839.00 L 16581730.00 33654438.00 L 16604329.00 33663799.00 L 18828739.00 33663799.00 L 18851338.00 33654438.00  z"/>
<path id="N" d="M 23516694.00 32571813.00 L 23526055.00 32549214.00 L 23516694.00 32526615.00 L 23494095.00 32517254.00 L 23336615.00 32517254.00 L 23314016.00 32526615.00 L 23304655.00 32549214.00 L 23314016.00 32571813.00 L 23336615.00 32581174.00 L 23494095.00 32581174.00 L 23516694.00 32571813.00  z"/>
<path id="N" d="M 24835591.00 37512708.00 L 24844952.00 37490109.00 L 24835591.00 37467510.00 L 24812992.00 37458149.00 L 22588582.00 37458149.00 L 22565983.00 37467510.00 L 22556622.00 37490109.00 L 22565983.00 37512708.00 L 22588582.00 37522069.00 L 24812992.00 37522069.00 L 24835591.00 37512708.00  z"/>
<path id="N" d="M 22181013.01 32908386.19 L 22183563.01 32892066.19 L 22180503.01 32876256.19 L 22174383.01 32872176.19 L 21962733.01 32872686.15 L 21958143.01 32877276.15 L 21956103.01 32889006.15 L 21958653.01 32908896.15 L 21962223.01 32912466.15 L 22175403.01 32912976.19 L 22181013.01 32908386.19  z"/>
<path id="N" d="M 16499222.96 40233305.00 L 16503590.96 40226753.00 L 16503044.97 40000163.00 L 16498130.97 39995249.00 L 16485572.97 39993065.00 L 16464278.97 39995795.00 L 16460456.97 39999617.00 L 16459910.96 40227845.00 L 16464824.96 40233851.00 L 16474106.96 40236035.00 L 16499222.96 40233305.00  z"/>
<path id="N" d="M 18851346.00 37512707.00 L 18860707.00 37490108.00 L 18851346.00 37467509.00 L 18828747.00 37458148.00 L 16604337.00 37458148.00 L 16581738.00 37467509.00 L 16572377.00 37490108.00 L 16581738.00 37512707.00 L 16604337.00 37522068.00 L 18828747.00 37522068.00 L 18851346.00 37512707.00  z"/>
<path id="N" d="M 18841497.00 29761771.00 L 18850858.00 29739172.00 L 18841497.00 29716573.00 L 18818898.00 29707212.00 L 16614174.00 29707212.00 L 16591575.00 29716573.00 L 16582214.00 29739172.00 L 16591575.00 29761771.00 L 16614174.00 29771132.00 L 18818898.00 29771132.00 L 18841497.00 29761771.00  z"/>
<path id="N" d="M 24809054.00 29738124.00 L 24818415.00 29715525.00 L 24809054.00 29692926.00 L 24786455.00 29683565.00 L 22562045.00 29683565.00 L 22539446.00 29692926.00 L 22530085.00 29715525.00 L 22539446.00 29738124.00 L 22562045.00 29747485.00 L 24786455.00 29747485.00 L 24809054.00 29738124.00  z"/>
<path id="N" d="M 22483474.95 40535243.00 L 22487842.95 40528691.00 L 22487296.96 40302101.00 L 22482382.96 40297187.00 L 22469824.96 40295003.00 L 22448530.96 40297733.00 L 22444708.96 40301555.00 L 22444162.95 40529783.00 L 22449076.95 40535789.00 L 22458358.95 40537973.00 L 22483474.95 40535243.00  z"/>
<path id="N" d="M 25209607.00 32926143.00 L 25218968.00 32903544.00 L 25209607.00 32880945.00 L 25187008.00 32871584.00 L 25029528.00 32871584.00 L 25006929.00 32880945.00 L 24997568.00 32903544.00 L 25006929.00 32926143.00 L 25029528.00 32935504.00 L 25187008.00 32935504.00 L 25209607.00 32926143.00  z"/>
<path id="N" d="M 24855277.00 32926143.00 L 24864638.00 32903544.00 L 24855277.00 32880945.00 L 24832678.00 32871584.00 L 24675198.00 32871584.00 L 24652599.00 32880945.00 L 24643238.00 32903544.00 L 24652599.00 32926143.00 L 24675198.00 32935504.00 L 24832678.00 32935504.00 L 24855277.00 32926143.00  z"/>
<path id="N" d="M 16499222.96 36375037.00 L 16503590.96 36368485.00 L 16503044.97 36141895.00 L 16498130.97 36136981.00 L 16485572.97 36134797.00 L 16464278.97 36137527.00 L 16460456.97 36141349.00 L 16459910.96 36369577.00 L 16464824.96 36375583.00 L 16474106.96 36377767.00 L 16499222.96 36375037.00  z"/>
<path id="N" d="M 16499222.95 32582487.00 L 16503590.95 32575935.00 L 16503044.96 32349345.00 L 16498130.96 32344431.00 L 16485572.96 32342247.00 L 16464278.96 32344977.00 L 16460456.96 32348799.00 L 16459910.95 32577027.00 L 16464824.95 32583033.00 L 16474106.95 32585217.00 L 16499222.95 32582487.00  z"/>
<path id="N" d="M 21459852.95 36676975.00 L 21464220.95 36670423.00 L 21463674.96 36443833.00 L 21458760.96 36438919.00 L 21446202.96 36436735.00 L 21424908.96 36439465.00 L 21421086.96 36443287.00 L 21420540.95 36671515.00 L 21425454.95 36677521.00 L 21434736.95 36679705.00 L 21459852.95 36676975.00  z"/>
<path id="N" d="M 19264725.00 40367088.00 L 19274086.00 40344489.00 L 19264725.00 40321890.00 L 19242126.00 40312529.00 L 19084646.00 40312529.00 L 19062047.00 40321890.00 L 19052686.00 40344489.00 L 19062047.00 40367088.00 L 19084646.00 40376449.00 L 19242126.00 40376449.00 L 19264725.00 40367088.00  z"/>
<path id="N" d="M 20180079.00 31479293.00 L 20189440.00 31456694.00 L 20180079.00 31434095.00 L 20157480.00 31424734.00 L 20000000.00 31424734.00 L 19977401.00 31434095.00 L 19968040.00 31456694.00 L 19977401.00 31479293.00 L 20000000.00 31488654.00 L 20157480.00 31488654.00 L 20180079.00 31479293.00  z"/>
<path id="N" d="M 18910395.00 40367088.00 L 18919756.00 40344489.00 L 18910395.00 40321890.00 L 18887796.00 40312529.00 L 18730316.00 40312529.00 L 18707717.00 40321890.00 L 18698356.00 40344489.00 L 18707717.00 40367088.00 L 18730316.00 40376449.00 L 18887796.00 40376449.00 L 18910395.00 40367088.00  z"/>
<path id="N" d="M 25248977.00 40367088.00 L 25258338.00 40344489.00 L 25248977.00 40321890.00 L 25226378.00 40312529.00 L 25068898.00 40312529.00 L 25046299.00 40321890.00 L 25036938.00 40344489.00 L 25046299.00 40367088.00 L 25068898.00 40376449.00 L 25226378.00 40376449.00 L 25248977.00 40367088.00  z"/>
<path id="N" d="M 18556064.00 40012758.00 L 18565425.00 39990159.00 L 18556064.00 39967560.00 L 18533465.00 39958199.00 L 18375985.00 39958199.00 L 18353386.00 39967560.00 L 18344025.00 39990159.00 L 18353386.00 40012758.00 L 18375985.00 40022119.00 L 18533465.00 40022119.00 L 18556064.00 40012758.00  z"/>
<path id="N" d="M 20810000.00 31479293.00 L 20819361.00 31456694.00 L 20810000.00 31434095.00 L 20787401.00 31424734.00 L 20629921.00 31424734.00 L 20607322.00 31434095.00 L 20597961.00 31456694.00 L 20607322.00 31479293.00 L 20629921.00 31488654.00 L 20787401.00 31488654.00 L 20810000.00 31479293.00  z"/>
<path id="N" d="M 24894647.00 40367088.00 L 24904008.00 40344489.00 L 24894647.00 40321890.00 L 24872048.00 40312529.00 L 24714568.00 40312529.00 L 24691969.00 40321890.00 L 24682608.00 40344489.00 L 24691969.00 40367088.00 L 24714568.00 40376449.00 L 24872048.00 40376449.00 L 24894647.00 40367088.00  z"/>
<path id="N" d="M 21439921.00 31479293.00 L 21449282.00 31456694.00 L 21439921.00 31434095.00 L 21417322.00 31424734.00 L 21259842.00 31424734.00 L 21237243.00 31434095.00 L 21227882.00 31456694.00 L 21237243.00 31479293.00 L 21259842.00 31488654.00 L 21417322.00 31488654.00 L 21439921.00 31479293.00  z"/>
<path id="N" d="M 17571812.00 40012758.00 L 17581173.00 39990159.00 L 17571812.00 39967560.00 L 17549213.00 39958199.00 L 17391733.00 39958199.00 L 17369134.00 39967560.00 L 17359773.00 39990159.00 L 17369134.00 40012758.00 L 17391733.00 40022119.00 L 17549213.00 40022119.00 L 17571812.00 40012758.00  z"/>
<path id="N" d="M 17660400.00 32069844.00 L 17669761.00 32047245.00 L 17660400.00 32024646.00 L 17637801.00 32015285.00 L 17480321.00 32015285.00 L 17457722.00 32024646.00 L 17448361.00 32047245.00 L 17457722.00 32069844.00 L 17480321.00 32079205.00 L 17637801.00 32079205.00 L 17660400.00 32069844.00  z"/>
<path id="N" d="M 18054102.00 32069844.00 L 18063463.00 32047245.00 L 18054102.00 32024646.00 L 18031503.00 32015285.00 L 17874023.00 32015285.00 L 17851424.00 32024646.00 L 17842063.00 32047245.00 L 17851424.00 32069844.00 L 17874023.00 32079205.00 L 18031503.00 32079205.00 L 18054102.00 32069844.00  z"/>
<path id="N" d="M 19675803.00 32549818.00 L 19688284.00 32519685.00 L 19675803.00 32489552.00 L 19645670.00 32477071.00 L 19409450.00 32477071.00 L 19379317.00 32489552.00 L 19366836.00 32519685.00 L 19379317.00 32549818.00 L 19409450.00 32562299.00 L 19645670.00 32562299.00 L 19675803.00 32549818.00  z"/>
<path id="N" d="M 17266698.00 32069844.00 L 17276059.00 32047245.00 L 17266698.00 32024646.00 L 17244099.00 32015285.00 L 17086619.00 32015285.00 L 17064020.00 32024646.00 L 17054659.00 32047245.00 L 17064020.00 32069844.00 L 17086619.00 32079205.00 L 17244099.00 32079205.00 L 17266698.00 32069844.00  z"/>
<path id="N" d="M 18447794.00 32069844.00 L 18457155.00 32047245.00 L 18447794.00 32024646.00 L 18425195.00 32015285.00 L 18267715.00 32015285.00 L 18245116.00 32024646.00 L 18235755.00 32047245.00 L 18245116.00 32069844.00 L 18267715.00 32079205.00 L 18425195.00 32079205.00 L 18447794.00 32069844.00  z"/>
<path id="N" d="M 18841497.00 32069844.00 L 18850858.00 32047245.00 L 18841497.00 32024646.00 L 18818898.00 32015285.00 L 18661418.00 32015285.00 L 18638819.00 32024646.00 L 18629458.00 32047245.00 L 18638819.00 32069844.00 L 18661418.00 32079205.00 L 18818898.00 32079205.00 L 18841497.00 32069844.00  z"/>
<path id="N" d="M 18063938.00 40012758.00 L 18073299.00 39990159.00 L 18063938.00 39967560.00 L 18041339.00 39958199.00 L 17883859.00 39958199.00 L 17861260.00 39967560.00 L 17851899.00 39990159.00 L 17861260.00 40012758.00 L 17883859.00 40022119.00 L 18041339.00 40022119.00 L 18063938.00 40012758.00  z"/>
<path id="N" d="M 18556062.00 36154489.00 L 18565423.00 36131890.00 L 18556062.00 36109291.00 L 18533463.00 36099930.00 L 18375983.00 36099930.00 L 18353384.00 36109291.00 L 18344023.00 36131890.00 L 18353384.00 36154489.00 L 18375983.00 36163850.00 L 18533463.00 36163850.00 L 18556062.00 36154489.00  z"/>
<path id="N" d="M 17571810.00 36154489.00 L 17581171.00 36131890.00 L 17571810.00 36109291.00 L 17549211.00 36099930.00 L 17391731.00 36099930.00 L 17369132.00 36109291.00 L 17359771.00 36131890.00 L 17369132.00 36154489.00 L 17391731.00 36163850.00 L 17549211.00 36163850.00 L 17571810.00 36154489.00  z"/>
<path id="N" d="M 18063936.00 36154489.00 L 18073297.00 36131890.00 L 18063936.00 36109291.00 L 18041337.00 36099930.00 L 17883857.00 36099930.00 L 17861258.00 36109291.00 L 17851897.00 36131890.00 L 17861258.00 36154489.00 L 17883857.00 36163850.00 L 18041337.00 36163850.00 L 18063936.00 36154489.00  z"/>
<path id="N" d="M 23536387.00 36154490.00 L 23545748.00 36131891.00 L 23536387.00 36109292.00 L 23513788.00 36099931.00 L 23356308.00 36099931.00 L 23333709.00 36109292.00 L 23324348.00 36131891.00 L 23333709.00 36154490.00 L 23356308.00 36163851.00 L 23513788.00 36163851.00 L 23536387.00 36154490.00  z"/>
<path id="N" d="M 24008820.00 32571813.00 L 24018181.00 32549214.00 L 24008820.00 32526615.00 L 23986221.00 32517254.00 L 23828741.00 32517254.00 L 23806142.00 32526615.00 L 23796781.00 32549214.00 L 23806142.00 32571813.00 L 23828741.00 32581174.00 L 23986221.00 32581174.00 L 24008820.00 32571813.00  z"/>
<path id="N" d="M 19264723.00 36508819.00 L 19274084.00 36486220.00 L 19264723.00 36463621.00 L 19242124.00 36454260.00 L 19084644.00 36454260.00 L 19062045.00 36463621.00 L 19052684.00 36486220.00 L 19062045.00 36508819.00 L 19084644.00 36518180.00 L 19242124.00 36518180.00 L 19264723.00 36508819.00  z"/>
<path id="N" d="M 23042284.00 36154490.00 L 23051645.00 36131891.00 L 23042284.00 36109292.00 L 23019685.00 36099931.00 L 22862205.00 36099931.00 L 22839606.00 36109292.00 L 22830245.00 36131891.00 L 22839606.00 36154490.00 L 22862205.00 36163851.00 L 23019685.00 36163851.00 L 23042284.00 36154490.00  z"/>
<path id="N" d="M 20180080.00 31124962.00 L 20189441.00 31102363.00 L 20180080.00 31079764.00 L 20157481.00 31070403.00 L 20000001.00 31070403.00 L 19977402.00 31079764.00 L 19968041.00 31102363.00 L 19977402.00 31124962.00 L 20000001.00 31134323.00 L 20157481.00 31134323.00 L 20180080.00 31124962.00  z"/>
<path id="N" d="M 24048190.00 40012758.00 L 24057551.00 39990159.00 L 24048190.00 39967560.00 L 24025591.00 39958199.00 L 23868111.00 39958199.00 L 23845512.00 39967560.00 L 23836151.00 39990159.00 L 23845512.00 40012758.00 L 23868111.00 40022119.00 L 24025591.00 40022119.00 L 24048190.00 40012758.00  z"/>
<path id="N" d="M 24540316.00 40012758.00 L 24549677.00 39990159.00 L 24540316.00 39967560.00 L 24517717.00 39958199.00 L 24360237.00 39958199.00 L 24337638.00 39967560.00 L 24328277.00 39990159.00 L 24337638.00 40012758.00 L 24360237.00 40022119.00 L 24517717.00 40022119.00 L 24540316.00 40012758.00  z"/>
<path id="N" d="M 23556064.00 40012758.00 L 23565425.00 39990159.00 L 23556064.00 39967560.00 L 23533465.00 39958199.00 L 23375985.00 39958199.00 L 23353386.00 39967560.00 L 23344025.00 39990159.00 L 23353386.00 40012758.00 L 23375985.00 40022119.00 L 23533465.00 40022119.00 L 23556064.00 40012758.00  z"/>
<path id="N" d="M 24520639.00 36154490.00 L 24530000.00 36131891.00 L 24520639.00 36109292.00 L 24498040.00 36099931.00 L 24340560.00 36099931.00 L 24317961.00 36109292.00 L 24308600.00 36131891.00 L 24317961.00 36154490.00 L 24340560.00 36163851.00 L 24498040.00 36163851.00 L 24520639.00 36154490.00  z"/>
<path id="N" d="M 18910392.00 36508819.00 L 18919753.00 36486220.00 L 18910392.00 36463621.00 L 18887793.00 36454260.00 L 18730313.00 36454260.00 L 18707714.00 36463621.00 L 18698353.00 36486220.00 L 18707714.00 36508819.00 L 18730313.00 36518180.00 L 18887793.00 36518180.00 L 18910392.00 36508819.00  z"/>
<path id="N" d="M 22552135.00 36164332.00 L 22561496.00 36141733.00 L 22552135.00 36119134.00 L 22529536.00 36109773.00 L 22372056.00 36109773.00 L 22349457.00 36119134.00 L 22340096.00 36141733.00 L 22349457.00 36164332.00 L 22372056.00 36173693.00 L 22529536.00 36173693.00 L 22552135.00 36164332.00  z"/>
<path id="N" d="M 24028513.00 36154490.00 L 24037874.00 36131891.00 L 24028513.00 36109292.00 L 24005914.00 36099931.00 L 23848434.00 36099931.00 L 23825835.00 36109292.00 L 23816474.00 36131891.00 L 23825835.00 36154490.00 L 23848434.00 36163851.00 L 24005914.00 36163851.00 L 24028513.00 36154490.00  z"/>
</g>
</svg>
