<svg width="25.9999988mm" height="35.00000366mm" viewBox="0 0 10236220 13779529"  version="1.1" xmlns="http://www.w3.org/2000/svg" xmlns:xlink="http://www.w3.org/1999/xlink">
<desc>
Origin 20708662 43307087 Bound 15590552 29527559 10236220 13779529
</desc>
<g fill-rule="evenodd" fill="rgb(255, 0, 0)" stroke="black" stroke-width="1" transform="translate(0, 13779529) scale(1, -1) translate(-15590552, -29527559)">
<path id="N" d="M 23527699.00 36401707.00 L 23535500.00 36382875.00 L 23535500.00 36235237.00 L 23527699.00 36216405.00 L 23508867.00 36208604.00 L 23461681.00 36208604.00 L 23461681.00 36069464.25 L 23473451.00 36067123.00 A 100354.75 100354.75 0 0 0 23473451.00 35881695.00 L 23461681.00 35879353.75 L 23461681.00 35721422.00 L 23517725.00 35721422.00 L 23544844.00 35710189.00 L 23556077.00 35683070.00 L 23556077.00 35084646.00 L 23544844.00 35057527.00 L 23517725.00 35046294.00 L 23352371.00 35046294.00 L 23325252.00 35057527.00 L 23314019.00 35084646.00 L 23314019.00 35683070.00 L 23325252.00 35710189.00 L 23352371.00 35721422.00 L 23408415.00 35721422.00 L 23408415.00 35879353.75 L 23396645.00 35881695.00 A 100354.75 100354.75 0 0 0 23396645.00 36067123.00 L 23408415.00 36069464.25 L 23408415.00 36208604.00 L 23361229.00 36208604.00 L 23342397.00 36216405.00 L 23334596.00 36235237.00 L 23334596.00 36382875.00 L 23342397.00 36401707.00 L 23361229.00 36409508.00 L 23508867.00 36409508.00 L 23527699.00 36401707.00  z"/>
<path id="N" d="M 19891736.00 42322834.00 L 19849472.00 42322834.00 L 19849472.00 41555976.00 L 23453880.00 37951568.00 L 23461681.00 37932736.00 L 23461681.00 37674860.25 L 23473451.00 37672519.00 A 100354.75 100354.75 0 1 0 23396645.00 37672519.00 L 23408415.00 37674860.25 L 23408415.00 37921705.00 L 19804007.00 41526113.00 L 19796206.00 41544945.00 L 19796206.00 42322834.00 L 19753942.00 42322834.00 L 19753942.00 43110236.00 L 19891736.00 43110236.00 L 19891736.00 42322834.00  z"/>
<path id="N" d="M 19669542.00 32366469.00 L 19679845.00 32341594.00 L 19679845.00 32146594.00 L 19669542.00 32121719.00 L 19644667.00 32111416.00 L 19410455.00 32111416.00 L 19385580.00 32121719.00 L 19375277.00 32146594.00 L 19375277.00 32170331.00 L 19204783.00 32170331.00 L 19204783.00 32150591.00 L 19196982.00 32131759.00 L 19178150.00 32123958.00 L 19010828.00 32123958.00 L 18991996.00 32131759.00 L 18984195.00 32150591.00 L 18984195.00 32160489.00 L 18840610.00 32160489.00 L 18840610.00 32150591.00 L 18832809.00 32131759.00 L 18813977.00 32123958.00 L 18804079.00 32123958.00 L 18804079.00 31323820.00 L 18799304.78 31312293.98 L 18811970.00 31307048.00 L 18821331.00 31284448.00 L 18821331.00 30733268.00 L 18811970.00 30710668.00 L 18789370.00 30701307.00 L 18612206.00 30701307.00 L 18589606.00 30710668.00 L 18580245.00 30733268.00 L 18580245.00 31284448.00 L 18589606.00 31307048.00 L 18612206.00 31316409.00 L 18679306.73 31316409.00 L 18676237.00 31323820.00 L 18676237.00 32123958.00 L 18666339.00 32123958.00 L 18647507.00 32131759.00 L 18639706.00 32150591.00 L 18639706.00 32298229.00 L 18647507.00 32317061.00 L 18666339.00 32324862.00 L 18813977.00 32324862.00 L 18832809.00 32317061.00 L 18840610.00 32298229.00 L 18840610.00 32288331.00 L 18984195.00 32288331.00 L 18984195.00 32298229.00 L 18991996.00 32317061.00 L 19010828.00 32324862.00 L 19178150.00 32324862.00 L 19196982.00 32317061.00 L 19204783.00 32298173.00 L 19375277.00 32298173.00 L 19375277.00 32341594.00 L 19385580.00 32366469.00 L 19410455.00 32376772.00 L 19644667.00 32376772.00 L 19669542.00 32366469.00  z"/>
<path id="N" d="M 24039502.00 40259975.00 L 24047303.00 40241143.00 L 24047303.00 40093505.00 L 24039502.00 40074673.00 L 24020670.00 40066872.00 L 23973483.00 40066872.00 L 23973483.00 39927737.25 L 23985253.00 39925396.00 A 100354.75 100354.75 0 0 0 23985253.00 39739968.00 L 23973483.00 39737626.75 L 23973483.00 39579691.00 L 24029527.00 39579691.00 L 24056646.00 39568458.00 L 24067879.00 39541339.00 L 24067879.00 38942915.00 L 24056646.00 38915796.00 L 24029527.00 38904563.00 L 23864173.00 38904563.00 L 23837054.00 38915796.00 L 23825821.00 38942915.00 L 23825821.00 39541339.00 L 23837054.00 39568458.00 L 23864173.00 39579691.00 L 23920217.00 39579691.00 L 23920217.00 39737626.75 L 23908447.00 39739968.00 A 100354.75 100354.75 0 0 0 23908447.00 39925396.00 L 23920217.00 39927737.25 L 23920217.00 40066872.00 L 23873032.00 40066872.00 L 23854200.00 40074673.00 L 23846399.00 40093505.00 L 23846399.00 40241143.00 L 23854200.00 40259975.00 L 23873032.00 40267776.00 L 24020670.00 40267776.00 L 24039502.00 40259975.00  z"/>
<path id="N" d="M 22253936.00 42322834.00 L 22211672.00 42322834.00 L 22211672.00 41814675.06 L 22321565.94 41704782.00 L 23764748.00 41704782.00 L 23783580.00 41696981.00 L 23898469.25 41582092.38 L 23908448.00 41588760.00 A 100349.83 100349.83 0 1 0 23854137.00 41534449.00 L 23860804.62 41544427.75 L 23753716.96 41651516.00 L 22310534.00 41651516.00 L 22291702.00 41659316.00 L 22166207.00 41784812.00 L 22158406.00 41803644.00 L 22158406.00 42322834.00 L 22116142.00 42322834.00 L 22116142.00 43110236.00 L 22253936.00 43110236.00 L 22253936.00 42322834.00  z"/>
<path id="N" d="M 20930909.00 32402542.00 L 20928567.75 32414312.00 L 20877173.95 32414312.00 L 20735294.00 32272432.95 L 20735294.00 32090610.00 L 20792322.00 32090610.00 L 20811154.00 32082809.00 L 20818955.00 32063977.00 L 20818955.00 31916339.00 L 20811154.00 31897507.00 L 20792322.00 31889706.00 L 20625000.00 31889706.00 L 20606168.00 31897507.00 L 20598367.00 31916339.00 L 20598367.00 32063977.00 L 20606168.00 32082809.00 L 20625000.00 32090610.00 L 20682028.00 32090610.00 L 20682028.00 32283464.00 L 20689829.00 32302296.00 L 20847310.00 32459778.00 L 20866142.00 32467578.00 L 20928567.75 32467578.00 L 20930909.00 32479348.00 A 100354.75 100354.75 0 1 0 20930909.00 32402542.00  z"/>
<path id="N" d="M 20433070.47 40629918.47 m -100354.75 0 a 100354.75 100354.75 0 1 1 200709.51 0a 100354.75 100354.75 0 1 1 -200709.51 0"/>
<path id="N" d="M 17651712.00 32317061.00 L 17659513.00 32298229.00 L 17659513.00 32150591.00 L 17651712.00 32131759.00 L 17632880.00 32123958.00 L 17585689.00 32123958.00 L 17585689.00 32024190.25 L 17597459.00 32021849.00 A 100354.75 100354.75 0 0 0 17597459.00 31836421.00 L 17585688.84 31834079.72 L 17585688.00 31323820.00 L 17582618.05 31316409.00 L 17608267.00 31316409.00 L 17630867.00 31307048.00 L 17640228.00 31284448.00 L 17640228.00 30733268.00 L 17630867.00 30710668.00 L 17608267.00 30701307.00 L 17431103.00 30701307.00 L 17408503.00 30710668.00 L 17399142.00 30733268.00 L 17399142.00 31284448.00 L 17408503.00 31307048.00 L 17431103.00 31316409.00 L 17535491.95 31316409.00 L 17532422.00 31323820.00 L 17532422.84 31834079.78 L 17520653.00 31836421.00 A 100354.75 100354.75 0 0 0 17520653.00 32021849.00 L 17532423.00 32024190.25 L 17532423.00 32123958.00 L 17485242.00 32123958.00 L 17466410.00 32131759.00 L 17458609.00 32150591.00 L 17458609.00 32298229.00 L 17466410.00 32317061.00 L 17485242.00 32324862.00 L 17632880.00 32324862.00 L 17651712.00 32317061.00  z"/>
<path id="N" d="M 18316936.00 42322834.00 L 18274672.00 42322834.00 L 18274672.00 41920372.00 L 18266871.00 41901540.00 L 16719547.00 40354216.00 L 16719547.00 39488190.00 L 16711746.00 39469358.00 L 16463999.13 39221611.13 L 16470667.00 39211632.00 A 100349.83 100349.83 0 1 0 16416356.00 39265943.00 L 16426335.13 39259275.13 L 16666281.00 39499221.00 L 16666281.00 40365247.00 L 16674082.00 40384079.00 L 18221406.00 41931403.00 L 18221406.00 42322834.00 L 18179142.00 42322834.00 L 18179142.00 43110236.00 L 18316936.00 43110236.00 L 18316936.00 42322834.00  z"/>
<path id="N" d="M 18055250.00 40259975.00 L 18063051.00 40241143.00 L 18063051.00 40093505.00 L 18055250.00 40074673.00 L 18036418.00 40066872.00 L 17989238.00 40066872.00 L 17989238.00 39927732.25 L 18001008.00 39925391.00 A 100354.75 100354.75 0 0 0 18001008.00 39739963.00 L 17989238.00 39737621.75 L 17989238.00 39579690.00 L 18045282.00 39579690.00 L 18072401.00 39568457.00 L 18083634.00 39541338.00 L 18083634.00 38942914.00 L 18072401.00 38915795.00 L 18045282.00 38904562.00 L 17879928.00 38904562.00 L 17852809.00 38915795.00 L 17841576.00 38942914.00 L 17841576.00 39541338.00 L 17852809.00 39568457.00 L 17879928.00 39579690.00 L 17935972.00 39579690.00 L 17935972.00 39737621.75 L 17924202.00 39739963.00 A 100354.75 100354.75 0 0 0 17924202.00 39925391.00 L 17935972.00 39927732.25 L 17935972.00 40066872.00 L 17888780.00 40066872.00 L 17869948.00 40074673.00 L 17862147.00 40093505.00 L 17862147.00 40241143.00 L 17869948.00 40259975.00 L 17888780.00 40267776.00 L 18036418.00 40267776.00 L 18055250.00 40259975.00  z"/>
<path id="N" d="M 21072836.00 42322834.00 L 21030572.00 42322834.00 L 21030572.00 41814675.00 L 21292431.00 41552816.00 L 21780905.00 41552816.00 L 21799737.00 41545015.00 L 22038233.34 41306519.44 L 22048212.00 41313187.00 A 100349.83 100349.83 0 1 0 21993901.00 41258876.00 L 22000568.56 41268854.66 L 21769873.97 41499550.00 L 21281400.00 41499550.00 L 21262568.00 41507351.00 L 20985107.00 41784812.00 L 20977306.00 41803644.00 L 20977306.00 42322834.00 L 20935042.00 42322834.00 L 20935042.00 43110236.00 L 21072836.00 43110236.00 L 21072836.00 42322834.00  z"/>
<path id="N" d="M 18045414.00 32317061.00 L 18053215.00 32298229.00 L 18053215.00 32150591.00 L 18045414.00 32131759.00 L 18026582.00 32123958.00 L 17979389.00 32123958.00 L 17979389.00 32024190.25 L 17991159.00 32021849.00 A 100354.75 100354.75 0 0 0 17991159.00 31836421.00 L 17979389.00 31834079.75 L 17979389.00 31323820.00 L 17976319.05 31316409.00 L 18001968.00 31316409.00 L 18024568.00 31307048.00 L 18033929.00 31284448.00 L 18033929.00 30733268.00 L 18024568.00 30710668.00 L 18001968.00 30701307.00 L 17824804.00 30701307.00 L 17802204.00 30710668.00 L 17792843.00 30733268.00 L 17792843.00 31284448.00 L 17802204.00 31307048.00 L 17824804.00 31316409.00 L 17929192.95 31316409.00 L 17926123.00 31323820.00 L 17926123.00 31834079.75 L 17914353.00 31836421.00 A 100354.75 100354.75 0 0 0 17914353.00 32021849.00 L 17926123.00 32024190.25 L 17926123.00 32123958.00 L 17878944.00 32123958.00 L 17860112.00 32131759.00 L 17852311.00 32150591.00 L 17852311.00 32298229.00 L 17860112.00 32317061.00 L 17878944.00 32324862.00 L 18026582.00 32324862.00 L 18045414.00 32317061.00  z"/>
<path id="N" d="M 17332685.00 42322834.00 L 17290421.00 42322834.00 L 17290421.00 41862716.00 L 17282621.00 41843884.00 L 16370136.00 40931399.99 L 16370136.00 40123030.00 L 16362336.00 40104198.00 L 16109669.21 39851532.00 L 16116337.00 39841553.00 A 100349.83 100349.83 0 1 0 16062026.00 39895864.00 L 16072005.00 39889196.21 L 16316870.00 40134061.98 L 16316870.00 40942431.00 L 16324671.00 40961263.00 L 17237155.00 41873747.99 L 17237155.00 42322834.00 L 17194891.00 42322834.00 L 17194891.00 43110236.00 L 17332685.00 43110236.00 L 17332685.00 42322834.00  z"/>
<path id="N" d="M 20615948.00 32756873.00 L 20613606.75 32768643.00 L 20601583.98 32768643.00 L 20105373.00 32272432.98 L 20105373.00 32090610.00 L 20162401.00 32090610.00 L 20181233.00 32082809.00 L 20189034.00 32063977.00 L 20189034.00 31916339.00 L 20181233.00 31897507.00 L 20162401.00 31889706.00 L 19995079.00 31889706.00 L 19976247.00 31897507.00 L 19968446.00 31916339.00 L 19968446.00 32063977.00 L 19976247.00 32082809.00 L 19995079.00 32090610.00 L 20052107.00 32090610.00 L 20052107.00 32283464.00 L 20059908.00 32302296.00 L 20571719.00 32814108.00 L 20590552.00 32821909.00 L 20613606.75 32821909.00 L 20615948.00 32833679.00 A 100354.75 100354.75 0 1 0 20615948.00 32756873.00  z"/>
<path id="N" d="M 21023621.47 40787400.47 m -100354.75 0 a 100354.75 100354.75 0 1 1 200709.51 0a 100354.75 100354.75 0 1 1 -200709.51 0"/>
<path id="N" d="M 20811155.00 31017849.00 L 20818956.00 30999017.00 L 20818956.00 30851379.00 L 20811155.00 30832547.00 L 20792323.00 30824746.00 L 20625001.00 30824746.00 L 20606169.00 30832547.00 L 20598368.00 30851379.00 L 20598368.00 30871931.00 L 20189035.00 30871931.00 L 20189035.00 30851379.00 L 20181234.00 30832547.00 L 20162402.00 30824746.00 L 19995080.00 30824746.00 L 19976248.00 30832547.00 L 19968447.00 30851379.00 L 19968447.00 30871931.00 L 19885932.14 30871931.00 L 19874110.00 30854238.00 A 100353.26 100353.26 0 1 0 19874110.00 30996158.00 L 19885932.14 30978465.00 L 19968447.00 30978465.00 L 19968447.00 30999017.00 L 19976248.00 31017849.00 L 19995080.00 31025650.00 L 20162402.00 31025650.00 L 20181234.00 31017849.00 L 20189035.00 30999017.00 L 20189035.00 30978465.00 L 20598368.00 30978465.00 L 20598368.00 30999017.00 L 20606169.00 31017849.00 L 20625001.00 31025650.00 L 20792323.00 31025650.00 L 20811155.00 31017849.00  z"/>
<path id="N" d="M 19251969.00 32874016.00 L 19251969.00 32480315.00 L 19212599.00 32440945.00 L 17047244.00 32440945.00 L 16929134.00 32322835.00 L 16929134.00 31023622.00 L 16889764.00 30984252.00 L 16852826.00 30984252.00 L 16852826.00 30733268.00 L 16843465.00 30710668.00 L 16820865.00 30701307.00 L 16771654.00 30701307.00 L 16771654.00 29960630.00 L 16732284.00 29921260.00 L 16459611.00 29921260.00 L 16459611.00 29695866.00 L 16448378.00 29668747.00 L 16421259.00 29657514.00 L 16019685.00 29657514.00 L 15992566.00 29668747.00 L 15981333.00 29695866.00 L 15981333.00 29924179.00 L 15944882.00 29960630.00 L 15944882.00 30708661.00 L 15984252.00 30748031.00 L 16611740.00 30748031.00 L 16611740.00 31284448.00 L 16614174.00 31290324.34 L 16614174.00 32598426.00 L 16929134.00 32913386.00 L 19212599.00 32913386.00 L 19251969.00 32874016.00  z"/>
<path id="N" d="M 21864536.00 32435403.00 L 21872025.00 32417324.00 L 21872025.00 32307088.00 L 21864536.00 32289009.00 L 21846457.00 32281520.00 L 21829842.00 32281520.00 L 21829842.00 32205479.02 L 21842614.00 32196945.00 A 100353.26 100353.26 0 1 0 21700694.00 32196945.00 L 21723308.00 32212055.27 L 21723308.00 32281520.00 L 21716537.00 32281520.00 L 21698458.00 32289009.00 L 21690969.00 32307088.00 L 21690969.00 32417324.00 L 21698458.00 32435403.00 L 21716537.00 32442892.00 L 21846457.00 32442892.00 L 21864536.00 32435403.00  z"/>
<path id="N" d="M 17135836.00 42723322.11 L 17137186.00 42716535.00 L 17137186.00 42066938.00 L 17131839.00 42040055.00 L 17116611.00 42017266.00 L 17078122.00 41978777.00 L 17078835.00 41921354.00 A 100353.26 100353.26 0 1 0 16937628.00 41921830.41 L 16937628.00 42007874.00 L 16942975.00 42034757.00 L 16958203.00 42057546.00 L 16996692.00 42096035.00 L 16996692.00 42716535.00 L 16998042.00 42723322.11 L 16998042.00 43110236.00 L 17135836.00 43110236.00 L 17135836.00 42723322.11  z"/>
<path id="N" d="M 17726385.00 42723322.11 L 17727735.00 42716535.00 L 17727735.00 42033260.00 L 17813964.44 41947030.56 L 17833679.00 41943109.00 A 100354.75 100354.75 0 1 0 17694923.00 41850395.00 L 17697741.71 41864565.29 L 17607816.00 41954491.00 L 17592588.00 41977280.00 L 17587241.00 42004163.00 L 17587241.00 42716535.00 L 17588591.00 42723322.11 L 17588591.00 43110236.00 L 17726385.00 43110236.00 L 17726385.00 42723322.11  z"/>
<path id="N" d="M 25374027.00 34763779.00 L 25413393.00 34724408.00 L 25413396.00 33129930.00 L 25236222.00 32952756.00 L 23307088.00 32952756.00 L 23070868.00 32716536.00 L 23070868.00 31496063.00 L 23057090.00 31482285.00 L 23057090.00 31168331.00 L 23045857.00 31141212.00 L 23018738.00 31129979.00 L 22853384.00 31129979.00 L 22826265.00 31141212.00 L 22815032.00 31168331.00 L 22815032.00 31456693.00 L 22795277.00 31456693.00 L 22755907.00 31496063.00 L 22755906.00 32952754.00 L 23228349.00 33425197.00 L 24822842.00 33425196.00 L 24901583.00 33503937.00 L 24901582.00 34724410.00 L 24940952.00 34763780.00 L 25374027.00 34763779.00  z"/>
<path id="N" d="M 19104336.00 42723322.11 L 19105686.00 42716535.00 L 19105686.00 41977919.00 L 19133865.00 41950749.00 L 19172268.00 41943110.00 A 100354.75 100354.75 0 1 0 19033679.41 41851237.59 L 18985767.00 41899150.00 L 18970539.00 41921939.00 L 18965192.00 41948822.00 L 18965192.00 42716535.00 L 18966542.00 42723322.11 L 18966542.00 43110236.00 L 19104336.00 43110236.00 L 19104336.00 42723322.11  z"/>
<path id="N" d="M 20679136.00 42723322.11 L 20680486.00 42716535.00 L 20681190.00 41921354.00 A 100353.26 100353.26 0 1 0 20539992.00 41921836.43 L 20539992.00 42716535.00 L 20541342.00 42723322.11 L 20541342.00 43110236.00 L 20679136.00 43110236.00 L 20679136.00 42723322.11  z"/>
<path id="N" d="M 19694886.00 42723322.11 L 19696236.00 42716535.00 L 19696940.00 41921354.00 A 100353.26 100353.26 0 1 0 19555742.00 41921836.43 L 19555742.00 42716535.00 L 19557092.00 42723322.11 L 19557092.00 43110236.00 L 19694886.00 43110236.00 L 19694886.00 42723322.11  z"/>
<path id="N" d="M 18513786.00 42723322.11 L 18515136.00 42716535.00 L 18515840.00 41921354.00 A 100353.26 100353.26 0 1 0 18374642.00 41921836.43 L 18374642.00 42716535.00 L 18375992.00 42723322.11 L 18375992.00 43110236.00 L 18513786.00 43110236.00 L 18513786.00 42723322.11  z"/>
<path id="N" d="M 22450786.00 42723322.11 L 22452136.00 42716535.00 L 22452840.00 41921354.00 A 100353.26 100353.26 0 1 0 22311642.00 41921836.43 L 22311642.00 42716535.00 L 22312992.00 42723322.11 L 22312992.00 43110236.00 L 22450786.00 43110236.00 L 22450786.00 42723322.11  z"/>
<path id="N" d="M 21860236.00 42723322.11 L 21861586.00 42716535.00 L 21862290.00 41921354.00 A 100353.26 100353.26 0 1 0 21721092.00 41921836.43 L 21721092.00 42716535.00 L 21722442.00 42723322.11 L 21722442.00 43110236.00 L 21860236.00 43110236.00 L 21860236.00 42723322.11  z"/>
<path id="N" d="M 21269686.00 42723322.11 L 21271036.00 42716535.00 L 21271740.00 41921354.00 A 100353.26 100353.26 0 1 0 21130542.00 41921836.43 L 21130542.00 42716535.00 L 21131892.00 42723322.11 L 21131892.00 43110236.00 L 21269686.00 43110236.00 L 21269686.00 42723322.11  z"/>
<path id="N" d="M 24419286.00 42723322.11 L 24420636.00 42716535.00 L 24421340.00 41921354.00 A 100353.26 100353.26 0 1 0 24280142.00 41921836.43 L 24280142.00 42716535.00 L 24281492.00 42723322.11 L 24281492.00 43110236.00 L 24419286.00 43110236.00 L 24419286.00 42723322.11  z"/>
<path id="N" d="M 19566930.00 30708661.00 L 19566930.00 29960630.00 L 19527560.00 29921260.00 L 19451738.00 29921260.00 L 19451738.00 29695866.00 L 19440505.00 29668747.00 L 19413386.00 29657514.00 L 19011812.00 29657514.00 L 18984693.00 29668747.00 L 18973460.00 29695866.00 L 18973460.00 29921260.00 L 18779528.00 29921260.00 L 18740158.00 29960630.00 L 18740158.00 30708661.00 L 18779528.00 30748031.00 L 19527560.00 30748031.00 L 19566930.00 30708661.00  z"/>
<path id="N" d="M 20314959.47 41574802.47 m -100354.75 0 a 100354.75 100354.75 0 1 1 200709.51 0a 100354.75 100354.75 0 1 1 -200709.51 0"/>
<path id="N" d="M 25354349.00 31062975.00 L 25393704.00 31023620.00 L 25393700.00 29921263.00 L 25354334.00 29881892.00 L 25340879.00 29881891.98 L 25340879.00 29636834.00 L 25328398.00 29606701.00 L 25298265.00 29594220.00 L 24983305.00 29594220.00 L 24953172.00 29606701.00 L 24940691.00 29636834.00 L 24940691.00 29881891.45 L 24606300.00 29881891.00 L 24566930.00 29921260.00 L 24566931.00 31023623.00 L 24606301.00 31062992.00 L 25354349.00 31062975.00  z"/>
<path id="N" d="M 22755905.00 31023623.00 L 22755906.00 29921260.00 L 22716536.00 29881891.00 L 22407809.00 29881891.41 L 22407809.00 29636834.00 L 22395328.00 29606701.00 L 22365195.00 29594220.00 L 22050235.00 29594220.00 L 22020102.00 29606701.00 L 22007621.00 29636834.00 L 22007621.00 29881891.95 L 21968502.00 29881892.00 L 21929136.00 29921263.00 L 21929132.00 31023620.00 L 21968487.00 31062975.00 L 22716535.00 31062992.00 L 22755905.00 31023623.00  z"/>
<path id="N" d="M 19625978.47 41574802.47 m -100354.75 0 a 100354.75 100354.75 0 1 1 200709.51 0a 100354.75 100354.75 0 1 1 -200709.51 0"/>
<path id="N" d="M 19133863.47 41574804.47 m -100354.75 0 a 100354.75 100354.75 0 1 1 200709.51 0a 100354.75 100354.75 0 1 1 -200709.51 0"/>
<path id="N" d="M 18444878.47 41574802.47 m -100354.75 0 a 100354.75 100354.75 0 1 1 200709.51 0a 100354.75 100354.75 0 1 1 -200709.51 0"/>
<path id="N" d="M 18169288.47 41574802.47 m -100354.75 0 a 100354.75 100354.75 0 1 1 200709.51 0a 100354.75 100354.75 0 1 1 -200709.51 0"/>
<path id="N" d="M 19291336.00 37007871.00 L 19330707.00 36968501.00 L 19330708.00 36574801.00 L 19291338.00 36535431.00 L 17362204.00 36535431.00 L 17125984.00 36299211.00 L 17125984.00 35078738.00 L 17086614.00 35039368.00 L 16850393.00 35039368.00 L 16811023.00 35078738.00 L 16811022.00 36535429.00 L 17283465.00 37007872.00 L 19291336.00 37007871.00  z"/>
<path id="N" d="M 19250132.00 40866140.00 L 19330715.00 40785557.00 L 19330716.00 40433070.00 L 19291346.00 40393700.00 L 17362212.00 40393700.00 L 17125992.00 40157480.00 L 17125992.00 38937007.00 L 17086622.00 38897637.00 L 16850401.00 38897637.00 L 16811031.00 38937007.00 L 16811029.00 40354336.00 L 17322834.00 40866141.00 L 19250132.00 40866140.00  z"/>
<path id="N" d="M 25255914.00 37007870.00 L 25295284.00 36968502.00 L 25295284.00 36574801.00 L 25255915.00 36535431.00 L 22352372.00 36535432.00 L 22116152.00 36299212.00 L 22116152.00 35078739.00 L 22076782.00 35039369.00 L 21840561.00 35039369.00 L 21801191.00 35078739.00 L 21801190.00 36535430.00 L 22273633.00 37007873.00 L 25255914.00 37007870.00  z"/>
<path id="N" d="M 25275589.00 40866141.00 L 25314960.00 40826771.00 L 25314961.00 40433071.00 L 25275591.00 40393701.00 L 23346457.00 40393701.00 L 23110237.00 40157481.00 L 23110237.00 38937008.00 L 23070867.00 38897638.00 L 22834646.00 38897638.00 L 22795276.00 38937008.00 L 22795275.00 40393699.00 L 23267718.00 40866142.00 L 25275589.00 40866141.00  z"/>
<path id="N" d="M 25393703.00 38622048.00 L 25433069.00 38582677.00 L 25433073.00 37125986.00 L 25393705.00 37086618.00 L 24960628.00 37086616.00 L 24921259.00 37125987.00 L 24921258.00 38582679.00 L 24960628.00 38622049.00 L 25393703.00 38622048.00  z"/>
<path id="N" d="M 16476380.00 34763778.00 L 16515746.00 34724407.00 L 16515750.00 33267716.00 L 16476382.00 33228348.00 L 16043305.00 33228346.00 L 16003936.00 33267717.00 L 16003935.00 34724409.00 L 16043305.00 34763779.00 L 16476380.00 34763778.00  z"/>
<path id="N" d="M 22460633.00 38622048.00 L 22499999.00 38582677.00 L 22500003.00 37125986.00 L 22460635.00 37086618.00 L 22027558.00 37086616.00 L 21988189.00 37125987.00 L 21988188.00 38582679.00 L 22027558.00 38622049.00 L 22460633.00 38622048.00  z"/>
<path id="N" d="M 19409450.00 34763778.00 L 19448816.00 34724407.00 L 19448820.00 33267716.00 L 19409452.00 33228348.00 L 18976375.00 33228346.00 L 18937006.00 33267717.00 L 18937005.00 34724409.00 L 18976375.00 34763779.00 L 19409450.00 34763778.00  z"/>
<path id="N" d="M 19409458.00 38622047.00 L 19448824.00 38582676.00 L 19448828.00 37125985.00 L 19409460.00 37086617.00 L 18976383.00 37086615.00 L 18937014.00 37125986.00 L 18937013.00 38582678.00 L 18976383.00 38622048.00 L 19409458.00 38622047.00  z"/>
<path id="N" d="M 16476388.00 38622047.00 L 16515754.00 38582676.00 L 16515758.00 37125985.00 L 16476390.00 37086617.00 L 16043313.00 37086615.00 L 16003944.00 37125986.00 L 16003943.00 38582678.00 L 16043313.00 38622048.00 L 16476388.00 38622047.00  z"/>
<path id="N" d="M 21456705.00 34763779.00 L 21496071.00 34724408.00 L 21496075.00 33267717.00 L 21456707.00 33228349.00 L 21023630.00 33228347.00 L 20984261.00 33267718.00 L 20984260.00 34724410.00 L 21023630.00 34763780.00 L 21456705.00 34763779.00  z"/>
<path id="N" d="M 24019825.00 36401707.00 L 24027626.00 36382875.00 L 24027626.00 36235237.00 L 24019825.00 36216405.00 L 24000993.00 36208604.00 L 23953807.00 36208604.00 L 23953807.00 36069465.25 L 23965577.00 36067124.00 A 100354.75 100354.75 0 0 0 23965577.00 35881696.00 L 23953807.00 35879354.75 L 23953807.00 35721422.00 L 24009851.00 35721422.00 L 24036970.00 35710189.00 L 24048203.00 35683070.00 L 24048203.00 35084646.00 L 24036970.00 35057527.00 L 24009851.00 35046294.00 L 23844497.00 35046294.00 L 23817378.00 35057527.00 L 23806145.00 35084646.00 L 23806145.00 35683070.00 L 23817378.00 35710189.00 L 23844497.00 35721422.00 L 23900541.00 35721422.00 L 23900541.00 35879354.75 L 23888771.00 35881696.00 A 100354.75 100354.75 0 0 0 23888771.00 36067124.00 L 23900541.00 36069465.25 L 23900541.00 36208604.00 L 23853355.00 36208604.00 L 23834523.00 36216405.00 L 23826722.00 36235237.00 L 23826722.00 36382875.00 L 23834523.00 36401707.00 L 23853355.00 36409508.00 L 24000993.00 36409508.00 L 24019825.00 36401707.00  z"/>
<path id="N" d="M 20088586.00 42322834.00 L 20046322.00 42322834.00 L 20046322.00 41498321.00 L 23878792.46 37665851.52 L 23888771.00 37672519.00 A 100349.83 100349.83 0 1 0 23834460.00 37618208.00 L 23841127.48 37628186.54 L 20000857.00 41468458.00 L 19993056.00 41487290.00 L 19993056.00 42322834.00 L 19950792.00 42322834.00 L 19950792.00 43110236.00 L 20088586.00 43110236.00 L 20088586.00 42322834.00  z"/>
<path id="N" d="M 23508006.00 32819030.00 L 23515807.00 32800198.00 L 23515807.00 32652560.00 L 23508006.00 32633728.00 L 23489174.00 32625927.00 L 23441988.00 32625927.00 L 23441988.00 32486789.25 L 23453758.00 32484448.00 A 100354.75 100354.75 0 0 0 23453758.00 32299020.00 L 23441988.00 32296678.75 L 23441988.00 31805107.00 L 23510864.00 31805107.00 L 23537983.00 31793874.00 L 23549216.00 31766755.00 L 23549216.00 31168331.00 L 23537983.00 31141212.00 L 23510864.00 31129979.00 L 23345510.00 31129979.00 L 23318391.00 31141212.00 L 23307158.00 31168331.00 L 23307158.00 31766755.00 L 23318391.00 31793874.00 L 23345510.00 31805107.00 L 23388722.00 31805107.00 L 23388722.00 32296678.75 L 23376952.00 32299020.00 A 100354.75 100354.75 0 0 0 23376952.00 32484448.00 L 23388722.00 32486789.25 L 23388722.00 32625927.00 L 23341536.00 32625927.00 L 23322704.00 32633728.00 L 23314903.00 32652560.00 L 23314903.00 32800198.00 L 23322704.00 32819030.00 L 23341536.00 32826831.00 L 23489174.00 32826831.00 L 23508006.00 32819030.00  z"/>
<path id="N" d="M 19301186.00 42322834.00 L 19258922.00 42322834.00 L 19258922.00 42235436.00 L 19349541.00 42144817.00 L 19357342.00 42125985.00 L 19357342.00 41328524.00 L 21554266.00 39131600.00 L 21562067.00 39112768.00 L 21562067.00 34980107.01 L 22243891.99 34298283.00 L 23316934.00 34298283.00 L 23335766.00 34290482.00 L 23366973.06 34259275.25 L 23376952.00 34265943.00 A 100349.83 100349.83 0 1 0 23322641.00 34211632.00 L 23329308.75 34221610.94 L 23305902.92 34245017.00 L 22232860.00 34245017.00 L 22214027.00 34252818.00 L 21516602.00 34950244.00 L 21508801.00 34969076.00 L 21508801.00 39101737.00 L 19311877.00 41298661.00 L 19304076.00 41317493.00 L 19304076.00 42114954.00 L 19213457.00 42205573.00 L 19205656.00 42224405.00 L 19205656.00 42322834.00 L 19163392.00 42322834.00 L 19163392.00 43110236.00 L 19301186.00 43110236.00 L 19301186.00 42322834.00  z"/>
<path id="N" d="M 17258010.00 32317061.00 L 17265811.00 32298229.00 L 17265811.00 32150591.00 L 17258010.00 32131759.00 L 17239178.00 32123958.00 L 17191990.00 32123958.00 L 17191990.00 32024190.25 L 17203760.00 32021849.00 A 100354.75 100354.75 0 0 0 17203760.00 31836421.00 L 17191989.53 31834079.66 L 17191987.00 31323820.00 L 17188917.05 31316409.00 L 17214566.00 31316409.00 L 17237166.00 31307048.00 L 17246527.00 31284448.00 L 17246527.00 30733268.00 L 17237166.00 30710668.00 L 17214566.00 30701307.00 L 17037402.00 30701307.00 L 17014802.00 30710668.00 L 17005441.00 30733268.00 L 17005441.00 31284448.00 L 17014802.00 31307048.00 L 17037402.00 31316409.00 L 17141790.95 31316409.00 L 17138721.00 31323820.00 L 17138723.53 31834079.84 L 17126954.00 31836421.00 A 100354.75 100354.75 0 0 0 17126954.00 32021849.00 L 17138724.00 32024190.25 L 17138724.00 32123958.00 L 17091540.00 32123958.00 L 17072708.00 32131759.00 L 17064907.00 32150591.00 L 17064907.00 32298229.00 L 17072708.00 32317061.00 L 17091540.00 32324862.00 L 17239178.00 32324862.00 L 17258010.00 32317061.00  z"/>
<path id="N" d="M 18120086.00 42322834.00 L 18077822.00 42322834.00 L 18077822.00 41862717.00 L 18070021.00 41843884.00 L 16621121.00 40394984.99 L 16621121.00 39736724.00 L 16613320.00 39717891.00 L 16112623.59 39217195.47 L 16116341.00 39211632.00 A 100349.83 100349.83 0 1 0 16062030.00 39265943.00 L 16076424.64 39256324.76 L 16567855.00 39747755.99 L 16567855.00 40406016.00 L 16575656.00 40424848.00 L 18024556.00 41873748.99 L 18024556.00 42322834.00 L 17982292.00 42322834.00 L 17982292.00 43110236.00 L 18120086.00 43110236.00 L 18120086.00 42322834.00  z"/>
<path id="N" d="M 20181233.00 31724541.00 L 20189034.00 31705709.00 L 20189034.00 31558071.00 L 20181233.00 31539239.00 L 20162401.00 31531438.00 L 20105373.00 31531438.00 L 20105373.00 31379980.00 L 20162402.00 31379980.00 L 20181234.00 31372179.00 L 20189035.00 31353347.00 L 20189035.00 31205709.00 L 20181234.00 31186877.00 L 20162402.00 31179076.00 L 19995080.00 31179076.00 L 19976248.00 31186877.00 L 19968447.00 31205709.00 L 19968447.00 31353347.00 L 19976248.00 31372179.00 L 19995080.00 31379980.00 L 20052107.00 31379980.00 L 20052107.00 31531438.00 L 19995079.00 31531438.00 L 19976247.00 31539239.00 L 19968446.00 31558071.00 L 19968446.00 31705709.00 L 19976247.00 31724541.00 L 19995079.00 31732342.00 L 20162401.00 31732342.00 L 20181233.00 31724541.00  z"/>
<path id="N" d="M 18055248.00 36401706.00 L 18063049.00 36382874.00 L 18063049.00 36235236.00 L 18055248.00 36216404.00 L 18036416.00 36208603.00 L 17989230.00 36208603.00 L 17989230.00 36069464.25 L 18001000.00 36067123.00 A 100354.75 100354.75 0 0 0 18001000.00 35881695.00 L 17989230.00 35879353.75 L 17989230.00 35721421.00 L 18045274.00 35721421.00 L 18072393.00 35710188.00 L 18083626.00 35683069.00 L 18083626.00 35084645.00 L 18072393.00 35057526.00 L 18045274.00 35046293.00 L 17879920.00 35046293.00 L 17852801.00 35057526.00 L 17841568.00 35084645.00 L 17841568.00 35683069.00 L 17852801.00 35710188.00 L 17879920.00 35721421.00 L 17935964.00 35721421.00 L 17935964.00 35879353.75 L 17924194.00 35881695.00 A 100354.75 100354.75 0 0 0 17924194.00 36067123.00 L 17935964.00 36069464.25 L 17935964.00 36208603.00 L 17888778.00 36208603.00 L 17869946.00 36216404.00 L 17862145.00 36235236.00 L 17862145.00 36382874.00 L 17869946.00 36401706.00 L 17888778.00 36409507.00 L 18036416.00 36409507.00 L 18055248.00 36401706.00  z"/>
<path id="N" d="M 22401573.47 40748030.47 m -100354.75 0 a 100354.75 100354.75 0 1 1 200709.51 0a 100354.75 100354.75 0 1 1 -200709.51 0"/>
<path id="N" d="M 21441075.00 31724541.00 L 21448876.00 31705709.00 L 21448876.00 31558071.00 L 21441075.00 31539239.00 L 21422243.00 31531438.00 L 21365215.00 31531438.00 L 21365215.00 31379980.00 L 21422244.00 31379980.00 L 21441076.00 31372179.00 L 21448877.00 31353347.00 L 21448877.00 31205709.00 L 21441076.00 31186877.00 L 21422244.00 31179076.00 L 21254922.00 31179076.00 L 21236090.00 31186877.00 L 21228289.00 31205709.00 L 21228289.00 31353347.00 L 21236090.00 31372179.00 L 21254922.00 31379980.00 L 21311949.00 31379980.00 L 21311949.00 31531438.00 L 21254921.00 31531438.00 L 21236089.00 31539239.00 L 21228288.00 31558071.00 L 21228288.00 31705709.00 L 21236089.00 31724541.00 L 21254921.00 31732342.00 L 21422243.00 31732342.00 L 21441075.00 31724541.00  z"/>
<path id="N" d="M 17563122.00 36401706.00 L 17570923.00 36382874.00 L 17570923.00 36235236.00 L 17563122.00 36216404.00 L 17544290.00 36208603.00 L 17497104.00 36208603.00 L 17497104.00 36069464.25 L 17508874.00 36067123.00 A 100354.75 100354.75 0 0 0 17508874.00 35881695.00 L 17497104.00 35879353.75 L 17497104.00 35721421.00 L 17553148.00 35721421.00 L 17580267.00 35710188.00 L 17591500.00 35683069.00 L 17591500.00 35084645.00 L 17580267.00 35057526.00 L 17553148.00 35046293.00 L 17387794.00 35046293.00 L 17360675.00 35057526.00 L 17349442.00 35084645.00 L 17349442.00 35683069.00 L 17360675.00 35710188.00 L 17387794.00 35721421.00 L 17443838.00 35721421.00 L 17443838.00 35879353.75 L 17432068.00 35881695.00 A 100354.75 100354.75 0 0 0 17432068.00 36067123.00 L 17443838.00 36069464.25 L 17443838.00 36208603.00 L 17396652.00 36208603.00 L 17377820.00 36216404.00 L 17370019.00 36235236.00 L 17370019.00 36382874.00 L 17377820.00 36401706.00 L 17396652.00 36409507.00 L 17544290.00 36409507.00 L 17563122.00 36401706.00  z"/>
<path id="N" d="M 22047243.47 40748030.47 m -100354.75 0 a 100354.75 100354.75 0 1 1 200709.51 0a 100354.75 100354.75 0 1 1 -200709.51 0"/>
<path id="N" d="M 18439106.00 32317061.00 L 18446907.00 32298229.00 L 18446907.00 32150591.00 L 18439106.00 32131759.00 L 18420274.00 32123958.00 L 18373088.00 32123958.00 L 18373088.00 32024190.25 L 18384858.00 32021849.00 A 100354.75 100354.75 0 0 0 18384858.00 31836421.00 L 18373088.31 31834079.81 L 18373090.00 31323820.00 L 18370020.05 31316409.00 L 18395669.00 31316409.00 L 18418269.00 31307048.00 L 18427630.00 31284448.00 L 18427630.00 30733268.00 L 18418269.00 30710668.00 L 18395669.00 30701307.00 L 18218505.00 30701307.00 L 18195905.00 30710668.00 L 18186544.00 30733268.00 L 18186544.00 31284448.00 L 18195905.00 31307048.00 L 18218505.00 31316409.00 L 18322893.95 31316409.00 L 18319824.00 31323820.00 L 18319822.31 31834079.69 L 18308052.00 31836421.00 A 100354.75 100354.75 0 0 0 18308052.00 32021849.00 L 18319822.00 32024190.25 L 18319822.00 32123958.00 L 18272636.00 32123958.00 L 18253804.00 32131759.00 L 18246003.00 32150591.00 L 18246003.00 32298229.00 L 18253804.00 32317061.00 L 18272636.00 32324862.00 L 18420274.00 32324862.00 L 18439106.00 32317061.00  z"/>
<path id="N" d="M 17529535.00 42322834.00 L 17487271.00 42322834.00 L 17487271.00 41920371.00 L 17479470.00 41901539.00 L 16468562.00 40890631.00 L 16468562.00 40024606.00 L 16460762.00 40005774.00 L 16404586.00 39949598.88 L 16404586.00 39898203.25 L 16416356.00 39895862.00 A 100354.75 100354.75 0 1 0 16339550.00 39895862.00 L 16351320.00 39898203.25 L 16351320.00 39960630.00 L 16359121.00 39979462.00 L 16415296.00 40035637.88 L 16415296.00 40901662.00 L 16423097.00 40920494.00 L 17434005.00 41931402.00 L 17434005.00 42322834.00 L 17391741.00 42322834.00 L 17391741.00 43110236.00 L 17529535.00 43110236.00 L 17529535.00 42322834.00  z"/>
<path id="N" d="M 23033596.00 36401707.00 L 23041397.00 36382875.00 L 23041397.00 36235237.00 L 23033596.00 36216405.00 L 23014764.00 36208604.00 L 22969555.00 36208604.00 L 22969555.00 36069464.25 L 22981325.00 36067123.00 A 100354.75 100354.75 0 0 0 22981325.00 35881695.00 L 22969555.00 35879353.75 L 22969555.00 35721422.00 L 23025599.00 35721422.00 L 23052718.00 35710189.00 L 23063951.00 35683070.00 L 23063951.00 35084646.00 L 23052718.00 35057527.00 L 23025599.00 35046294.00 L 22860245.00 35046294.00 L 22833126.00 35057527.00 L 22821893.00 35084646.00 L 22821893.00 35683070.00 L 22833126.00 35710189.00 L 22860245.00 35721422.00 L 22916289.00 35721422.00 L 22916289.00 35879353.75 L 22904519.00 35881695.00 A 100354.75 100354.75 0 0 0 22904519.00 36067123.00 L 22916289.00 36069464.25 L 22916289.00 36208604.00 L 22867126.00 36208604.00 L 22848294.00 36216405.00 L 22840493.00 36235237.00 L 22840493.00 36382875.00 L 22848294.00 36401707.00 L 22867126.00 36409508.00 L 23014764.00 36409508.00 L 23033596.00 36401707.00  z"/>
<path id="N" d="M 20482286.00 42322834.00 L 20440022.00 42322834.00 L 20440022.00 41814675.00 L 20928851.00 41325846.00 L 21181103.00 41325846.00 L 21199935.00 41318045.00 L 22510674.44 40007306.51 L 22520653.00 40013974.00 A 100349.83 100349.83 0 1 0 22466342.00 39959663.00 L 22473009.49 39969641.56 L 21170071.99 41272580.00 L 20917820.00 41272580.00 L 20898988.00 41280381.00 L 20394557.00 41784812.00 L 20386756.00 41803644.00 L 20386756.00 42322834.00 L 20344492.00 42322834.00 L 20344492.00 43110236.00 L 20482286.00 43110236.00 L 20482286.00 42322834.00  z"/>
<path id="N" d="M 22543447.00 36411549.00 L 22551248.00 36392717.00 L 22551248.00 36245079.00 L 22543447.00 36226247.00 L 22524615.00 36218446.00 L 22477429.00 36218446.00 L 22477429.00 36069465.25 L 22489199.00 36067124.00 A 100354.75 100354.75 0 0 0 22489199.00 35881696.00 L 22477429.00 35879354.75 L 22477429.00 35721422.00 L 22533473.00 35721422.00 L 22560592.00 35710189.00 L 22571825.00 35683070.00 L 22571825.00 35084646.00 L 22560592.00 35057527.00 L 22533473.00 35046294.00 L 22368119.00 35046294.00 L 22341000.00 35057527.00 L 22329767.00 35084646.00 L 22329767.00 35683070.00 L 22341000.00 35710189.00 L 22368119.00 35721422.00 L 22424163.00 35721422.00 L 22424163.00 35879354.75 L 22412393.00 35881696.00 A 100354.75 100354.75 0 0 0 22412393.00 36067124.00 L 22424163.00 36069465.25 L 22424163.00 36218446.00 L 22376977.00 36218446.00 L 22358145.00 36226247.00 L 22350344.00 36245079.00 L 22350344.00 36392717.00 L 22358145.00 36411549.00 L 22376977.00 36419350.00 L 22524615.00 36419350.00 L 22543447.00 36411549.00  z"/>
<path id="N" d="M 20285436.00 42322834.00 L 20243172.00 42322834.00 L 20243172.00 41751967.00 L 20235371.00 41733134.00 L 20169349.00 41667112.89 L 20169349.00 41514489.02 L 20490867.98 41192971.00 L 20920277.00 41192971.00 L 20939109.00 41185170.00 L 22116973.44 40007306.51 L 22126952.00 40013974.00 A 100349.83 100349.83 0 1 0 22072641.00 39959663.00 L 22079308.49 39969641.56 L 20909245.99 41139705.00 L 20479836.00 41139705.00 L 20461004.00 41147505.00 L 20123884.00 41484626.00 L 20116083.00 41503458.00 L 20116083.00 41678144.00 L 20123884.00 41696976.00 L 20189906.00 41762998.89 L 20189906.00 42322834.00 L 20147642.00 42322834.00 L 20147642.00 43110236.00 L 20285436.00 43110236.00 L 20285436.00 42322834.00  z"/>
<path id="N" d="M 24000132.00 32819030.00 L 24007933.00 32800198.00 L 24007933.00 32652560.00 L 24000132.00 32633728.00 L 23981300.00 32625927.00 L 23934114.00 32625927.00 L 23934114.00 32486790.25 L 23945884.00 32484449.00 A 100354.75 100354.75 0 0 0 23945884.00 32299021.00 L 23934114.00 32296679.75 L 23934114.00 31805107.00 L 24002990.00 31805107.00 L 24030109.00 31793874.00 L 24041342.00 31766755.00 L 24041342.00 31168331.00 L 24030109.00 31141212.00 L 24002990.00 31129979.00 L 23837636.00 31129979.00 L 23810517.00 31141212.00 L 23799284.00 31168331.00 L 23799284.00 31766755.00 L 23810517.00 31793874.00 L 23837636.00 31805107.00 L 23880848.00 31805107.00 L 23880848.00 32296679.75 L 23869078.00 32299021.00 A 100354.75 100354.75 0 0 0 23869078.00 32484449.00 L 23880848.00 32486790.25 L 23880848.00 32625927.00 L 23833662.00 32625927.00 L 23814830.00 32633728.00 L 23807029.00 32652560.00 L 23807029.00 32800198.00 L 23814830.00 32819030.00 L 23833662.00 32826831.00 L 23981300.00 32826831.00 L 24000132.00 32819030.00  z"/>
<path id="N" d="M 19498036.00 42322834.00 L 19455772.00 42322834.00 L 19455772.00 41369296.00 L 21652696.00 39172372.00 L 21660497.00 39153540.00 L 21660497.00 35020879.01 L 22284663.99 34396713.00 L 23710630.00 34396713.00 L 23729462.00 34388912.00 L 23859099.27 34259275.39 L 23869078.00 34265943.00 A 100349.83 100349.83 0 1 0 23814767.00 34211632.00 L 23821434.61 34221610.73 L 23699598.96 34343447.00 L 22273632.00 34343447.00 L 22254800.00 34351247.00 L 21615032.00 34991016.00 L 21607231.00 35009848.00 L 21607231.00 39142509.00 L 19410307.00 41339433.00 L 19402506.00 41358265.00 L 19402506.00 42322834.00 L 19360242.00 42322834.00 L 19360242.00 43110236.00 L 19498036.00 43110236.00 L 19498036.00 42322834.00  z"/>
<path id="N" d="M 20811154.00 31724541.00 L 20818955.00 31705709.00 L 20818955.00 31558071.00 L 20811154.00 31539239.00 L 20792322.00 31531438.00 L 20735294.00 31531438.00 L 20735294.00 31379980.00 L 20792323.00 31379980.00 L 20811155.00 31372179.00 L 20818956.00 31353347.00 L 20818956.00 31205709.00 L 20811155.00 31186877.00 L 20792323.00 31179076.00 L 20625001.00 31179076.00 L 20606169.00 31186877.00 L 20598368.00 31205709.00 L 20598368.00 31353347.00 L 20606169.00 31372179.00 L 20625001.00 31379980.00 L 20682028.00 31379980.00 L 20682028.00 31531438.00 L 20625000.00 31531438.00 L 20606168.00 31539239.00 L 20598367.00 31558071.00 L 20598367.00 31705709.00 L 20606168.00 31724541.00 L 20625000.00 31732342.00 L 20792322.00 31732342.00 L 20811154.00 31724541.00  z"/>
<path id="N" d="M 22316600.00 32611876.00 L 22325025.00 32591536.00 L 22325025.00 32447836.00 L 22316600.00 32427496.00 L 22296260.00 32419071.00 L 22260886.00 32419071.00 L 22260886.00 31811025.00 L 22253086.00 31792193.00 L 21448877.00 30987984.91 L 21448877.00 30851379.00 L 21441076.00 30832547.00 L 21422244.00 30824746.00 L 21254922.00 30824746.00 L 21236090.00 30832547.00 L 21228289.00 30851379.00 L 21228289.00 30999017.00 L 21236090.00 31017849.00 L 21254922.00 31025650.00 L 21411213.91 31025650.00 L 22207620.00 31822056.99 L 22207620.00 32419071.00 L 22172246.00 32419071.00 L 22151906.00 32427496.00 L 22143481.00 32447836.00 L 22143481.00 32591536.00 L 22151906.00 32611876.00 L 22172246.00 32620301.00 L 22296260.00 32620301.00 L 22316600.00 32611876.00  z"/>
<path id="N" d="M 17563124.00 40259975.00 L 17570925.00 40241143.00 L 17570925.00 40093505.00 L 17563124.00 40074673.00 L 17544292.00 40066872.00 L 17497112.00 40066872.00 L 17497112.00 39927732.25 L 17508882.00 39925391.00 A 100354.75 100354.75 0 0 0 17508882.00 39739963.00 L 17497112.00 39737621.75 L 17497112.00 39579690.00 L 17553156.00 39579690.00 L 17580275.00 39568457.00 L 17591508.00 39541338.00 L 17591508.00 38942914.00 L 17580275.00 38915795.00 L 17553156.00 38904562.00 L 17387802.00 38904562.00 L 17360683.00 38915795.00 L 17349450.00 38942914.00 L 17349450.00 39541338.00 L 17360683.00 39568457.00 L 17387802.00 39579690.00 L 17443846.00 39579690.00 L 17443846.00 39737621.75 L 17432076.00 39739963.00 A 100354.75 100354.75 0 0 0 17432076.00 39925391.00 L 17443846.00 39927732.25 L 17443846.00 40066872.00 L 17396654.00 40066872.00 L 17377822.00 40074673.00 L 17370021.00 40093505.00 L 17370021.00 40241143.00 L 17377822.00 40259975.00 L 17396654.00 40267776.00 L 17544292.00 40267776.00 L 17563124.00 40259975.00  z"/>
<path id="N" d="M 20875986.00 42322834.00 L 20833722.00 42322834.00 L 20833722.00 41872330.01 L 21458946.99 41247106.00 L 21676598.75 41247106.00 L 21678940.00 41258876.00 A 100354.75 100354.75 0 1 0 21678940.00 41182070.00 L 21676598.75 41193840.00 L 21447915.00 41193840.00 L 21429083.00 41201640.00 L 20788257.00 41842467.00 L 20780456.00 41861299.00 L 20780456.00 42322834.00 L 20738192.00 42322834.00 L 20738192.00 43110236.00 L 20875986.00 43110236.00 L 20875986.00 42322834.00  z"/>
<path id="N" d="M 20708667.86 29527570.12 m -989001.57 0 a 989001.57 989001.57 0 1 1 1978003.14 0a 989001.57 989001.57 0 1 1 -1978003.14 0M 20708662.45 29527562.35 m -753624.65 0 a 753624.65 753624.65 0 1 1 1507249.30 0a 753624.65 753624.65 0 1 1 -1507249.30 0"/>
<path id="N" d="M 17923236.00 42322834.00 L 17785442.00 42322834.00 L 17785442.00 43110236.00 L 17923236.00 43110236.00 L 17923236.00 42322834.00  z"/>
<path id="N" d="M 18710636.00 42322834.00 L 18572842.00 42322834.00 L 18572842.00 43110236.00 L 18710636.00 43110236.00 L 18710636.00 42322834.00  z"/>
<path id="N" d="M 18907486.00 42322834.00 L 18769692.00 42322834.00 L 18769692.00 43110236.00 L 18907486.00 43110236.00 L 18907486.00 42322834.00  z"/>
<path id="N" d="M 21466536.00 42322834.00 L 21328742.00 42322834.00 L 21328742.00 43110236.00 L 21466536.00 43110236.00 L 21466536.00 42322834.00  z"/>
<path id="N" d="M 21663386.00 42322834.00 L 21525592.00 42322834.00 L 21525592.00 43110236.00 L 21663386.00 43110236.00 L 21663386.00 42322834.00  z"/>
<path id="N" d="M 22647636.00 42322834.00 L 22509842.00 42322834.00 L 22509842.00 43110236.00 L 22647636.00 43110236.00 L 22647636.00 42322834.00  z"/>
<path id="N" d="M 23631886.00 42322834.00 L 23494092.00 42322834.00 L 23494092.00 43110236.00 L 23631886.00 43110236.00 L 23631886.00 42322834.00  z"/>
<path id="N" d="M 23828736.00 42322834.00 L 23690942.00 42322834.00 L 23690942.00 43110236.00 L 23828736.00 43110236.00 L 23828736.00 42322834.00  z"/>
<path id="N" d="M 24025586.00 42322834.00 L 23887792.00 42322834.00 L 23887792.00 43110236.00 L 24025586.00 43110236.00 L 24025586.00 42322834.00  z"/>
<path id="N" d="M 24222436.00 42322834.00 L 24084642.00 42322834.00 L 24084642.00 43110236.00 L 24222436.00 43110236.00 L 24222436.00 42322834.00  z"/>
<path id="N" d="M 21431297.00 32756873.00 L 21427580.96 32751311.58 L 21475093.93 32703799.00 L 21690969.00 32703799.00 L 21690969.00 32732284.00 L 21698458.00 32750363.00 L 21716537.00 32757852.00 L 21846457.00 32757852.00 L 21864536.00 32750363.00 L 21872025.00 32732284.00 L 21872025.00 32622048.00 L 21864536.00 32603969.00 L 21846457.00 32596480.00 L 21716537.00 32596480.00 L 21698458.00 32603969.00 L 21690969.00 32622048.00 L 21690969.00 32650533.00 L 21464062.00 32650533.00 L 21445230.00 32658333.00 L 21391382.18 32712181.27 L 21376986.00 32702562.00 A 100349.83 100349.83 0 1 0 21431297.00 32756873.00  z"/>
<path id="N" d="M 20236219.47 40826770.47 m -100354.75 0 a 100354.75 100354.75 0 1 1 200709.51 0a 100354.75 100354.75 0 1 1 -200709.51 0"/>
<path id="N" d="M 25275592.00 32834646.00 L 25275592.00 32440945.00 L 25236222.00 32401575.00 L 24645671.00 32401575.00 L 24566931.00 32322835.00 L 24566931.00 31496063.00 L 24533468.00 31462600.00 L 24533468.00 31168331.00 L 24522235.00 31141212.00 L 24495116.00 31129979.00 L 24329762.00 31129979.00 L 24302643.00 31141212.00 L 24291410.00 31168331.00 L 24291340.00 31456693.00 L 24251970.00 31496063.00 L 24251970.00 32834646.00 L 24291340.00 32874016.00 L 25236222.00 32874016.00 L 25275592.00 32834646.00  z"/>
<path id="N" d="M 19330708.00 36417321.00 L 19330708.00 36023620.00 L 19291338.00 35984250.00 L 18700787.00 35984250.00 L 18622047.00 35905510.00 L 18622047.00 35078738.00 L 18582677.00 35039368.00 L 18346456.00 35039368.00 L 18307086.00 35078738.00 L 18307086.00 36417321.00 L 18346456.00 36456691.00 L 19291338.00 36456691.00 L 19330708.00 36417321.00  z"/>
<path id="N" d="M 25295285.00 36417322.00 L 25295285.00 36023621.00 L 25255915.00 35984251.00 L 24665364.00 35984251.00 L 24586624.00 35905511.00 L 24586624.00 35078739.00 L 24547254.00 35039369.00 L 24311033.00 35039369.00 L 24271663.00 35078739.00 L 24271663.00 36417322.00 L 24311033.00 36456692.00 L 25255915.00 36456692.00 L 25295285.00 36417322.00  z"/>
<path id="N" d="M 19330716.00 40275590.00 L 19330716.00 39881889.00 L 19291346.00 39842519.00 L 18700795.00 39842519.00 L 18622055.00 39763779.00 L 18622055.00 38937007.00 L 18582685.00 38897637.00 L 18346464.00 38897637.00 L 18307094.00 38937007.00 L 18307094.00 40275590.00 L 18346464.00 40314960.00 L 19291346.00 40314960.00 L 19330716.00 40275590.00  z"/>
<path id="N" d="M 25314961.00 40275591.00 L 25314961.00 39881890.00 L 25275591.00 39842520.00 L 24685040.00 39842520.00 L 24606300.00 39763780.00 L 24606300.00 38937008.00 L 24566930.00 38897638.00 L 24330709.00 38897638.00 L 24291339.00 38937008.00 L 24291339.00 40275591.00 L 24330709.00 40314961.00 L 25275591.00 40314961.00 L 25314961.00 40275591.00  z"/>
<path id="N" d="M 23547376.00 40259975.00 L 23555177.00 40241143.00 L 23555177.00 40093505.00 L 23547376.00 40074673.00 L 23528544.00 40066872.00 L 23481357.00 40066872.00 L 23481357.00 39927734.25 L 23493127.00 39925393.00 A 100354.75 100354.75 0 0 0 23493127.00 39739965.00 L 23481357.00 39737623.75 L 23481357.00 39579691.00 L 23537401.00 39579691.00 L 23564520.00 39568458.00 L 23575753.00 39541339.00 L 23575753.00 38942915.00 L 23564520.00 38915796.00 L 23537401.00 38904563.00 L 23372047.00 38904563.00 L 23344928.00 38915796.00 L 23333695.00 38942915.00 L 23333695.00 39541339.00 L 23344928.00 39568458.00 L 23372047.00 39579691.00 L 23428091.00 39579691.00 L 23428091.00 39737623.75 L 23416321.00 39739965.00 A 100354.75 100354.75 0 0 0 23416321.00 39925393.00 L 23428091.00 39927734.25 L 23428091.00 40066872.00 L 23380906.00 40066872.00 L 23362074.00 40074673.00 L 23354273.00 40093505.00 L 23354273.00 40241143.00 L 23362074.00 40259975.00 L 23380906.00 40267776.00 L 23528544.00 40267776.00 L 23547376.00 40259975.00  z"/>
<path id="N" d="M 22057086.00 42322834.00 L 22014822.00 42322834.00 L 22014822.00 41792538.03 L 22284681.97 41522679.00 L 23359669.75 41522679.00 L 23362011.00 41534449.00 A 100354.75 100354.75 0 1 0 23362011.00 41457643.00 L 23359669.75 41469413.00 L 22273650.00 41469413.00 L 22254818.00 41477213.00 L 21969357.00 41762675.00 L 21961556.00 41781507.00 L 21961556.00 42322834.00 L 21919292.00 42322834.00 L 21919292.00 43110236.00 L 22057086.00 43110236.00 L 22057086.00 42322834.00  z"/>
<path id="N" d="M 18832872.00 41613207.00 L 18837237.04 41591262.96 L 19663067.00 40765433.00 L 19680470.00 40739387.00 L 19686581.00 40708658.97 L 19686582.00 33110234.00 L 19680470.00 33079511.00 L 19663067.00 33053465.00 L 19607844.00 32998242.00 L 19607844.00 32927954.00 L 19644667.00 32927954.00 L 19669542.00 32917651.00 L 19679845.00 32892776.00 L 19679845.00 32821909.00 L 20068570.95 32821909.00 L 20233014.00 32986353.00 L 20251847.00 32994154.00 L 20780008.00 32994154.00 L 20798840.00 32986353.00 L 21357414.00 32427779.00 L 21365215.00 32408947.00 L 21365215.00 32090610.00 L 21422243.00 32090610.00 L 21441075.00 32082809.00 L 21448876.00 32063977.00 L 21448876.00 31916339.00 L 21441075.00 31897507.00 L 21422243.00 31889706.00 L 21254921.00 31889706.00 L 21236089.00 31897507.00 L 21228288.00 31916339.00 L 21228288.00 32063977.00 L 21236089.00 32082809.00 L 21254921.00 32090610.00 L 21311949.00 32090610.00 L 21311949.00 32397916.00 L 20768977.00 32940888.00 L 20262878.95 32940888.00 L 20098434.00 32776444.00 L 20079602.00 32768643.00 L 19679845.00 32768643.00 L 19679845.00 32697776.00 L 19669542.00 32672901.00 L 19644667.00 32662598.00 L 19410455.00 32662598.00 L 19385580.00 32672901.00 L 19375277.00 32697776.00 L 19375277.00 32892776.00 L 19385580.00 32917651.00 L 19410455.00 32927954.00 L 19447278.00 32927954.00 L 19447278.00 33031497.00 L 19453389.00 33062220.00 L 19470792.00 33088266.00 L 19526015.00 33143489.00 L 19526015.00 40675409.00 L 18723699.04 41477724.96 L 18701755.00 41482090.00 A 100354.75 100354.75 0 1 0 18832872.00 41613207.00  z"/>
</g>
</svg>
