**ABCDEFGHIJKLMNOPQRSTUVWXYZabcdefghijklmnopqrstuvwxyz**************************
**PARASOLID !"#$%&'()*+,-./:;<=>?@[\]^_`{|}~0123456789**************************
**PART1;
MC=AMD64;
MC_MODEL=Intel64 Family 6 Model 140 Stepping 1, GenuineIntel;
MC_ID=unknown;
OS=Windows_NT;
OS_RELEASE=unknown;
FRU=CAD Exchanger 3.23.0 (cadexchanger.com);
APPL=unknown;
SITE=unknown;
USER=unknown;
FORMAT=text;
GUISE=transmit;
KEY=CAPC0402(1005)60_L_CMP-001-00061-2;
FILE=CAPC0402(1005)60_L_CMP-001-00061-2.x_t;
DATE=Mon Oct  7 17:38:03 2024;
**PART2;
SCH=SCH_1200000_12103;
USFLD_SIZE=0;
**PART3;
**END_OF_HEADER*****************************************************************
T51 : TRANSMIT FILE created by modeller version 120000017 SCH_1200000_121030 12
 1 412 0 2 0 0 0 0 1000.0 1.0e-08 0 0 0 1 0 1 1 11 13 19 17 8 18 16 70 2 0 1 0 0
 4 1 20 0 3 3 1 T74 20 3 1 0 4 0 0 0 0 0 0 0 0 0 0 0 0 0 0 0 0 0 0 0 81 1 4 7 5
 12 0 0 41 0 7 80 1 5 0 6 8001 0 0 0 0 3 5 0 0 0 FFFFTFTFFFFFFF2 79 15 6 SDL/TYS
A_COLOUR83 3 7 0.752941191196442 0.752941191196442 0.752941191196442 19 8 1 0 1
 10 0 9 V13 9 2 0 1 0 0 0 0 8 12 19 10 3 0 1 0 8 11 S13 11 4 0 1 0 12 0 0 10 0 1
4 12 5 4 1.0e-08 39 0 14 11 13 -0 0 39 0 9 50 13 6 0 12 40 0 0 +5.00000000000000
1e-04 2.499999999999999e-04 5.999999999999999e-04 -1.499759782661858e-32 -6.1232
33995736766e-17 -1.0 2.449293598294707e-16 1.0 -6.123233995736766e-17 15 14 8 0
 15 12 0 17 15 0 14 23 35 16 20 18 0 28 -18 16 9 0 15 0 21 17 ?1 29 17 10 0 16 2
2 0 -3.5e-04 2.000000000000001e-04 5.999999999999999e-04 16 18 11 0 ?20 0 26 19
 0 0 1 30 19 12 0 18 27 0 0 +-3.5e-04 2.500000000000001e-04 5.999999999999999e-0
4 -1.365091425809202e-16 -1.0 6.123233995736766e-17 17 20 0 434 439 435 21 15 18
 0 35 +18 21 13 0 20 16 24 22 ?1 29 22 14 0 21 25 17 -3.5e-04 -1.999999999999999
e-04 5.999999999999999e-04 17 23 0 14 29 15 24 28 26 0 34 +18 24 15 0 23 21 30 2
5 ?1 29 25 16 0 24 31 22 -4.499999999999999e-04 2.000000000000001e-04 5.99999999
9999999e-04 16 26 17 0 ?23 18 32 27 0 0 1 30 27 18 0 26 33 19 0 +5.0e-04 1.99999
9999999999e-04 5.999999999999999e-04 -1.0 2.449293598294707e-16 0.0 17 28 0 240
 241 253 16 23 26 0 435 -17 29 0 14 35 23 30 34 32 0 38 +18 30 19 0 477 24 45 31
 ?1 29 31 20 0 30 46 25 -4.5e-04 -1.999999999999999e-04 5.999999999999999e-04 16
 32 21 0 ?29 26 36 33 0 0 1 30 33 22 0 32 37 27 0 +-4.499999999999999e-04 2.5000
00000000002e-04 5.999999999999999e-04 -2.449293598294707e-16 -1.0 6.123233995736
766e-17 17 34 0 496 497 477 24 29 32 0 500 -17 35 0 14 15 29 21 38 36 0 442 +16
 36 23 0 ?35 32 47 37 0 0 1 30 37 24 0 36 48 33 0 +4.999999999999999e-04 -2.0000
00000000001e-04 5.999999999999999e-04 1.0 -2.449293598294707e-16 0.0 17 38 0 72
 85 81 30 35 36 0 88 -14 39 25 41 1.0e-08 68 12 43 11 40 -0 0 68 12 9 50 40 26 0
 39 69 13 0 +5.000000000000001e-04 2.499999999999999e-04 5.999999999999999e-04 -
1.499759782661858e-32 -6.123233995736766e-17 -1.0 2.449293598294707e-16 1.0 -6.1
23233995736766e-17 81 1 41 27 5 39 0 0 70 4 42 83 3 42 0.752941191196442 0.75294
1191196442 0.752941191196442 15 43 28 0 44 39 0 17 44 0 43 52 64 45 49 47 0 57 -
18 45 29 0 44 30 50 46 ?1 29 46 30 0 45 51 31 3.5e-04 -2.0e-04 5.999999999999999
e-04 16 47 31 0 ?49 36 55 48 0 0 1 30 48 32 0 47 56 37 0 +3.5e-04 2.5e-04 5.9999
99999999999e-04 1.365091425809202e-16 1.0 -6.123233995736766e-17 17 49 0 434 435
 439 50 44 47 0 438 +18 50 33 0 49 45 53 51 ?1 29 51 34 0 50 54 46 3.5e-04 2.0e-
04 5.999999999999999e-04 17 52 0 43 58 44 53 57 55 0 63 +18 53 35 0 52 50 59 54
 ?1 29 54 36 0 53 60 51 4.499999999999999e-04 -2.000000000000001e-04 5.999999999
999999e-04 16 55 37 0 ?52 47 61 56 0 0 1 30 56 38 0 55 62 48 0 +4.99999999999999
9e-04 -2.000000000000001e-04 5.999999999999999e-04 1.0 -2.449293598294707e-16 0.
0 17 57 0 93 94 106 45 52 55 0 439 -17 58 0 43 64 52 59 63 61 0 67 +18 59 39 0 5
8 53 74 60 ?1 29 60 40 0 59 75 54 4.5e-04 1.999999999999999e-04 5.99999999999999
9e-04 16 61 41 0 ?58 55 65 62 0 0 1 30 62 42 0 61 66 56 0 +4.5e-04 2.49999999999
9999e-04 5.999999999999999e-04 2.449293598294707e-16 1.0 -6.123233995736766e-17
 17 63 0 573 549 574 53 58 61 0 546 -17 64 0 43 44 58 50 67 65 0 270 +16 65 43 0
 ?64 61 76 66 0 0 1 30 66 44 0 65 77 62 0 +5.0e-04 1.999999999999999e-04 5.99999
9999999999e-04 -1.0 2.449293598294707e-16 0.0 17 67 0 261 274 270 59 64 65 0 574
 -14 68 45 70 1.0e-08 89 39 72 11 69 +0 0 89 39 9 51 69 46 0 68 90 40 0 +4.99999
9999999999e-04 -2.000000000000001e-04 5.5e-04 1.0 -2.449293598294707e-16 0.0 5.0
e-05 2.449293598294707e-16 1.0 -6.123233995736766e-17 81 1 70 47 5 68 0 0 91 41
 71 83 3 71 0.752941191196442 0.752941191196442 0.752941191196442 15 72 48 0 73
 68 0 17 73 0 72 81 85 74 78 76 0 84 -18 74 49 0 422 59 79 75 ?1 29 75 50 0 74 8
0 60 -3.5e-04 -2.499999999999999e-04 5.5e-04 16 76 51 0 ?78 65 82 77 0 0 1 30 77
 52 0 76 83 66 0 +-5.000000000000001e-04 -2.499999999999998e-04 5.5e-04 -1.0 2.4
49293598294707e-16 0.0 17 78 0 114 121 115 79 73 76 0 85 +18 79 53 0 78 74 95 80
 ?1 29 80 54 0 79 96 75 -4.5e-04 -2.499999999999998e-04 5.5e-04 17 81 0 72 38 73
 21 84 82 0 0 +16 82 55 0 ?81 76 86 83 0 0 1 31 83 56 0 82 87 77 0 +-3.5e-04 -1.
999999999999999e-04 5.5e-04 -1.0 2.449293598294707e-16 0.0 2.449293598294707e-16
 1.0 -6.123233995736766e-17 5.0e-05 17 84 0 491 425 442 74 81 82 0 115 -17 85 0
 72 73 38 79 88 86 0 464 +16 86 57 0 ?85 82 97 87 0 0 1 31 87 58 0 86 98 83 0 +-
4.500000000000001e-04 -1.999999999999999e-04 5.5e-04 1.0 -2.449293598294707e-16
 0.0 -2.449293598294707e-16 -1.0 6.123233995736766e-17 5.0e-05 17 88 0 473 474 4
64 30 85 86 0 0 -14 89 59 91 1.0e-08 110 68 93 11 90 +0 0 110 68 9 51 90 60 0 89
 111 69 0 +4.999999999999999e-04 -2.000000000000001e-04 5.5e-04 1.0 -2.449293598
294707e-16 0.0 5.0e-05 2.449293598294707e-16 1.0 -6.123233995736766e-17 81 1 91
 61 5 89 0 0 112 70 92 83 3 92 0.752941191196442 0.752941191196442 0.75294119119
6442 15 93 62 0 57 89 0 17 94 0 93 100 57 95 99 97 0 105 +18 95 63 0 425 79 101
 96 ?1 29 96 64 0 95 102 80 3.5e-04 -2.5e-04 5.5e-04 16 97 65 0 ?94 86 103 98 0
 0 1 31 98 66 0 97 104 87 0 +3.5e-04 -2.0e-04 5.5e-04 1.0 -2.449293598294707e-16
 0.0 -2.449293598294707e-16 -1.0 6.123233995736766e-17 5.0e-05 17 99 0 491 442 4
25 45 94 97 0 0 -17 100 0 93 106 94 101 105 103 0 109 -18 101 67 0 533 95 119 10
2 ?1 29 102 68 0 101 120 96 4.499999999999999e-04 -2.5e-04 5.5e-04 16 103 69 0 ?
105 97 107 104 0 0 1 30 104 70 0 103 108 98 0 +-5.000000000000001e-04 -2.4999999
99999998e-04 5.5e-04 -1.0 2.449293598294707e-16 0.0 17 105 0 135 136 148 95 100
 103 0 141 +17 106 0 93 57 100 53 109 107 0 0 -16 107 71 0 ?109 103 116 108 0 0
 1 31 108 72 0 107 117 104 0 +4.5e-04 -2.000000000000001e-04 5.5e-04 1.0 -2.4492
93598294707e-16 0.0 2.449293598294707e-16 1.0 -6.123233995736766e-17 5.0e-05 17
 109 0 545 536 546 101 106 107 0 0 +14 110 73 112 1.0e-08 131 89 114 11 111 -0 0
 131 89 9 50 111 74 0 110 132 90 0 +-5.000000000000001e-04 -2.499999999999998e-0
4 5.999999999999999e-04 2.449293598294707e-16 1.0 -6.123233995736766e-17 -1.4997
59782661858e-32 -6.123233995736766e-17 -1.0 81 1 112 75 5 110 0 0 133 91 113 83
 3 113 0.752941191196442 0.752941191196442 0.752941191196442 15 114 76 0 115 110
 0 17 115 0 114 78 127 74 118 116 0 0 -16 116 77 0 ?118 107 124 117 0 0 1 30 117
 78 0 116 125 108 0 +-3.5e-04 -2.499999999999999e-04 5.999999999999999e-04 -1.49
9759782661858e-32 -6.123233995736766e-17 -1.0 17 118 0 421 426 422 119 115 116 0
 0 +18 119 79 0 429 101 122 120 ?1 29 120 80 0 119 123 102 -3.5e-04 -2.499999999
999999e-04 5.000000000000002e-05 17 121 0 114 127 78 122 126 124 0 0 +18 122 81
 0 172 119 137 123 ?1 29 123 82 0 122 138 120 -4.5e-04 -2.499999999999999e-04 5.
000000000000002e-05 16 124 83 0 ?121 116 128 125 0 0 1 30 125 84 0 124 129 117 0
 +-4.5e-04 -2.499999999999998e-04 5.999999999999999e-04 -1.499759782661858e-32 -
6.123233995736766e-17 -1.0 17 126 0 460 461 465 79 121 124 0 0 -17 127 0 114 115
 121 119 130 128 0 165 +16 128 85 0 ?127 124 139 129 0 0 1 30 129 86 0 128 140 1
25 0 +4.999999999999999e-04 -2.500000000000001e-04 5.000000000000002e-05 1.0 -2.
449293598294707e-16 0.0 17 130 0 156 169 165 122 127 128 0 465 -14 131 87 133 1.
0e-08 152 110 135 11 132 -0 0 152 110 9 50 132 88 0 131 153 111 0 +-5.0000000000
00001e-04 -2.499999999999998e-04 5.999999999999999e-04 2.449293598294707e-16 1.0
 -6.123233995736766e-17 -1.499759782661858e-32 -6.123233995736766e-17 -1.0 81 1
 133 89 5 131 0 0 154 112 134 83 3 134 0.752941191196442 0.752941191196442 0.752
941191196442 15 135 90 0 136 131 0 17 136 0 135 142 105 137 141 139 0 147 -18 13
7 91 0 183 122 143 138 ?1 29 138 92 0 137 144 123 3.5e-04 -2.5e-04 5.00000000000
0002e-05 16 139 93 0 ?141 128 145 140 0 0 1 30 140 94 0 139 146 129 0 +3.5e-04 -
2.5e-04 5.999999999999999e-04 1.499759782661858e-32 6.123233995736766e-17 1.0 17
 141 0 421 422 426 95 136 139 0 0 +17 142 0 135 148 136 143 147 145 0 0 +18 143
 95 0 190 137 158 144 ?1 29 144 96 0 143 159 138 4.499999999999999e-04 -2.500000
000000001e-04 5.000000000000002e-05 16 145 97 0 ?142 139 149 146 0 0 1 30 146 98
 0 145 150 140 0 +4.999999999999999e-04 -2.500000000000001e-04 5.000000000000002
e-05 1.0 -2.449293598294707e-16 0.0 17 147 0 177 178 190 137 142 145 0 0 -17 148
 0 135 105 142 101 151 149 0 100 +16 149 99 0 ?148 145 160 150 0 0 1 30 150 100
 0 149 161 146 0 +4.499999999999999e-04 -2.5e-04 5.999999999999999e-04 1.4997597
82661858e-32 6.123233995736766e-17 1.0 17 151 0 532 537 533 143 148 149 0 142 -1
4 152 101 154 1.0e-08 173 131 156 11 153 +0 0 173 131 9 51 153 102 0 152 174 132
 0 +-5.0e-04 -1.999999999999999e-04 5.000000000000002e-05 -1.0 2.449293598294707
e-16 0.0 5.0e-05 -2.449293598294707e-16 -1.0 6.123233995736766e-17 81 1 154 103
 5 152 0 0 175 133 155 83 3 155 0.752941191196442 0.752941191196442 0.7529411911
96442 15 156 104 0 157 152 0 17 157 0 156 165 169 158 162 160 0 168 -18 158 105
 0 207 143 163 159 ?1 29 159 106 0 158 164 144 -3.5e-04 -1.999999999999999e-04 1
.224646799147353e-20 16 160 107 0 ?162 149 166 161 0 0 1 30 161 108 0 160 167 15
0 0 +-5.0e-04 -1.999999999999999e-04 1.224646799147353e-20 -1.0 2.44929359829470
7e-16 0.0 17 162 0 198 211 207 163 157 160 0 0 +18 163 109 0 169 158 179 164 ?1
 29 164 110 0 163 180 159 -4.5e-04 -1.999999999999999e-04 1.224646799147353e-20
 17 165 0 156 130 157 119 168 166 0 118 +16 166 111 0 ?165 160 170 167 0 0 1 31
 167 112 0 166 171 161 0 +-3.5e-04 -1.999999999999999e-04 5.000000000000002e-05
 -1.0 2.449293598294707e-16 0.0 2.449293598294707e-16 1.0 -6.123233995736766e-17
 5.0e-05 17 168 0 527 455 429 158 165 166 0 0 -17 169 0 156 157 130 163 172 170
 0 483 +16 170 113 0 ?169 166 181 171 0 0 1 31 171 114 0 170 182 167 0 +-4.50000
0000000001e-04 -1.999999999999999e-04 5.000000000000002e-05 1.0 -2.4492935982947
07e-16 0.0 -2.449293598294707e-16 -1.0 6.123233995736766e-17 5.0e-05 17 172 0 48
2 468 483 122 169 170 0 130 -14 173 115 175 1.0e-08 194 152 177 11 174 +0 0 194
 152 9 51 174 116 0 173 195 153 0 +-5.0e-04 -1.999999999999999e-04 5.00000000000
0002e-05 -1.0 2.449293598294707e-16 0.0 5.0e-05 -2.449293598294707e-16 -1.0 6.12
3233995736766e-17 81 1 175 117 5 173 0 0 196 154 176 83 3 176 0.752941191196442
 0.752941191196442 0.752941191196442 15 177 118 0 147 173 0 17 178 0 177 184 147
 179 183 181 0 189 +18 179 119 0 178 163 185 180 ?1 29 180 120 0 179 186 164 3.5
e-04 -2.000000000000001e-04 1.224646799147353e-20 16 181 121 0 ?178 170 187 182
 0 0 1 31 182 122 0 181 188 171 0 +3.5e-04 -2.000000000000001e-04 5.000000000000
002e-05 1.0 -2.449293598294707e-16 0.0 -2.449293598294707e-16 -1.0 6.12323399573
6766e-17 5.0e-05 17 183 0 527 429 455 137 178 181 0 426 -17 184 0 177 190 178 18
5 189 187 0 193 -18 185 123 0 184 179 200 186 ?1 29 186 124 0 185 201 180 4.4999
99999999999e-04 -2.000000000000001e-04 1.224646799147353e-20 16 187 125 0 ?189 1
81 191 188 0 0 1 30 188 126 0 187 192 182 0 +-5.0e-04 -1.999999999999999e-04 1.2
24646799147353e-20 -1.0 2.449293598294707e-16 0.0 17 189 0 219 220 232 179 184 1
87 0 225 +17 190 0 177 147 184 143 193 191 0 540 -16 191 127 0 ?193 187 202 192
 0 0 1 31 192 128 0 191 203 188 0 +4.5e-04 -2.000000000000001e-04 5.000000000000
002e-05 1.0 -2.449293598294707e-16 0.0 2.449293598294707e-16 1.0 -6.123233995736
766e-17 5.0e-05 17 193 0 564 565 540 185 190 191 0 568 +14 194 129 196 1.0e-08 2
15 173 198 11 195 +0 0 215 173 9 50 195 130 0 194 216 174 0 +5.000000000000001e-
04 2.499999999999999e-04 -1.530808498934191e-20 -1.499759782661858e-32 -6.123233
995736766e-17 -1.0 2.449293598294707e-16 1.0 -6.123233995736766e-17 81 1 196 131
 5 194 0 0 217 175 197 83 3 197 0.752941191196442 0.752941191196442 0.7529411911
96442 15 198 132 0 199 194 0 17 199 0 198 207 211 200 204 202 0 210 +18 200 133
 0 199 185 205 201 ?1 29 201 134 0 200 206 186 -3.5e-04 2.000000000000001e-04 -1
.224646799147353e-20 16 202 135 0 ?199 191 208 203 0 0 1 30 203 136 0 202 209 19
2 0 +5.0e-04 1.999999999999999e-04 -1.224646799147353e-20 1.0 -2.449293598294707
e-16 0.0 17 204 0 282 295 291 205 199 202 0 519 -18 205 137 0 204 200 221 206 ?1
 29 206 138 0 205 222 201 -4.499999999999999e-04 2.000000000000001e-04 -1.224646
799147353e-20 17 207 0 198 162 199 158 210 208 0 452 +16 208 139 0 ?207 202 212
 209 0 0 1 30 209 140 0 208 213 203 0 +-3.5e-04 2.500000000000001e-04 -1.5308084
98934191e-20 -1.365091425809202e-16 -1.0 6.123233995736766e-17 17 210 0 447 448
 452 200 207 208 0 451 -17 211 0 198 199 162 205 214 212 0 298 +16 212 141 0 ?21
1 208 223 213 0 0 1 30 213 142 0 212 224 209 0 +-4.499999999999999e-04 2.5000000
00000001e-04 -1.530808498934191e-20 2.449293598294707e-16 1.0 -6.123233995736766
e-17 17 214 0 518 486 519 163 211 212 0 162 -14 215 143 217 1.0e-08 236 194 219
 11 216 +0 0 236 194 9 50 216 144 0 215 237 195 0 +5.000000000000001e-04 2.49999
9999999999e-04 -1.530808498934191e-20 -1.499759782661858e-32 -6.123233995736766e
-17 -1.0 2.449293598294707e-16 1.0 -6.123233995736766e-17 81 1 217 145 5 215 0 0
 238 196 218 83 3 218 0.752941191196442 0.752941191196442 0.752941191196442 15 2
19 146 0 189 215 0 17 220 0 219 226 189 221 225 223 0 448 +18 221 147 0 220 205
 227 222 ?1 29 222 148 0 221 228 206 3.5e-04 1.999999999999999e-04 -1.2246467991
47353e-20 16 223 149 0 ?220 212 229 224 0 0 1 30 224 150 0 223 230 213 0 +3.5e-0
4 2.499999999999999e-04 -1.530808498934191e-20 1.365091425809202e-16 1.0 -6.1232
33995736766e-17 17 225 0 447 452 448 179 220 223 0 455 -17 226 0 219 232 220 227
 231 229 0 596 +18 227 151 0 226 221 242 228 ?1 29 228 152 0 227 243 222 4.5e-04
 1.999999999999999e-04 -1.224646799147353e-20 16 229 153 0 ?226 223 233 230 0 0
 1 30 230 154 0 229 234 224 0 +5.0e-04 1.999999999999999e-04 -1.224646799147353e
-20 1.0 -2.449293598294707e-16 0.0 17 231 0 303 304 316 221 226 229 0 309 -17 23
2 0 219 189 226 185 235 233 0 0 +16 233 155 0 ?232 229 244 234 0 0 1 30 234 156
 0 233 245 230 0 +4.499999999999999e-04 -2.500000000000001e-04 1.530808498934191
e-20 -2.449293598294707e-16 -1.0 6.123233995736766e-17 17 235 0 592 593 568 227
 232 233 0 316 -14 236 157 238 1.0e-08 257 215 240 11 237 +0 0 257 215 9 51 237
 158 0 236 258 216 0 +5.0e-04 1.999999999999999e-04 5.5e-04 -1.0 2.4492935982947
07e-16 0.0 5.0e-05 -2.449293598294707e-16 -1.0 6.123233995736766e-17 81 1 238 15
9 5 236 0 0 259 217 239 83 3 239 0.752941191196442 0.752941191196442 0.752941191
196442 15 240 160 0 28 236 0 17 241 0 240 247 28 242 246 244 0 0 +18 242 161 0 3
28 227 248 243 ?1 29 243 162 0 242 249 228 -3.5e-04 2.500000000000001e-04 5.5e-0
4 16 244 163 0 ?241 233 250 245 0 0 1 31 245 164 0 244 251 234 0 +-3.5e-04 2.000
000000000001e-04 5.5e-04 -1.0 2.449293598294707e-16 0.0 2.449293598294707e-16 1.
0 -6.123233995736766e-17 5.0e-05 17 246 0 582 438 387 16 241 244 0 0 -17 247 0 2
40 253 241 248 252 250 0 256 -18 248 165 0 329 242 263 249 ?1 29 249 166 0 248 2
64 243 -4.499999999999999e-04 2.500000000000002e-04 5.5e-04 16 250 167 0 ?252 24
4 254 251 0 0 1 30 251 168 0 250 255 245 0 +-4.999999999999999e-04 2.50000000000
0002e-04 5.5e-04 1.0 -2.449293598294707e-16 0.0 17 252 0 324 325 329 242 247 250
 0 387 +17 253 0 240 28 247 24 256 254 0 0 +16 254 169 0 ?253 250 265 255 0 0 1
 31 255 170 0 254 266 251 0 +-4.5e-04 2.000000000000001e-04 5.5e-04 1.0 -2.44929
3598294707e-16 0.0 -2.449293598294707e-16 -1.0 6.123233995736766e-17 5.0e-05 17
 256 0 554 513 500 248 253 254 0 0 -14 257 171 259 1.0e-08 278 236 261 11 258 +0
 0 278 236 9 51 258 172 0 257 279 237 0 +5.0e-04 1.999999999999999e-04 5.5e-04 -
1.0 2.449293598294707e-16 0.0 5.0e-05 -2.449293598294707e-16 -1.0 6.123233995736
766e-17 81 1 259 173 5 257 0 0 280 238 260 83 3 260 0.752941191196442 0.75294119
1196442 0.752941191196442 15 261 174 0 262 257 0 17 262 0 261 270 274 263 267 26
5 0 273 -18 263 175 0 338 248 268 264 ?1 29 264 176 0 263 269 249 3.5e-04 2.5e-0
4 5.5e-04 16 265 177 0 ?267 254 271 266 0 0 1 30 266 178 0 265 272 255 0 +-4.999
999999999999e-04 2.500000000000002e-04 5.5e-04 1.0 -2.449293598294707e-16 0.0 17
 267 0 337 342 338 268 262 265 0 274 +18 268 179 0 345 263 284 269 ?1 29 269 180
 0 268 285 264 4.5e-04 2.499999999999999e-04 5.5e-04 17 270 0 261 67 262 50 273
 271 0 0 +16 271 181 0 ?270 265 275 272 0 0 1 31 272 182 0 271 276 266 0 +3.5e-0
4 2.0e-04 5.5e-04 1.0 -2.449293598294707e-16 0.0 -2.449293598294707e-16 -1.0 6.1
23233995736766e-17 5.0e-05 17 273 0 582 387 438 263 270 271 0 0 -17 274 0 261 26
2 67 268 277 275 0 0 -16 275 183 0 ?277 271 286 276 0 0 1 31 276 184 0 275 287 2
72 0 +4.500000000000001e-04 1.999999999999999e-04 5.5e-04 1.0 -2.449293598294707
e-16 0.0 2.449293598294707e-16 1.0 -6.123233995736766e-17 5.0e-05 17 277 0 601 5
77 602 59 274 275 0 0 +14 278 185 280 1.0e-08 299 257 282 11 279 +0 0 299 257 9
 51 279 186 0 278 300 258 0 +-4.999999999999999e-04 2.000000000000001e-04 4.9999
99999999999e-05 1.0 -2.449293598294707e-16 0.0 5.0e-05 2.449293598294707e-16 1.0
 -6.123233995736766e-17 81 1 280 187 5 278 0 0 301 259 281 83 3 281 0.7529411911
96442 0.752941191196442 0.752941191196442 15 282 188 0 283 278 0 17 283 0 282 29
1 295 284 288 286 0 294 -18 284 189 0 325 268 289 285 ?1 29 285 190 0 284 290 26
9 -3.5e-04 2.500000000000001e-04 4.999999999999999e-05 16 286 191 0 ?288 275 292
 287 0 0 1 30 287 192 0 286 293 276 0 +-4.999999999999999e-04 2.500000000000001e
-04 4.999999999999999e-05 -1.0 2.449293598294707e-16 0.0 17 288 0 324 329 325 28
9 283 286 0 295 +18 289 193 0 332 284 305 290 ?1 29 290 194 0 289 306 285 -4.499
999999999999e-04 2.500000000000001e-04 4.999999999999999e-05 17 291 0 282 204 28
3 200 294 292 0 0 +16 292 195 0 ?291 286 296 293 0 0 1 31 293 196 0 292 297 287
 0 +-3.5e-04 2.000000000000001e-04 4.999999999999999e-05 -1.0 2.449293598294707e
-16 0.0 2.449293598294707e-16 1.0 -6.123233995736766e-17 5.0e-05 17 294 0 587 38
3 451 284 291 292 0 0 -17 295 0 282 283 204 289 298 296 0 0 +16 296 197 0 ?295 2
92 307 297 0 0 1 31 297 198 0 296 308 293 0 +-4.5e-04 2.000000000000001e-04 4.99
9999999999999e-05 1.0 -2.449293598294707e-16 0.0 -2.449293598294707e-16 -1.0 6.1
23233995736766e-17 5.0e-05 17 298 0 559 522 509 205 295 296 0 0 -14 299 199 301
 1.0e-08 320 278 303 11 300 +0 0 320 278 9 51 300 200 0 299 321 279 0 +-4.999999
999999999e-04 2.000000000000001e-04 4.999999999999999e-05 1.0 -2.449293598294707
e-16 0.0 5.0e-05 2.449293598294707e-16 1.0 -6.123233995736766e-17 81 1 301 201 5
 299 0 0 322 280 302 83 3 302 0.752941191196442 0.752941191196442 0.752941191196
442 15 303 202 0 231 299 0 17 304 0 303 310 231 305 309 307 0 315 +18 305 203 0
 341 289 311 306 ?1 29 306 204 0 305 312 290 3.5e-04 2.499999999999999e-04 4.999
999999999999e-05 16 307 205 0 ?304 296 313 308 0 0 1 31 308 206 0 307 314 297 0
 +3.5e-04 1.999999999999999e-04 4.999999999999999e-05 1.0 -2.449293598294707e-16
 0.0 -2.449293598294707e-16 -1.0 6.123233995736766e-17 5.0e-05 17 309 0 587 451
 383 221 304 307 0 0 -17 310 0 303 316 304 311 315 313 0 319 -18 311 207 0 342 3
05 352 312 ?1 29 312 208 0 311 353 306 4.5e-04 2.499999999999999e-04 4.999999999
999999e-05 16 313 209 0 ?315 307 317 314 0 0 1 30 314 210 0 313 318 308 0 +-4.99
9999999999999e-04 2.500000000000001e-04 4.999999999999999e-05 -1.0 2.44929359829
4707e-16 0.0 17 315 0 337 338 342 305 310 313 0 0 +17 316 0 303 231 310 227 319
 317 0 0 -16 317 211 0 ?319 313 326 318 0 0 1 31 318 212 0 317 327 314 0 +4.5000
00000000001e-04 1.999999999999999e-04 4.999999999999999e-05 1.0 -2.4492935982947
07e-16 0.0 2.449293598294707e-16 1.0 -6.123233995736766e-17 5.0e-05 17 319 0 610
 611 596 311 316 317 0 0 +14 320 213 322 1.0e-08 333 299 324 11 321 -0 0 333 299
 9 50 321 214 0 320 334 300 0 +-4.999999999999999e-04 2.500000000000002e-04 5.99
9999999999999e-04 -2.449293598294707e-16 -1.0 6.123233995736766e-17 1.0 -2.44929
3598294707e-16 0.0 81 1 322 215 5 320 0 0 335 301 323 83 3 323 0.752941191196442
 0.752941191196442 0.752941191196442 15 324 216 0 325 320 0 17 325 0 324 288 252
 284 328 326 0 380 -16 326 217 0 ?328 317 330 327 0 0 1 30 327 218 0 326 331 318
 0 +-3.5e-04 2.500000000000001e-04 5.999999999999999e-04 1.499759782661858e-32 6
.123233995736766e-17 1.0 17 328 0 379 384 380 242 325 326 0 252 +17 329 0 324 25
2 288 248 332 330 0 510 +16 330 219 0 ?329 326 339 331 0 0 1 30 331 220 0 330 34
0 327 0 +-4.499999999999999e-04 2.500000000000002e-04 5.999999999999999e-04 1.49
9759782661858e-32 6.123233995736766e-17 1.0 17 332 0 505 506 510 289 329 330 0 5
09 -14 333 221 335 1.0e-08 346 320 337 11 334 -0 0 346 320 9 50 334 222 0 333 34
7 321 0 +-4.999999999999999e-04 2.500000000000002e-04 5.999999999999999e-04 -2.4
49293598294707e-16 -1.0 6.123233995736766e-17 1.0 -2.449293598294707e-16 0.0 81
 1 335 223 5 333 0 0 348 322 336 83 3 336 0.752941191196442 0.752941191196442 0.
752941191196442 15 337 224 0 338 333 0 17 338 0 337 267 315 263 341 339 0 384 -1
6 339 225 0 ?341 330 343 340 0 0 1 30 340 226 0 339 344 331 0 +3.5e-04 2.5e-04 5
.999999999999999e-04 -1.499759782661858e-32 -6.123233995736766e-17 -1.0 17 341 0
 379 380 384 305 338 339 0 383 +17 342 0 337 315 267 311 345 343 0 614 +16 343 2
27 0 ?342 339 354 344 0 0 1 30 344 228 0 343 355 340 0 +4.5e-04 2.49999999999999
9e-04 5.999999999999999e-04 -1.499759782661858e-32 -6.123233995736766e-17 -1.0 1
7 345 0 619 605 614 268 342 343 0 602 -14 346 229 348 1.0e-08 375 333 350 11 347
 -0 0 375 333 9 50 347 230 0 346 376 334 0 +4.999999999999999e-04 -2.50000000000
0001e-04 5.999999999999999e-04 -1.0 2.449293598294707e-16 0.0 -2.449293598294707
e-16 -1.0 6.123233995736766e-17 81 1 348 231 5 346 0 0 377 335 349 83 3 349 0.75
2941191196442 0.752941191196442 0.752941191196442 15 350 232 0 351 346 0 17 351
 0 350 359 371 352 356 354 0 364 +18 352 233 0 351 311 357 353 ?1 29 353 234 0 3
52 358 312 5.0e-04 1.999999999999999e-04 5.5e-04 16 354 235 0 ?351 343 362 355 0
 0 1 30 355 236 0 354 363 344 0 +5.0e-04 1.999999999999999e-04 5.999999999999999
e-04 1.499759782661858e-32 6.123233995736766e-17 1.0 17 356 0 619 614 605 357 35
1 354 0 371 -18 357 237 0 356 352 360 358 ?1 29 358 238 0 357 361 353 5.0e-04 1.
999999999999999e-04 4.999999999999999e-05 17 359 0 350 365 351 360 364 362 0 536
 +18 360 239 0 549 357 366 361 ?1 29 361 240 0 360 367 358 4.999999999999999e-04
 -2.000000000000001e-04 5.5e-04 16 362 241 0 ?359 354 368 363 0 0 1 30 363 242 0
 362 369 355 0 +4.999999999999999e-04 -2.500000000000001e-04 5.5e-04 -2.44929359
8294707e-16 -1.0 6.123233995736766e-17 17 364 0 573 574 549 352 359 362 0 577 -1
7 365 0 350 371 359 366 370 368 0 374 +18 366 243 0 365 360 394 367 ?1 29 367 24
4 0 366 395 361 4.999999999999999e-04 -2.000000000000001e-04 5.000000000000002e-
05 16 368 245 0 ?365 362 372 369 0 0 1 30 369 246 0 368 373 363 0 +4.99999999999
9999e-04 -2.000000000000001e-04 5.999999999999999e-04 -1.499759782661858e-32 -6.
123233995736766e-17 -1.0 17 370 0 532 533 537 360 365 368 0 0 -17 371 0 350 351
 365 357 374 372 0 593 +16 372 247 0 ?371 368 381 373 0 0 1 30 373 248 0 372 382
 369 0 +5.000000000000001e-04 2.499999999999999e-04 4.999999999999999e-05 2.4492
93598294707e-16 1.0 -6.123233995736766e-17 17 374 0 592 568 593 366 371 372 0 53
7 -14 375 249 377 1.0e-08 388 346 379 11 376 -0 0 388 346 9 50 376 250 0 375 389
 347 0 +-4.999999999999999e-04 2.500000000000002e-04 5.999999999999999e-04 -2.44
9293598294707e-16 -1.0 6.123233995736766e-17 1.0 -2.449293598294707e-16 0.0 81 1
 377 251 5 375 0 0 390 348 378 83 3 378 0.470588237047195 0.24705882370472 0.015
686275437474 15 379 252 0 380 375 0 17 380 0 379 328 341 284 383 381 0 283 +16 3
81 253 0 ?380 372 385 382 0 0 1 30 382 254 0 381 386 373 0 +-4.999999999999999e-
04 2.500000000000001e-04 4.999999999999999e-05 -1.0 2.449293598294707e-16 0.0 17
 383 0 587 309 294 305 380 381 0 304 -17 384 0 379 341 328 263 387 385 0 262 +16
 385 255 0 ?384 381 396 386 0 0 1 30 386 256 0 385 397 382 0 +-4.999999999999999
e-04 2.500000000000002e-04 5.5e-04 1.0 -2.449293598294707e-16 0.0 17 387 0 582 2
46 273 242 384 385 0 241 -14 388 257 390 1.0e-08 417 375 392 11 389 -0 0 417 375
 9 50 389 258 0 388 418 376 0 +-5.000000000000001e-04 -2.499999999999998e-04 5.9
99999999999999e-04 1.0 -2.449293598294707e-16 0.0 1.499759782661858e-32 6.123233
995736766e-17 1.0 81 1 390 259 5 388 0 0 419 377 391 83 3 391 0.752941191196442
 0.752941191196442 0.752941191196442 15 392 260 0 393 388 0 17 393 0 392 401 413
 394 398 396 0 0 +18 394 261 0 474 366 399 395 ?1 29 395 262 0 394 400 367 -5.0e
-04 -1.999999999999999e-04 5.5e-04 16 396 263 0 ?393 385 404 397 0 0 1 30 397 26
4 0 396 405 386 0 +-5.0e-04 -1.999999999999999e-04 5.999999999999999e-04 1.49975
9782661858e-32 6.123233995736766e-17 1.0 17 398 0 460 465 461 399 393 396 0 468
 -18 399 265 0 486 394 402 400 ?1 29 400 266 0 399 403 395 -5.0e-04 -1.999999999
999999e-04 5.000000000000002e-05 17 401 0 392 407 393 402 406 404 0 412 +18 402
 267 0 401 399 408 403 ?1 29 403 268 0 402 409 400 -4.999999999999999e-04 2.0000
00000000002e-04 5.5e-04 16 404 269 0 ?401 396 410 405 0 0 1 30 405 270 0 404 411
 397 0 +-5.000000000000001e-04 -2.499999999999998e-04 5.5e-04 2.449293598294707e
-16 1.0 -6.123233995736766e-17 17 406 0 496 477 497 394 401 404 0 461 -17 407 0
 392 413 401 408 412 410 0 506 +18 408 271 0 407 402 0 409 ?1 29 409 272 0 408 0
 403 -4.999999999999999e-04 2.000000000000001e-04 4.999999999999999e-05 16 410 2
73 0 ?407 404 414 411 0 0 1 30 411 274 0 410 415 405 0 +-4.999999999999999e-04 2
.000000000000002e-04 5.999999999999999e-04 -1.499759782661858e-32 -6.12323399573
6766e-17 -1.0 17 412 0 505 510 506 402 407 410 0 497 -17 413 0 392 393 407 399 4
16 414 0 398 +16 414 275 0 ?413 410 423 415 0 0 1 30 415 276 0 414 424 411 0 +-5
.000000000000001e-04 -2.499999999999998e-04 5.000000000000002e-05 -2.44929359829
4707e-16 -1.0 6.123233995736766e-17 17 416 0 518 519 486 408 413 414 0 522 -14 4
17 277 419 1.0e-08 430 388 421 11 418 -0 0 430 388 9 50 418 278 0 417 431 389 0
 +-5.000000000000001e-04 -2.499999999999998e-04 5.999999999999999e-04 2.44929359
8294707e-16 1.0 -6.123233995736766e-17 -1.499759782661858e-32 -6.123233995736766
e-17 -1.0 81 1 419 279 5 417 0 0 432 390 420 83 3 420 0.470588237047195 0.247058
82370472 0.015686275437474 15 421 280 0 422 417 0 17 422 0 421 118 141 74 425 42
3 0 73 +16 423 281 0 ?422 414 427 424 0 0 1 30 424 282 0 423 428 415 0 +-5.00000
0000000001e-04 -2.499999999999998e-04 5.5e-04 -1.0 2.449293598294707e-16 0.0 17
 425 0 491 99 84 95 422 423 0 94 -17 426 0 421 141 118 137 429 427 0 136 +16 427
 283 0 ?426 423 436 428 0 0 1 30 428 284 0 427 437 424 0 +4.999999999999999e-04
 -2.500000000000001e-04 5.000000000000002e-05 1.0 -2.449293598294707e-16 0.0 17
 429 0 527 168 183 119 426 427 0 127 -14 430 285 432 1.0e-08 443 417 434 11 431
 -0 0 443 417 9 50 431 286 0 430 444 418 0 +5.000000000000001e-04 2.499999999999
999e-04 5.999999999999999e-04 -1.499759782661858e-32 -6.123233995736766e-17 -1.0
 2.449293598294707e-16 1.0 -6.123233995736766e-17 81 1 432 287 5 430 0 0 445 419
 433 83 3 433 0.470588237047195 0.24705882370472 0.015686275437474 15 434 288 0
 435 430 0 17 435 0 434 20 49 16 438 436 0 246 +16 436 289 0 ?435 427 440 437 0
 0 1 30 437 290 0 436 441 428 0 +5.0e-04 1.999999999999999e-04 5.999999999999999
e-04 -1.0 2.449293598294707e-16 0.0 17 438 0 582 273 246 50 435 436 0 64 -17 439
 0 434 49 20 45 442 440 0 99 +16 440 291 0 ?439 436 449 441 0 0 1 30 441 292 0 4
40 450 437 0 +4.999999999999999e-04 -2.000000000000001e-04 5.999999999999999e-04
 1.0 -2.449293598294707e-16 0.0 17 442 0 491 84 99 21 439 440 0 81 -14 443 293 4
45 1.0e-08 456 430 447 11 444 +0 0 456 430 9 50 444 294 0 443 457 431 0 +5.00000
0000000001e-04 2.499999999999999e-04 -1.530808498934191e-20 -1.499759782661858e-
32 -6.123233995736766e-17 -1.0 2.449293598294707e-16 1.0 -6.123233995736766e-17
 81 1 445 295 5 443 0 0 458 432 446 83 3 446 0.470588237047195 0.24705882370472
 0.015686275437474 15 447 296 0 210 443 0 17 448 0 447 225 210 221 451 449 0 231
 +16 449 297 0 ?448 440 453 450 0 0 1 30 450 298 0 449 454 441 0 +5.0e-04 1.9999
99999999999e-04 -1.224646799147353e-20 1.0 -2.449293598294707e-16 0.0 17 451 0 5
87 294 309 200 448 449 0 291 -17 452 0 447 210 225 158 455 453 0 157 +16 453 299
 0 ?452 449 462 454 0 0 1 30 454 300 0 453 463 450 0 +-5.0e-04 -1.99999999999999
9e-04 1.224646799147353e-20 -1.0 2.449293598294707e-16 0.0 17 455 0 527 183 168
 179 452 453 0 0 -14 456 301 458 1.0e-08 469 443 460 11 457 +0 0 469 443 9 51 45
7 302 0 456 470 444 0 +-4.500000000000001e-04 -1.999999999999999e-04 5.999999999
999999e-04 -1.499759782661858e-32 -6.123233995736766e-17 -1.0 5.0e-05 2.44929359
8294707e-16 1.0 -6.123233995736766e-17 81 1 458 303 5 456 0 0 471 445 459 83 3 4
59 0.752941191196442 0.752941191196442 0.752941191196442 15 460 304 0 461 456 0
 17 461 0 460 398 126 394 464 462 0 393 -16 462 305 0 ?464 453 466 463 0 0 1 31
 463 306 0 462 467 454 0 +-4.500000000000001e-04 -1.999999999999999e-04 5.5e-04
 1.499759782661858e-32 6.123233995736766e-17 1.0 -2.449293598294707e-16 -1.0 6.1
23233995736766e-17 5.0e-05 17 464 0 473 88 474 79 461 462 0 126 +17 465 0 460 12
6 398 122 468 466 0 121 -16 466 307 0 ?468 462 475 467 0 0 1 31 467 308 0 466 47
6 463 0 +-4.500000000000001e-04 -1.999999999999999e-04 5.000000000000002e-05 -1.
499759782661858e-32 -6.123233995736766e-17 -1.0 2.449293598294707e-16 1.0 -6.123
233995736766e-17 5.0e-05 17 468 0 482 483 172 399 465 466 0 0 +14 469 309 471 1.
0e-08 478 456 473 11 470 +0 0 478 456 9 53 470 310 0 469 479 457 0 +-4.500000000
000001e-04 -1.999999999999999e-04 5.5e-04 5.0e-05 2.449293598294707e-16 1.0 -6.1
23233995736766e-17 1.0 -2.449293598294707e-16 0.0 81 1 471 311 5 469 0 0 480 458
 472 83 3 472 0.752941191196442 0.752941191196442 0.752941191196442 15 473 312 0
 474 469 0 17 474 0 473 464 88 394 477 475 0 406 -16 475 313 0 ?477 466 484 476
 0 0 1 31 476 314 0 475 485 467 0 +-4.500000000000001e-04 -1.999999999999999e-04
 5.5e-04 -2.971717264132814e-16 1.0 -6.123233995736766e-17 1.0 2.971717264132814
e-16 -3.319411800407448e-32 5.000000000000003e-05 17 477 0 496 34 406 30 474 475
 0 29 +14 478 315 480 1.0e-08 487 469 482 11 479 +0 0 487 469 9 53 479 316 0 478
 488 470 0 +-4.500000000000001e-04 -1.999999999999999e-04 5.000000000000002e-05
 5.0e-05 2.449293598294707e-16 1.0 -6.123233995736766e-17 1.0 -2.449293598294707
e-16 0.0 81 1 480 317 5 478 0 0 489 471 481 83 3 481 0.752941191196442 0.7529411
91196442 0.752941191196442 15 482 318 0 172 478 0 17 483 0 482 172 468 163 486 4
84 0 214 -16 484 319 0 ?486 475 498 485 0 0 1 31 485 320 0 484 499 476 0 +-4.500
000000000001e-04 -1.999999999999999e-04 5.000000000000002e-05 2.449293598294707e
-16 1.0 -6.123233995736766e-17 1.0 -2.449293598294707e-16 0.0 5.000000000000003e
-05 17 486 0 518 416 214 399 483 484 0 413 +14 487 321 489 1.0e-08 492 478 491 1
1 488 +0 0 492 478 9 51 488 322 0 487 493 479 0 +4.999999999999999e-04 -2.000000
000000001e-04 5.5e-04 1.0 -2.449293598294707e-16 0.0 5.0e-05 2.449293598294707e-
16 1.0 -6.123233995736766e-17 81 1 489 323 5 487 0 0 494 480 490 83 3 490 0.4705
88237047195 0.24705882370472 0.015686275437474 15 491 324 0 84 487 0 14 492 325
 494 1.0e-08 501 487 496 11 493 +0 0 501 487 9 51 493 326 0 492 502 488 0 +-4.5e
-04 2.500000000000002e-04 5.5e-04 -2.449293598294707e-16 -1.0 6.123233995736766e
-17 5.000000000000003e-05 1.0 -2.449293598294707e-16 0.0 81 1 494 327 5 492 0 0
 503 489 495 83 3 495 0.752941191196442 0.752941191196442 0.752941191196442 15 4
96 328 0 477 492 0 17 497 0 496 406 34 402 500 498 0 513 -16 498 329 0 ?500 484
 507 499 0 0 1 31 499 330 0 498 508 485 0 +-4.5e-04 2.000000000000001e-04 5.5e-0
4 2.449293598294707e-16 1.0 -6.033334262001197e-16 1.477740698429165e-31 6.03333
4262001197e-16 1.0 5.000000000000003e-05 17 500 0 554 256 513 24 497 498 0 253 +
14 501 331 503 1.0e-08 514 492 505 11 502 +0 0 514 492 9 51 502 332 0 501 515 49
3 0 +-4.5e-04 2.000000000000001e-04 5.999999999999999e-04 -1.499759782661858e-32
 -6.123233995736766e-17 -1.0 5.0e-05 2.449293598294707e-16 1.0 -6.12323399573676
6e-17 81 1 503 333 5 501 0 0 516 494 504 83 3 504 0.752941191196442 0.7529411911
96442 0.752941191196442 15 505 334 0 506 501 0 17 506 0 505 412 332 408 509 507
 0 416 -16 507 335 0 ?509 498 511 508 0 0 1 31 508 336 0 507 512 499 0 +-4.5e-04
 2.000000000000001e-04 4.999999999999999e-05 -1.499759782661858e-32 -6.123233995
736766e-17 -1.0 2.449293598294707e-16 1.0 -6.123233995736766e-17 5.0e-05 17 509
 0 559 298 522 289 506 507 0 288 +17 510 0 505 332 412 248 513 511 0 247 -16 511
 337 0 ?513 507 520 512 0 0 1 31 512 338 0 511 521 508 0 +-4.5e-04 2.00000000000
0001e-04 5.5e-04 1.499759782661858e-32 6.123233995736766e-17 1.0 -2.449293598294
707e-16 -1.0 6.123233995736766e-17 5.0e-05 17 513 0 554 500 256 402 510 511 0 0
 +14 514 339 516 1.0e-08 523 501 518 11 515 +0 0 523 501 9 51 515 340 0 514 524
 502 0 +-4.500000000000001e-04 -2.499999999999999e-04 5.000000000000002e-05 2.44
9293598294707e-16 1.0 -6.123233995736766e-17 5.000000000000003e-05 -1.0 2.449293
598294707e-16 0.0 81 1 516 341 5 514 0 0 525 503 517 83 3 517 0.752941191196442
 0.752941191196442 0.752941191196442 15 518 342 0 486 514 0 17 519 0 518 214 416
 205 522 520 0 211 -16 520 343 0 ?522 511 534 521 0 0 1 31 521 344 0 520 535 512
 0 +-4.5e-04 2.000000000000001e-04 4.999999999999999e-05 -2.971717264132814e-16
 1.0 -6.123233995736766e-17 -1.0 -2.971717264132814e-16 3.319411800407448e-32 5.
000000000000003e-05 17 522 0 559 509 298 408 519 520 0 0 +14 523 345 525 1.0e-08
 528 514 527 11 524 +0 0 528 514 9 51 524 346 0 523 529 515 0 +-5.0e-04 -1.99999
9999999999e-04 5.000000000000002e-05 -1.0 2.449293598294707e-16 0.0 5.0e-05 -2.4
49293598294707e-16 -1.0 6.123233995736766e-17 81 1 525 347 5 523 0 0 530 516 526
 83 3 526 0.470588237047195 0.24705882370472 0.015686275437474 15 527 348 0 168
 523 0 14 528 349 530 1.0e-08 541 523 532 11 529 +0 0 541 523 9 51 529 350 0 528
 542 524 0 +4.5e-04 -2.000000000000001e-04 5.999999999999999e-04 -1.499759782661
858e-32 -6.123233995736766e-17 -1.0 5.0e-05 2.449293598294707e-16 1.0 -6.1232339
95736766e-17 81 1 530 351 5 528 0 0 543 525 531 83 3 531 0.752941191196442 0.752
941191196442 0.752941191196442 15 532 352 0 533 528 0 17 533 0 532 151 370 101 5
36 534 0 148 -16 534 353 0 ?536 520 538 535 0 0 1 31 535 354 0 534 539 521 0 +4.
5e-04 -2.000000000000001e-04 5.5e-04 1.499759782661858e-32 6.123233995736766e-17
 1.0 -2.449293598294707e-16 -1.0 6.123233995736766e-17 5.0e-05 17 536 0 545 546
 109 360 533 534 0 370 +17 537 0 532 370 151 366 540 538 0 565 -16 538 355 0 ?54
0 534 547 539 0 0 1 31 539 356 0 538 548 535 0 +4.5e-04 -2.000000000000001e-04 5
.000000000000002e-05 -1.499759782661858e-32 -6.123233995736766e-17 -1.0 2.449293
598294707e-16 1.0 -6.123233995736766e-17 5.0e-05 17 540 0 564 193 565 143 537 53
8 0 151 +14 541 357 543 1.0e-08 550 528 545 11 542 +0 0 550 528 9 53 542 358 0 5
41 551 529 0 +4.5e-04 -2.000000000000001e-04 5.5e-04 5.0e-05 2.449293598294707e-
16 1.0 -6.123233995736766e-17 1.0 -2.449293598294707e-16 0.0 81 1 543 359 5 541
 0 0 552 530 544 83 3 544 0.752941191196442 0.752941191196442 0.752941191196442
 15 545 360 0 109 541 0 17 546 0 545 109 536 53 549 547 0 106 -16 547 361 0 ?549
 538 566 548 0 0 1 31 548 362 0 547 567 539 0 +4.5e-04 -2.000000000000001e-04 5.
5e-04 2.449293598294707e-16 1.0 -6.033334262001197e-16 -1.477740698429165e-31 -6
.033334262001197e-16 -1.0 5.000000000000003e-05 17 549 0 573 364 63 360 546 547
 0 359 +14 550 363 552 1.0e-08 555 541 554 11 551 +0 0 555 541 9 53 551 364 0 55
0 556 542 0 +-4.5e-04 2.000000000000001e-04 5.5e-04 5.0e-05 2.449293598294707e-1
6 1.0 -6.123233995736766e-17 1.0 -2.449293598294707e-16 0.0 81 1 552 365 5 550 0
 0 557 543 553 83 3 553 0.752941191196442 0.752941191196442 0.752941191196442 15
 554 366 0 513 550 0 14 555 367 557 1.0e-08 560 550 559 11 556 +0 0 560 550 9 53
 556 368 0 555 561 551 0 +-4.5e-04 2.000000000000001e-04 4.999999999999999e-05 5
.0e-05 2.449293598294707e-16 1.0 -6.123233995736766e-17 1.0 -2.449293598294707e-
16 0.0 81 1 557 369 5 555 0 0 562 552 558 83 3 558 0.752941191196442 0.752941191
196442 0.752941191196442 15 559 370 0 522 555 0 14 560 371 562 1.0e-08 569 555 5
64 11 561 +0 0 569 555 9 53 561 372 0 560 570 556 0 +4.5e-04 -2.000000000000001e
-04 5.000000000000002e-05 5.0e-05 2.449293598294707e-16 1.0 -6.123233995736766e-
17 1.0 -2.449293598294707e-16 0.0 81 1 562 373 5 560 0 0 571 557 563 83 3 563 0.
752941191196442 0.752941191196442 0.752941191196442 15 564 374 0 540 560 0 17 56
5 0 564 540 193 366 568 566 0 0 -16 566 375 0 ?568 547 575 567 0 0 1 31 567 376
 0 566 576 548 0 +4.5e-04 -2.000000000000001e-04 5.000000000000002e-05 2.4492935
98294707e-16 1.0 -6.123233995736766e-17 1.0 -2.449293598294707e-16 0.0 5.0000000
00000003e-05 17 568 0 592 235 374 185 565 566 0 232 +14 569 377 571 1.0e-08 578
 560 573 11 570 +0 0 578 560 9 51 570 378 0 569 579 561 0 +4.500000000000001e-04
 2.499999999999999e-04 5.5e-04 2.449293598294707e-16 1.0 -6.123233995736766e-17
 5.000000000000003e-05 -1.0 2.449293598294707e-16 0.0 81 1 571 379 5 569 0 0 580
 562 572 83 3 572 0.752941191196442 0.752941191196442 0.752941191196442 15 573 3
80 0 549 569 0 17 574 0 573 63 364 59 577 575 0 277 -16 575 381 0 ?577 566 594 5
76 0 0 1 31 576 382 0 575 595 567 0 +4.500000000000001e-04 1.999999999999999e-04
 5.5e-04 2.449293598294707e-16 1.0 -6.123233995736766e-17 -1.0 2.449293598294707
e-16 0.0 5.000000000000003e-05 17 577 0 601 602 277 352 574 575 0 605 +14 578 38
3 580 1.0e-08 583 569 582 11 579 +0 0 583 569 9 51 579 384 0 578 584 570 0 +5.0e
-04 1.999999999999999e-04 5.5e-04 -1.0 2.449293598294707e-16 0.0 5.0e-05 -2.4492
93598294707e-16 -1.0 6.123233995736766e-17 81 1 580 385 5 578 0 0 585 571 581 83
 3 581 0.470588237047195 0.24705882370472 0.015686275437474 15 582 386 0 246 578
 0 14 583 387 585 1.0e-08 588 578 587 11 584 +0 0 588 578 9 51 584 388 0 583 589
 579 0 +-4.999999999999999e-04 2.000000000000001e-04 4.999999999999999e-05 1.0 -
2.449293598294707e-16 0.0 5.0e-05 2.449293598294707e-16 1.0 -6.123233995736766e-
17 81 1 585 389 5 583 0 0 590 580 586 83 3 586 0.470588237047195 0.2470588237047
2 0.015686275437474 15 587 390 0 294 583 0 14 588 391 590 1.0e-08 597 583 592 11
 589 +0 0 597 583 9 51 589 392 0 588 598 584 0 +4.5e-04 -2.500000000000001e-04 5
.000000000000002e-05 -2.449293598294707e-16 -1.0 6.123233995736766e-17 5.0000000
00000003e-05 1.0 -2.449293598294707e-16 0.0 81 1 590 393 5 588 0 0 599 585 591 8
3 3 591 0.752941191196442 0.752941191196442 0.752941191196442 15 592 394 0 568 5
88 0 17 593 0 592 374 235 357 596 594 0 611 -16 594 395 0 ?596 575 603 595 0 0 1
 31 595 396 0 594 604 576 0 +4.500000000000001e-04 1.999999999999999e-04 4.99999
9999999999e-05 2.449293598294707e-16 1.0 -6.123233995736766e-17 -1.0 2.449293598
294707e-16 0.0 5.000000000000003e-05 17 596 0 610 319 611 227 593 594 0 235 +14
 597 397 599 1.0e-08 606 588 601 11 598 +0 0 606 588 9 53 598 398 0 597 607 589
 0 +4.500000000000001e-04 1.999999999999999e-04 5.5e-04 5.0e-05 2.44929359829470
7e-16 1.0 -6.123233995736766e-17 1.0 -2.449293598294707e-16 0.0 81 1 599 399 5 5
97 0 0 608 590 600 83 3 600 0.752941191196442 0.752941191196442 0.75294119119644
2 15 601 400 0 277 597 0 17 602 0 601 277 577 268 605 603 0 267 -16 603 401 0 ?6
05 594 612 604 0 0 1 31 604 402 0 603 613 595 0 +4.500000000000001e-04 1.9999999
99999999e-04 5.5e-04 -1.499759782661858e-32 -6.123233995736766e-17 -1.0 -2.44929
3598294707e-16 -1.0 6.123233995736766e-17 5.0e-05 17 605 0 619 356 345 352 602 6
03 0 0 +14 606 403 608 1.0e-08 615 597 610 11 607 +0 0 615 597 9 53 607 404 0 60
6 616 598 0 +4.500000000000001e-04 1.999999999999999e-04 4.999999999999999e-05 5
.0e-05 2.449293598294707e-16 1.0 -6.123233995736766e-17 1.0 -2.449293598294707e-
16 0.0 81 1 608 405 5 606 0 0 617 599 609 83 3 609 0.752941191196442 0.752941191
196442 0.752941191196442 15 610 406 0 596 606 0 17 611 0 610 596 319 357 614 612
 0 0 -16 612 407 0 ?614 603 0 613 0 0 1 31 613 408 0 612 0 604 0 +4.500000000000
001e-04 1.999999999999999e-04 4.999999999999999e-05 1.499759782661858e-32 6.1232
33995736766e-17 1.0 2.449293598294707e-16 1.0 -6.123233995736766e-17 5.0e-05 17
 614 0 619 345 356 311 611 612 0 310 +14 615 409 617 1.0e-08 0 606 619 11 616 +0
 0 0 606 9 51 616 410 0 615 0 607 0 +4.500000000000001e-04 1.999999999999999e-04
 5.999999999999999e-04 -1.499759782661858e-32 -6.123233995736766e-17 -1.0 5.0e-0
5 2.449293598294707e-16 1.0 -6.123233995736766e-17 81 1 617 411 5 615 0 0 0 608
 618 83 3 618 0.752941191196442 0.752941191196442 0.752941191196442 15 619 412 0
 605 615 0 1 0 
