**ABCDEFGHIJKLMNOPQRSTUVWXYZabcdefghijklmnopqrstuvwxyz**************************
**PARASOLID !"#$%&'()*+,-./:;<=>?@[\]^_`{|}~0123456789**************************
**PART1;
MC=AMD64;
MC_MODEL=Intel64 Family 6 Model 140 Stepping 1, GenuineIntel;
MC_ID=unknown;
OS=Windows_NT;
OS_RELEASE=unknown;
FRU=CAD Exchanger 3.23.0 (cadexchanger.com);
APPL=unknown;
SITE=unknown;
USER=unknown;
FORMAT=text;
GUISE=transmit;
KEY=RESC0402(1005)_L_CMP-009-00149-2;
FILE=RESC0402(1005)_L_CMP-009-00149-2.x_t;
DATE=Mon Oct  7 17:38:04 2024;
**PART2;
SCH=SCH_1200000_12103;
USFLD_SIZE=0;
**PART3;
**END_OF_HEADER*****************************************************************
T51 : TRANSMIT FILE created by modeller version 120000017 SCH_1200000_121030 12
 1 440 0 2 0 0 0 0 1000.0 1.0e-08 0 0 0 1 0 1 1 11 13 19 17 8 18 16 70 2 0 1 0 0
 4 1 20 0 3 3 1 T74 20 3 1 0 4 0 0 0 0 0 0 0 0 0 0 0 0 0 0 0 0 0 0 0 81 1 4 7 5
 12 0 0 41 0 7 80 1 5 0 6 8001 0 0 0 0 3 5 0 0 0 FFFFTFTFFFFFFF2 79 15 6 SDL/TYS
A_COLOUR83 3 7 0.752941191196442 0.752941191196442 0.752941191196442 19 8 1 0 1
 10 0 9 V13 9 2 0 1 0 0 0 0 8 12 19 10 3 0 1 0 8 11 S13 11 4 0 1 0 12 0 0 10 0 1
4 12 5 4 1.0e-08 39 0 14 11 13 +0 0 39 0 9 50 13 6 0 12 40 0 0 +-3.0e-04 -2.4991
872e-04 2.8e-04 1.0 -2.449293598294707e-16 0.0 0.0 0.0 -1.0 15 14 8 0 15 12 0 17
 15 0 14 23 35 16 20 18 0 28 +18 16 9 0 15 0 21 17 ?1 29 17 10 0 16 22 0 -3.0e-0
4 -2.449187199999999e-04 2.8e-04 16 18 11 0 ?15 0 26 19 0 0 1 30 19 12 0 18 27 0
 0 +-3.0e-04 -2.449187199999999e-04 2.4e-04 0.0 0.0 1.0 17 20 0 583 268 584 21 1
5 18 0 35 -18 21 13 0 20 16 24 22 ?1 29 22 14 0 21 25 17 -3.0e-04 -2.44918719999
9999e-04 2.4e-04 17 23 0 14 29 15 24 28 26 0 34 -18 24 15 0 23 21 30 25 ?1 29 25
 16 0 24 31 22 -3.0e-04 -2.499187199999999e-04 2.8e-04 16 26 17 0 ?28 18 32 27 0
 0 1 30 27 18 0 26 33 19 0 +-3.0e-04 -2.499187199999999e-04 2.8e-04 2.4492935982
94707e-16 1.0 0.0 17 28 0 385 386 394 16 23 26 0 584 +17 29 0 14 35 23 30 34 32
 0 38 +18 30 19 0 29 24 45 31 ?1 29 31 20 0 30 46 25 -3.0e-04 -2.499187199999999
e-04 2.4e-04 16 32 21 0 ?29 26 36 33 0 0 1 30 33 22 0 32 37 27 0 +-3.0e-04 -2.49
9187199999999e-04 2.8e-04 0.0 0.0 -1.0 17 34 0 402 397 274 24 29 32 0 394 -17 35
 0 14 15 29 21 38 36 0 265 +16 36 23 0 ?35 32 47 37 0 0 1 30 37 24 0 36 48 33 0
 +-3.0e-04 -2.499187199999999e-04 2.4e-04 2.449293598294707e-16 1.0 0.0 17 38 0
 254 269 265 30 35 36 0 274 -14 39 25 41 1.0e-08 68 12 43 11 40 +0 0 68 12 9 50
 40 26 0 39 69 13 0 +2.999999999999999e-04 -2.499187200000001e-04 2.8e-04 -1.0 2
.449293598294707e-16 0.0 0.0 0.0 1.0 81 1 41 27 5 39 0 0 70 4 42 83 3 42 0.75294
1191196442 0.752941191196442 0.752941191196442 15 43 28 0 44 39 0 17 44 0 43 52
 64 45 49 47 0 57 -18 45 29 0 44 30 50 46 ?1 29 46 30 0 45 51 31 2.9999999999999
99e-04 -2.449187200000001e-04 2.4e-04 16 47 31 0 ?49 36 55 48 0 0 1 30 48 32 0 4
7 56 37 0 +2.999999999999999e-04 -2.449187200000001e-04 2.4e-04 0.0 0.0 1.0 17 4
9 0 583 584 268 50 44 47 0 64 +18 50 33 0 561 45 53 51 ?1 29 51 34 0 50 54 46 2.
999999999999999e-04 -2.449187200000001e-04 2.8e-04 17 52 0 43 58 44 53 57 55 0 6
3 -18 53 35 0 52 50 59 54 ?1 29 54 36 0 53 60 51 2.999999999999999e-04 -2.499187
200000001e-04 2.4e-04 16 55 37 0 ?57 47 61 56 0 0 1 30 56 38 0 55 62 48 0 +2.999
999999999999e-04 -2.499187200000001e-04 2.4e-04 2.449293598294707e-16 1.0 0.0 17
 57 0 254 265 261 45 52 55 0 268 +17 58 0 43 64 52 59 63 61 0 67 +18 59 39 0 568
 53 74 60 ?1 29 60 40 0 59 75 54 2.999999999999999e-04 -2.499187200000001e-04 2.
8e-04 16 61 41 0 ?58 55 65 62 0 0 1 30 62 42 0 61 66 56 0 +2.999999999999999e-04
 -2.499187200000001e-04 2.8e-04 0.0 0.0 1.0 17 63 0 573 264 568 53 58 61 0 261 -
17 64 0 43 44 58 50 67 65 0 0 +16 65 43 0 ?64 61 76 66 0 0 1 30 66 44 0 65 77 62
 0 +2.999999999999999e-04 -2.499187200000001e-04 2.8e-04 2.449293598294707e-16 1
.0 0.0 17 67 0 556 565 561 59 64 65 0 0 -14 68 45 70 1.0e-08 109 39 72 11 69 -0
 0 109 39 9 50 69 46 0 68 110 40 0 +-4.6e-04 2.400812800000001e-04 2.4e-04 -2.44
9293598294707e-16 -1.0 0.0 0.0 0.0 -1.0 81 1 70 47 5 68 0 0 111 41 71 83 3 71 0.
501960813999176 0.501960813999176 0.501960813999176 15 72 48 0 73 68 0 17 73 0 7
2 81 105 74 78 76 0 86 +18 74 49 0 73 59 79 75 ?1 29 75 50 0 74 80 60 3.0e-04 2.
400812799999999e-04 4.0e-05 16 76 51 0 ?73 65 84 77 0 0 1 30 77 52 0 76 85 66 0
 +-4.6e-04 2.400812800000001e-04 4.0e-05 -1.0 2.449293598294707e-16 0.0 17 78 0
 412 413 425 79 73 76 0 105 -18 79 53 0 78 74 82 80 ?1 29 80 54 0 79 83 75 4.600
000000000001e-04 2.400812799999999e-04 4.0e-05 17 81 0 72 87 73 82 86 84 0 92 +1
8 82 55 0 173 79 88 83 ?1 29 83 56 0 82 89 80 -3.0e-04 2.400812800000001e-04 4.0
e-05 16 84 57 0 ?81 76 90 85 0 0 1 30 85 58 0 84 91 77 0 +-4.6e-04 2.40081280000
0001e-04 4.0e-05 -1.0 2.449293598294707e-16 0.0 17 86 0 154 155 159 74 81 84 0 4
25 -17 87 0 72 93 81 88 92 90 0 180 +18 88 59 0 98 82 94 89 ?1 29 89 60 0 88 95
 83 -4.6e-04 2.400812800000001e-04 4.0e-05 16 90 61 0 ?87 84 96 91 0 0 1 30 91 6
2 0 90 97 85 0 +-4.6e-04 2.400812800000001e-04 4.0e-05 -1.0 2.449293598294707e-1
6 0.0 17 92 0 167 168 180 82 87 90 0 159 -17 93 0 72 99 87 94 98 96 0 104 -18 94
 63 0 93 88 100 95 ?1 29 95 64 0 94 101 89 -4.6e-04 2.400812800000001e-04 2.4e-0
4 16 96 65 0 ?98 90 102 97 0 0 1 30 97 66 0 96 103 91 0 +-4.6e-04 2.400812800000
001e-04 2.4e-04 0.0 0.0 -1.0 17 98 0 283 183 215 88 93 96 0 87 +17 99 0 72 105 9
3 100 104 102 0 108 -18 100 67 0 99 94 115 101 ?1 29 101 68 0 100 116 95 4.60000
0000000001e-04 2.400812799999999e-04 2.4e-04 16 102 69 0 ?104 96 106 103 0 0 1 3
0 103 70 0 102 107 97 0 +-4.6e-04 2.400812800000001e-04 2.4e-04 -1.0 2.449293598
294707e-16 0.0 17 104 0 209 210 246 94 99 102 0 215 +17 105 0 72 73 99 79 108 10
6 0 418 +16 106 71 0 ?105 102 117 107 0 0 1 30 107 72 0 106 118 103 0 +4.6000000
00000001e-04 2.400812799999999e-04 2.4e-04 0.0 0.0 -1.0 17 108 0 454 249 418 100
 105 106 0 246 -14 109 73 111 1.0e-08 150 68 113 11 110 -0 0 150 68 9 50 110 74
 0 109 151 69 0 +-4.6e-04 -2.399187199999999e-04 2.4e-04 2.449293598294707e-16 1
.0 0.0 0.0 0.0 1.0 81 1 111 75 5 109 0 0 152 70 112 83 3 112 0.501960813999176 0
.501960813999176 0.501960813999176 15 113 76 0 114 109 0 17 114 0 113 122 146 11
5 119 117 0 127 +18 115 77 0 114 100 120 116 ?1 29 116 78 0 115 121 101 -3.0e-04
 -2.399187199999999e-04 4.0e-05 16 117 79 0 ?114 106 125 118 0 0 1 30 118 80 0 1
17 126 107 0 +-4.6e-04 -2.399187199999999e-04 4.0e-05 1.0 -2.449293598294707e-16
 0.0 17 119 0 188 189 201 120 114 117 0 194 -18 120 81 0 119 115 123 121 ?1 29 1
21 82 0 120 124 116 -4.600000000000001e-04 -2.399187199999999e-04 4.0e-05 17 122
 0 113 128 114 123 127 125 0 439 +18 123 83 0 122 120 129 124 ?1 29 124 84 0 123
 130 121 2.999999999999999e-04 -2.399187200000001e-04 4.0e-05 16 125 85 0 ?122 1
17 131 126 0 0 1 30 126 86 0 125 132 118 0 +-4.6e-04 -2.399187199999999e-04 4.0e
-05 1.0 -2.449293598294707e-16 0.0 17 127 0 154 159 155 115 122 125 0 201 -17 12
8 0 113 134 122 129 133 131 0 139 +18 129 87 0 446 123 135 130 ?1 29 130 88 0 12
9 136 124 4.6e-04 -2.399187200000001e-04 4.0e-05 16 131 89 0 ?128 125 137 132 0
 0 1 30 132 90 0 131 138 126 0 +-4.6e-04 -2.399187199999999e-04 4.0e-05 1.0 -2.4
49293598294707e-16 0.0 17 133 0 433 434 446 123 128 131 0 155 -17 134 0 113 140
 128 135 139 137 0 145 -18 135 91 0 134 129 141 136 ?1 29 136 92 0 135 142 130 4
.6e-04 -2.399187200000001e-04 2.4e-04 16 137 93 0 ?139 131 143 138 0 0 1 30 138
 94 0 137 144 132 0 +4.6e-04 -2.399187200000001e-04 2.4e-04 0.0 0.0 -1.0 17 139
 0 463 449 260 129 134 137 0 0 +17 140 0 113 146 134 141 145 143 0 149 -18 141 9
5 0 275 135 169 142 ?1 29 142 96 0 141 170 136 -4.600000000000001e-04 -2.3991871
99999999e-04 2.4e-04 16 143 97 0 ?145 137 147 144 0 0 1 30 144 98 0 143 148 138
 0 +-4.6e-04 -2.399187199999999e-04 2.4e-04 1.0 -2.449293598294707e-16 0.0 17 14
5 0 254 255 275 135 140 143 0 260 +17 146 0 113 114 140 120 149 147 0 0 +16 147
 99 0 ?146 143 156 148 0 0 1 30 148 100 0 147 157 144 0 +-4.6e-04 -2.39918719999
9999e-04 2.4e-04 0.0 0.0 -1.0 17 149 0 292 278 194 141 146 147 0 0 -14 150 101 1
52 1.0e-08 163 109 154 11 151 -0 0 163 109 9 50 151 102 0 150 164 110 0 +4.6e-04
 -2.399187200000001e-04 4.0e-05 0.0 0.0 1.0 1.0 -2.449293598294707e-16 0.0 81 1
 152 103 5 150 0 0 165 111 153 83 3 153 0.501960813999176 0.501960813999176 0.50
1960813999176 15 154 104 0 86 150 0 17 155 0 154 127 86 123 158 156 0 0 +16 156
 105 0 ?155 147 160 157 0 0 1 30 157 106 0 156 161 148 0 +2.999999999999999e-04
 -2.399187200000001e-04 4.0e-05 -2.449293598294707e-16 -1.0 0.0 17 158 0 493 428
 439 74 155 156 0 0 -17 159 0 154 86 127 82 162 160 0 0 +16 160 107 0 ?159 156 1
71 161 0 0 1 30 161 108 0 160 172 157 0 +-3.000000000000001e-04 -2.3991871999999
99e-04 4.0e-05 2.449293598294707e-16 1.0 0.0 17 162 0 351 204 173 115 159 160 0
 0 -14 163 109 165 1.0e-08 184 150 167 11 164 +0 0 184 150 9 50 164 110 0 163 18
5 151 0 +-4.600000000000001e-04 -2.499187199999999e-04 4.0e-05 0.0 0.0 1.0 1.0 -
2.449293598294707e-16 0.0 81 1 165 111 5 163 0 0 186 152 166 83 3 166 0.75294119
1196442 0.752941191196442 0.752941191196442 15 167 112 0 92 163 0 17 168 0 167 1
74 92 169 173 171 0 179 +18 169 113 0 352 141 175 170 ?1 29 170 114 0 169 176 14
2 -2.999999999999999e-04 2.500812800000001e-04 4.0e-05 16 171 115 0 ?168 160 177
 172 0 0 1 30 172 116 0 171 178 161 0 +-3.0e-04 -2.499187199999999e-04 4.0e-05 2
.449293598294707e-16 1.0 0.0 17 173 0 351 162 352 82 168 171 0 81 -17 174 0 167
 180 168 175 179 177 0 183 -18 175 117 0 174 169 190 176 ?1 29 176 118 0 175 191
 170 -4.6e-04 2.500812800000001e-04 4.0e-05 16 177 119 0 ?179 171 181 178 0 0 1
 30 178 120 0 177 182 172 0 +-4.6e-04 2.500812800000001e-04 4.0e-05 1.0 -2.44929
3598294707e-16 0.0 17 179 0 407 355 287 169 174 177 0 0 +17 180 0 167 92 174 88
 183 181 0 0 -16 181 121 0 ?183 177 192 182 0 0 1 30 182 122 0 181 193 178 0 +-4
.600000000000001e-04 -2.499187199999999e-04 4.0e-05 2.449293598294707e-16 1.0 0.
0 17 183 0 283 284 98 175 180 181 0 287 +14 184 123 186 1.0e-08 205 163 188 11 1
85 +0 0 205 163 9 50 185 124 0 184 206 164 0 +-4.600000000000001e-04 -2.49918719
9999999e-04 4.0e-05 0.0 0.0 1.0 1.0 -2.449293598294707e-16 0.0 81 1 186 125 5 18
4 0 0 207 165 187 83 3 187 0.752941191196442 0.752941191196442 0.752941191196442
 15 188 126 0 119 184 0 17 189 0 188 195 119 190 194 192 0 200 -18 190 127 0 189
 175 196 191 ?1 29 191 128 0 190 197 176 -4.600000000000001e-04 -2.4991871999999
99e-04 4.0e-05 16 192 129 0 ?194 181 198 193 0 0 1 30 193 130 0 192 199 182 0 +-
4.600000000000001e-04 -2.499187199999999e-04 4.0e-05 2.449293598294707e-16 1.0 0
.0 17 194 0 292 149 293 120 189 192 0 146 +17 195 0 188 201 189 196 200 198 0 20
4 +18 196 131 0 359 190 211 197 ?1 29 197 132 0 196 212 191 -3.0e-04 -2.49918719
9999999e-04 4.0e-05 16 198 133 0 ?195 192 202 199 0 0 1 30 199 134 0 198 203 193
 0 +-4.600000000000001e-04 -2.499187199999999e-04 4.0e-05 1.0 -2.449293598294707
e-16 0.0 17 200 0 402 296 359 190 195 198 0 293 -17 201 0 188 119 195 115 204 20
2 0 162 +16 202 135 0 ?201 198 213 203 0 0 1 30 203 136 0 202 214 199 0 +-3.0e-0
4 -2.499187199999999e-04 4.0e-05 2.449293598294707e-16 1.0 0.0 17 204 0 351 356
 162 196 201 202 0 0 -14 205 137 207 1.0e-08 250 184 209 11 206 +0 0 250 184 9 5
0 206 138 0 205 251 185 0 +-3.0e-04 -2.4991872e-04 2.4e-04 -1.6940658945086e-16
 4.14926475050931e-32 -1.0 -1.0 2.449293598294707e-16 1.6940658945086e-16 81 1 2
07 139 5 205 0 0 252 186 208 83 3 208 0.752941191196442 0.752941191196442 0.7529
41191196442 15 209 140 0 104 205 0 17 210 0 209 216 104 211 215 213 0 284 +18 21
1 141 0 210 196 217 212 ?1 29 212 142 0 211 218 197 -4.6e-04 2.500812800000001e-
04 2.4e-04 16 213 143 0 ?210 202 219 214 0 0 1 30 214 144 0 213 220 203 0 +-4.60
0000000000001e-04 -2.499187199999999e-04 2.4e-04 2.449293598294707e-16 1.0 0.0 1
7 215 0 283 98 284 94 210 213 0 0 -17 216 0 209 222 210 217 221 219 0 227 -18 21
7 145 0 376 211 223 218 ?1 29 218 146 0 217 224 212 -2.999999999999999e-04 2.500
812800000001e-04 2.4e-04 16 219 147 0 ?221 213 225 220 0 0 1 30 220 148 0 219 22
6 214 0 +-2.999999999999999e-04 2.500812800000001e-04 2.4e-04 -1.0 2.44929359829
4707e-16 1.6940658945086e-16 17 221 0 407 287 376 211 216 219 0 0 +17 222 0 209
 228 216 223 227 225 0 233 -18 223 149 0 365 217 229 224 ?1 29 224 150 0 223 230
 218 -2.999999999999999e-04 2.450812799999999e-04 2.4e-04 16 225 151 0 ?227 219
 231 226 0 0 1 30 226 152 0 225 232 220 0 +-3.0e-04 -2.499187199999999e-04 2.4e-
04 2.449293598294707e-16 1.0 0.0 17 227 0 364 371 365 217 222 225 0 0 +17 228 0
 209 234 222 229 233 231 0 239 -18 229 153 0 478 223 235 230 ?1 29 230 154 0 229
 236 224 3.0e-04 2.450812799999998e-04 2.4e-04 16 231 155 0 ?233 225 237 232 0 0
 1 30 232 156 0 231 238 226 0 +-2.999999999999999e-04 2.450812800000001e-04 2.4e
-04 -1.0 2.449293598294707e-16 0.0 17 233 0 592 368 478 223 228 231 0 0 +17 234
 0 209 240 228 235 239 237 0 0 +18 235 157 0 485 229 241 236 ?1 29 236 158 0 235
 242 230 3.0e-04 2.500812799999999e-04 2.4e-04 16 237 159 0 ?234 231 243 238 0 0
 1 30 238 160 0 237 244 232 0 +2.999999999999999e-04 -2.499187200000001e-04 2.4e
-04 2.449293598294707e-16 1.0 0.0 17 239 0 472 473 485 229 234 237 0 0 -17 240 0
 209 246 234 241 245 243 0 249 -18 241 161 0 458 235 256 242 ?1 29 242 162 0 241
 257 236 4.600000000000001e-04 2.500812799999999e-04 2.4e-04 16 243 163 0 ?245 2
37 247 244 0 0 1 30 244 164 0 243 248 238 0 +3.0e-04 2.500812799999999e-04 2.4e-
04 -1.0 2.449293598294707e-16 -1.6940658945086e-16 17 245 0 578 488 458 235 240
 243 0 234 +17 246 0 209 104 240 100 249 247 0 0 -16 247 165 0 ?249 243 258 248
 0 0 1 30 248 166 0 247 259 244 0 +4.6e-04 -2.499187200000001e-04 2.4e-04 2.4492
93598294707e-16 1.0 0.0 17 249 0 454 455 108 241 246 247 0 0 +14 250 167 252 1.0
e-08 279 205 254 11 251 +0 0 279 205 9 50 251 168 0 250 280 206 0 +-3.0e-04 -2.4
991872e-04 2.4e-04 -1.6940658945086e-16 4.14926475050931e-32 -1.0 -1.0 2.4492935
98294707e-16 1.6940658945086e-16 81 1 252 169 5 250 0 0 281 207 253 83 3 253 0.7
52941191196442 0.752941191196442 0.752941191196442 15 254 170 0 145 250 0 17 255
 0 254 261 145 256 260 258 0 264 -18 256 171 0 464 241 270 257 ?1 29 257 172 0 2
56 271 242 4.6e-04 -2.499187200000001e-04 2.4e-04 16 258 173 0 ?260 247 262 259
 0 0 1 30 259 174 0 258 263 248 0 +4.6e-04 -2.499187200000001e-04 2.4e-04 2.4492
93598294707e-16 1.0 0.0 17 260 0 463 139 464 135 255 258 0 0 +17 261 0 254 57 25
5 53 264 262 0 0 +16 262 175 0 ?261 258 266 263 0 0 1 30 263 176 0 262 267 259 0
 +2.999999999999999e-04 -2.499187200000001e-04 2.4e-04 -1.0 2.449293598294707e-1
6 -1.6940658945086e-16 17 264 0 573 467 63 256 261 262 0 0 -17 265 0 254 38 57 2
1 268 266 0 0 -16 266 177 0 ?268 262 272 267 0 0 1 30 267 178 0 266 273 263 0 +-
3.0e-04 -2.449187199999999e-04 2.4e-04 1.0 -2.449293598294707e-16 0.0 17 268 0 5
83 49 20 45 265 266 0 0 +17 269 0 254 275 38 270 274 272 0 0 +18 270 179 0 278 2
56 303 271 ?1 29 271 180 0 270 304 257 -4.600000000000001e-04 -2.499187199999999
e-04 2.4e-04 16 272 181 0 ?269 266 276 273 0 0 1 30 273 182 0 272 277 267 0 +-3.
0e-04 -2.499187199999999e-04 2.4e-04 -1.0 2.449293598294707e-16 1.6940658945086e
-16 17 274 0 402 34 296 30 269 272 0 0 -17 275 0 254 145 269 141 278 276 0 140 +
16 276 183 0 ?275 272 285 277 0 0 1 30 277 184 0 276 286 273 0 +-4.6000000000000
01e-04 -2.499187199999999e-04 2.4e-04 2.449293598294707e-16 1.0 0.0 17 278 0 292
 293 149 270 275 276 0 296 -14 279 185 281 1.0e-08 288 250 283 11 280 +0 0 288 2
50 9 50 280 186 0 279 289 251 0 +-4.600000000000001e-04 -2.499187199999999e-04 4
.0e-05 1.0 -2.449293598294707e-16 0.0 0.0 0.0 -1.0 81 1 281 187 5 279 0 0 290 25
2 282 83 3 282 0.752941191196442 0.752941191196442 0.752941191196442 15 283 188
 0 98 279 0 17 284 0 283 215 183 211 287 285 0 221 -16 285 189 0 ?287 276 294 28
6 0 0 1 30 286 190 0 285 295 277 0 +-4.6e-04 2.500812800000001e-04 4.0e-05 0.0 0
.0 -1.0 17 287 0 407 179 221 175 284 285 0 0 +14 288 191 290 1.0e-08 297 279 292
 11 289 +0 0 297 279 9 50 289 192 0 288 298 280 0 +-4.600000000000001e-04 -2.499
187199999999e-04 4.0e-05 1.0 -2.449293598294707e-16 0.0 0.0 0.0 -1.0 81 1 290 19
3 5 288 0 0 299 281 291 83 3 291 0.752941191196442 0.752941191196442 0.752941191
196442 15 292 194 0 149 288 0 17 293 0 292 194 278 190 296 294 0 0 +16 294 195 0
 ?293 285 305 295 0 0 1 30 295 196 0 294 306 286 0 +-4.600000000000001e-04 -2.49
9187199999999e-04 4.0e-05 0.0 0.0 -1.0 17 296 0 402 274 200 270 293 294 0 269 -1
4 297 197 299 1.0e-08 326 288 301 11 298 +0 0 326 288 9 50 298 198 0 297 327 289
 0 +-5.000000000000001e-04 -2.499187199999999e-04 0.0 -1.0 2.449293598294707e-16
 0.0 0.0 0.0 1.0 81 1 299 199 5 297 0 0 328 290 300 83 3 300 0.752941191196442 0
.752941191196442 0.752941191196442 15 301 200 0 302 297 0 17 302 0 301 310 322 3
03 307 305 0 315 +18 303 201 0 390 270 308 304 ?1 29 304 202 0 303 309 271 -4.99
9999999999999e-04 2.500812800000001e-04 2.8e-04 16 305 203 0 ?302 294 313 306 0
 0 1 30 306 204 0 305 314 295 0 +-5.000000000000001e-04 -2.499187199999999e-04 2
.8e-04 2.449293598294707e-16 1.0 0.0 17 307 0 385 394 390 308 302 305 0 0 -18 30
8 205 0 322 303 311 309 ?1 29 309 206 0 308 312 304 -5.000000000000001e-04 -2.49
9187199999999e-04 2.8e-04 17 310 0 301 316 302 311 315 313 0 321 -18 311 207 0 3
36 308 317 312 ?1 29 312 208 0 311 318 309 -4.999999999999999e-04 2.500812800000
001e-04 0.0 16 313 209 0 ?315 305 319 314 0 0 1 30 314 210 0 313 320 306 0 +-4.9
99999999999999e-04 2.500812800000001e-04 0.0 0.0 0.0 1.0 17 315 0 407 393 336 30
3 310 313 0 0 +17 316 0 301 322 310 317 321 319 0 0 -18 317 211 0 325 311 332 31
8 ?1 29 318 212 0 317 333 312 -5.000000000000001e-04 -2.499187199999999e-04 0.0
 16 319 213 0 ?321 313 323 320 0 0 1 30 320 214 0 319 324 314 0 +-5.000000000000
001e-04 -2.499187199999999e-04 0.0 2.449293598294707e-16 1.0 0.0 17 321 0 330 33
1 343 311 316 319 0 0 +17 322 0 301 302 316 308 325 323 0 397 +16 323 215 0 ?322
 319 334 324 0 0 1 30 324 216 0 323 335 320 0 +-5.000000000000001e-04 -2.4991871
99999999e-04 0.0 0.0 0.0 1.0 17 325 0 402 346 397 317 322 323 0 343 -14 326 217
 328 1.0e-08 347 297 330 11 327 +0 0 347 297 9 50 327 218 0 326 348 298 0 +-5.00
0000000000001e-04 -2.499187199999999e-04 0.0 0.0 0.0 -1.0 -1.0 2.449293598294707
e-16 0.0 81 1 328 219 5 326 0 0 349 299 329 83 3 329 0.752941191196442 0.7529411
91196442 0.752941191196442 15 330 220 0 321 326 0 17 331 0 330 337 321 332 336 3
34 0 342 -18 332 221 0 331 317 338 333 ?1 29 333 222 0 332 339 318 -2.9999999999
99999e-04 2.500812800000001e-04 0.0 16 334 223 0 ?336 323 340 335 0 0 1 30 335 2
24 0 334 341 324 0 +-4.999999999999999e-04 2.500812800000001e-04 0.0 -1.0 2.4492
93598294707e-16 0.0 17 336 0 407 315 355 311 331 334 0 310 +17 337 0 330 343 331
 338 342 340 0 346 -18 338 225 0 337 332 369 339 ?1 29 339 226 0 338 370 333 -3.
0e-04 -2.499187199999999e-04 0.0 16 340 227 0 ?342 334 344 341 0 0 1 30 341 228
 0 340 345 335 0 +-3.0e-04 -2.499187199999999e-04 0.0 2.449293598294707e-16 1.0
 0.0 17 342 0 351 352 356 332 337 340 0 355 +17 343 0 330 321 337 317 346 344 0
 316 +16 344 229 0 ?343 340 353 345 0 0 1 30 345 230 0 344 354 341 0 +-5.0000000
00000001e-04 -2.499187199999999e-04 0.0 -1.0 2.449293598294707e-16 0.0 17 346 0
 402 359 325 338 343 344 0 356 -14 347 231 349 1.0e-08 360 326 351 11 348 +0 0 3
60 326 9 50 348 232 0 347 361 327 0 +-3.0e-04 -2.4991872e-04 0.0 1.0 -2.44929359
8294707e-16 0.0 0.0 0.0 -1.0 81 1 349 233 5 347 0 0 362 328 350 83 3 350 0.75294
1191196442 0.752941191196442 0.752941191196442 15 351 234 0 342 347 0 17 352 0 3
51 173 342 169 355 353 0 168 -16 353 235 0 ?355 344 357 354 0 0 1 30 354 236 0 3
53 358 345 0 +-2.999999999999999e-04 2.500812800000001e-04 0.0 0.0 0.0 -1.0 17 3
55 0 407 336 179 332 352 353 0 0 +17 356 0 351 342 204 338 359 357 0 0 +16 357 2
37 0 ?356 353 366 358 0 0 1 30 358 238 0 357 367 354 0 +-3.0e-04 -2.499187199999
999e-04 0.0 0.0 0.0 -1.0 17 359 0 402 200 346 196 356 357 0 195 -14 360 239 362
 1.0e-08 381 347 364 11 361 +0 0 381 347 9 50 361 240 0 360 382 348 0 +-3.0e-04
 -2.4991872e-04 2.8e-04 1.0 -2.449293598294707e-16 0.0 0.0 0.0 -1.0 81 1 362 241
 5 360 0 0 383 349 363 83 3 363 0.752941191196442 0.752941191196442 0.7529411911
96442 15 364 242 0 365 360 0 17 365 0 364 227 377 223 368 366 0 222 -16 366 243
 0 ?368 357 374 367 0 0 1 30 367 244 0 366 375 358 0 +-2.999999999999999e-04 2.4
50812800000001e-04 2.4e-04 0.0 0.0 1.0 17 368 0 592 593 233 369 365 366 0 377 +1
8 369 245 0 628 338 372 370 ?1 29 370 246 0 369 373 339 -2.999999999999999e-04 2
.450812799999999e-04 2.8e-04 17 371 0 364 377 227 372 376 374 0 380 -18 372 247
 0 371 369 414 373 ?1 29 373 248 0 372 415 370 -2.999999999999999e-04 2.50081280
0000001e-04 2.8e-04 16 374 249 0 ?376 366 378 375 0 0 1 30 375 250 0 374 379 367
 0 +-2.999999999999999e-04 2.500812800000001e-04 2.8e-04 0.0 0.0 -1.0 17 376 0 4
07 221 393 217 371 374 0 216 +17 377 0 364 365 371 369 380 378 0 386 -16 378 251
 0 ?380 374 387 379 0 0 1 30 379 252 0 378 388 375 0 +-3.0e-04 -2.49918719999999
9e-04 2.8e-04 2.449293598294707e-16 1.0 0.0 17 380 0 385 390 386 372 377 378 0 3
93 +14 381 253 383 1.0e-08 398 360 385 11 382 +0 0 398 360 9 50 382 254 0 381 39
9 361 0 +-5.000000000000001e-04 -2.499187199999999e-04 2.8e-04 0.0 0.0 1.0 1.0 -
2.449293598294707e-16 0.0 81 1 383 255 5 381 0 0 400 362 384 83 3 384 0.75294119
1196442 0.752941191196442 0.752941191196442 15 385 256 0 28 381 0 17 386 0 385 3
80 28 369 389 387 0 0 -16 387 257 0 ?389 378 391 388 0 0 1 30 388 258 0 387 392
 379 0 +-2.999999999999999e-04 2.450812800000001e-04 2.8e-04 -2.449293598294707e
-16 -1.0 0.0 17 389 0 637 638 628 16 386 387 0 0 +17 390 0 385 307 380 303 393 3
91 0 302 -16 391 259 0 ?393 387 395 392 0 0 1 30 392 260 0 391 396 388 0 +-4.999
999999999999e-04 2.500812800000001e-04 2.8e-04 1.0 -2.449293598294707e-16 0.0 17
 393 0 407 376 315 372 390 391 0 0 +17 394 0 385 28 307 24 397 395 0 0 +16 395 2
61 0 ?394 391 416 396 0 0 1 30 396 262 0 395 417 392 0 +-5.000000000000001e-04 -
2.499187199999999e-04 2.8e-04 1.0 -2.449293598294707e-16 0.0 17 397 0 402 325 34
 308 394 395 0 307 -14 398 263 400 1.0e-08 403 381 402 11 399 -0 0 403 381 9 50
 399 264 0 398 404 382 0 +-5.000000000000001e-04 -2.499187199999999e-04 2.8e-04
 2.449293598294707e-16 1.0 0.0 0.0 0.0 1.0 81 1 400 265 5 398 0 0 405 383 401 83
 3 401 0.752941191196442 0.752941191196442 0.752941191196442 15 402 266 0 325 39
8 0 14 403 267 405 1.0e-08 408 398 407 11 404 +0 0 408 398 9 50 404 268 0 403 40
9 399 0 +-4.999999999999999e-04 2.500812800000001e-04 2.8e-04 2.449293598294707e
-16 1.0 0.0 0.0 0.0 1.0 81 1 405 269 5 403 0 0 410 400 406 83 3 406 0.7529411911
96442 0.752941191196442 0.752941191196442 15 407 270 0 315 403 0 14 408 271 410
 1.0e-08 429 403 412 11 409 +0 0 429 403 9 50 409 272 0 408 430 404 0 +4.6e-04 -
2.499187200000001e-04 4.0e-05 0.0 0.0 1.0 1.0 -2.449293598294707e-16 0.0 81 1 41
0 273 5 408 0 0 431 405 411 83 3 411 0.752941191196442 0.752941191196442 0.75294
1191196442 15 412 274 0 78 408 0 17 413 0 412 419 78 414 418 416 0 424 +18 414 2
75 0 413 372 420 415 ?1 29 415 276 0 414 421 373 4.600000000000001e-04 2.5008127
99999999e-04 4.0e-05 16 416 277 0 ?413 395 422 417 0 0 1 30 417 278 0 416 423 39
6 0 +4.6e-04 -2.499187200000001e-04 4.0e-05 2.449293598294707e-16 1.0 0.0 17 418
 0 454 108 455 79 413 416 0 0 -17 419 0 412 425 413 420 424 422 0 428 -18 420 27
9 0 499 414 435 421 ?1 29 421 280 0 420 436 415 3.0e-04 2.500812799999999e-04 4.
0e-05 16 422 281 0 ?424 416 426 423 0 0 1 30 423 282 0 422 427 417 0 +4.60000000
0000001e-04 2.500812799999999e-04 4.0e-05 1.0 -2.449293598294707e-16 0.0 17 424
 0 578 458 499 414 419 422 0 455 +17 425 0 412 78 419 74 428 426 0 158 -16 426 2
83 0 ?428 422 437 427 0 0 1 30 427 284 0 426 438 423 0 +2.999999999999999e-04 -2
.499187200000001e-04 4.0e-05 2.449293598294707e-16 1.0 0.0 17 428 0 493 494 158
 420 425 426 0 0 +14 429 285 431 1.0e-08 450 408 433 11 430 +0 0 450 408 9 50 43
0 286 0 429 451 409 0 +4.6e-04 -2.499187200000001e-04 4.0e-05 0.0 0.0 1.0 1.0 -2
.449293598294707e-16 0.0 81 1 431 287 5 429 0 0 452 410 432 83 3 432 0.752941191
196442 0.752941191196442 0.752941191196442 15 433 288 0 133 429 0 17 434 0 433 4
40 133 435 439 437 0 0 -18 435 289 0 506 420 441 436 ?1 29 436 290 0 435 442 421
 2.999999999999999e-04 -2.499187200000001e-04 4.0e-05 16 437 291 0 ?439 426 443
 438 0 0 1 30 438 292 0 437 444 427 0 +2.999999999999999e-04 -2.499187200000001e
-04 4.0e-05 2.449293598294707e-16 1.0 0.0 17 439 0 493 158 506 123 434 437 0 133
 +17 440 0 433 446 434 441 445 443 0 449 +18 441 293 0 440 435 474 442 ?1 29 442
 294 0 441 475 436 4.6e-04 -2.499187200000001e-04 4.0e-05 16 443 295 0 ?440 437
 447 444 0 0 1 30 444 296 0 443 448 438 0 +4.6e-04 -2.499187200000001e-04 4.0e-0
5 1.0 -2.449293598294707e-16 0.0 17 445 0 573 509 467 435 440 443 0 434 -17 446
 0 433 133 440 129 449 447 0 128 +16 447 297 0 ?446 443 456 448 0 0 1 30 448 298
 0 447 457 444 0 +4.6e-04 -2.499187200000001e-04 4.0e-05 2.449293598294707e-16 1
.0 0.0 17 449 0 463 464 139 441 446 447 0 467 -14 450 299 452 1.0e-08 459 429 45
4 11 451 +0 0 459 429 9 50 451 300 0 450 460 430 0 +4.6e-04 -2.499187200000001e-
04 4.0e-05 -1.0 2.449293598294707e-16 0.0 0.0 0.0 1.0 81 1 452 301 5 450 0 0 461
 431 453 83 3 453 0.752941191196442 0.752941191196442 0.752941191196442 15 454 3
02 0 108 450 0 17 455 0 454 418 249 414 458 456 0 0 -16 456 303 0 ?458 447 465 4
57 0 0 1 30 457 304 0 456 466 448 0 +4.600000000000001e-04 2.500812799999999e-04
 4.0e-05 0.0 0.0 1.0 17 458 0 578 245 424 241 455 456 0 240 +14 459 305 461 1.0e
-08 468 450 463 11 460 +0 0 468 450 9 50 460 306 0 459 469 451 0 +4.6e-04 -2.499
187200000001e-04 4.0e-05 -1.0 2.449293598294707e-16 0.0 0.0 0.0 1.0 81 1 461 307
 5 459 0 0 470 452 462 83 3 462 0.752941191196442 0.752941191196442 0.7529411911
96442 15 463 308 0 139 459 0 17 464 0 463 260 449 256 467 465 0 255 +16 465 309
 0 ?464 456 476 466 0 0 1 30 466 310 0 465 477 457 0 +4.6e-04 -2.499187200000001
e-04 4.0e-05 0.0 0.0 1.0 17 467 0 573 445 264 441 464 465 0 0 -14 468 311 470 1.
0e-08 489 459 472 11 469 +0 0 489 459 9 50 469 312 0 468 490 460 0 +2.9999999999
99999e-04 -2.499187200000001e-04 2.8e-04 -1.0 2.449293598294707e-16 0.0 0.0 0.0
 1.0 81 1 470 313 5 468 0 0 491 461 471 83 3 471 0.752941191196442 0.75294119119
6442 0.752941191196442 15 472 314 0 473 468 0 17 473 0 472 479 239 474 478 476 0
 484 +18 474 315 0 564 441 480 475 ?1 29 475 316 0 474 481 442 3.0e-04 2.4508127
99999999e-04 2.8e-04 16 476 317 0 ?473 465 482 477 0 0 1 30 477 318 0 476 483 46
6 0 +3.0e-04 2.450812799999999e-04 2.4e-04 0.0 0.0 1.0 17 478 0 592 233 593 229
 473 476 0 228 -17 479 0 472 485 473 480 484 482 0 0 +18 480 319 0 488 474 495 4
81 ?1 29 481 320 0 480 496 475 3.0e-04 2.500812799999999e-04 2.8e-04 16 482 321
 0 ?479 476 486 483 0 0 1 30 483 322 0 482 487 477 0 +2.999999999999999e-04 -2.4
99187200000001e-04 2.8e-04 2.449293598294707e-16 1.0 0.0 17 484 0 556 561 557 47
4 479 482 0 0 -17 485 0 472 239 479 235 488 486 0 245 -16 486 323 0 ?488 482 497
 487 0 0 1 30 487 324 0 486 498 483 0 +3.0e-04 2.500812799999999e-04 2.8e-04 0.0
 0.0 1.0 17 488 0 578 560 245 480 485 486 0 557 +14 489 325 491 1.0e-08 510 468
 493 11 490 +0 0 510 468 9 50 490 326 0 489 511 469 0 +2.999999999999999e-04 -2.
499187200000001e-04 0.0 -1.0 2.449293598294707e-16 0.0 0.0 0.0 1.0 81 1 491 327
 5 489 0 0 512 470 492 83 3 492 0.752941191196442 0.752941191196442 0.7529411911
96442 15 493 328 0 439 489 0 17 494 0 493 500 428 495 499 497 0 505 -18 495 329
 0 494 480 501 496 ?1 29 496 330 0 495 502 481 3.0e-04 2.500812799999999e-04 0.0
 16 497 331 0 ?499 486 503 498 0 0 1 30 498 332 0 497 504 487 0 +3.0e-04 2.50081
2799999999e-04 0.0 0.0 0.0 1.0 17 499 0 578 424 520 420 494 497 0 419 +17 500 0
 493 506 494 501 505 503 0 509 -18 501 333 0 527 495 516 502 ?1 29 502 334 0 501
 517 496 2.999999999999999e-04 -2.499187200000001e-04 0.0 16 503 335 0 ?505 497
 507 504 0 0 1 30 504 336 0 503 508 498 0 +2.999999999999999e-04 -2.499187200000
001e-04 0.0 2.449293598294707e-16 1.0 0.0 17 505 0 514 515 527 495 500 503 0 520
 +17 506 0 493 439 500 435 509 507 0 445 +16 507 337 0 ?506 503 518 508 0 0 1 30
 508 338 0 507 519 504 0 +2.999999999999999e-04 -2.499187200000001e-04 0.0 0.0 0
.0 1.0 17 509 0 573 530 445 501 506 507 0 0 -14 510 339 512 1.0e-08 531 489 514
 11 511 +0 0 531 489 9 50 511 340 0 510 532 490 0 +4.999999999999999e-04 -2.4991
87200000001e-04 0.0 0.0 0.0 -1.0 -1.0 2.449293598294707e-16 0.0 81 1 512 341 5 5
10 0 0 533 491 513 83 3 513 0.752941191196442 0.752941191196442 0.75294119119644
2 15 514 342 0 505 510 0 17 515 0 514 521 505 516 520 518 0 0 -18 516 343 0 526
 501 522 517 ?1 29 517 344 0 516 523 502 5.000000000000001e-04 2.500812799999999
e-04 0.0 16 518 345 0 ?520 507 524 519 0 0 1 30 519 346 0 518 525 508 0 +5.00000
0000000001e-04 2.500812799999999e-04 0.0 -1.0 2.449293598294707e-16 0.0 17 520 0
 578 499 541 495 515 518 0 0 +17 521 0 514 527 515 522 526 524 0 530 -18 522 347
 0 521 516 537 523 ?1 29 523 348 0 522 538 517 4.999999999999999e-04 -2.49918720
0000001e-04 0.0 16 524 349 0 ?526 518 528 525 0 0 1 30 525 350 0 524 529 519 0 +
4.999999999999999e-04 -2.499187200000001e-04 0.0 2.449293598294707e-16 1.0 0.0 1
7 526 0 535 536 548 516 521 524 0 541 +17 527 0 514 505 521 501 530 528 0 500 +1
6 528 351 0 ?527 524 539 529 0 0 1 30 529 352 0 528 540 525 0 +4.999999999999999
e-04 -2.499187200000001e-04 0.0 -1.0 2.449293598294707e-16 0.0 17 530 0 573 551
 509 522 527 528 0 548 -14 531 353 533 1.0e-08 552 510 535 11 532 +0 0 552 510 9
 50 532 354 0 531 553 511 0 +4.999999999999999e-04 -2.499187200000001e-04 0.0 1.
0 -2.449293598294707e-16 0.0 0.0 0.0 -1.0 81 1 533 355 5 531 0 0 554 512 534 83
 3 534 0.752941191196442 0.752941191196442 0.752941191196442 15 535 356 0 526 53
1 0 17 536 0 535 542 526 537 541 539 0 547 -18 537 357 0 536 522 543 538 ?1 29 5
38 358 0 537 544 523 5.000000000000001e-04 2.500812799999999e-04 2.8e-04 16 539
 359 0 ?541 528 545 540 0 0 1 30 540 360 0 539 546 529 0 +5.000000000000001e-04
 2.500812799999999e-04 0.0 0.0 0.0 -1.0 17 541 0 578 520 560 516 536 539 0 515 +
17 542 0 535 548 536 543 547 545 0 551 -18 543 361 0 565 537 603 544 ?1 29 544 3
62 0 543 604 538 4.999999999999999e-04 -2.499187200000001e-04 2.8e-04 16 545 363
 0 ?547 539 549 546 0 0 1 30 546 364 0 545 550 540 0 +4.999999999999999e-04 -2.4
99187200000001e-04 2.8e-04 2.449293598294707e-16 1.0 0.0 17 547 0 556 557 565 53
7 542 545 0 560 +17 548 0 535 526 542 522 551 549 0 0 +16 549 365 0 ?548 545 558
 550 0 0 1 30 550 366 0 549 559 546 0 +4.999999999999999e-04 -2.499187200000001e
-04 0.0 0.0 0.0 -1.0 17 551 0 573 568 530 543 548 549 0 0 -14 552 367 554 1.0e-0
8 569 531 556 11 553 +0 0 569 531 9 50 553 368 0 552 570 532 0 +4.99999999999999
9e-04 -2.499187200000001e-04 2.8e-04 0.0 0.0 1.0 1.0 -2.449293598294707e-16 0.0
 81 1 554 369 5 552 0 0 571 533 555 83 3 555 0.752941191196442 0.752941191196442
 0.752941191196442 15 556 370 0 547 552 0 17 557 0 556 484 547 480 560 558 0 479
 -16 558 371 0 ?560 549 562 559 0 0 1 30 559 372 0 558 563 550 0 +5.000000000000
001e-04 2.500812799999999e-04 2.8e-04 1.0 -2.449293598294707e-16 0.0 17 560 0 57
8 541 488 537 557 558 0 0 +17 561 0 556 67 484 50 564 562 0 614 -16 562 373 0 ?5
64 558 566 563 0 0 1 30 563 374 0 562 567 559 0 +3.0e-04 2.450812799999999e-04 2
.8e-04 3.555622345728894e-16 1.0 0.0 17 564 0 601 602 614 474 561 562 0 593 +17
 565 0 556 547 67 543 568 566 0 542 +16 566 375 0 ?565 562 585 567 0 0 1 30 567
 376 0 566 586 563 0 +4.999999999999999e-04 -2.499187200000001e-04 2.8e-04 1.0 -
2.449293598294707e-16 0.0 17 568 0 573 63 551 59 565 566 0 58 -14 569 377 571 1.
0e-08 574 552 573 11 570 +0 0 574 552 9 50 570 378 0 569 575 553 0 +2.9999999999
99999e-04 -2.499187200000001e-04 2.4e-04 -2.449293598294707e-16 -1.0 0.0 0.0 0.0
 -1.0 81 1 571 379 5 569 0 0 576 554 572 83 3 572 0.752941191196442 0.7529411911
96442 0.752941191196442 15 573 380 0 63 569 0 14 574 381 576 1.0e-08 579 569 578
 11 575 -0 0 579 569 9 50 575 382 0 574 580 570 0 +3.0e-04 2.500812799999999e-04
 2.4e-04 -2.449293598294707e-16 -1.0 0.0 0.0 0.0 -1.0 81 1 576 383 5 574 0 0 581
 571 577 83 3 577 0.752941191196442 0.752941191196442 0.752941191196442 15 578 3
84 0 488 574 0 14 579 385 581 1.0e-08 588 574 583 11 580 +0 0 588 574 9 50 580 3
86 0 579 589 575 0 +-3.0e-04 -2.449187199999999e-04 2.400000000000001e-04 -2.449
293598294707e-16 -1.0 0.0 0.0 0.0 -1.0 81 1 581 387 5 579 0 0 590 576 582 83 3 5
82 0.117647059261799 0.117647059261799 0.117647059261799 15 583 388 0 584 579 0
 17 584 0 583 20 49 16 587 585 0 643 -16 585 389 0 ?587 566 594 586 0 0 1 30 586
 390 0 585 595 567 0 +-3.0e-04 -2.449187199999999e-04 2.8e-04 1.0 -2.44929359829
4707e-16 0.0 17 587 0 652 617 643 50 584 585 0 49 +14 588 391 590 1.0e-08 597 57
9 592 11 589 +0 0 597 579 9 50 589 392 0 588 598 580 0 +-2.999999999999999e-04 2
.450812800000001e-04 2.400000000000001e-04 2.449293598294707e-16 1.0 0.0 0.0 0.0
 1.0 81 1 590 393 5 588 0 0 599 581 591 83 3 591 0.117647059261799 0.11764705926
1799 0.117647059261799 15 592 394 0 593 588 0 17 593 0 592 478 368 474 596 594 0
 607 -16 594 395 0 ?596 585 605 595 0 0 1 30 595 396 0 594 606 586 0 +-2.9999999
99999999e-04 2.450812800000001e-04 2.8e-04 -1.0 2.449293598294707e-16 0.0 17 596
 0 622 623 607 369 593 594 0 368 +14 597 397 599 1.0e-08 618 588 601 11 598 +0 0
 618 588 9 50 598 398 0 597 619 589 0 +3.0e-04 2.450812799999999e-04 2.8e-04 0.8
66025403784438 -3.079259277664837e-16 0.500000000000001 0.500000000000001 -1.224
646799147356e-16 -0.866025403784438 81 1 599 399 5 597 0 0 620 590 600 83 3 600
 0.117647059261799 0.117647059261799 0.117647059261799 15 601 400 0 564 597 0 17
 602 0 601 608 564 603 607 605 0 613 -18 603 401 0 629 543 609 604 ?1 29 604 402
 0 603 610 544 2.884529946162075e-04 2.335342746162074e-04 3.0e-04 16 605 403 0
 ?607 594 611 606 0 0 1 30 606 404 0 605 612 595 0 +1.799999999999997e-04 1.2508
12799999995e-04 4.878460969082655e-04 0.447213595499959 0.447213595499959 -0.774
596669241483 17 607 0 622 596 629 474 602 605 0 473 +17 608 0 601 614 602 609 61
3 611 0 656 -18 609 405 0 617 603 624 610 ?1 29 610 406 0 609 625 604 2.88452994
6162073e-04 -2.333717146162075e-04 3.0e-04 16 611 407 0 ?613 605 615 612 0 0 1 3
0 612 408 0 611 616 606 0 +2.884529946162075e-04 2.450812799999999e-04 3.0e-04 3
.555622345728894e-16 1.0 0.0 17 613 0 661 632 656 603 608 611 0 0 +17 614 0 601
 564 608 50 617 615 0 587 +16 615 409 0 ?614 611 626 616 0 0 1 30 616 410 0 615
 627 612 0 +2.019999999999996e-04 -1.469187199999998e-04 4.497409791417502e-04 0
.447213595499959 -0.447213595499959 -0.774596669241483 17 617 0 652 653 587 609
 614 615 0 608 -14 618 411 620 1.0e-08 633 597 622 11 619 +0 0 633 597 9 50 619
 412 0 618 634 598 0 +-2.999999999999999e-04 2.450812800000001e-04 2.8e-04 2.121
150477449812e-16 0.866025403784438 0.500000000000001 -1.224646799147356e-16 -0.5
00000000000001 0.866025403784438 81 1 620 413 5 618 0 0 635 599 621 83 3 621 0.1
17647059261799 0.117647059261799 0.117647059261799 15 622 414 0 596 618 0 17 623
 0 622 629 596 624 628 626 0 632 -18 624 415 0 623 609 639 625 ?1 29 625 416 0 6
24 640 610 -2.884529946162074e-04 2.335342746162075e-04 3.0e-04 16 626 417 0 ?62
8 615 630 627 0 0 1 30 627 418 0 626 631 616 0 +-2.999999999999999e-04 2.4508128
00000001e-04 2.8e-04 -0.447213595499959 0.447213595499959 -0.774596669241483 17
 628 0 637 389 644 369 623 626 0 596 +17 629 0 622 607 623 603 632 630 0 602 -16
 630 419 0 ?632 626 641 631 0 0 1 30 631 420 0 630 642 627 0 +-2.999999999999999
e-04 2.335342746162075e-04 3.0e-04 -1.0 2.449293598294707e-16 0.0 17 632 0 661 6
47 613 624 629 630 0 644 +14 633 421 635 1.0e-08 648 618 637 11 634 +0 0 648 618
 9 50 634 422 0 633 649 619 0 +-2.999999999999999e-04 2.450812800000001e-04 2.8e
-04 -0.866025403784438 2.121150477449812e-16 0.500000000000001 0.500000000000001
 -1.224646799147356e-16 0.866025403784438 81 1 635 423 5 633 0 0 650 620 636 83
 3 636 0.117647059261799 0.117647059261799 0.117647059261799 15 637 424 0 389 63
3 0 17 638 0 637 644 389 639 643 641 0 647 -18 639 425 0 638 624 0 640 ?1 29 640
 426 0 639 0 625 -2.884529946162075e-04 -2.333717146162074e-04 3.0e-04 16 641 42
7 0 ?643 630 645 642 0 0 1 30 642 428 0 641 646 631 0 +-3.0e-04 -2.4491871999999
99e-04 2.8e-04 -0.447213595499959 -0.447213595499959 -0.774596669241483 17 643 0
 652 587 653 16 638 641 0 389 +17 644 0 637 628 638 624 647 645 0 0 -16 645 429
 0 ?647 641 654 646 0 0 1 30 646 430 0 645 655 642 0 +-2.884529946162074e-04 2.4
50812800000001e-04 3.0e-04 -2.449293598294707e-16 -1.0 0.0 17 647 0 661 656 632
 639 644 645 0 653 +14 648 431 650 1.0e-08 657 633 652 11 649 +0 0 657 633 9 50
 649 432 0 648 658 634 0 +-3.0e-04 -2.449187199999999e-04 2.8e-04 -2.12115047744
9812e-16 -0.866025403784438 0.500000000000001 -1.224646799147356e-16 -0.50000000
0000001 -0.866025403784438 81 1 650 433 5 648 0 0 659 635 651 83 3 651 0.1176470
59261799 0.117647059261799 0.117647059261799 15 652 434 0 587 648 0 17 653 0 652
 643 617 639 656 654 0 0 -16 654 435 0 ?656 645 0 655 0 0 1 30 655 436 0 654 0 6
46 0 +-3.0e-04 -2.333717146162074e-04 3.0e-04 1.0 -2.449293598294707e-16 0.0 17
 656 0 661 613 647 609 653 654 0 0 +14 657 437 659 1.0e-08 0 648 661 11 658 +0 0
 0 648 9 50 658 438 0 657 0 649 0 +2.999999999999998e-04 -2.449187200000001e-04
 3.0e-04 0.0 0.0 1.0 1.0 -2.449293598294707e-16 0.0 81 1 659 439 5 657 0 0 0 650
 660 83 3 660 0.117647059261799 0.117647059261799 0.117647059261799 15 661 440 0
 613 657 0 1 0 
