**ABCDEFGHIJKLMNOPQRSTUVWXYZabcdefghijklmnopqrstuvwxyz**************************
**PARASOLID !"#$%&'()*+,-./:;<=>?@[\]^_`{|}~0123456789**************************
**PART1;
MC=AMD64;
MC_MODEL=Intel64 Family 6 Model 140 Stepping 1, GenuineIntel;
MC_ID=unknown;
OS=Windows_NT;
OS_RELEASE=unknown;
FRU=CAD Exchanger 3.23.0 (cadexchanger.com);
APPL=unknown;
SITE=unknown;
USER=unknown;
FORMAT=text;
GUISE=transmit;
KEY=ROHM-SOT723-3_V_CMP-013-00026-1;
FILE=ROHM-SOT723-3_V_CMP-013-00026-1.x_t;
DATE=Mon Oct  7 17:38:03 2024;
**PART2;
SCH=SCH_1200000_12103;
USFLD_SIZE=0;
**PART3;
**END_OF_HEADER*****************************************************************
T51 : TRANSMIT FILE created by modeller version 120000017 SCH_1200000_121030 12
 1 440 0 2 0 0 0 0 1000.0 1.0e-08 0 0 0 1 0 1 1 11 13 19 17 8 18 16 70 2 0 1 0 0
 4 1 20 0 3 3 1 T74 20 3 1 0 4 0 0 0 0 0 0 0 0 0 0 0 0 0 0 0 0 0 0 0 81 1 4 7 5
 12 0 0 157 0 7 80 1 5 0 6 8001 0 0 0 0 3 5 0 0 0 FFFFTFTFFFFFFF2 79 15 6 SDL/TY
SA_COLOUR83 3 7 0.294117629528046 0.294117629528046 0.294117629528046 19 8 1 0 1
 10 0 9 V13 9 2 0 1 0 0 0 0 8 12 19 10 3 0 1 0 8 11 S13 11 4 0 1 0 12 0 0 10 0 1
4 12 5 4 1.0e-08 155 0 14 11 13 +0 0 155 0 9 50 13 6 0 12 156 0 0 +4.25000000000
0001e-04 6.249999999999996e-04 0.0 0.0 0.0 -1.0 -1.0 1.83697019872103e-16 0.0 15
 14 8 0 15 12 0 17 15 0 14 23 151 16 20 18 0 28 +18 16 9 0 15 0 21 17 ?1 29 17 1
0 0 16 22 0 -3.749999999999999e-04 5.350000000000001e-04 0.0 16 18 11 0 ?15 0 26
 19 0 0 1 30 19 12 0 18 27 0 0 +-3.749999999999999e-04 6.249999999999999e-04 0.0
 1.83697019872103e-16 1.0 0.0 17 20 0 192 193 165 21 15 18 0 151 -18 21 13 0 20
 16 24 22 ?1 29 22 14 0 21 25 17 -3.749999999999999e-04 2.65e-04 0.0 17 23 0 14
 29 15 24 28 26 0 34 +18 24 15 0 23 21 30 25 ?1 29 25 16 0 24 31 22 -4.249999999
999999e-04 5.350000000000001e-04 0.0 16 26 17 0 ?23 18 32 27 0 0 1 30 27 18 0 26
 33 19 0 +4.250000000000001e-04 5.349999999999999e-04 0.0 -1.0 1.83697019872103e
-16 0.0 17 28 0 159 160 184 16 23 26 0 165 -17 29 0 14 35 23 30 34 32 0 45 +18 3
0 19 0 29 24 36 31 ?1 29 31 20 0 30 37 25 -4.249999999999999e-04 6.1500000000000
01e-04 0.0 16 32 21 0 ?29 26 38 33 0 0 1 30 33 22 0 32 39 27 0 +-4.2499999999999
99e-04 6.249999999999999e-04 0.0 1.83697019872103e-16 1.0 0.0 17 34 0 234 187 23
5 24 29 32 0 184 -17 35 0 14 46 29 36 45 38 0 51 +18 36 23 0 35 30 47 37 ?1 29 3
7 24 0 36 48 31 -4.14938460957625e-04 6.250000000000001e-04 1.35525271560688e-20
 16 38 25 0 ?35 32 49 39 0 0 1 134 39 26 0 38 50 33 0 +40 44 136 40 3 4 4 2 1 FF
T1 41 42 43 45 16 41 -4.249999999999999e-04 6.150000000000001e-04 0.0 1.0 -3.420
13588002855e-04 4.996278254943948e-04 0.0 0.804737854124365 -3.386597416553967e-
04 5.029611588277282e-04 0.0 0.804737854124365 -4.14938460957625e-04 6.250000000
000001e-04 1.35525271560688e-20 1.0 127 2 42 4 4 128 2 43 0.0 1.570796326794895
 135 44 1 0 17 45 0 507 238 498 30 35 38 0 235 -17 46 0 14 52 35 47 51 49 0 62 +
18 47 27 0 46 36 53 48 ?1 29 48 28 0 47 54 37 4.149384609576252e-04 6.2499999999
99996e-04 0.0 16 49 29 0 ?46 38 55 50 0 0 1 30 50 30 0 49 56 39 0 +4.25000000000
0001e-04 6.249999999999999e-04 0.0 1.0 -1.83697019872103e-16 0.0 17 51 0 492 493
 487 36 46 49 0 498 -17 52 0 14 63 46 53 62 55 0 405 +18 53 31 0 52 47 64 54 ?1
 29 54 32 0 53 65 48 4.250000000000001e-04 6.149999999999997e-04 1.0585170106150
32e-22 16 55 33 0 ?52 49 66 56 0 0 1 134 56 34 0 55 67 50 0 +57 61 136 57 3 4 4
 2 1 FFT1 58 59 60 45 16 58 4.149384609576252e-04 6.249999999999996e-04 0.0 1.0
 3.38659741655397e-04 5.029611588277277e-04 0.0 0.804737854124365 3.420135880028
55e-04 4.996278254943944e-04 0.0 0.804737854124365 4.250000000000001e-04 6.14999
9999999997e-04 1.058517010615032e-22 1.0 127 2 59 4 4 128 2 60 1.570796326794895
 3.141592653589795 135 61 1 0 17 62 0 477 484 405 47 52 55 0 487 -17 63 0 14 69
 52 64 68 66 0 74 +18 64 35 0 396 53 70 65 ?1 29 65 36 0 64 71 54 4.25e-04 1.349
999999999999e-04 -4.906582079461851e-21 16 66 37 0 ?63 55 72 67 0 0 1 30 67 38 0
 66 73 56 0 +4.250000000000001e-04 6.249999999999996e-04 0.0 -1.83697019872103e-
16 -1.0 0.0 17 68 0 383 400 396 53 63 66 0 0 -17 69 0 14 75 63 70 74 72 0 80 +18
 70 39 0 447 64 76 71 ?1 29 71 40 0 70 77 65 3.750000000000001e-04 1.35e-04 0.0
 16 72 41 0 ?69 66 78 73 0 0 1 30 73 42 0 72 79 67 0 +4.25e-04 1.349999999999999
e-04 0.0 -1.0 1.83697019872103e-16 0.0 17 74 0 456 399 447 64 69 72 0 0 -17 75 0
 14 81 69 76 80 78 0 86 +18 76 43 0 420 70 82 77 ?1 29 77 44 0 76 83 71 3.750000
000000001e-04 -1.350000000000001e-04 0.0 16 78 45 0 ?75 72 84 79 0 0 1 30 79 46
 0 78 85 73 0 +3.750000000000002e-04 6.249999999999996e-04 0.0 -1.83697019872103
e-16 -1.0 0.0 17 80 0 441 442 420 70 75 78 0 0 -17 81 0 14 87 75 82 86 84 0 92 +
18 82 47 0 389 76 88 83 ?1 29 83 48 0 82 89 77 4.25e-04 -1.350000000000001e-04 -
7.87741530157698e-21 16 84 49 0 ?81 78 90 85 0 0 1 30 85 50 0 84 91 79 0 +4.25e-
04 -1.350000000000001e-04 0.0 1.0 -1.83697019872103e-16 0.0 17 86 0 414 415 389
 76 81 84 0 0 -17 87 0 14 93 81 88 92 90 0 103 +18 88 51 0 374 82 94 89 ?1 29 89
 52 0 88 95 83 4.249999999999999e-04 -6.150000000000001e-04 0.0 16 90 53 0 ?87 8
4 96 91 0 0 1 30 91 54 0 90 97 85 0 +4.250000000000001e-04 6.249999999999996e-04
 0.0 -1.83697019872103e-16 -1.0 0.0 17 92 0 383 384 374 82 87 90 0 0 -17 93 0 14
 104 87 94 103 96 0 109 +18 94 55 0 359 88 105 95 ?1 29 95 56 0 94 106 89 4.1493
8460957625e-04 -6.250000000000001e-04 0.0 16 96 57 0 ?93 90 107 97 0 0 1 134 97
 58 0 96 108 91 0 +98 102 136 98 3 4 4 2 1 FFT1 99 100 101 45 16 99 4.2499999999
99999e-04 -6.150000000000001e-04 0.0 1.0 3.420135880028548e-04 -4.99627825494394
1e-04 0.0 0.804737854124365 3.386597416553968e-04 -5.029611588277279e-04 0.0 0.8
04737854124365 4.14938460957625e-04 -6.250000000000001e-04 0.0 1.0 127 2 100 4 4
 128 2 101 3.141592653589795 4.71238898038469 135 102 1 0 17 103 0 368 369 359 8
8 93 96 0 0 -17 104 0 14 110 93 105 109 107 0 120 +18 105 59 0 348 94 111 106 ?1
 29 106 60 0 105 112 95 -4.149384609576255e-04 -6.249999999999999e-04 0.0 16 107
 61 0 ?104 96 113 108 0 0 1 30 108 62 0 107 114 97 0 +4.249999999999999e-04 -6.2
50000000000001e-04 0.0 -1.0 1.83697019872103e-16 0.0 17 109 0 353 354 348 94 104
 107 0 0 -17 110 0 14 121 104 111 120 113 0 126 +18 111 63 0 110 105 122 112 ?1
 29 112 64 0 111 123 106 -4.250000000000003e-04 -6.149999999999999e-04 8.6798394
87043211e-21 16 113 65 0 ?110 107 124 114 0 0 1 134 114 66 0 113 125 108 0 +115
 119 136 115 3 4 4 2 1 FFT1 116 117 118 45 16 116 -4.149384609576255e-04 -6.2499
99999999999e-04 0.0 1.0 -3.386597416553975e-04 -5.029611588277271e-04 0.0 0.8047
37854124366 -3.42013588002856e-04 -4.996278254943951e-04 0.0 0.804737854124366 -
4.250000000000003e-04 -6.149999999999999e-04 8.679839487043211e-21 1.0 127 2 117
 4 4 128 2 118 4.71238898038469 6.283185307179591 135 119 1 0 17 120 0 338 345 2
66 105 110 113 0 0 -17 121 0 14 127 110 122 126 124 0 132 +18 122 67 0 121 111 1
28 123 ?1 29 123 68 0 122 129 112 -4.250000000000002e-04 -5.349999999999999e-04
 1.082646645695712e-20 16 124 69 0 ?121 113 130 125 0 0 1 30 125 70 0 124 131 11
4 0 +-4.249999999999999e-04 6.249999999999999e-04 0.0 1.83697019872103e-16 1.0 0
.0 17 126 0 234 261 257 111 121 124 0 266 -17 127 0 14 133 121 128 132 130 0 138
 +18 128 71 0 127 122 134 129 ?1 29 129 72 0 128 135 123 -3.750000000000001e-04
 -5.349999999999999e-04 0.0 16 130 73 0 ?127 124 136 131 0 0 1 30 131 74 0 130 1
37 125 0 +4.249999999999999e-04 -5.350000000000001e-04 0.0 1.0 -1.83697019872103
e-16 0.0 17 132 0 317 260 308 122 127 130 0 257 -17 133 0 14 139 127 134 138 136
 0 144 +18 134 75 0 133 128 140 135 ?1 29 135 76 0 134 141 129 -3.75e-04 -2.6499
99999999999e-04 0.0 16 136 77 0 ?133 130 142 137 0 0 1 30 137 78 0 136 143 131 0
 +-3.749999999999999e-04 6.249999999999999e-04 0.0 1.83697019872103e-16 1.0 0.0
 17 138 0 302 303 281 128 133 136 0 308 -17 139 0 14 145 133 140 144 142 0 150 +
18 140 79 0 139 134 146 141 ?1 29 141 80 0 140 147 135 -4.250000000000001e-04 -2
.649999999999999e-04 6.229884793119719e-21 16 142 81 0 ?139 136 148 143 0 0 1 30
 143 82 0 142 149 137 0 +4.249999999999999e-04 -2.65e-04 0.0 -1.0 1.836970198721
03e-16 0.0 17 144 0 275 276 250 134 139 142 0 281 -17 145 0 14 151 139 146 150 1
48 0 154 +18 146 83 0 145 140 161 147 ?1 29 147 84 0 146 162 141 -4.25e-04 2.65e
-04 5.03990679892832e-21 16 148 85 0 ?145 142 152 149 0 0 1 30 149 86 0 148 153
 143 0 +-4.249999999999999e-04 6.249999999999999e-04 0.0 1.83697019872103e-16 1.
0 0.0 17 150 0 234 245 213 140 145 148 0 250 -17 151 0 14 15 145 21 154 152 0 19
8 +16 152 87 0 ?151 148 163 153 0 0 1 30 153 88 0 152 164 149 0 +4.25e-04 2.65e-
04 0.0 1.0 -1.83697019872103e-16 0.0 17 154 0 207 208 198 146 151 152 0 213 -14
 155 89 157 1.0e-08 188 12 159 11 156 -0 0 188 12 9 50 156 90 0 155 189 13 0 +-3
.749999999999999e-04 5.350000000000001e-04 -5.0e-06 -1.83697019872103e-16 -1.0 0
.0 1.0 -1.83697019872103e-16 0.0 81 1 157 91 5 155 0 0 190 4 158 83 3 158 1.0 1.
0 1.0 15 159 92 0 160 155 0 17 160 0 159 166 28 161 165 163 0 171 -18 161 93 0 1
60 146 167 162 ?1 29 162 94 0 161 168 147 -3.749999999999999e-04 5.3500000000000
01e-04 -5.0e-06 16 163 95 0 ?165 152 169 164 0 0 1 30 164 96 0 163 170 153 0 +-3
.749999999999999e-04 5.350000000000001e-04 -5.0e-06 0.0 0.0 1.0 17 165 0 192 20
 199 16 160 163 0 0 +17 166 0 159 172 160 167 171 169 0 177 -18 167 97 0 166 161
 173 168 ?1 29 168 98 0 167 174 162 -5.249999999999998e-04 5.350000000000001e-04
 -5.0e-06 16 169 99 0 ?171 163 175 170 0 0 1 30 170 100 0 169 176 164 0 +-3.7499
99999999999e-04 5.350000000000001e-04 -5.0e-06 1.0 -1.83697019872103e-16 0.0 17
 171 0 516 202 517 161 166 169 0 199 +17 172 0 159 178 166 173 177 175 0 183 -18
 173 101 0 172 167 179 174 ?1 29 174 102 0 173 180 168 -5.249999999999998e-04 5.
350000000000001e-04 1.65e-04 16 175 103 0 ?177 169 181 176 0 0 1 30 176 104 0 17
5 182 170 0 +-5.249999999999998e-04 5.350000000000001e-04 -5.0e-06 0.0 0.0 -1.0
 17 177 0 525 520 526 167 172 175 0 517 +17 178 0 159 184 172 179 183 181 0 187
 -18 179 105 0 178 173 194 180 ?1 29 180 106 0 179 195 174 -4.066666666666666e-0
4 5.350000000000001e-04 1.65e-04 16 181 107 0 ?183 175 185 182 0 0 1 30 182 108
 0 181 186 176 0 +-3.749999999999999e-04 5.350000000000001e-04 1.65e-04 -1.0 1.8
3697019872103e-16 0.0 17 183 0 534 529 244 173 178 181 0 526 +17 184 0 159 28 17
8 24 187 185 0 0 -16 185 109 0 ?187 181 196 186 0 0 1 30 186 110 0 185 197 182 0
 +-4.249999999999999e-04 5.350000000000001e-04 0.0 0.110431526074846 -2.02859422
3987768e-17 0.993883734673619 17 187 0 234 241 34 179 184 185 0 244 +14 188 111
 190 1.0e-08 203 155 192 11 189 -0 0 203 155 9 50 189 112 0 188 204 156 0 +-3.74
9999999999999e-04 5.350000000000001e-04 -5.0e-06 -1.0 1.83697019872103e-16 0.0 0
.0 0.0 -1.0 81 1 190 113 5 188 0 0 205 157 191 83 3 191 1.0 1.0 1.0 15 192 114 0
 193 188 0 17 193 0 192 199 20 194 198 196 0 202 -18 194 115 0 193 179 209 195 ?
1 29 195 116 0 194 210 180 -3.749999999999999e-04 2.65e-04 -5.0e-06 16 196 117 0
 ?198 185 200 197 0 0 1 30 197 118 0 196 201 186 0 +-3.749999999999999e-04 2.65e
-04 -5.0e-06 0.0 0.0 1.0 17 198 0 207 154 226 21 193 196 0 0 +17 199 0 192 165 1
93 161 202 200 0 0 -16 200 119 0 ?202 196 211 201 0 0 1 30 201 120 0 200 212 197
 0 +-3.749999999999999e-04 5.350000000000001e-04 -5.0e-06 -1.83697019872103e-16
 -1.0 0.0 17 202 0 516 229 171 194 199 200 0 226 +14 203 121 205 1.0e-08 230 188
 207 11 204 -0 0 230 188 9 50 204 122 0 203 231 189 0 +-3.749999999999999e-04 2.
650000000000001e-04 -5.0e-06 1.83697019872103e-16 1.0 0.0 0.0 0.0 1.0 81 1 205 1
23 5 203 0 0 232 190 206 83 3 206 1.0 1.0 1.0 15 207 124 0 208 203 0 17 208 0 20
7 214 154 209 213 211 0 219 -18 209 125 0 208 194 215 210 ?1 29 210 126 0 209 21
6 195 -4.066666666666666e-04 2.65e-04 1.65e-04 16 211 127 0 ?213 200 217 212 0 0
 1 30 212 128 0 211 218 201 0 +-4.066666666666666e-04 2.65e-04 1.65e-04 -0.11043
1526074846 2.028594223987764e-17 -0.993883734673619 17 213 0 234 150 241 146 208
 211 0 0 +17 214 0 207 220 208 215 219 217 0 225 -18 215 129 0 214 209 221 216 ?
1 29 216 130 0 215 222 210 -5.250000000000001e-04 2.650000000000001e-04 1.65e-04
 16 217 131 0 ?219 211 223 218 0 0 1 30 218 132 0 217 224 212 0 +-3.749999999999
999e-04 2.65e-04 1.65e-04 1.0 -1.83697019872103e-16 0.0 17 219 0 534 244 529 209
 214 217 0 241 +17 220 0 207 226 214 221 225 223 0 229 -18 221 133 0 220 215 239
 222 ?1 29 222 134 0 221 240 216 -5.250000000000001e-04 2.650000000000001e-04 -5
.0e-06 16 223 135 0 ?225 217 227 224 0 0 1 30 224 136 0 223 228 218 0 +-5.250000
000000001e-04 2.650000000000001e-04 -5.0e-06 0.0 0.0 1.0 17 225 0 525 526 520 21
5 220 223 0 529 +17 226 0 207 198 220 194 229 227 0 0 -16 227 137 0 ?229 223 236
 228 0 0 1 30 228 138 0 227 237 224 0 +-3.749999999999999e-04 2.65e-04 -5.0e-06
 -1.0 1.83697019872103e-16 0.0 17 229 0 516 517 202 221 226 227 0 520 +14 230 13
9 232 1.0e-08 271 203 234 11 231 -0 0 271 203 9 50 231 140 0 230 272 204 0 +-4.2
50000000000004e-04 -6.249999999999999e-04 0.0 0.993883734673619 -4.3611957529563
98e-16 -0.110431526074847 1.836970198721029e-16 1.0 -2.295957541734011e-15 81 1
 232 141 5 230 0 0 273 205 233 83 3 233 0.294117629528046 0.294117629528046 0.29
4117629528046 15 234 142 0 235 230 0 17 235 0 234 34 267 30 238 236 0 0 -16 236
 143 0 ?238 227 242 237 0 0 1 30 237 144 0 236 243 228 0 +-4.249999999999999e-04
 6.150000000000001e-04 -3.471935794817285e-20 0.110431526074847 -2.0285942239877
75e-17 0.993883734673619 17 238 0 507 508 45 239 235 236 0 267 +18 239 145 0 238
 221 246 240 ?1 29 240 146 0 239 247 222 -3.759884094154723e-04 6.15000000000000
1e-04 4.411043152607485e-04 17 241 0 234 213 187 209 244 242 0 0 -16 242 147 0 ?
244 236 248 243 0 0 1 30 243 148 0 242 249 237 0 +-4.066666666666671e-04 -6.2499
99999999999e-04 1.65e-04 4.356923598185185e-16 1.0 -2.79994822162684e-17 17 244
 0 534 183 219 179 241 242 0 0 +17 245 0 234 251 150 246 250 248 0 256 -18 246 1
49 0 245 239 252 247 ?1 29 247 150 0 246 253 240 -4.066666666666669e-04 -2.64999
9999999999e-04 1.65e-04 16 248 151 0 ?250 242 254 249 0 0 1 30 249 152 0 248 255
 243 0 +-4.250000000000003e-04 -2.649999999999999e-04 -1.007981359785664e-20 -0.
110431526074847 2.028594223987775e-17 -0.993883734673619 17 250 0 275 144 294 14
0 245 248 0 0 +17 251 0 234 257 245 252 256 254 0 260 -18 252 153 0 251 246 262
 253 ?1 29 253 154 0 252 263 247 -4.066666666666671e-04 -5.349999999999999e-04 1
.65e-04 16 254 155 0 ?256 248 258 255 0 0 1 30 255 156 0 254 259 249 0 +-4.06666
6666666671e-04 -6.249999999999999e-04 1.65e-04 4.356923598185185e-16 1.0 -2.7999
4822162684e-17 17 256 0 560 297 323 246 251 254 0 294 +17 257 0 234 126 251 122
 260 258 0 0 -16 258 157 0 ?260 254 264 259 0 0 1 30 259 158 0 258 265 255 0 +-4
.250000000000004e-04 -5.349999999999999e-04 -2.519953399464161e-21 0.11043152607
4847 -2.028594223987775e-17 0.993883734673619 17 260 0 317 318 132 252 257 258 0
 323 +17 261 0 234 267 126 262 266 264 0 270 -18 262 159 0 339 252 277 263 ?1 29
 263 160 0 262 278 253 -3.759884094154728e-04 -6.149999999999999e-04 4.411043152
607485e-04 16 264 161 0 ?266 258 268 265 0 0 1 30 265 162 0 264 269 259 0 +-4.25
0000000000004e-04 -6.149999999999999e-04 -2.79994822162685e-22 -0.11043152607484
7 2.028594223987775e-17 -0.993883734673619 17 266 0 338 120 339 111 261 264 0 0
 +17 267 0 234 235 261 239 270 268 0 511 -16 268 163 0 ?270 264 279 269 0 0 1 30
 269 164 0 268 280 265 0 +-3.759884094154728e-04 -6.249999999999999e-04 4.411043
152607485e-04 -4.356923598185185e-16 -1.0 2.79994822162684e-17 17 270 0 539 546
 540 262 267 268 0 551 +14 271 165 273 1.0e-08 298 230 275 11 272 -0 0 298 230 9
 50 272 166 0 271 299 231 0 +-3.75e-04 -2.649999999999999e-04 -5.0e-06 -1.836970
19872103e-16 -1.0 0.0 1.0 -1.83697019872103e-16 0.0 81 1 273 167 5 271 0 0 300 2
32 274 83 3 274 1.0 1.0 1.0 15 275 168 0 276 271 0 17 276 0 275 282 144 277 281
 279 0 287 -18 277 169 0 276 262 283 278 ?1 29 278 170 0 277 284 263 -3.75e-04 -
2.649999999999999e-04 -5.0e-06 16 279 171 0 ?281 268 285 280 0 0 1 30 280 172 0
 279 286 269 0 +-3.75e-04 -2.649999999999999e-04 -5.0e-06 0.0 0.0 1.0 17 281 0 3
02 138 309 134 276 279 0 0 +17 282 0 275 288 276 283 287 285 0 293 -18 283 173 0
 282 277 289 284 ?1 29 284 174 0 283 290 278 -5.250000000000001e-04 -2.649999999
999998e-04 -5.0e-06 16 285 175 0 ?287 279 291 286 0 0 1 30 286 176 0 285 292 280
 0 +-3.75e-04 -2.649999999999999e-04 -5.0e-06 1.0 -1.83697019872103e-16 0.0 17 2
87 0 569 312 570 277 282 285 0 309 +17 288 0 275 294 282 289 293 291 0 297 -18 2
89 177 0 288 283 304 290 ?1 29 290 178 0 289 305 284 -5.250000000000001e-04 -2.6
49999999999998e-04 1.65e-04 16 291 179 0 ?293 285 295 292 0 0 1 30 292 180 0 291
 296 286 0 +-5.250000000000001e-04 -2.649999999999998e-04 -5.0e-06 0.0 0.0 -1.0
 17 293 0 578 573 564 283 288 291 0 570 +17 294 0 275 250 288 246 297 295 0 0 -1
6 295 181 0 ?297 291 306 296 0 0 1 30 296 182 0 295 307 292 0 +-3.75e-04 -2.6499
99999999999e-04 1.65e-04 -1.0 1.83697019872103e-16 0.0 17 297 0 560 561 256 289
 294 295 0 564 +14 298 183 300 1.0e-08 313 271 302 11 299 -0 0 313 271 9 50 299
 184 0 298 314 272 0 +-3.750000000000001e-04 -5.349999999999999e-04 -5.0e-06 -1.
0 1.83697019872103e-16 0.0 0.0 0.0 -1.0 81 1 300 185 5 298 0 0 315 273 301 83 3
 301 1.0 1.0 1.0 15 302 186 0 303 298 0 17 303 0 302 309 138 304 308 306 0 312 -
18 304 187 0 303 289 319 305 ?1 29 305 188 0 304 320 290 -3.750000000000001e-04
 -5.349999999999999e-04 -5.0e-06 16 306 189 0 ?308 295 310 307 0 0 1 30 307 190
 0 306 311 296 0 +-3.750000000000001e-04 -5.349999999999999e-04 -5.0e-06 0.0 0.0
 1.0 17 308 0 317 132 330 128 303 306 0 0 +17 309 0 302 281 303 277 312 310 0 0
 -16 310 191 0 ?312 306 321 311 0 0 1 30 311 192 0 310 322 307 0 +-3.75000000000
0001e-04 -5.349999999999999e-04 -5.0e-06 -1.83697019872103e-16 -1.0 0.0 17 312 0
 569 333 287 304 309 310 0 330 +14 313 193 315 1.0e-08 334 298 317 11 314 -0 0 3
34 298 9 50 314 194 0 313 335 299 0 +-3.750000000000001e-04 -5.349999999999999e-
04 -5.0e-06 1.83697019872103e-16 1.0 0.0 0.0 0.0 1.0 81 1 315 195 5 313 0 0 336
 300 316 83 3 316 1.0 1.0 1.0 15 317 196 0 260 313 0 17 318 0 317 324 260 319 32
3 321 0 329 -18 319 197 0 318 304 325 320 ?1 29 320 198 0 319 326 305 -5.2500000
00000002e-04 -5.349999999999999e-04 1.65e-04 16 321 199 0 ?323 310 327 322 0 0 1
 30 322 200 0 321 328 311 0 +-3.750000000000001e-04 -5.349999999999999e-04 1.65e
-04 1.0 -1.83697019872103e-16 0.0 17 323 0 560 256 561 252 318 321 0 0 +17 324 0
 317 330 318 325 329 327 0 333 -18 325 201 0 324 319 343 326 ?1 29 326 202 0 325
 344 320 -5.250000000000002e-04 -5.349999999999999e-04 -5.0e-06 16 327 203 0 ?32
9 321 331 328 0 0 1 30 328 204 0 327 332 322 0 +-5.250000000000002e-04 -5.349999
999999999e-04 -5.0e-06 0.0 0.0 1.0 17 329 0 578 564 573 319 324 327 0 561 +17 33
0 0 317 308 324 304 333 331 0 0 -16 331 205 0 ?333 327 340 332 0 0 1 30 332 206
 0 331 341 328 0 +-3.750000000000001e-04 -5.349999999999999e-04 -5.0e-06 -1.0 1.
83697019872103e-16 0.0 17 333 0 569 570 312 325 330 331 0 573 +14 334 207 336 1.
0e-08 349 313 338 11 335 +0 0 349 313 9 51 335 208 0 334 350 314 0 +-3.656709187
508252e-04 -6.149999999999999e-04 4.43407879861203e-04 -0.110431526074848 2.0285
94223987797e-17 -0.993883734673619 1.0e-05 0.993883734673619 -1.825734801588997e
-16 -0.110431526074848 81 1 336 209 5 334 0 0 351 315 337 83 3 337 0.56078428030
014 0.56078428030014 0.56078428030014 15 338 210 0 339 334 0 17 339 0 338 266 34
5 262 342 340 0 261 +16 340 211 0 ?339 331 346 341 0 0 1 31 341 212 0 340 347 33
2 0 +-3.660495720687366e-04 -6.149999999999999e-04 4.4e-04 -0.110431526074848 2.
028594223987801e-17 -0.993883734673619 0.993883734673619 -1.825734801588997e-16
 -0.110431526074848 1.0e-05 17 342 0 589 590 551 343 339 340 0 345 -18 343 213 0
 342 325 355 344 ?1 29 344 214 0 343 356 326 -3.660495720687366e-04 -6.249999999
999999e-04 4.4e-04 17 345 0 338 339 120 343 348 346 0 360 +16 346 215 0 ?345 340
 357 347 0 0 1 30 347 216 0 346 358 341 0 +-3.656709187508252e-04 -6.24999999999
9999e-04 4.43407879861203e-04 0.110431526074847 -2.028594223987775e-17 0.9938837
34673619 17 348 0 353 109 360 105 345 346 0 104 -14 349 217 351 1.0e-08 364 334
 353 11 350 -0 0 364 334 9 50 350 218 0 349 365 335 0 +-4.250000000000001e-04 -6
.249999999999999e-04 4.5e-04 1.83697019872103e-16 1.0 0.0 0.0 0.0 1.0 81 1 351 2
19 5 349 0 0 366 336 352 83 3 352 0.294117629528046 0.294117629528046 0.29411762
9528046 15 353 220 0 348 349 0 17 354 0 353 360 109 355 359 357 0 363 -18 355 22
1 0 354 343 370 356 ?1 29 356 222 0 355 371 344 3.66049572068736e-04 -6.25000000
0000001e-04 4.4e-04 16 357 223 0 ?359 346 361 358 0 0 1 30 358 224 0 357 362 347
 0 +3.66049572068736e-04 -6.250000000000001e-04 4.4e-04 0.110431526074847 -2.028
594223987775e-17 -0.993883734673619 17 359 0 368 103 375 94 354 357 0 93 +17 360
 0 353 348 354 343 363 361 0 593 -16 361 225 0 ?363 357 372 362 0 0 1 30 362 226
 0 361 373 358 0 +-4.250000000000001e-04 -6.249999999999999e-04 4.4e-04 1.0 -1.8
3697019872103e-16 0.0 17 363 0 598 599 593 355 360 361 0 375 +14 364 227 366 1.0
e-08 379 349 368 11 365 +0 0 379 349 9 51 365 228 0 364 380 350 0 +3.55305065092
2879e-04 -6.150000000000001e-04 5.36700562788032e-04 -0.110431526074843 2.028594
22398771e-17 0.99388373467362 1.0e-05 -0.99388373467362 1.825734801588998e-16 -0
.110431526074843 81 1 366 229 5 364 0 0 381 351 367 83 3 367 0.56078428030014 0.
56078428030014 0.56078428030014 15 368 230 0 103 364 0 17 369 0 368 375 103 370
 374 372 0 378 +18 370 231 0 369 355 385 371 ?1 29 371 232 0 370 386 356 3.75988
4094154719e-04 -6.150000000000001e-04 4.41104315260747e-04 16 372 233 0 ?369 361
 376 373 0 0 1 30 373 234 0 372 377 362 0 +3.652439024390239e-04 -6.150000000000
001e-04 5.378048780487809e-04 -0.110431526074847 2.028594223987775e-17 0.9938837
34673619 17 374 0 383 92 406 88 369 372 0 87 -17 375 0 368 359 369 355 378 376 0
 604 +16 376 235 0 ?375 372 387 377 0 0 1 31 377 236 0 376 388 373 0 +3.66049572
068736e-04 -6.150000000000001e-04 4.4e-04 0.110431526074848 -2.028594223987804e-
17 -0.993883734673619 -0.993883734673619 1.825734801588997e-16 -0.11043152607484
8 1.0e-05 17 378 0 619 620 604 370 375 376 0 406 -14 379 237 381 1.0e-08 410 364
 383 11 380 -0 0 410 364 9 50 380 238 0 379 411 365 0 +4.249999999999999e-04 -6.
250000000000001e-04 0.0 -0.993883734673619 4.361195752956397e-16 -0.110431526074
847 0.110431526074847 -2.028594223987775e-17 -0.993883734673619 81 1 381 239 5 3
79 0 0 412 366 382 83 3 382 0.294117629528046 0.294117629528046 0.29411762952804
6 15 383 240 0 374 379 0 17 384 0 383 390 92 385 389 387 0 395 -18 385 241 0 384
 370 391 386 ?1 29 386 242 0 385 392 371 4.066666666666671e-04 -1.35000000000000
1e-04 1.65e-04 16 387 243 0 ?389 376 393 388 0 0 1 30 388 244 0 387 394 377 0 +4
.25e-04 -1.350000000000001e-04 1.371974628597152e-20 0.110431526074847 -2.028594
223987775e-17 -0.993883734673619 17 389 0 414 86 433 82 384 387 0 81 +17 390 0 3
83 396 384 391 395 393 0 399 -18 391 245 0 390 385 401 392 ?1 29 392 246 0 391 4
02 386 4.066666666666671e-04 1.349999999999999e-04 1.65e-04 16 393 247 0 ?395 38
7 397 394 0 0 1 30 394 248 0 393 398 388 0 +4.06666666666666e-04 -6.250000000000
001e-04 1.65e-04 -4.356923598185185e-16 -1.0 -2.79994822162684e-17 17 395 0 643
 436 462 385 390 393 0 433 +17 396 0 383 68 390 64 399 397 0 63 -16 397 249 0 ?3
99 393 403 398 0 0 1 30 398 250 0 397 404 394 0 +4.25e-04 1.349999999999999e-04
 2.1279606484364e-20 -0.110431526074847 2.028594223987775e-17 0.993883734673619
 17 399 0 456 457 74 391 396 397 0 462 +17 400 0 383 406 68 401 405 403 0 409 -1
8 401 251 0 400 391 416 402 ?1 29 402 252 0 401 417 392 3.759884094154721e-04 6.
149999999999997e-04 4.411043152607485e-04 16 403 253 0 ?405 397 407 404 0 0 1 30
 404 254 0 403 408 398 0 +4.250000000000001e-04 6.149999999999997e-04 3.47193579
4817285e-20 0.110431526074847 -2.028594223987775e-17 -0.993883734673619 17 405 0
 477 62 478 53 400 403 0 68 +17 406 0 383 374 400 370 409 407 0 623 -16 407 255
 0 ?409 403 418 408 0 0 1 30 408 256 0 407 419 404 0 +3.759884094154719e-04 -6.2
50000000000001e-04 4.411043152607485e-04 4.356923598185185e-16 1.0 2.79994822162
684e-17 17 409 0 628 629 623 401 406 407 0 478 +14 410 257 412 1.0e-08 437 379 4
14 11 411 -0 0 437 379 9 50 411 258 0 410 438 380 0 +3.750000000000001e-04 -1.35
0000000000001e-04 -5.0e-06 1.83697019872103e-16 1.0 0.0 0.0 0.0 1.0 81 1 412 259
 5 410 0 0 439 381 413 83 3 413 1.0 1.0 1.0 15 414 260 0 415 410 0 17 415 0 414
 421 86 416 420 418 0 426 -18 416 261 0 415 401 422 417 ?1 29 417 262 0 416 423
 402 3.750000000000001e-04 -1.350000000000001e-04 -5.0e-06 16 418 263 0 ?420 407
 424 419 0 0 1 30 419 264 0 418 425 408 0 +3.750000000000001e-04 -1.350000000000
001e-04 -5.0e-06 0.0 0.0 1.0 17 420 0 441 80 448 76 415 418 0 75 +17 421 0 414 4
27 415 422 426 424 0 432 -18 422 265 0 421 416 428 423 ?1 29 423 266 0 422 429 4
17 5.250000000000001e-04 -1.350000000000001e-04 -5.0e-06 16 424 267 0 ?426 418 4
30 425 0 0 1 30 425 268 0 424 431 419 0 +3.750000000000001e-04 -1.35000000000000
1e-04 -5.0e-06 -1.0 1.83697019872103e-16 0.0 17 426 0 652 451 653 416 421 424 0
 448 +17 427 0 414 433 421 428 432 430 0 436 -18 428 269 0 427 422 443 429 ?1 29
 429 270 0 428 444 423 5.250000000000001e-04 -1.350000000000001e-04 1.65e-04 16
 430 271 0 ?432 424 434 431 0 0 1 30 431 272 0 430 435 425 0 +5.250000000000001e
-04 -1.350000000000001e-04 -5.0e-06 0.0 0.0 -1.0 17 432 0 661 656 647 422 427 43
0 0 653 +17 433 0 414 389 427 385 436 434 0 0 -16 434 273 0 ?436 430 445 435 0 0
 1 30 435 274 0 434 446 431 0 +3.750000000000001e-04 -1.350000000000001e-04 1.65
e-04 1.0 -1.83697019872103e-16 0.0 17 436 0 643 644 395 428 433 434 0 647 +14 43
7 275 439 1.0e-08 452 410 441 11 438 -0 0 452 410 9 50 438 276 0 437 453 411 0 +
3.750000000000001e-04 -1.350000000000001e-04 -5.0e-06 1.0 -1.83697019872103e-16
 0.0 -1.83697019872103e-16 -1.0 0.0 81 1 439 277 5 437 0 0 454 412 440 83 3 440
 1.0 1.0 1.0 15 441 278 0 442 437 0 17 442 0 441 448 80 443 447 445 0 451 -18 44
3 279 0 442 428 458 444 ?1 29 444 280 0 443 459 429 3.750000000000001e-04 1.35e-
04 -5.0e-06 16 445 281 0 ?447 434 449 446 0 0 1 30 446 282 0 445 450 435 0 +3.75
0000000000001e-04 1.35e-04 -5.0e-06 0.0 0.0 1.0 17 447 0 456 74 469 70 442 445 0
 69 +17 448 0 441 420 442 416 451 449 0 0 -16 449 283 0 ?451 445 460 450 0 0 1 3
0 450 284 0 449 461 446 0 +3.750000000000001e-04 -1.350000000000001e-04 -5.0e-06
 1.83697019872103e-16 1.0 0.0 17 451 0 652 472 426 443 448 449 0 469 +14 452 285
 454 1.0e-08 473 437 456 11 453 -0 0 473 437 9 50 453 286 0 452 474 438 0 +3.750
000000000001e-04 1.35e-04 -5.0e-06 -1.83697019872103e-16 -1.0 0.0 1.0 -1.8369701
9872103e-16 0.0 81 1 454 287 5 452 0 0 475 439 455 83 3 455 1.0 1.0 1.0 15 456 2
88 0 399 452 0 17 457 0 456 463 399 458 462 460 0 468 -18 458 289 0 457 443 464
 459 ?1 29 459 290 0 458 465 444 5.250000000000001e-04 1.349999999999999e-04 1.6
5e-04 16 460 291 0 ?462 449 466 461 0 0 1 30 461 292 0 460 467 450 0 +3.75000000
0000001e-04 1.35e-04 1.65e-04 -1.0 1.83697019872103e-16 0.0 17 462 0 643 395 644
 391 457 460 0 0 +17 463 0 456 469 457 464 468 466 0 472 -18 464 293 0 463 458 4
82 465 ?1 29 465 294 0 464 483 459 5.250000000000001e-04 1.349999999999999e-04 -
5.0e-06 16 466 295 0 ?468 460 470 467 0 0 1 30 467 296 0 466 471 461 0 +5.250000
000000001e-04 1.349999999999999e-04 -5.0e-06 0.0 0.0 1.0 17 468 0 661 647 656 45
8 463 466 0 644 +17 469 0 456 447 463 443 472 470 0 0 -16 470 297 0 ?472 466 479
 471 0 0 1 30 471 298 0 470 480 467 0 +3.750000000000001e-04 1.35e-04 -5.0e-06 1
.0 -1.83697019872103e-16 0.0 17 472 0 652 653 451 464 469 470 0 656 +14 473 299
 475 1.0e-08 488 452 477 11 474 +0 0 488 452 9 51 474 300 0 473 489 453 0 +4.150
611626532641e-04 6.149999999999997e-04 -1.104315260748466e-06 -0.110431526074847
 4.84577305884044e-17 0.993883734673619 1.0e-05 -0.993883734673619 1.82573480158
8997e-16 -0.110431526074847 81 1 475 301 5 473 0 0 490 454 476 83 3 476 0.560784
28030014 0.56078428030014 0.56078428030014 15 477 302 0 478 473 0 17 478 0 477 4
05 484 401 481 479 0 634 +16 479 303 0 ?478 470 485 480 0 0 1 31 480 304 0 479 4
86 471 0 +3.660495720687363e-04 6.149999999999997e-04 4.4e-04 0.110431526074848
 -4.845773058840469e-17 -0.993883734673619 -0.993883734673619 1.825734801588997e
-16 -0.110431526074848 1.0e-05 17 481 0 672 673 634 482 478 479 0 484 -18 482 30
5 0 499 464 494 483 ?1 29 483 306 0 482 495 465 3.660495720687362e-04 6.24999999
9999996e-04 4.4e-04 17 484 0 477 478 62 482 487 485 0 676 +16 485 307 0 ?484 479
 496 486 0 0 1 30 486 308 0 485 497 480 0 +4.150611626532641e-04 6.2499999999999
96e-04 -1.104315260748468e-06 -0.110431526074847 4.845773058840439e-17 0.9938837
34673619 17 487 0 492 51 499 47 484 485 0 0 -14 488 309 490 1.0e-08 503 473 492
 11 489 -0 0 503 473 9 50 489 310 0 488 504 474 0 +-4.249999999999999e-04 6.2500
00000000001e-04 4.5e-04 -4.38803413398104e-16 -1.0 0.0 0.0 0.0 1.0 81 1 490 311
 5 488 0 0 505 475 491 83 3 491 0.294117629528046 0.294117629528046 0.2941176295
28046 15 492 312 0 493 488 0 17 493 0 492 499 51 494 498 496 0 685 -18 494 313 0
 502 482 544 495 ?1 29 495 314 0 494 545 483 -3.660495720687361e-04 6.2500000000
00001e-04 4.4e-04 16 496 315 0 ?498 485 500 497 0 0 1 30 497 316 0 496 501 486 0
 +-3.660495720687361e-04 6.250000000000001e-04 4.4e-04 -0.110431526074847 4.8457
73058840439e-17 -0.993883734673619 17 498 0 507 45 508 36 493 496 0 0 +17 499 0
 492 487 493 482 502 500 0 481 -16 500 317 0 ?502 496 509 501 0 0 1 30 501 318 0
 500 510 497 0 +-4.249999999999999e-04 6.250000000000001e-04 4.4e-04 -1.0 4.3880
3413398104e-16 0.0 17 502 0 681 682 676 494 499 500 0 508 +14 503 319 505 1.0e-0
8 512 488 507 11 504 +0 0 512 488 9 51 504 320 0 503 513 489 0 +-4.1506116265326
37e-04 6.150000000000001e-04 -1.104315260748466e-06 -0.110431526074847 4.8457730
5884044e-17 -0.993883734673619 1.0e-05 0.993883734673619 -1.825734801588997e-16
 -0.110431526074847 81 1 505 321 5 503 0 0 514 490 506 83 3 506 0.56078428030014
 0.56078428030014 0.56078428030014 15 507 322 0 45 503 0 17 508 0 507 498 238 49
4 511 509 0 493 +16 509 323 0 ?508 500 518 510 0 0 1 31 510 324 0 509 519 501 0
 +-3.660495720687361e-04 6.150000000000001e-04 4.4e-04 -0.110431526074848 4.8457
73058840466e-17 -0.993883734673619 0.993883734673619 -1.825734801588997e-16 -0.1
10431526074848 1.0e-05 17 511 0 700 543 685 239 508 509 0 540 -14 512 325 514 1.
0e-08 521 503 516 11 513 -0 0 521 503 9 50 513 326 0 512 522 504 0 +-5.25e-04 5.
350000000000001e-04 -5.0e-06 0.0 0.0 1.0 -1.83697019872103e-16 -1.0 0.0 81 1 514
 327 5 512 0 0 523 505 515 83 3 515 1.0 1.0 1.0 15 516 328 0 202 512 0 17 517 0
 516 171 229 167 520 518 0 0 -16 518 329 0 ?520 509 527 519 0 0 1 30 519 330 0 5
18 528 510 0 +-5.249999999999998e-04 5.350000000000001e-04 -5.0e-06 -1.836970198
72103e-16 -1.0 0.0 17 520 0 525 225 177 221 517 518 0 0 +14 521 331 523 1.0e-08
 530 512 525 11 522 -0 0 530 512 9 50 522 332 0 521 531 513 0 +-5.25e-04 5.35000
0000000001e-04 -5.0e-06 1.0 -1.83697019872103e-16 0.0 -1.83697019872103e-16 -1.0
 0.0 81 1 523 333 5 521 0 0 532 514 524 83 3 524 1.0 1.0 1.0 15 525 334 0 177 52
1 0 17 526 0 525 177 225 173 529 527 0 0 -16 527 335 0 ?529 518 541 528 0 0 1 30
 528 336 0 527 542 519 0 +-5.249999999999998e-04 5.350000000000001e-04 1.65e-04
 -1.83697019872103e-16 -1.0 0.0 17 529 0 534 219 183 215 526 527 0 0 +14 530 337
 532 1.0e-08 535 521 534 11 531 +0 0 535 521 9 50 531 338 0 530 536 522 0 +-5.25
e-04 5.350000000000001e-04 1.65e-04 0.0 0.0 1.0 -1.83697019872103e-16 -1.0 0.0 8
1 1 532 339 5 530 0 0 537 523 533 83 3 533 1.0 1.0 1.0 15 534 340 0 529 530 0 14
 535 341 537 1.0e-08 556 530 539 11 536 +0 0 556 530 9 51 536 342 0 535 557 531
 0 +-3.660495720687366e-04 -6.249999999999999e-04 4.4e-04 1.83697019872103e-16 1
.0 0.0 1.000000000000003e-05 -1.0 1.83697019872103e-16 0.0 81 1 537 343 5 535 0
 0 558 532 538 83 3 538 0.56078428030014 0.56078428030014 0.56078428030014 15 53
9 344 0 540 535 0 17 540 0 539 270 552 239 543 541 0 0 +16 541 345 0 ?540 527 54
9 542 0 0 1 31 542 346 0 541 550 528 0 +-3.660495720687361e-04 6.150000000000001
e-04 4.4e-04 -5.225101987738229e-16 -1.0 0.0 -1.0 5.225101987738229e-16 0.0 1.00
0000000000003e-05 17 543 0 700 685 511 544 540 541 0 552 -18 544 347 0 543 494 5
47 545 ?1 29 545 348 0 544 548 495 -3.660495720687361e-04 6.150000000000001e-04
 4.5e-04 17 546 0 539 552 270 547 551 549 0 555 +18 547 349 0 546 544 600 548 ?1
 29 548 350 0 547 601 545 -3.660495720687366e-04 -6.149999999999999e-04 4.5e-04
 16 549 351 0 ?546 541 553 550 0 0 1 31 550 352 0 549 554 542 0 +-3.660495720687
366e-04 -6.149999999999999e-04 4.4e-04 1.83697019872103e-16 1.0 0.0 -1.0 1.83697
019872103e-16 0.0 1.000000000000003e-05 17 551 0 589 342 590 262 546 549 0 0 -17
 552 0 539 540 546 544 555 553 0 682 +16 553 353 0 ?552 549 562 554 0 0 1 30 554
 354 0 553 563 550 0 +-3.660495720687366e-04 -6.249999999999999e-04 4.5e-04 4.38
803413398104e-16 1.0 0.0 17 555 0 705 608 689 547 552 553 0 590 -14 556 355 558
 1.0e-08 565 535 560 11 557 -0 0 565 535 9 50 557 356 0 556 566 536 0 +-5.250000
000000002e-04 -5.349999999999999e-04 1.65e-04 0.0 0.0 -1.0 -1.0 1.83697019872103
e-16 0.0 81 1 558 357 5 556 0 0 567 537 559 83 3 559 1.0 1.0 1.0 15 560 358 0 25
6 556 0 17 561 0 560 323 297 319 564 562 0 0 -16 562 359 0 ?564 553 571 563 0 0
 1 30 563 360 0 562 572 554 0 +-5.250000000000002e-04 -5.349999999999999e-04 1.6
5e-04 1.83697019872103e-16 1.0 0.0 17 564 0 578 293 329 289 561 562 0 0 +14 565
 361 567 1.0e-08 574 556 569 11 566 +0 0 574 556 9 50 566 362 0 565 575 557 0 +-
5.250000000000002e-04 -5.349999999999999e-04 -5.0e-06 0.0 0.0 -1.0 -1.0 1.836970
19872103e-16 0.0 81 1 567 363 5 565 0 0 576 558 568 83 3 568 1.0 1.0 1.0 15 569
 364 0 287 565 0 17 570 0 569 287 333 283 573 571 0 0 +16 571 365 0 ?570 562 591
 572 0 0 1 30 572 366 0 571 592 563 0 +-5.250000000000002e-04 -5.349999999999999
e-04 -5.0e-06 1.83697019872103e-16 1.0 0.0 17 573 0 578 329 293 325 570 571 0 0
 -14 574 367 576 1.0e-08 579 565 578 11 575 -0 0 579 565 9 50 575 368 0 574 580
 566 0 +-5.250000000000002e-04 -5.349999999999999e-04 -5.0e-06 1.0 -1.8369701987
2103e-16 0.0 -1.83697019872103e-16 -1.0 0.0 81 1 576 369 5 574 0 0 587 567 577 8
3 3 577 1.0 1.0 1.0 15 578 370 0 293 574 0 14 579 371 587 1.0e-08 594 574 589 11
 580 +0 0 594 574 9 124 580 372 0 579 595 575 0 +581 0 126 581 FF3 3 4 4 1 1 2 2
 TFF1 4 582 583 584 585 586 45 64 582 -3.660495720687366e-04 -6.249999999999999e
-04 4.4e-04 1.0 -3.038523854117642e-04 -5.188033407854706e-04 3.65237551912972e-
04 0.830085345256754 -3.038523854117642e-04 -5.188033407854706e-04 3.65237551912
972e-04 0.830085345256754 -3.660495720687366e-04 -6.249999999999999e-04 4.4e-04
 1.0 -2.945739471297368e-04 -5.029611588277265e-04 3.587987010226305e-04 0.80473
7854124364 -2.466174485559741e-04 -4.175006871762515e-04 2.97833543616045e-04 0.
668001099482002 -2.481791861748601e-04 -4.175006871762515e-04 2.96435721615507e-
04 0.668001099482002 -2.99259159986395e-04 -5.029611588277265e-04 3.546052350210
156e-04 0.804737854124364 -2.945739471297368e-04 -4.996278254943923e-04 3.621320
343559635e-04 0.804737854124364 -2.480994962501176e-04 -4.147337360253956e-04 3.
00600494766901e-04 0.668001099482002 -2.507655491297522e-04 -4.147337360253956e-
04 2.982142633508905e-04 0.668001099482002 -3.025721057686403e-04 -4.99627825494
3923e-04 3.549733401079315e-04 0.804737854124364 -3.660495720687366e-04 -6.14999
9999999999e-04 4.5e-04 1.0 -3.082985284941951e-04 -5.105024873329028e-04 3.73538
4053655395e-04 0.830085345256754 -3.116114742764405e-04 -5.105024873329028e-04 3
.705731771191225e-04 0.830085345256754 -3.759884094154728e-04 -6.149999999999999
e-04 4.411043152607485e-04 1.0 127 2 583 4 4 127 2 584 4 4 128 2 585 0.0 1.0 128
 2 586 0.0 1.0 81 1 587 373 5 579 0 0 596 576 588 83 3 588 0.56078428030014 0.56
078428030014 0.56078428030014 15 589 374 0 590 579 0 17 590 0 589 551 342 547 59
3 591 0 605 +16 591 375 0 ?590 571 602 592 0 0 1 31 592 376 0 591 603 572 0 +-3.
660495720687366e-04 -6.149999999999999e-04 4.4e-04 -1.0 1.83697019872103e-16 1.2
24646799147354e-16 -1.83697019872103e-16 -1.0 0.0 1.000000000000003e-05 17 593 0
 598 363 605 343 590 591 0 0 -14 594 377 596 1.0e-08 609 579 598 11 595 +0 0 609
 579 9 51 595 378 0 594 610 580 0 +4.249999999999999e-04 -6.150000000000001e-04
 4.4e-04 1.0 -1.83697019872103e-16 0.0 1.000000000000003e-05 0.0 0.0 1.0 81 1 59
6 379 5 594 0 0 617 587 597 83 3 597 0.56078428030014 0.56078428030014 0.5607842
8030014 15 598 380 0 593 594 0 17 599 0 598 605 363 600 604 602 0 608 +18 600 38
1 0 599 547 630 601 ?1 29 601 382 0 600 631 548 3.66049572068736e-04 -6.15000000
0000001e-04 4.5e-04 16 602 383 0 ?599 591 606 603 0 0 1 31 603 384 0 602 607 592
 0 +3.66049572068736e-04 -6.150000000000001e-04 4.4e-04 -1.0 1.83697019872103e-1
6 0.0 0.0 0.0 1.0 1.000000000000003e-05 17 604 0 619 378 620 355 599 602 0 0 -17
 605 0 598 593 599 547 608 606 0 0 +16 606 385 0 ?605 602 621 607 0 0 1 30 607 3
86 0 606 622 603 0 +4.249999999999999e-04 -6.150000000000001e-04 4.5e-04 -1.0 1.
83697019872103e-16 0.0 17 608 0 705 638 555 600 605 606 0 620 -14 609 387 617 1.
0e-08 624 594 619 11 610 +0 0 624 594 9 124 610 388 0 609 625 595 0 +611 0 126 6
11 FF3 3 4 4 1 1 2 2 TFF1 4 612 613 614 615 616 45 64 612 3.66049572068736e-04 -
6.250000000000001e-04 4.4e-04 1.0 3.038523854117138e-04 -5.188033407853871e-04 3
.652375519129125e-04 0.830085345256619 3.038523854117138e-04 -5.188033407853871e
-04 3.652375519129125e-04 0.830085345256619 3.66049572068736e-04 -6.250000000000
001e-04 4.4e-04 1.0 2.992591599863936e-04 -5.029611588277254e-04 3.5460523502101
2e-04 0.804737854124363 2.481791861748205e-04 -4.175006871761829e-04 2.964357216
15457e-04 0.668001099481893 2.466174485559345e-04 -4.175006871761829e-04 2.97833
543615996e-04 0.668001099481893 2.945739471297357e-04 -5.029611588277254e-04 3.5
879870102263e-04 0.804737854124363 3.025721057686396e-04 -4.996278254943932e-04
 3.549733401079265e-04 0.804737854124363 2.507655491297135e-04 -4.14733736025327
e-04 2.982142633508395e-04 0.668001099481893 2.480994962500774e-04 -4.1473373602
5327e-04 3.006004947668515e-04 0.668001099481893 2.945739471297357e-04 -4.996278
254943932e-04 3.62132034355963e-04 0.804737854124363 3.759884094154729e-04 -6.15
0000000000001e-04 4.411043152607425e-04 1.0 3.116114742763929e-04 -5.10502487332
8213e-04 3.705731771190595e-04 0.830085345256619 3.082985284941469e-04 -5.105024
873328213e-04 3.735384053654784e-04 0.830085345256619 3.66049572068736e-04 -6.15
0000000000001e-04 4.5e-04 1.0 127 2 613 4 4 127 2 614 4 4 128 2 615 0.0 1.0 128
 2 616 0.0 1.0 81 1 617 389 5 609 0 0 626 596 618 83 3 618 0.56078428030014 0.56
078428030014 0.56078428030014 15 619 390 0 378 609 0 17 620 0 619 604 378 600 62
3 621 0 635 +16 621 391 0 ?620 606 632 622 0 0 1 31 622 392 0 621 633 607 0 +3.6
6049572068736e-04 -6.150000000000001e-04 4.4e-04 -1.83697019872103e-16 -1.0 0.0
 0.0 0.0 -1.0 1.000000000000003e-05 17 623 0 628 409 635 370 620 621 0 0 -14 624
 393 626 1.0e-08 639 609 628 11 625 +0 0 639 609 9 51 625 394 0 624 640 610 0 +3
.660495720687363e-04 6.249999999999996e-04 4.4e-04 4.38803413398105e-16 1.0 0.0
 1.000000000000003e-05 -1.0 4.38803413398105e-16 0.0 81 1 626 395 5 624 0 0 641
 617 627 83 3 627 0.56078428030014 0.56078428030014 0.56078428030014 15 628 396
 0 629 624 0 17 629 0 628 635 409 630 634 632 0 673 +18 630 397 0 629 600 0 631
 ?1 29 631 398 0 630 0 601 3.660495720687362e-04 6.149999999999997e-04 4.5e-04 1
6 632 399 0 ?629 621 636 633 0 0 1 31 633 400 0 632 637 622 0 +3.660495720687363
e-04 6.149999999999997e-04 4.4e-04 -5.22510198773822e-16 -1.0 0.0 -1.0 5.2251019
8773822e-16 0.0 1.000000000000003e-05 17 634 0 672 481 673 401 629 632 0 0 -17 6
35 0 628 623 629 600 638 636 0 0 +16 636 401 0 ?635 632 645 637 0 0 1 30 637 402
 0 636 646 633 0 +3.660495720687362e-04 6.249999999999996e-04 4.5e-04 -4.3880341
3398104e-16 -1.0 0.0 17 638 0 705 689 608 630 635 636 0 686 -14 639 403 641 1.0e
-08 648 624 643 11 640 +0 0 648 624 9 50 640 404 0 639 649 625 0 +5.250000000000
001e-04 -1.350000000000001e-04 1.65e-04 0.0 0.0 1.0 -1.83697019872103e-16 -1.0 0
.0 81 1 641 405 5 639 0 0 650 626 642 83 3 642 1.0 1.0 1.0 15 643 406 0 644 639
 0 17 644 0 643 462 436 458 647 645 0 0 +16 645 407 0 ?644 636 654 646 0 0 1 30
 646 408 0 645 655 637 0 +5.250000000000001e-04 -1.350000000000001e-04 1.65e-04
 1.83697019872103e-16 1.0 0.0 17 647 0 661 432 468 428 644 645 0 0 -14 648 409 6
50 1.0e-08 657 639 652 11 649 -0 0 657 639 9 50 649 410 0 648 658 640 0 +5.25000
0000000001e-04 -1.350000000000001e-04 -5.0e-06 0.0 0.0 1.0 -1.83697019872103e-16
 -1.0 0.0 81 1 650 411 5 648 0 0 659 641 651 83 3 651 1.0 1.0 1.0 15 652 412 0 4
51 648 0 17 653 0 652 426 472 422 656 654 0 0 -16 654 413 0 ?656 645 674 655 0 0
 1 30 655 414 0 654 675 646 0 +5.250000000000001e-04 -1.350000000000001e-04 -5.0
e-06 1.83697019872103e-16 1.0 0.0 17 656 0 661 468 432 464 653 654 0 0 +14 657 4
15 659 1.0e-08 662 648 661 11 658 -0 0 662 648 9 50 658 416 0 657 663 649 0 +5.2
50000000000001e-04 -1.350000000000001e-04 -5.0e-06 -1.0 1.83697019872103e-16 0.0
 0.0 0.0 -1.0 81 1 659 417 5 657 0 0 670 650 660 83 3 660 1.0 1.0 1.0 15 661 418
 0 432 657 0 14 662 419 670 1.0e-08 677 657 672 11 663 +0 0 677 657 9 124 663 42
0 0 662 678 658 0 +664 0 126 664 FF3 3 4 4 1 1 2 2 TFF1 4 665 666 667 668 669 45
 64 665 3.759884094154721e-04 6.149999999999997e-04 4.411043152607485e-04 1.0 3.
116114742764406e-04 5.105024873329033e-04 3.70573177119122e-04 0.830085345256754
 3.082985284941946e-04 5.105024873329033e-04 3.735384053655395e-04 0.83008534525
6754 3.660495720687362e-04 6.149999999999997e-04 4.5e-04 1.0 3.025721057686403e-
04 4.996278254943938e-04 3.549733401079315e-04 0.804737854124364 2.5076554912975
22e-04 4.147337360253951e-04 2.9821426335089e-04 0.668001099482002 2.48099496250
1172e-04 4.147337360253951e-04 3.00600494766901e-04 0.668001099482002 2.94573947
1297364e-04 4.996278254943938e-04 3.62132034355964e-04 0.804737854124364 2.99259
1599863955e-04 5.029611588277271e-04 3.546052350210156e-04 0.804737854124364 2.4
81791861748602e-04 4.17500687176251e-04 2.96435721615507e-04 0.668001099482002 2
.466174485559742e-04 4.17500687176251e-04 2.97833543616045e-04 0.668001099482002
 2.945739471297364e-04 5.029611588277271e-04 3.587987010226305e-04 0.80473785412
4364 3.660495720687362e-04 6.249999999999996e-04 4.4e-04 1.0 3.038523854117636e-
04 5.188033407854709e-04 3.652375519129715e-04 0.830085345256754 3.0385238541176
36e-04 5.188033407854709e-04 3.652375519129715e-04 0.830085345256754 3.660495720
687362e-04 6.249999999999996e-04 4.4e-04 1.0 127 2 666 4 4 127 2 667 4 4 128 2 6
68 0.0 1.0 128 2 669 0.0 1.0 81 1 670 421 5 662 0 0 679 659 671 83 3 671 0.56078
428030014 0.56078428030014 0.56078428030014 15 672 422 0 481 662 0 17 673 0 672
 634 481 630 676 674 0 638 +16 674 423 0 ?673 654 683 675 0 0 1 31 675 424 0 674
 684 655 0 +3.660495720687363e-04 6.149999999999997e-04 4.4e-04 1.0 -1.836970198
72103e-16 -1.224646799147352e-16 -1.83697019872103e-16 -1.0 0.0 1.00000000000000
3e-05 17 676 0 681 502 686 482 673 674 0 0 -14 677 425 679 1.0e-08 690 662 681 1
1 678 +0 0 690 662 9 51 678 426 0 677 691 663 0 +4.250000000000001e-04 6.1499999
99999997e-04 4.4e-04 -1.0 1.83697019872103e-16 0.0 1.000000000000003e-05 -1.8369
7019872103e-16 -1.0 0.0 81 1 679 427 5 677 0 0 698 670 680 83 3 680 0.5607842803
0014 0.56078428030014 0.56078428030014 15 681 428 0 682 677 0 17 682 0 681 686 5
02 544 685 683 0 689 +16 683 429 0 ?682 674 687 684 0 0 1 31 684 430 0 683 688 6
75 0 +-3.660495720687361e-04 6.150000000000001e-04 4.4e-04 1.0 -1.83697019872103
e-16 0.0 -1.83697019872103e-16 -1.0 0.0 1.000000000000003e-05 17 685 0 700 511 5
43 494 682 683 0 0 -17 686 0 681 676 682 630 689 687 0 0 +16 687 431 0 ?686 683
 0 688 0 0 1 30 688 432 0 687 0 684 0 +4.250000000000001e-04 6.149999999999997e-
04 4.5e-04 1.0 -4.38803413398104e-16 0.0 17 689 0 705 555 638 544 686 687 0 0 -1
4 690 433 698 1.0e-08 701 677 700 11 691 +0 0 701 677 9 124 691 434 0 690 702 67
8 0 +692 0 126 692 FF3 3 4 4 1 1 2 2 TFF1 4 693 694 695 696 697 45 64 693 -3.660
495720687361e-04 6.150000000000001e-04 4.5e-04 1.0 -3.082985284941942e-04 5.1050
2487332903e-04 3.73538405365539e-04 0.830085345256753 -3.116114742764396e-04 5.1
0502487332903e-04 3.705731771191216e-04 0.830085345256753 -3.759884094154723e-04
 6.150000000000001e-04 4.411043152607485e-04 1.0 -2.945739471297367e-04 4.996278
254943947e-04 3.62132034355964e-04 0.804737854124365 -2.480994962501173e-04 4.14
7337360253955e-04 3.00600494766901e-04 0.668001099482002 -2.507655491297519e-04
 4.147337360253955e-04 2.9821426335089e-04 0.668001099482002 -3.025721057686404e
-04 4.996278254943947e-04 3.54973340107932e-04 0.804737854124365 -2.945739471297
367e-04 5.029611588277282e-04 3.58798701022631e-04 0.804737854124365 -2.46617448
5559737e-04 4.175006871762514e-04 2.97833543616045e-04 0.668001099482002 -2.4817
91861748597e-04 4.175006871762514e-04 2.964357216155065e-04 0.668001099482002 -2
.992591599863949e-04 5.029611588277282e-04 3.54605235021016e-04 0.80473785412436
5 -3.660495720687361e-04 6.250000000000001e-04 4.4e-04 1.0 -3.038523854117633e-0
4 5.188033407854705e-04 3.652375519129709e-04 0.830085345256753 -3.0385238541176
34e-04 5.188033407854705e-04 3.652375519129715e-04 0.830085345256753 -3.66049572
0687361e-04 6.250000000000001e-04 4.4e-04 1.0 127 2 694 4 4 127 2 695 4 4 128 2
 696 0.0 1.0 128 2 697 0.0 1.0 81 1 698 435 5 690 0 0 703 679 699 83 3 699 0.560
78428030014 0.56078428030014 0.56078428030014 15 700 436 0 685 690 0 14 701 437
 703 1.0e-08 0 690 705 11 702 -0 0 0 690 9 50 702 438 0 701 0 691 0 +4.250000000
000001e-04 6.249999999999996e-04 4.5e-04 0.0 0.0 -1.0 -1.0 1.83697019872103e-16
 0.0 81 1 703 439 5 701 0 0 0 698 704 83 3 704 0.294117629528046 0.2941176295280
46 0.294117629528046 15 705 440 0 555 701 0 1 0 
